<svg width="42" height="42" viewBox="0 0 42 42" fill="none" xmlns="http://www.w3.org/2000/svg" xmlns:xlink="http://www.w3.org/1999/xlink">
<path d="M20.183,0.151C16.227,0.151 12.361,1.324 9.072,3.522C5.783,5.72 3.219,8.843 1.706,12.498C0.192,16.152 -0.204,20.174 0.567,24.053C1.339,27.933 3.244,31.496 6.041,34.294C8.838,37.091 12.402,38.995 16.281,39.767C20.161,40.539 24.182,40.143 27.837,38.629C31.491,37.115 34.615,34.552 36.813,31.263C39.01,27.974 40.183,24.107 40.183,20.151C40.183,17.525 39.666,14.924 38.661,12.498C37.656,10.071 36.183,7.866 34.325,6.009C32.468,4.152 30.263,2.679 27.837,1.674C25.41,0.669 22.81,0.151 20.183,0.151L20.183,0.151ZM20.183,36.151C17.019,36.151 13.925,35.213 11.294,33.455C8.663,31.697 6.612,29.198 5.401,26.274C4.19,23.351 3.873,20.134 4.491,17.03C5.108,13.926 6.632,11.075 8.869,8.838C11.107,6.6 13.958,5.076 17.062,4.459C20.165,3.841 23.383,4.158 26.306,5.369C29.23,6.58 31.729,8.631 33.487,11.262C35.245,13.893 36.183,16.987 36.183,20.151C36.183,24.395 34.498,28.465 31.497,31.465C28.496,34.466 24.427,36.151 20.183,36.151L20.183,36.151Z" fill="#181725"/>
<circle cx="20.183" cy="28.151" r="2" fill="#181725"/>
<path d="M20.183,10.151C19.653,10.151 19.144,10.362 18.769,10.737C18.394,11.112 18.183,11.621 18.183,12.151L18.183,22.151C18.183,22.682 18.394,23.191 18.769,23.566C19.144,23.941 19.653,24.151 20.183,24.151C20.714,24.151 21.222,23.941 21.597,23.566C21.972,23.191 22.183,22.682 22.183,22.151L22.183,12.151C22.183,11.621 21.972,11.112 21.597,10.737C21.222,10.362 20.714,10.151 20.183,10.151Z" fill="#181725"/>
</svg>
