<svg width="38" height="42" viewBox="0 0 38 42" fill="none" xmlns="http://www.w3.org/2000/svg" xmlns:xlink="http://www.w3.org/1999/xlink">
<path d="M35.222,26.708L31.622,23.088L31.622,14.169C31.67,10.857 30.518,7.639 28.379,5.11C26.239,2.581 23.257,0.912 19.983,0.41C18.083,0.16 16.151,0.317 14.317,0.873C12.482,1.428 10.787,2.369 9.345,3.631C7.903,4.894 6.747,6.449 5.953,8.194C5.16,9.938 4.747,11.832 4.744,13.749L4.744,23.088L1.144,26.708C0.692,27.168 0.385,27.751 0.263,28.384C0.14,29.017 0.206,29.672 0.454,30.267C0.702,30.863 1.119,31.372 1.654,31.731C2.19,32.091 2.819,32.284 3.464,32.288L10.184,32.288L10.184,32.968C10.277,34.998 11.171,36.909 12.671,38.281C14.17,39.653 16.153,40.374 18.183,40.287C20.214,40.374 22.196,39.653 23.695,38.281C25.195,36.909 26.089,34.998 26.183,32.968L26.183,32.288L32.902,32.288C33.547,32.284 34.176,32.091 34.712,31.731C35.247,31.372 35.665,30.863 35.912,30.267C36.16,29.672 36.226,29.017 36.104,28.384C35.981,27.751 35.674,27.168 35.222,26.708L35.222,26.708ZM22.183,32.968C22.072,33.93 21.594,34.812 20.849,35.43C20.104,36.049 19.149,36.356 18.183,36.288C17.217,36.356 16.262,36.049 15.517,35.43C14.772,34.812 14.294,33.93 14.183,32.968L14.183,32.288L22.183,32.288L22.183,32.968ZM5.204,28.288L7.564,25.928C7.938,25.556 8.235,25.114 8.438,24.626C8.64,24.139 8.744,23.616 8.744,23.088L8.744,13.749C8.745,12.4 9.034,11.067 9.593,9.839C10.152,8.611 10.967,7.516 11.984,6.629C12.986,5.721 14.175,5.041 15.466,4.637C16.757,4.233 18.121,4.114 19.463,4.29C21.776,4.665 23.875,5.864 25.374,7.664C26.874,9.465 27.672,11.746 27.623,14.089L27.623,23.088C27.619,23.615 27.72,24.137 27.919,24.624C28.118,25.111 28.412,25.555 28.782,25.928L31.162,28.288L5.204,28.288Z" fill="#181725"/>
</svg>
