<svg width="44" height="32" viewBox="0 0 44 32" fill="none" xmlns="http://www.w3.org/2000/svg" xmlns:xlink="http://www.w3.org/1999/xlink">
<path d="M40.388,0L20.739,0L1.09,0C0.005,0 -0.875,0.88 -0.875,1.965L-0.875,30.035C-0.875,31.12 0.005,32 1.09,32L20.739,32L40.388,32C41.473,32 42.353,31.12 42.353,30.035L42.353,1.965C42.353,0.88 41.473,0 40.388,0Z" fill="#5286F9"/>
<path d="M22.241,10.408C22.673,10.903 23.049,11.448 23.358,12.033C23.985,13.218 24.342,14.568 24.342,16C24.342,17.432 23.985,18.781 23.358,19.967C23.049,20.552 22.673,21.097 22.241,21.591C21.796,22.101 21.293,22.556 20.74,22.948C22.129,23.933 23.824,24.515 25.652,24.515C30.347,24.515 34.167,20.695 34.167,16C34.167,11.305 30.347,7.485 25.652,7.485C23.824,7.485 22.129,8.067 20.74,9.052C21.293,9.444 21.796,9.899 22.241,10.408Z" fill="#FFB655"/>
<path d="M23.359,12.033C23.049,11.448 22.673,10.903 22.241,10.408C21.797,9.899 21.293,9.444 20.741,9.052C19.352,8.067 17.657,7.486 15.828,7.486C11.133,7.486 7.314,11.305 7.314,16C7.314,20.695 11.133,24.515 15.828,24.515C17.657,24.515 19.352,23.933 20.741,22.948C21.293,22.557 21.797,22.101 22.241,21.592C22.673,21.097 23.049,20.552 23.359,19.967C23.986,18.782 24.343,17.432 24.343,16C24.343,14.568 23.986,13.219 23.359,12.033Z" fill="#D8143A"/>
<path d="M15.827,24.515C11.132,24.515 7.312,20.695 7.312,16C7.312,11.305 11.132,7.486 15.827,7.486C17.655,7.486 19.35,8.067 20.739,9.052L20.739,0L1.09,0C0.005,0 -0.875,0.88 -0.875,1.965L-0.875,30.035C-0.875,31.12 0.005,32 1.09,32L20.739,32L20.739,22.948C19.35,23.933 17.655,24.515 15.827,24.515Z" fill="#3D6DEB"/>
</svg>
