<svg width="38" height="22" viewBox="0 0 38 22" fill="none" xmlns="http://www.w3.org/2000/svg" xmlns:xlink="http://www.w3.org/1999/xlink">
<path d="M35.054,-0.999L32.846,-0.999C31.627,-0.999 30.638,-0.104 30.638,1.001L30.638,18.334C30.638,19.439 31.627,20.334 32.846,20.334L35.054,20.334C36.273,20.334 37.261,19.439 37.261,18.334L37.261,1.001C37.261,-0.104 36.273,-0.999 35.054,-0.999ZM22.542,3.667L24.749,3.667C25.969,3.667 26.957,4.563 26.957,5.667L26.957,18.334C26.957,19.439 25.969,20.334 24.749,20.334L22.542,20.334C21.323,20.334 20.334,19.439 20.334,18.334L20.334,5.667C20.334,4.563 21.323,3.667 22.542,3.667ZM14.445,8.334L12.238,8.334C11.019,8.334 10.03,9.229 10.03,10.334L10.03,18.334C10.03,19.439 11.019,20.334 12.238,20.334L14.445,20.334C15.665,20.334 16.653,19.439 16.653,18.334L16.653,10.334C16.653,9.229 15.665,8.334 14.445,8.334ZM4.141,12.334L1.934,12.334C0.714,12.334 -0.274,13.229 -0.274,14.334L-0.274,18.334C-0.274,19.439 0.714,20.334 1.934,20.334L4.141,20.334C5.361,20.334 6.349,19.439 6.349,18.334L6.349,14.334C6.349,13.229 5.361,12.334 4.141,12.334Z" clip-rule="evenodd" fill-rule="evenodd" fill="#000000"/>
</svg>
