<svg width="38" height="22" viewBox="0 0 38 22" fill="none" xmlns="http://www.w3.org/2000/svg" xmlns:xlink="http://www.w3.org/1999/xlink">
<path d="M34.607,-0.667L32.4,-0.667C31.18,-0.667 30.192,0.229 30.192,1.333L30.192,18.667C30.192,19.771 31.18,20.667 32.4,20.667L34.607,20.667C35.826,20.667 36.815,19.771 36.815,18.667L36.815,1.333C36.815,0.229 35.826,-0.667 34.607,-0.667ZM22.095,4L24.303,4C25.522,4 26.511,4.896 26.511,6L26.511,18.667C26.511,19.771 25.522,20.667 24.303,20.667L22.095,20.667C20.876,20.667 19.888,19.771 19.888,18.667L19.888,6C19.888,4.896 20.876,4 22.095,4ZM13.999,8.667L11.791,8.667C10.572,8.667 9.584,9.562 9.584,10.667L9.584,18.667C9.584,19.771 10.572,20.667 11.791,20.667L13.999,20.667C15.218,20.667 16.207,19.771 16.207,18.667L16.207,10.667C16.207,9.562 15.218,8.667 13.999,8.667ZM3.695,12.667L1.487,12.667C0.268,12.667 -0.72,13.562 -0.72,14.667L-0.72,18.667C-0.72,19.771 0.268,20.667 1.487,20.667L3.695,20.667C4.914,20.667 5.903,19.771 5.903,18.667L5.903,14.667C5.903,13.562 4.914,12.667 3.695,12.667Z" clip-rule="evenodd" fill-rule="evenodd" fill="#181725"/>
</svg>
