<svg width="40" height="22" viewBox="0 0 40 22" fill="none" xmlns="http://www.w3.org/2000/svg" xmlns:xlink="http://www.w3.org/1999/xlink">
<path d="M35.854,-0.667L33.647,-0.667C32.427,-0.667 31.439,0.229 31.439,1.333L31.439,18.667C31.439,19.771 32.427,20.667 33.647,20.667L35.854,20.667C37.074,20.667 38.062,19.771 38.062,18.667L38.062,1.333C38.062,0.229 37.074,-0.667 35.854,-0.667ZM23.343,4L25.55,4C26.77,4 27.758,4.896 27.758,6L27.758,18.667C27.758,19.771 26.77,20.667 25.55,20.667L23.343,20.667C22.123,20.667 21.135,19.771 21.135,18.667L21.135,6C21.135,4.896 22.123,4 23.343,4ZM15.246,8.667L13.039,8.667C11.819,8.667 10.831,9.562 10.831,10.667L10.831,18.667C10.831,19.771 11.819,20.667 13.039,20.667L15.246,20.667C16.465,20.667 17.454,19.771 17.454,18.667L17.454,10.667C17.454,9.562 16.465,8.667 15.246,8.667ZM4.942,12.667L2.735,12.667C1.515,12.667 0.527,13.562 0.527,14.667L0.527,18.667C0.527,19.771 1.515,20.667 2.735,20.667L4.942,20.667C6.161,20.667 7.15,19.771 7.15,18.667L7.15,14.667C7.15,13.562 6.161,12.667 4.942,12.667Z" clip-rule="evenodd" fill-rule="evenodd" fill="#FFFFFF"/>
</svg>
