<svg width="38" height="22" viewBox="0 0 38 22" fill="none" xmlns="http://www.w3.org/2000/svg" xmlns:xlink="http://www.w3.org/1999/xlink">
<path d="M34.537,-0.999L32.33,-0.999C31.11,-0.999 30.122,-0.104 30.122,1.001L30.122,18.334C30.122,19.439 31.11,20.334 32.33,20.334L34.537,20.334C35.756,20.334 36.745,19.439 36.745,18.334L36.745,1.001C36.745,-0.104 35.756,-0.999 34.537,-0.999ZM22.025,3.668L24.233,3.668C25.452,3.668 26.441,4.563 26.441,5.668L26.441,18.334C26.441,19.439 25.452,20.334 24.233,20.334L22.025,20.334C20.806,20.334 19.818,19.439 19.818,18.334L19.818,5.668C19.818,4.563 20.806,3.668 22.025,3.668ZM13.929,8.334L11.721,8.334C10.502,8.334 9.514,9.23 9.514,10.334L9.514,18.334C9.514,19.439 10.502,20.334 11.721,20.334L13.929,20.334C15.148,20.334 16.137,19.439 16.137,18.334L16.137,10.334C16.137,9.23 15.148,8.334 13.929,8.334ZM3.625,12.334L1.417,12.334C0.198,12.334 -0.79,13.23 -0.79,14.334L-0.79,18.334C-0.79,19.439 0.198,20.334 1.417,20.334L3.625,20.334C4.844,20.334 5.833,19.439 5.833,18.334L5.833,14.334C5.833,13.23 4.844,12.334 3.625,12.334Z" clip-rule="evenodd" fill-rule="evenodd" fill="#000000"/>
</svg>
