<svg width="38" height="22" viewBox="0 0 38 22" fill="none" xmlns="http://www.w3.org/2000/svg" xmlns:xlink="http://www.w3.org/1999/xlink">
<path d="M35.61,-0.667L33.403,-0.667C32.183,-0.667 31.195,0.229 31.195,1.333L31.195,18.667C31.195,19.771 32.183,20.667 33.403,20.667L35.61,20.667C36.83,20.667 37.818,19.771 37.818,18.667L37.818,1.333C37.818,0.229 36.83,-0.667 35.61,-0.667ZM23.099,4L25.306,4C26.526,4 27.514,4.896 27.514,6L27.514,18.667C27.514,19.771 26.526,20.667 25.306,20.667L23.099,20.667C21.879,20.667 20.891,19.771 20.891,18.667L20.891,6C20.891,4.896 21.879,4 23.099,4ZM15.002,8.667L12.794,8.667C11.575,8.667 10.587,9.562 10.587,10.667L10.587,18.667C10.587,19.771 11.575,20.667 12.794,20.667L15.002,20.667C16.221,20.667 17.21,19.771 17.21,18.667L17.21,10.667C17.21,9.562 16.221,8.667 15.002,8.667ZM4.698,12.667L2.49,12.667C1.271,12.667 0.283,13.562 0.283,14.667L0.283,18.667C0.283,19.771 1.271,20.667 2.49,20.667L4.698,20.667C5.917,20.667 6.906,19.771 6.906,18.667L6.906,14.667C6.906,13.562 5.917,12.667 4.698,12.667Z" clip-rule="evenodd" fill-rule="evenodd" fill="#000000"/>
</svg>
