<svg width="38" height="22" viewBox="0 0 38 22" fill="none" xmlns="http://www.w3.org/2000/svg" xmlns:xlink="http://www.w3.org/1999/xlink">
<path d="M34.412,-0.999L32.205,-0.999C30.985,-0.999 29.997,-0.104 29.997,1.001L29.997,18.334C29.997,19.439 30.985,20.334 32.205,20.334L34.412,20.334C35.632,20.334 36.62,19.439 36.62,18.334L36.62,1.001C36.62,-0.104 35.632,-0.999 34.412,-0.999ZM21.901,3.668L24.108,3.668C25.328,3.668 26.316,4.563 26.316,5.668L26.316,18.334C26.316,19.439 25.328,20.334 24.108,20.334L21.901,20.334C20.681,20.334 19.693,19.439 19.693,18.334L19.693,5.668C19.693,4.563 20.681,3.668 21.901,3.668ZM13.804,8.334L11.596,8.334C10.377,8.334 9.389,9.23 9.389,10.334L9.389,18.334C9.389,19.439 10.377,20.334 11.596,20.334L13.804,20.334C15.023,20.334 16.012,19.439 16.012,18.334L16.012,10.334C16.012,9.23 15.023,8.334 13.804,8.334ZM3.5,12.334L1.292,12.334C0.073,12.334 -0.915,13.23 -0.915,14.334L-0.915,18.334C-0.915,19.439 0.073,20.334 1.292,20.334L3.5,20.334C4.719,20.334 5.708,19.439 5.708,18.334L5.708,14.334C5.708,13.23 4.719,12.334 3.5,12.334Z" clip-rule="evenodd" fill-rule="evenodd" fill="#000000"/>
</svg>
