<svg width="38" height="22" viewBox="0 0 38 22" fill="none" xmlns="http://www.w3.org/2000/svg" xmlns:xlink="http://www.w3.org/1999/xlink">
<path d="M35.493,-0.999L33.286,-0.999C32.066,-0.999 31.078,-0.104 31.078,1.001L31.078,18.334C31.078,19.439 32.066,20.334 33.286,20.334L35.493,20.334C36.712,20.334 37.701,19.439 37.701,18.334L37.701,1.001C37.701,-0.104 36.712,-0.999 35.493,-0.999ZM22.981,3.668L25.189,3.668C26.408,3.668 27.397,4.563 27.397,5.668L27.397,18.334C27.397,19.439 26.408,20.334 25.189,20.334L22.981,20.334C21.762,20.334 20.774,19.439 20.774,18.334L20.774,5.668C20.774,4.563 21.762,3.668 22.981,3.668ZM14.885,8.334L12.677,8.334C11.458,8.334 10.47,9.23 10.47,10.334L10.47,18.334C10.47,19.439 11.458,20.334 12.677,20.334L14.885,20.334C16.104,20.334 17.093,19.439 17.093,18.334L17.093,10.334C17.093,9.23 16.104,8.334 14.885,8.334ZM4.581,12.334L2.373,12.334C1.154,12.334 0.166,13.23 0.166,14.334L0.166,18.334C0.166,19.439 1.154,20.334 2.373,20.334L4.581,20.334C5.8,20.334 6.789,19.439 6.789,18.334L6.789,14.334C6.789,13.23 5.8,12.334 4.581,12.334Z" clip-rule="evenodd" fill-rule="evenodd" fill="#000000"/>
</svg>
