<svg width="40" height="22" viewBox="0 0 40 22" fill="none" xmlns="http://www.w3.org/2000/svg" xmlns:xlink="http://www.w3.org/1999/xlink">
<path d="M36.218,-0.667L34.011,-0.667C32.791,-0.667 31.803,0.229 31.803,1.333L31.803,18.667C31.803,19.771 32.791,20.667 34.011,20.667L36.218,20.667C37.437,20.667 38.426,19.771 38.426,18.667L38.426,1.333C38.426,0.229 37.437,-0.667 36.218,-0.667ZM23.706,4L25.914,4C27.133,4 28.122,4.896 28.122,6L28.122,18.667C28.122,19.771 27.133,20.667 25.914,20.667L23.706,20.667C22.487,20.667 21.499,19.771 21.499,18.667L21.499,6C21.499,4.896 22.487,4 23.706,4ZM15.61,8.667L13.402,8.667C12.183,8.667 11.195,9.562 11.195,10.667L11.195,18.667C11.195,19.771 12.183,20.667 13.402,20.667L15.61,20.667C16.829,20.667 17.818,19.771 17.818,18.667L17.818,10.667C17.818,9.562 16.829,8.667 15.61,8.667ZM5.306,12.667L3.098,12.667C1.879,12.667 0.891,13.562 0.891,14.667L0.891,18.667C0.891,19.771 1.879,20.667 3.098,20.667L5.306,20.667C6.525,20.667 7.514,19.771 7.514,18.667L7.514,14.667C7.514,13.562 6.525,12.667 5.306,12.667Z" clip-rule="evenodd" fill-rule="evenodd" fill="#000000"/>
</svg>
