<svg width="38" height="22" viewBox="0 0 38 22" fill="none" xmlns="http://www.w3.org/2000/svg" xmlns:xlink="http://www.w3.org/1999/xlink">
<path d="M34.921,-0.667L32.713,-0.667C31.494,-0.667 30.505,0.229 30.505,1.333L30.505,18.667C30.505,19.771 31.494,20.667 32.713,20.667L34.921,20.667C36.14,20.667 37.128,19.771 37.128,18.667L37.128,1.333C37.128,0.229 36.14,-0.667 34.921,-0.667ZM22.409,4L24.616,4C25.836,4 26.824,4.896 26.824,6L26.824,18.667C26.824,19.771 25.836,20.667 24.616,20.667L22.409,20.667C21.19,20.667 20.201,19.771 20.201,18.667L20.201,6C20.201,4.896 21.19,4 22.409,4ZM14.312,8.667L12.105,8.667C10.886,8.667 9.897,9.562 9.897,10.667L9.897,18.667C9.897,19.771 10.886,20.667 12.105,20.667L14.312,20.667C15.532,20.667 16.52,19.771 16.52,18.667L16.52,10.667C16.52,9.562 15.532,8.667 14.312,8.667ZM4.008,12.667L1.801,12.667C0.581,12.667 -0.407,13.562 -0.407,14.667L-0.407,18.667C-0.407,19.771 0.581,20.667 1.801,20.667L4.008,20.667C5.228,20.667 6.216,19.771 6.216,18.667L6.216,14.667C6.216,13.562 5.228,12.667 4.008,12.667Z" clip-rule="evenodd" fill-rule="evenodd" fill="#000000"/>
</svg>
