<svg width="40" height="22" viewBox="0 0 40 22" fill="none" xmlns="http://www.w3.org/2000/svg" xmlns:xlink="http://www.w3.org/1999/xlink">
<path d="M36.117,-0.999L33.909,-0.999C32.69,-0.999 31.701,-0.104 31.701,1.001L31.701,18.334C31.701,19.439 32.69,20.334 33.909,20.334L36.117,20.334C37.336,20.334 38.324,19.439 38.324,18.334L38.324,1.001C38.324,-0.104 37.336,-0.999 36.117,-0.999ZM23.605,3.667L25.812,3.667C27.032,3.667 28.02,4.563 28.02,5.667L28.02,18.334C28.02,19.439 27.032,20.334 25.812,20.334L23.605,20.334C22.386,20.334 21.397,19.439 21.397,18.334L21.397,5.667C21.397,4.563 22.386,3.667 23.605,3.667ZM15.508,8.334L13.301,8.334C12.082,8.334 11.093,9.229 11.093,10.334L11.093,18.334C11.093,19.439 12.082,20.334 13.301,20.334L15.508,20.334C16.728,20.334 17.716,19.439 17.716,18.334L17.716,10.334C17.716,9.229 16.728,8.334 15.508,8.334ZM5.204,12.334L2.997,12.334C1.777,12.334 0.789,13.229 0.789,14.334L0.789,18.334C0.789,19.439 1.777,20.334 2.997,20.334L5.204,20.334C6.424,20.334 7.412,19.439 7.412,18.334L7.412,14.334C7.412,13.229 6.424,12.334 5.204,12.334Z" clip-rule="evenodd" fill-rule="evenodd" fill="#000000"/>
</svg>
