<svg width="38" height="22" viewBox="0 0 38 22" fill="none" xmlns="http://www.w3.org/2000/svg" xmlns:xlink="http://www.w3.org/1999/xlink">
<path d="M34.827,-0.667L32.62,-0.667C31.4,-0.667 30.412,0.229 30.412,1.333L30.412,18.667C30.412,19.771 31.4,20.667 32.62,20.667L34.827,20.667C36.046,20.667 37.035,19.771 37.035,18.667L37.035,1.333C37.035,0.229 36.046,-0.667 34.827,-0.667ZM22.315,4L24.523,4C25.742,4 26.731,4.896 26.731,6L26.731,18.667C26.731,19.771 25.742,20.667 24.523,20.667L22.315,20.667C21.096,20.667 20.108,19.771 20.108,18.667L20.108,6C20.108,4.896 21.096,4 22.315,4ZM14.219,8.667L12.011,8.667C10.792,8.667 9.804,9.562 9.804,10.667L9.804,18.667C9.804,19.771 10.792,20.667 12.011,20.667L14.219,20.667C15.438,20.667 16.427,19.771 16.427,18.667L16.427,10.667C16.427,9.562 15.438,8.667 14.219,8.667ZM3.915,12.667L1.707,12.667C0.488,12.667 -0.5,13.562 -0.5,14.667L-0.5,18.667C-0.5,19.771 0.488,20.667 1.707,20.667L3.915,20.667C5.134,20.667 6.123,19.771 6.123,18.667L6.123,14.667C6.123,13.562 5.134,12.667 3.915,12.667Z" clip-rule="evenodd" fill-rule="evenodd" fill="#000000"/>
</svg>
