<svg width="38" height="22" viewBox="0 0 38 22" fill="none" xmlns="http://www.w3.org/2000/svg" xmlns:xlink="http://www.w3.org/1999/xlink">
<path d="M34.626,-0.999L32.419,-0.999C31.199,-0.999 30.211,-0.104 30.211,1.001L30.211,18.334C30.211,19.439 31.199,20.334 32.419,20.334L34.626,20.334C35.845,20.334 36.834,19.439 36.834,18.334L36.834,1.001C36.834,-0.104 35.845,-0.999 34.626,-0.999ZM22.114,3.668L24.322,3.668C25.541,3.668 26.53,4.563 26.53,5.668L26.53,18.334C26.53,19.439 25.541,20.334 24.322,20.334L22.114,20.334C20.895,20.334 19.907,19.439 19.907,18.334L19.907,5.668C19.907,4.563 20.895,3.668 22.114,3.668ZM14.018,8.334L11.81,8.334C10.591,8.334 9.603,9.23 9.603,10.334L9.603,18.334C9.603,19.439 10.591,20.334 11.81,20.334L14.018,20.334C15.237,20.334 16.226,19.439 16.226,18.334L16.226,10.334C16.226,9.23 15.237,8.334 14.018,8.334ZM3.714,12.334L1.506,12.334C0.287,12.334 -0.701,13.23 -0.701,14.334L-0.701,18.334C-0.701,19.439 0.287,20.334 1.506,20.334L3.714,20.334C4.933,20.334 5.922,19.439 5.922,18.334L5.922,14.334C5.922,13.23 4.933,12.334 3.714,12.334Z" clip-rule="evenodd" fill-rule="evenodd" fill="#000000"/>
</svg>
