<svg width="30" height="28" viewBox="0 0 30 28" fill="none" xmlns="http://www.w3.org/2000/svg" xmlns:xlink="http://www.w3.org/1999/xlink">
<path d="M22.309,23.584C22.703,23.984 22.922,24.51 22.9,25.058C22.9,25.605 22.681,26.11 22.265,26.51C21.871,26.889 21.323,27.121 20.753,27.121C20.184,27.121 19.636,26.932 19.22,26.553L6.823,14.637C6.626,14.447 6.472,14.216 6.363,13.963C6.253,13.71 6.188,13.437 6.188,13.163C6.188,12.889 6.253,12.616 6.363,12.342C6.472,12.089 6.626,11.858 6.823,11.668L19.22,-0.247C19.417,-0.437 19.658,-0.605 19.921,-0.711C20.206,-0.816 20.491,-0.879 20.775,-0.879C21.06,-0.879 21.367,-0.837 21.63,-0.732C21.892,-0.626 22.133,-0.458 22.352,-0.268C22.55,-0.079 22.703,0.174 22.812,0.426C22.944,0.679 22.988,0.953 22.988,1.247C22.988,1.521 22.922,1.795 22.812,2.047C22.703,2.3 22.528,2.532 22.309,2.742L11.466,13.163L13.525,15.121L22.309,23.584Z" transform="rotate(-180 14.588 13.121)" fill="#181725" stroke="#181725" stroke-width="0.2" stroke-miterlimit="3.999327"/>
<path d="M22.309,23.584C22.703,23.984 22.922,24.51 22.9,25.058C22.9,25.605 22.681,26.11 22.265,26.51C21.871,26.889 21.323,27.121 20.753,27.121C20.184,27.121 19.636,26.932 19.22,26.553L6.823,14.637C6.626,14.447 6.472,14.216 6.363,13.963C6.253,13.71 6.188,13.437 6.188,13.163C6.188,12.889 6.253,12.616 6.363,12.342C6.472,12.089 6.626,11.858 6.823,11.668L19.22,-0.247C19.417,-0.437 19.658,-0.605 19.921,-0.711C20.206,-0.816 20.491,-0.879 20.775,-0.879C21.06,-0.879 21.367,-0.837 21.63,-0.732C21.892,-0.626 22.133,-0.458 22.352,-0.268C22.55,-0.079 22.703,0.174 22.812,0.426C22.944,0.679 22.988,0.953 22.988,1.247C22.988,1.521 22.922,1.795 22.812,2.047C22.703,2.3 22.528,2.532 22.309,2.742L11.466,13.163L13.525,15.121L22.309,23.584Z" transform="rotate(-180 14.588 13.121)" fill="#181725" stroke="#181725" stroke-width="0.2" stroke-miterlimit="3.999327"/>
<path d="M22.309,23.584C22.703,23.984 22.922,24.51 22.9,25.058C22.9,25.605 22.681,26.11 22.265,26.51C21.871,26.889 21.323,27.121 20.753,27.121C20.184,27.121 19.636,26.932 19.22,26.553L6.823,14.637C6.626,14.447 6.472,14.216 6.363,13.963C6.253,13.71 6.188,13.437 6.188,13.163C6.188,12.889 6.253,12.616 6.363,12.342C6.472,12.089 6.626,11.858 6.823,11.668L19.22,-0.247C19.417,-0.437 19.658,-0.605 19.921,-0.711C20.206,-0.816 20.491,-0.879 20.775,-0.879C21.06,-0.879 21.367,-0.837 21.63,-0.732C21.892,-0.626 22.133,-0.458 22.352,-0.268C22.55,-0.079 22.703,0.174 22.812,0.426C22.944,0.679 22.988,0.953 22.988,1.247C22.988,1.521 22.922,1.795 22.812,2.047C22.703,2.3 22.528,2.532 22.309,2.742L11.466,13.163L13.525,15.121L22.309,23.584Z" transform="rotate(-180 14.588 13.121)" fill="#181725" stroke="#181725" stroke-width="0.2" stroke-miterlimit="3.999327"/>
</svg>
