<svg width="34" height="34" viewBox="0 0 34 34" fill="none" xmlns="http://www.w3.org/2000/svg" xmlns:xlink="http://www.w3.org/1999/xlink">
<path d="M33.95,16.951C33.95,17.702 33.662,18.429 33.123,18.955C32.597,19.494 31.87,19.794 31.118,19.794L19.789,19.794L19.789,31.119C19.789,31.871 19.488,32.598 18.949,33.124C18.422,33.65 17.708,33.951 16.956,33.951C16.204,33.951 15.477,33.65 14.951,33.124C14.412,32.598 14.111,31.871 14.111,31.119L14.111,19.794L2.782,19.794C2.03,19.794 1.303,19.494 0.777,18.955C0.251,18.429 -0.05,17.702 -0.05,16.951C-0.05,16.199 0.251,15.485 0.777,14.946C1.303,14.42 2.03,14.119 2.782,14.119L14.111,14.119L14.111,2.794C14.111,2.043 14.412,1.316 14.951,0.79C15.477,0.251 16.204,-0.049 16.956,-0.049C17.708,-0.049 18.422,0.251 18.949,0.79C19.488,1.316 19.789,2.043 19.789,2.794L19.789,14.119L31.118,14.119C31.87,14.119 32.597,14.42 33.123,14.946C33.662,15.485 33.95,16.199 33.95,16.951Z" fill="#53B175"/>
<path d="M33.95,16.951C33.95,17.702 33.662,18.429 33.123,18.955C32.597,19.494 31.87,19.794 31.118,19.794L19.789,19.794L19.789,31.119C19.789,31.871 19.488,32.598 18.949,33.124C18.422,33.65 17.708,33.951 16.956,33.951C16.204,33.951 15.477,33.65 14.951,33.124C14.412,32.598 14.111,31.871 14.111,31.119L14.111,19.794L2.782,19.794C2.03,19.794 1.303,19.494 0.777,18.955C0.251,18.429 -0.05,17.702 -0.05,16.951C-0.05,16.199 0.251,15.485 0.777,14.946C1.303,14.42 2.03,14.119 2.782,14.119L14.111,14.119L14.111,2.794C14.111,2.043 14.412,1.316 14.951,0.79C15.477,0.251 16.204,-0.049 16.956,-0.049C17.708,-0.049 18.422,0.251 18.949,0.79C19.488,1.316 19.789,2.043 19.789,2.794L19.789,14.119L31.118,14.119C31.87,14.119 32.597,14.42 33.123,14.946C33.662,15.485 33.95,16.199 33.95,16.951Z" fill="#53B175"/>
</svg>
