<svg width="28" height="30" viewBox="0 0 28 30" fill="none" xmlns="http://www.w3.org/2000/svg" xmlns:xlink="http://www.w3.org/1999/xlink">
<path d="M21.619,25.348C22.009,25.748 22.226,26.274 22.204,26.821C22.204,27.369 21.988,27.874 21.576,28.274C21.185,28.653 20.643,28.885 20.08,28.885C19.516,28.885 18.974,28.695 18.562,28.316L6.293,16.4C6.098,16.211 5.946,15.979 5.838,15.727C5.729,15.474 5.664,15.2 5.664,14.927C5.664,14.653 5.729,14.379 5.838,14.106C5.946,13.853 6.098,13.622 6.293,13.432L18.562,1.516C18.758,1.327 18.996,1.158 19.256,1.053C19.538,0.948 19.82,0.885 20.102,0.885C20.383,0.885 20.687,0.927 20.947,1.032C21.207,1.137 21.446,1.306 21.662,1.495C21.857,1.685 22.009,1.937 22.118,2.19C22.248,2.443 22.291,2.716 22.291,3.011C22.291,3.285 22.226,3.558 22.118,3.811C22.009,4.064 21.836,4.295 21.619,4.506L10.888,14.927L12.926,16.885L21.619,25.348Z" transform="rotate(-180 13.978 14.885)" fill="#181725" stroke="#181725" stroke-width="0.2" stroke-miterlimit="3.999327"/>
<path d="M21.619,25.348C22.009,25.748 22.226,26.274 22.204,26.821C22.204,27.369 21.988,27.874 21.576,28.274C21.185,28.653 20.643,28.885 20.08,28.885C19.516,28.885 18.974,28.695 18.562,28.316L6.293,16.4C6.098,16.211 5.946,15.979 5.838,15.727C5.729,15.474 5.664,15.2 5.664,14.927C5.664,14.653 5.729,14.379 5.838,14.106C5.946,13.853 6.098,13.622 6.293,13.432L18.562,1.516C18.758,1.327 18.996,1.158 19.256,1.053C19.538,0.948 19.82,0.885 20.102,0.885C20.383,0.885 20.687,0.927 20.947,1.032C21.207,1.137 21.446,1.306 21.662,1.495C21.857,1.685 22.009,1.937 22.118,2.19C22.248,2.443 22.291,2.716 22.291,3.011C22.291,3.285 22.226,3.558 22.118,3.811C22.009,4.064 21.836,4.295 21.619,4.506L10.888,14.927L12.926,16.885L21.619,25.348Z" transform="rotate(-180 13.978 14.885)" fill="#181725" stroke="#181725" stroke-width="0.2" stroke-miterlimit="3.999327"/>
<path d="M21.619,25.348C22.009,25.748 22.226,26.274 22.204,26.821C22.204,27.369 21.988,27.874 21.576,28.274C21.185,28.653 20.643,28.885 20.08,28.885C19.516,28.885 18.974,28.695 18.562,28.316L6.293,16.4C6.098,16.211 5.946,15.979 5.838,15.727C5.729,15.474 5.664,15.2 5.664,14.927C5.664,14.653 5.729,14.379 5.838,14.106C5.946,13.853 6.098,13.622 6.293,13.432L18.562,1.516C18.758,1.327 18.996,1.158 19.256,1.053C19.538,0.948 19.82,0.885 20.102,0.885C20.383,0.885 20.687,0.927 20.947,1.032C21.207,1.137 21.446,1.306 21.662,1.495C21.857,1.685 22.009,1.937 22.118,2.19C22.248,2.443 22.291,2.716 22.291,3.011C22.291,3.285 22.226,3.558 22.118,3.811C22.009,4.064 21.836,4.295 21.619,4.506L10.888,14.927L12.926,16.885L21.619,25.348Z" transform="rotate(-180 13.978 14.885)" fill="#181725" stroke="#181725" stroke-width="0.2" stroke-miterlimit="3.999327"/>
</svg>
