<svg width="30" height="30" viewBox="0 0 30 30" fill="none" xmlns="http://www.w3.org/2000/svg" xmlns:xlink="http://www.w3.org/1999/xlink">
<path d="M15.08,23.939L5.983,28.722L7.721,18.592L0.358,11.417L10.529,9.939L15.08,0.722L19.629,9.939L29.801,11.417L22.44,18.592L24.179,28.722L15.08,23.939Z" fill="#F3603F"/>
<path d="M15.08,23.939L5.983,28.722L7.721,18.592L0.358,11.417L10.529,9.939L15.08,0.722L19.629,9.939L29.801,11.417L22.44,18.592L24.179,28.722L15.08,23.939Z" fill="#F3603F"/>
<path d="M15.08,23.939L5.983,28.722L7.721,18.592L0.358,11.417L10.529,9.939L15.08,0.722L19.629,9.939L29.801,11.417L22.44,18.592L24.179,28.722L15.08,23.939Z" fill="#F3603F"/>
</svg>
