<svg width="34" height="6" viewBox="0 0 34 6" fill="none" xmlns="http://www.w3.org/2000/svg" xmlns:xlink="http://www.w3.org/1999/xlink">
<path d="M34,2.338C34,3.082 33.712,3.801 33.173,4.321C32.647,4.855 31.92,5.152 31.168,5.152L19.839,5.152L14.161,5.152L2.832,5.152C2.08,5.152 1.353,4.855 0.827,4.321C0.301,3.801 0,3.082 0,2.338C0,1.594 0.301,0.887 0.827,0.354C1.353,-0.167 2.08,-0.464 2.832,-0.464L14.161,-0.464L19.839,-0.464L31.168,-0.464C31.92,-0.464 32.647,-0.167 33.173,0.354C33.712,0.887 34,1.594 34,2.338Z" fill="#B3B3B3"/>
<path d="M34,2.338C34,3.082 33.712,3.801 33.173,4.321C32.647,4.855 31.92,5.152 31.168,5.152L19.839,5.152L14.161,5.152L2.832,5.152C2.08,5.152 1.353,4.855 0.827,4.321C0.301,3.801 0,3.082 0,2.338C0,1.594 0.301,0.887 0.827,0.354C1.353,-0.167 2.08,-0.464 2.832,-0.464L14.161,-0.464L19.839,-0.464L31.168,-0.464C31.92,-0.464 32.647,-0.167 33.173,0.354C33.712,0.887 34,1.594 34,2.338Z" fill="#B3B3B3"/>
</svg>
