<svg width="18" height="28" viewBox="0 0 18 28" fill="none" xmlns="http://www.w3.org/2000/svg" xmlns:xlink="http://www.w3.org/1999/xlink">
<path d="M16.81,23.528C17.205,23.928 17.424,24.455 17.402,25.003C17.402,25.551 17.183,26.057 16.766,26.457C16.372,26.837 15.825,27.069 15.255,27.069C14.686,27.069 14.138,26.879 13.722,26.5L1.324,14.571C1.127,14.381 0.974,14.15 0.864,13.897C0.755,13.644 0.689,13.37 0.689,13.096C0.689,12.822 0.755,12.548 0.864,12.274C0.974,12.021 1.127,11.789 1.324,11.599L13.722,-0.329C13.919,-0.519 14.16,-0.687 14.423,-0.793C14.708,-0.898 14.992,-0.961 15.277,-0.961C15.562,-0.961 15.868,-0.919 16.131,-0.814C16.394,-0.709 16.635,-0.54 16.854,-0.35C17.051,-0.161 17.205,0.092 17.314,0.345C17.445,0.598 17.489,0.872 17.489,1.167C17.489,1.441 17.424,1.715 17.314,1.968C17.205,2.221 17.029,2.453 16.81,2.664L5.968,13.096L8.027,15.056L16.81,23.528Z" transform="rotate(360 9.089 13.054)" fill="#181725" stroke="#181725" stroke-width="0.2" stroke-miterlimit="3.999327"/>
<path d="M16.81,23.528C17.205,23.928 17.424,24.455 17.402,25.003C17.402,25.551 17.183,26.057 16.766,26.457C16.372,26.837 15.825,27.069 15.255,27.069C14.686,27.069 14.138,26.879 13.722,26.5L1.324,14.571C1.127,14.381 0.974,14.15 0.864,13.897C0.755,13.644 0.689,13.37 0.689,13.096C0.689,12.822 0.755,12.548 0.864,12.274C0.974,12.021 1.127,11.789 1.324,11.599L13.722,-0.329C13.919,-0.519 14.16,-0.687 14.423,-0.793C14.708,-0.898 14.992,-0.961 15.277,-0.961C15.562,-0.961 15.868,-0.919 16.131,-0.814C16.394,-0.709 16.635,-0.54 16.854,-0.35C17.051,-0.161 17.205,0.092 17.314,0.345C17.445,0.598 17.489,0.872 17.489,1.167C17.489,1.441 17.424,1.715 17.314,1.968C17.205,2.221 17.029,2.453 16.81,2.664L5.968,13.096L8.027,15.056L16.81,23.528Z" transform="rotate(360 9.089 13.054)" fill="#181725" stroke="#181725" stroke-width="0.2" stroke-miterlimit="3.999327"/>
<path d="M16.81,23.528C17.205,23.928 17.424,24.455 17.402,25.003C17.402,25.551 17.183,26.057 16.766,26.457C16.372,26.837 15.825,27.069 15.255,27.069C14.686,27.069 14.138,26.879 13.722,26.5L1.324,14.571C1.127,14.381 0.974,14.15 0.864,13.897C0.755,13.644 0.689,13.37 0.689,13.096C0.689,12.822 0.755,12.548 0.864,12.274C0.974,12.021 1.127,11.789 1.324,11.599L13.722,-0.329C13.919,-0.519 14.16,-0.687 14.423,-0.793C14.708,-0.898 14.992,-0.961 15.277,-0.961C15.562,-0.961 15.868,-0.919 16.131,-0.814C16.394,-0.709 16.635,-0.54 16.854,-0.35C17.051,-0.161 17.205,0.092 17.314,0.345C17.445,0.598 17.489,0.872 17.489,1.167C17.489,1.441 17.424,1.715 17.314,1.968C17.205,2.221 17.029,2.453 16.81,2.664L5.968,13.096L8.027,15.056L16.81,23.528Z" transform="rotate(360 9.089 13.054)" fill="#181725" stroke="#181725" stroke-width="0.2" stroke-miterlimit="3.999327"/>
</svg>
