<svg width="30" height="28" viewBox="0 0 30 28" fill="none" xmlns="http://www.w3.org/2000/svg" xmlns:xlink="http://www.w3.org/1999/xlink">
<path d="M14.47,22.277L5.373,27.066L7.111,16.925L-0.252,9.742L9.919,8.263L14.47,-0.964L19.019,8.263L29.191,9.742L21.83,16.925L23.569,27.066L14.47,22.277Z" fill="#F3603F"/>
<path d="M14.47,22.277L5.373,27.066L7.111,16.925L-0.252,9.742L9.919,8.263L14.47,-0.964L19.019,8.263L29.191,9.742L21.83,16.925L23.569,27.066L14.47,22.277Z" fill="#F3603F"/>
<path d="M14.47,22.277L5.373,27.066L7.111,16.925L-0.252,9.742L9.919,8.263L14.47,-0.964L19.019,8.263L29.191,9.742L21.83,16.925L23.569,27.066L14.47,22.277Z" fill="#F3603F"/>
</svg>
