<svg width="30" height="30" viewBox="0 0 30 30" fill="none" xmlns="http://www.w3.org/2000/svg" xmlns:xlink="http://www.w3.org/1999/xlink">
<path d="M14.47,23.841L5.373,28.575L7.111,18.549L-0.252,11.448L9.919,9.985L14.47,0.864L19.019,9.985L29.191,11.448L21.83,18.549L23.569,28.575L14.47,23.841Z" fill="#F3603F"/>
<path d="M14.47,23.841L5.373,28.575L7.111,18.549L-0.252,11.448L9.919,9.985L14.47,0.864L19.019,9.985L29.191,11.448L21.83,18.549L23.569,28.575L14.47,23.841Z" fill="#F3603F"/>
<path d="M14.47,23.841L5.373,28.575L7.111,18.549L-0.252,11.448L9.919,9.985L14.47,0.864L19.019,9.985L29.191,11.448L21.83,18.549L23.569,28.575L14.47,23.841Z" fill="#F3603F"/>
</svg>
