<svg width="30" height="28" viewBox="0 0 30 28" fill="none" xmlns="http://www.w3.org/2000/svg" xmlns:xlink="http://www.w3.org/1999/xlink">
<path d="M15.094,22.277L5.997,27.066L7.735,16.925L0.372,9.742L10.543,8.263L15.094,-0.964L19.643,8.263L29.815,9.742L22.454,16.925L24.193,27.066L15.094,22.277Z" fill="#F3603F"/>
<path d="M15.094,22.277L5.997,27.066L7.735,16.925L0.372,9.742L10.543,8.263L15.094,-0.964L19.643,8.263L29.815,9.742L22.454,16.925L24.193,27.066L15.094,22.277Z" fill="#F3603F"/>
<path d="M15.094,22.277L5.997,27.066L7.735,16.925L0.372,9.742L10.543,8.263L15.094,-0.964L19.643,8.263L29.815,9.742L22.454,16.925L24.193,27.066L15.094,22.277Z" fill="#F3603F"/>
</svg>
