<svg width="30" height="28" viewBox="0 0 30 28" fill="none" xmlns="http://www.w3.org/2000/svg" xmlns:xlink="http://www.w3.org/1999/xlink">
<path d="M21.827,23.584C22.221,23.984 22.44,24.51 22.418,25.058C22.418,25.605 22.199,26.11 21.783,26.51C21.389,26.889 20.841,27.121 20.272,27.121C19.702,27.121 19.154,26.932 18.738,26.553L6.341,14.637C6.144,14.447 5.99,14.216 5.881,13.963C5.771,13.71 5.706,13.437 5.706,13.163C5.706,12.889 5.771,12.616 5.881,12.342C5.99,12.089 6.144,11.858 6.341,11.668L18.738,-0.247C18.935,-0.437 19.176,-0.605 19.439,-0.711C19.724,-0.816 20.009,-0.879 20.293,-0.879C20.578,-0.879 20.885,-0.837 21.148,-0.732C21.411,-0.626 21.651,-0.458 21.871,-0.268C22.068,-0.079 22.221,0.174 22.33,0.426C22.462,0.679 22.506,0.953 22.506,1.247C22.506,1.521 22.44,1.795 22.33,2.047C22.221,2.3 22.046,2.532 21.827,2.742L10.984,13.163L13.043,15.121L21.827,23.584Z" transform="rotate(-180 14.106 13.121)" fill="#181725" stroke="#181725" stroke-width="0.2" stroke-miterlimit="3.999327"/>
<path d="M21.827,23.584C22.221,23.984 22.44,24.51 22.418,25.058C22.418,25.605 22.199,26.11 21.783,26.51C21.389,26.889 20.841,27.121 20.272,27.121C19.702,27.121 19.154,26.932 18.738,26.553L6.341,14.637C6.144,14.447 5.99,14.216 5.881,13.963C5.771,13.71 5.706,13.437 5.706,13.163C5.706,12.889 5.771,12.616 5.881,12.342C5.99,12.089 6.144,11.858 6.341,11.668L18.738,-0.247C18.935,-0.437 19.176,-0.605 19.439,-0.711C19.724,-0.816 20.009,-0.879 20.293,-0.879C20.578,-0.879 20.885,-0.837 21.148,-0.732C21.411,-0.626 21.651,-0.458 21.871,-0.268C22.068,-0.079 22.221,0.174 22.33,0.426C22.462,0.679 22.506,0.953 22.506,1.247C22.506,1.521 22.44,1.795 22.33,2.047C22.221,2.3 22.046,2.532 21.827,2.742L10.984,13.163L13.043,15.121L21.827,23.584Z" transform="rotate(-180 14.106 13.121)" fill="#181725" stroke="#181725" stroke-width="0.2" stroke-miterlimit="3.999327"/>
<path d="M21.827,23.584C22.221,23.984 22.44,24.51 22.418,25.058C22.418,25.605 22.199,26.11 21.783,26.51C21.389,26.889 20.841,27.121 20.272,27.121C19.702,27.121 19.154,26.932 18.738,26.553L6.341,14.637C6.144,14.447 5.99,14.216 5.881,13.963C5.771,13.71 5.706,13.437 5.706,13.163C5.706,12.889 5.771,12.616 5.881,12.342C5.99,12.089 6.144,11.858 6.341,11.668L18.738,-0.247C18.935,-0.437 19.176,-0.605 19.439,-0.711C19.724,-0.816 20.009,-0.879 20.293,-0.879C20.578,-0.879 20.885,-0.837 21.148,-0.732C21.411,-0.626 21.651,-0.458 21.871,-0.268C22.068,-0.079 22.221,0.174 22.33,0.426C22.462,0.679 22.506,0.953 22.506,1.247C22.506,1.521 22.44,1.795 22.33,2.047C22.221,2.3 22.046,2.532 21.827,2.742L10.984,13.163L13.043,15.121L21.827,23.584Z" transform="rotate(-180 14.106 13.121)" fill="#181725" stroke="#181725" stroke-width="0.2" stroke-miterlimit="3.999327"/>
</svg>
