<svg width="30" height="30" viewBox="0 0 30 30" fill="none" xmlns="http://www.w3.org/2000/svg" xmlns:xlink="http://www.w3.org/1999/xlink">
<path d="M13.969,23.841L4.872,28.575L6.61,18.549L-0.753,11.448L9.418,9.985L13.969,0.864L18.518,9.985L28.69,11.448L21.329,18.549L23.068,28.575L13.969,23.841Z" fill="#F3603F"/>
<path d="M13.969,23.841L4.872,28.575L6.61,18.549L-0.753,11.448L9.418,9.985L13.969,0.864L18.518,9.985L28.69,11.448L21.329,18.549L23.068,28.575L13.969,23.841Z" fill="#F3603F"/>
<path d="M13.969,23.841L4.872,28.575L6.61,18.549L-0.753,11.448L9.418,9.985L13.969,0.864L18.518,9.985L28.69,11.448L21.329,18.549L23.068,28.575L13.969,23.841Z" fill="#F3603F"/>
</svg>
