<svg width="30" height="28" viewBox="0 0 30 28" fill="none" xmlns="http://www.w3.org/2000/svg" xmlns:xlink="http://www.w3.org/1999/xlink">
<path d="M14.219,22.277L5.122,27.066L6.86,16.925L-0.503,9.742L9.669,8.263L14.219,-0.964L18.769,8.263L28.94,9.742L21.579,16.925L23.318,27.066L14.219,22.277Z" fill="#F3603F"/>
<path d="M14.219,22.277L5.122,27.066L6.86,16.925L-0.503,9.742L9.669,8.263L14.219,-0.964L18.769,8.263L28.94,9.742L21.579,16.925L23.318,27.066L14.219,22.277Z" fill="#F3603F"/>
<path d="M14.219,22.277L5.122,27.066L6.86,16.925L-0.503,9.742L9.669,8.263L14.219,-0.964L18.769,8.263L28.94,9.742L21.579,16.925L23.318,27.066L14.219,22.277Z" fill="#F3603F"/>
</svg>
