<svg width="50" height="114" viewBox="0 0 50 114" fill="none" xmlns="http://www.w3.org/2000/svg" xmlns:xlink="http://www.w3.org/1999/xlink">
<path d="M40.453,97.367C40.144,97.322 39.791,97.278 39.482,97.278C33.525,96.573 30.744,92.867 30.744,85.898L30.744,35.393L40.939,35.393C44.91,35.393 48.088,32.173 48.088,28.247C48.088,24.322 44.91,21.146 40.939,21.146L30.744,21.146L30.744,9.81C30.744,7.34 29.729,5.09 28.096,3.458C26.464,1.826 24.257,0.811 21.741,0.811C16.799,0.811 12.783,4.869 12.783,9.81L12.783,21.146L7.399,21.146C3.471,21.146 0.25,24.322 0.25,28.247C0.25,32.173 3.471,35.393 7.399,35.393L12.783,35.393L12.783,87.751C12.783,105.218 19.756,112.143 37.849,112.143C37.894,112.143 37.938,112.143 37.938,112.143C40.012,112.143 41.909,111.526 43.498,110.423C43.542,110.423 43.586,110.379 43.586,110.379C45.44,109.055 46.676,106.894 46.676,104.468C46.676,100.851 43.984,97.808 40.453,97.367Z" fill="#FFFFFF"/>
<path d="M46.676,104.468C46.676,106.894 45.44,109.056 43.587,110.379C43.587,110.379 43.543,110.423 43.499,110.423C42.351,111.217 40.983,111.658 39.483,111.658C35.467,111.658 32.245,108.438 32.245,104.468C32.245,100.498 35.467,97.278 39.483,97.278C39.792,97.278 40.145,97.322 40.453,97.367C43.984,97.808 46.676,100.851 46.676,104.468Z" fill="#FFFFFF"/>
</svg>
