<svg width="30" height="30" viewBox="0 0 30 30" fill="none" xmlns="http://www.w3.org/2000/svg" xmlns:xlink="http://www.w3.org/1999/xlink">
<path d="M13.955,23.939L4.858,28.722L6.595,18.592L-0.767,11.417L9.404,9.939L13.955,0.722L18.504,9.939L28.675,11.417L21.314,18.592L23.053,28.722L13.955,23.939Z" fill="#F3603F"/>
<path d="M13.955,23.939L4.858,28.722L6.595,18.592L-0.767,11.417L9.404,9.939L13.955,0.722L18.504,9.939L28.675,11.417L21.314,18.592L23.053,28.722L13.955,23.939Z" fill="#F3603F"/>
<path d="M13.955,23.939L4.858,28.722L6.595,18.592L-0.767,11.417L9.404,9.939L13.955,0.722L18.504,9.939L28.675,11.417L21.314,18.592L23.053,28.722L13.955,23.939Z" fill="#F3603F"/>
</svg>
