<svg width="18" height="30" viewBox="0 0 18 30" fill="none" xmlns="http://www.w3.org/2000/svg" xmlns:xlink="http://www.w3.org/1999/xlink">
<path d="M15.42,25.186C15.815,25.586 16.034,26.112 16.012,26.659C16.012,27.207 15.793,27.712 15.377,28.112C14.982,28.491 14.435,28.722 13.865,28.722C13.296,28.722 12.748,28.533 12.332,28.154L-0.065,16.238C-0.263,16.049 -0.416,15.817 -0.525,15.565C-0.635,15.312 -0.701,15.038 -0.701,14.765C-0.701,14.491 -0.635,14.217 -0.525,13.943C-0.416,13.691 -0.263,13.459 -0.065,13.27L12.332,1.354C12.529,1.165 12.77,0.996 13.033,0.891C13.318,0.786 13.602,0.722 13.887,0.722C14.172,0.722 14.479,0.765 14.741,0.87C15.004,0.975 15.245,1.143 15.464,1.333C15.661,1.522 15.815,1.775 15.924,2.028C16.056,2.28 16.099,2.554 16.099,2.849C16.099,3.122 16.034,3.396 15.924,3.649C15.815,3.901 15.639,4.133 15.42,4.343L4.578,14.765L6.637,16.722L15.42,25.186Z" transform="rotate(360 7.699 14.722)" fill="#181725" stroke="#181725" stroke-width="0.2" stroke-miterlimit="3.999327"/>
<path d="M15.42,25.186C15.815,25.586 16.034,26.112 16.012,26.659C16.012,27.207 15.793,27.712 15.377,28.112C14.982,28.491 14.435,28.722 13.865,28.722C13.296,28.722 12.748,28.533 12.332,28.154L-0.065,16.238C-0.263,16.049 -0.416,15.817 -0.525,15.565C-0.635,15.312 -0.701,15.038 -0.701,14.765C-0.701,14.491 -0.635,14.217 -0.525,13.943C-0.416,13.691 -0.263,13.459 -0.065,13.27L12.332,1.354C12.529,1.165 12.77,0.996 13.033,0.891C13.318,0.786 13.602,0.722 13.887,0.722C14.172,0.722 14.479,0.765 14.741,0.87C15.004,0.975 15.245,1.143 15.464,1.333C15.661,1.522 15.815,1.775 15.924,2.028C16.056,2.28 16.099,2.554 16.099,2.849C16.099,3.122 16.034,3.396 15.924,3.649C15.815,3.901 15.639,4.133 15.42,4.343L4.578,14.765L6.637,16.722L15.42,25.186Z" transform="rotate(360 7.699 14.722)" fill="#181725" stroke="#181725" stroke-width="0.2" stroke-miterlimit="3.999327"/>
<path d="M15.42,25.186C15.815,25.586 16.034,26.112 16.012,26.659C16.012,27.207 15.793,27.712 15.377,28.112C14.982,28.491 14.435,28.722 13.865,28.722C13.296,28.722 12.748,28.533 12.332,28.154L-0.065,16.238C-0.263,16.049 -0.416,15.817 -0.525,15.565C-0.635,15.312 -0.701,15.038 -0.701,14.765C-0.701,14.491 -0.635,14.217 -0.525,13.943C-0.416,13.691 -0.263,13.459 -0.065,13.27L12.332,1.354C12.529,1.165 12.77,0.996 13.033,0.891C13.318,0.786 13.602,0.722 13.887,0.722C14.172,0.722 14.479,0.765 14.741,0.87C15.004,0.975 15.245,1.143 15.464,1.333C15.661,1.522 15.815,1.775 15.924,2.028C16.056,2.28 16.099,2.554 16.099,2.849C16.099,3.122 16.034,3.396 15.924,3.649C15.815,3.901 15.639,4.133 15.42,4.343L4.578,14.765L6.637,16.722L15.42,25.186Z" transform="rotate(360 7.699 14.722)" fill="#181725" stroke="#181725" stroke-width="0.2" stroke-miterlimit="3.999327"/>
</svg>
