<svg width="30" height="28" viewBox="0 0 30 28" fill="none" xmlns="http://www.w3.org/2000/svg" xmlns:xlink="http://www.w3.org/1999/xlink">
<path d="M13.969,22.277L4.872,27.066L6.61,16.925L-0.753,9.742L9.418,8.263L13.969,-0.964L18.518,8.263L28.69,9.742L21.329,16.925L23.068,27.066L13.969,22.277Z" fill="#F3603F"/>
<path d="M13.969,22.277L4.872,27.066L6.61,16.925L-0.753,9.742L9.418,8.263L13.969,-0.964L18.518,8.263L28.69,9.742L21.329,16.925L23.068,27.066L13.969,22.277Z" fill="#F3603F"/>
<path d="M13.969,22.277L4.872,27.066L6.61,16.925L-0.753,9.742L9.418,8.263L13.969,-0.964L18.518,8.263L28.69,9.742L21.329,16.925L23.068,27.066L13.969,22.277Z" fill="#F3603F"/>
</svg>
