<svg width="30" height="30" viewBox="0 0 30 30" fill="none" xmlns="http://www.w3.org/2000/svg" xmlns:xlink="http://www.w3.org/1999/xlink">
<path d="M14.83,23.939L5.732,28.722L7.47,18.592L0.107,11.417L10.279,9.939L14.83,0.722L19.379,9.939L29.55,11.417L22.189,18.592L23.928,28.722L14.83,23.939Z" fill="#F3603F"/>
<path d="M14.83,23.939L5.732,28.722L7.47,18.592L0.107,11.417L10.279,9.939L14.83,0.722L19.379,9.939L29.55,11.417L22.189,18.592L23.928,28.722L14.83,23.939Z" fill="#F3603F"/>
<path d="M14.83,23.939L5.732,28.722L7.47,18.592L0.107,11.417L10.279,9.939L14.83,0.722L19.379,9.939L29.55,11.417L22.189,18.592L23.928,28.722L14.83,23.939Z" fill="#F3603F"/>
</svg>
