<svg width="18" height="30" viewBox="0 0 18 30" fill="none" xmlns="http://www.w3.org/2000/svg" xmlns:xlink="http://www.w3.org/1999/xlink">
<path d="M16.81,25.054C17.205,25.45 17.424,25.971 17.402,26.513C17.402,27.054 17.183,27.554 16.766,27.95C16.372,28.325 15.825,28.555 15.255,28.555C14.686,28.555 14.138,28.367 13.722,27.992L1.324,16.199C1.127,16.011 0.974,15.782 0.864,15.532C0.755,15.282 0.689,15.011 0.689,14.74C0.689,14.47 0.755,14.199 0.864,13.928C0.974,13.678 1.127,13.449 1.324,13.261L13.722,1.468C13.919,1.281 14.16,1.114 14.423,1.01C14.708,0.906 14.992,0.843 15.277,0.843C15.562,0.843 15.868,0.885 16.131,0.989C16.394,1.093 16.635,1.26 16.854,1.447C17.051,1.635 17.205,1.885 17.314,2.135C17.445,2.385 17.489,2.656 17.489,2.947C17.489,3.218 17.424,3.489 17.314,3.739C17.205,3.989 17.029,4.218 16.81,4.427L5.968,14.74L8.027,16.678L16.81,25.054Z" transform="rotate(360 9.089 14.699)" fill="#181725" stroke="#181725" stroke-width="0.2" stroke-miterlimit="3.999327"/>
<path d="M16.81,25.054C17.205,25.45 17.424,25.971 17.402,26.513C17.402,27.054 17.183,27.554 16.766,27.95C16.372,28.325 15.825,28.555 15.255,28.555C14.686,28.555 14.138,28.367 13.722,27.992L1.324,16.199C1.127,16.011 0.974,15.782 0.864,15.532C0.755,15.282 0.689,15.011 0.689,14.74C0.689,14.47 0.755,14.199 0.864,13.928C0.974,13.678 1.127,13.449 1.324,13.261L13.722,1.468C13.919,1.281 14.16,1.114 14.423,1.01C14.708,0.906 14.992,0.843 15.277,0.843C15.562,0.843 15.868,0.885 16.131,0.989C16.394,1.093 16.635,1.26 16.854,1.447C17.051,1.635 17.205,1.885 17.314,2.135C17.445,2.385 17.489,2.656 17.489,2.947C17.489,3.218 17.424,3.489 17.314,3.739C17.205,3.989 17.029,4.218 16.81,4.427L5.968,14.74L8.027,16.678L16.81,25.054Z" transform="rotate(360 9.089 14.699)" fill="#181725" stroke="#181725" stroke-width="0.2" stroke-miterlimit="3.999327"/>
<path d="M16.81,25.054C17.205,25.45 17.424,25.971 17.402,26.513C17.402,27.054 17.183,27.554 16.766,27.95C16.372,28.325 15.825,28.555 15.255,28.555C14.686,28.555 14.138,28.367 13.722,27.992L1.324,16.199C1.127,16.011 0.974,15.782 0.864,15.532C0.755,15.282 0.689,15.011 0.689,14.74C0.689,14.47 0.755,14.199 0.864,13.928C0.974,13.678 1.127,13.449 1.324,13.261L13.722,1.468C13.919,1.281 14.16,1.114 14.423,1.01C14.708,0.906 14.992,0.843 15.277,0.843C15.562,0.843 15.868,0.885 16.131,0.989C16.394,1.093 16.635,1.26 16.854,1.447C17.051,1.635 17.205,1.885 17.314,2.135C17.445,2.385 17.489,2.656 17.489,2.947C17.489,3.218 17.424,3.489 17.314,3.739C17.205,3.989 17.029,4.218 16.81,4.427L5.968,14.74L8.027,16.678L16.81,25.054Z" transform="rotate(360 9.089 14.699)" fill="#181725" stroke="#181725" stroke-width="0.2" stroke-miterlimit="3.999327"/>
</svg>
