<svg width="32" height="30" viewBox="0 0 32 30" fill="none" xmlns="http://www.w3.org/2000/svg" xmlns:xlink="http://www.w3.org/1999/xlink">
<path d="M15.345,23.841L6.248,28.575L7.985,18.549L0.623,11.448L10.794,9.985L15.345,0.864L19.894,9.985L30.065,11.448L22.704,18.549L24.443,28.575L15.345,23.841Z" fill="#F3603F"/>
<path d="M15.345,23.841L6.248,28.575L7.985,18.549L0.623,11.448L10.794,9.985L15.345,0.864L19.894,9.985L30.065,11.448L22.704,18.549L24.443,28.575L15.345,23.841Z" fill="#F3603F"/>
<path d="M15.345,23.841L6.248,28.575L7.985,18.549L0.623,11.448L10.794,9.985L15.345,0.864L19.894,9.985L30.065,11.448L22.704,18.549L24.443,28.575L15.345,23.841Z" fill="#F3603F"/>
</svg>
