<svg width="16" height="30" viewBox="0 0 16 30" fill="none" xmlns="http://www.w3.org/2000/svg" xmlns:xlink="http://www.w3.org/1999/xlink">
<path d="M15.295,25.409C15.689,25.809 15.908,26.336 15.886,26.884C15.886,27.432 15.667,27.938 15.251,28.338C14.857,28.717 14.309,28.949 13.74,28.949C13.17,28.949 12.623,28.76 12.206,28.38L-0.191,16.452C-0.388,16.262 -0.541,16.03 -0.651,15.777C-0.76,15.524 -0.826,15.25 -0.826,14.976C-0.826,14.702 -0.76,14.428 -0.651,14.154C-0.541,13.902 -0.388,13.67 -0.191,13.48L12.206,1.551C12.404,1.362 12.645,1.193 12.907,1.088C13.192,0.982 13.477,0.919 13.762,0.919C14.046,0.919 14.353,0.961 14.616,1.067C14.879,1.172 15.12,1.341 15.339,1.53C15.536,1.72 15.689,1.973 15.799,2.226C15.93,2.479 15.974,2.753 15.974,3.048C15.974,3.322 15.908,3.596 15.799,3.849C15.689,4.102 15.514,4.333 15.295,4.544L4.453,14.976L6.512,16.936L15.295,25.409Z" transform="rotate(360 7.574 14.934)" fill="#181725" stroke="#181725" stroke-width="0.2" stroke-miterlimit="3.999327"/>
<path d="M15.295,25.409C15.689,25.809 15.908,26.336 15.886,26.884C15.886,27.432 15.667,27.938 15.251,28.338C14.857,28.717 14.309,28.949 13.74,28.949C13.17,28.949 12.623,28.76 12.206,28.38L-0.191,16.452C-0.388,16.262 -0.541,16.03 -0.651,15.777C-0.76,15.524 -0.826,15.25 -0.826,14.976C-0.826,14.702 -0.76,14.428 -0.651,14.154C-0.541,13.902 -0.388,13.67 -0.191,13.48L12.206,1.551C12.404,1.362 12.645,1.193 12.907,1.088C13.192,0.982 13.477,0.919 13.762,0.919C14.046,0.919 14.353,0.961 14.616,1.067C14.879,1.172 15.12,1.341 15.339,1.53C15.536,1.72 15.689,1.973 15.799,2.226C15.93,2.479 15.974,2.753 15.974,3.048C15.974,3.322 15.908,3.596 15.799,3.849C15.689,4.102 15.514,4.333 15.295,4.544L4.453,14.976L6.512,16.936L15.295,25.409Z" transform="rotate(360 7.574 14.934)" fill="#181725" stroke="#181725" stroke-width="0.2" stroke-miterlimit="3.999327"/>
<path d="M15.295,25.409C15.689,25.809 15.908,26.336 15.886,26.884C15.886,27.432 15.667,27.938 15.251,28.338C14.857,28.717 14.309,28.949 13.74,28.949C13.17,28.949 12.623,28.76 12.206,28.38L-0.191,16.452C-0.388,16.262 -0.541,16.03 -0.651,15.777C-0.76,15.524 -0.826,15.25 -0.826,14.976C-0.826,14.702 -0.76,14.428 -0.651,14.154C-0.541,13.902 -0.388,13.67 -0.191,13.48L12.206,1.551C12.404,1.362 12.645,1.193 12.907,1.088C13.192,0.982 13.477,0.919 13.762,0.919C14.046,0.919 14.353,0.961 14.616,1.067C14.879,1.172 15.12,1.341 15.339,1.53C15.536,1.72 15.689,1.973 15.799,2.226C15.93,2.479 15.974,2.753 15.974,3.048C15.974,3.322 15.908,3.596 15.799,3.849C15.689,4.102 15.514,4.333 15.295,4.544L4.453,14.976L6.512,16.936L15.295,25.409Z" transform="rotate(360 7.574 14.934)" fill="#181725" stroke="#181725" stroke-width="0.2" stroke-miterlimit="3.999327"/>
</svg>
