<svg width="32" height="30" viewBox="0 0 32 30" fill="none" xmlns="http://www.w3.org/2000/svg" xmlns:xlink="http://www.w3.org/1999/xlink">
<path d="M15.704,23.939L6.607,28.722L8.345,18.592L0.982,11.417L11.154,9.939L15.704,0.722L20.253,9.939L30.425,11.417L23.064,18.592L24.803,28.722L15.704,23.939Z" fill="#F3603F"/>
<path d="M15.704,23.939L6.607,28.722L8.345,18.592L0.982,11.417L11.154,9.939L15.704,0.722L20.253,9.939L30.425,11.417L23.064,18.592L24.803,28.722L15.704,23.939Z" fill="#F3603F"/>
<path d="M15.704,23.939L6.607,28.722L8.345,18.592L0.982,11.417L11.154,9.939L15.704,0.722L20.253,9.939L30.425,11.417L23.064,18.592L24.803,28.722L15.704,23.939Z" fill="#F3603F"/>
</svg>
