<svg width="16" height="28" viewBox="0 0 16 28" fill="none" xmlns="http://www.w3.org/2000/svg" xmlns:xlink="http://www.w3.org/1999/xlink">
<path d="M15.295,24.186C15.689,24.582 15.908,25.103 15.887,25.645C15.887,26.187 15.667,26.687 15.251,27.082C14.857,27.458 14.309,27.687 13.74,27.687C13.17,27.687 12.623,27.499 12.207,27.124L-0.191,15.331C-0.388,15.144 -0.541,14.914 -0.651,14.664C-0.76,14.414 -0.826,14.143 -0.826,13.873C-0.826,13.602 -0.76,13.331 -0.651,13.06C-0.541,12.81 -0.388,12.581 -0.191,12.393L12.207,0.6C12.404,0.413 12.645,0.246 12.908,0.142C13.192,0.038 13.477,-0.025 13.762,-0.025C14.047,-0.025 14.353,0.017 14.616,0.121C14.879,0.225 15.12,0.392 15.339,0.579C15.536,0.767 15.689,1.017 15.799,1.267C15.93,1.517 15.974,1.788 15.974,2.08C15.974,2.35 15.908,2.621 15.799,2.871C15.689,3.121 15.514,3.35 15.295,3.559L4.453,13.873L6.512,15.81L15.295,24.186Z" transform="rotate(360 7.574 13.831)" fill="#181725" stroke="#181725" stroke-width="0.2" stroke-miterlimit="3.999327"/>
<path d="M15.295,24.186C15.689,24.582 15.908,25.103 15.887,25.645C15.887,26.187 15.667,26.687 15.251,27.082C14.857,27.458 14.309,27.687 13.74,27.687C13.17,27.687 12.623,27.499 12.207,27.124L-0.191,15.331C-0.388,15.144 -0.541,14.914 -0.651,14.664C-0.76,14.414 -0.826,14.143 -0.826,13.873C-0.826,13.602 -0.76,13.331 -0.651,13.06C-0.541,12.81 -0.388,12.581 -0.191,12.393L12.207,0.6C12.404,0.413 12.645,0.246 12.908,0.142C13.192,0.038 13.477,-0.025 13.762,-0.025C14.047,-0.025 14.353,0.017 14.616,0.121C14.879,0.225 15.12,0.392 15.339,0.579C15.536,0.767 15.689,1.017 15.799,1.267C15.93,1.517 15.974,1.788 15.974,2.08C15.974,2.35 15.908,2.621 15.799,2.871C15.689,3.121 15.514,3.35 15.295,3.559L4.453,13.873L6.512,15.81L15.295,24.186Z" transform="rotate(360 7.574 13.831)" fill="#181725" stroke="#181725" stroke-width="0.2" stroke-miterlimit="3.999327"/>
<path d="M15.295,24.186C15.689,24.582 15.908,25.103 15.887,25.645C15.887,26.187 15.667,26.687 15.251,27.082C14.857,27.458 14.309,27.687 13.74,27.687C13.17,27.687 12.623,27.499 12.207,27.124L-0.191,15.331C-0.388,15.144 -0.541,14.914 -0.651,14.664C-0.76,14.414 -0.826,14.143 -0.826,13.873C-0.826,13.602 -0.76,13.331 -0.651,13.06C-0.541,12.81 -0.388,12.581 -0.191,12.393L12.207,0.6C12.404,0.413 12.645,0.246 12.908,0.142C13.192,0.038 13.477,-0.025 13.762,-0.025C14.047,-0.025 14.353,0.017 14.616,0.121C14.879,0.225 15.12,0.392 15.339,0.579C15.536,0.767 15.689,1.017 15.799,1.267C15.93,1.517 15.974,1.788 15.974,2.08C15.974,2.35 15.908,2.621 15.799,2.871C15.689,3.121 15.514,3.35 15.295,3.559L4.453,13.873L6.512,15.81L15.295,24.186Z" transform="rotate(360 7.574 13.831)" fill="#181725" stroke="#181725" stroke-width="0.2" stroke-miterlimit="3.999327"/>
</svg>
