<svg width="30" height="30" viewBox="0 0 30 30" fill="none" xmlns="http://www.w3.org/2000/svg" xmlns:xlink="http://www.w3.org/1999/xlink">
<path d="M15.094,23.841L5.997,28.575L7.735,18.549L0.372,11.448L10.543,9.985L15.094,0.864L19.643,9.985L29.815,11.448L22.454,18.549L24.193,28.575L15.094,23.841Z" fill="#F3603F"/>
<path d="M15.094,23.841L5.997,28.575L7.735,18.549L0.372,11.448L10.543,9.985L15.094,0.864L19.643,9.985L29.815,11.448L22.454,18.549L24.193,28.575L15.094,23.841Z" fill="#F3603F"/>
<path d="M15.094,23.841L5.997,28.575L7.735,18.549L0.372,11.448L10.543,9.985L15.094,0.864L19.643,9.985L29.815,11.448L22.454,18.549L24.193,28.575L15.094,23.841Z" fill="#F3603F"/>
</svg>
