<svg width="30" height="30" viewBox="0 0 30 30" fill="none" xmlns="http://www.w3.org/2000/svg" xmlns:xlink="http://www.w3.org/1999/xlink">
<path d="M14.22,23.841L5.123,28.575L6.86,18.549L-0.502,11.448L9.669,9.985L14.22,0.864L18.769,9.985L28.94,11.448L21.579,18.549L23.318,28.575L14.22,23.841Z" fill="#F3603F"/>
<path d="M14.22,23.841L5.123,28.575L6.86,18.549L-0.502,11.448L9.669,9.985L14.22,0.864L18.769,9.985L28.94,11.448L21.579,18.549L23.318,28.575L14.22,23.841Z" fill="#F3603F"/>
<path d="M14.22,23.841L5.123,28.575L6.86,18.549L-0.502,11.448L9.669,9.985L14.22,0.864L18.769,9.985L28.94,11.448L21.579,18.549L23.318,28.575L14.22,23.841Z" fill="#F3603F"/>
</svg>
