<svg width="18" height="30" viewBox="0 0 18 30" fill="none" xmlns="http://www.w3.org/2000/svg" xmlns:xlink="http://www.w3.org/1999/xlink">
<path d="M15.905,25.184C16.299,25.584 16.518,26.111 16.496,26.658C16.496,27.205 16.277,27.711 15.861,28.111C15.467,28.49 14.919,28.721 14.35,28.721C13.78,28.721 13.233,28.532 12.817,28.153L0.419,16.237C0.222,16.048 0.069,15.816 -0.041,15.563C-0.15,15.311 -0.216,15.037 -0.216,14.763C-0.216,14.49 -0.15,14.216 -0.041,13.942C0.069,13.69 0.222,13.458 0.419,13.269L12.817,1.353C13.014,1.163 13.255,0.995 13.517,0.89C13.802,0.784 14.087,0.721 14.372,0.721C14.656,0.721 14.963,0.763 15.226,0.869C15.489,0.974 15.73,1.142 15.949,1.332C16.146,1.521 16.299,1.774 16.409,2.026C16.54,2.279 16.584,2.553 16.584,2.848C16.584,3.121 16.518,3.395 16.409,3.648C16.299,3.9 16.124,4.132 15.905,4.342L5.063,14.763L7.122,16.721L15.905,25.184Z" transform="rotate(360 8.184 14.721)" fill="#181725" stroke="#181725" stroke-width="0.2" stroke-miterlimit="3.999327"/>
<path d="M15.905,25.184C16.299,25.584 16.518,26.111 16.496,26.658C16.496,27.205 16.277,27.711 15.861,28.111C15.467,28.49 14.919,28.721 14.35,28.721C13.78,28.721 13.233,28.532 12.817,28.153L0.419,16.237C0.222,16.048 0.069,15.816 -0.041,15.563C-0.15,15.311 -0.216,15.037 -0.216,14.763C-0.216,14.49 -0.15,14.216 -0.041,13.942C0.069,13.69 0.222,13.458 0.419,13.269L12.817,1.353C13.014,1.163 13.255,0.995 13.517,0.89C13.802,0.784 14.087,0.721 14.372,0.721C14.656,0.721 14.963,0.763 15.226,0.869C15.489,0.974 15.73,1.142 15.949,1.332C16.146,1.521 16.299,1.774 16.409,2.026C16.54,2.279 16.584,2.553 16.584,2.848C16.584,3.121 16.518,3.395 16.409,3.648C16.299,3.9 16.124,4.132 15.905,4.342L5.063,14.763L7.122,16.721L15.905,25.184Z" transform="rotate(360 8.184 14.721)" fill="#181725" stroke="#181725" stroke-width="0.2" stroke-miterlimit="3.999327"/>
<path d="M15.905,25.184C16.299,25.584 16.518,26.111 16.496,26.658C16.496,27.205 16.277,27.711 15.861,28.111C15.467,28.49 14.919,28.721 14.35,28.721C13.78,28.721 13.233,28.532 12.817,28.153L0.419,16.237C0.222,16.048 0.069,15.816 -0.041,15.563C-0.15,15.311 -0.216,15.037 -0.216,14.763C-0.216,14.49 -0.15,14.216 -0.041,13.942C0.069,13.69 0.222,13.458 0.419,13.269L12.817,1.353C13.014,1.163 13.255,0.995 13.517,0.89C13.802,0.784 14.087,0.721 14.372,0.721C14.656,0.721 14.963,0.763 15.226,0.869C15.489,0.974 15.73,1.142 15.949,1.332C16.146,1.521 16.299,1.774 16.409,2.026C16.54,2.279 16.584,2.553 16.584,2.848C16.584,3.121 16.518,3.395 16.409,3.648C16.299,3.9 16.124,4.132 15.905,4.342L5.063,14.763L7.122,16.721L15.905,25.184Z" transform="rotate(360 8.184 14.721)" fill="#181725" stroke="#181725" stroke-width="0.2" stroke-miterlimit="3.999327"/>
</svg>
