<svg width="28" height="28" viewBox="0 0 28 28" fill="none" xmlns="http://www.w3.org/2000/svg" xmlns:xlink="http://www.w3.org/1999/xlink">
<path d="M21.707,23.521C22.102,23.921 22.321,24.447 22.299,24.994C22.299,25.542 22.08,26.047 21.663,26.447C21.268,26.826 20.72,27.058 20.15,27.058C19.58,27.058 19.032,26.868 18.615,26.489L6.204,14.573C6.007,14.384 5.854,14.152 5.744,13.9C5.634,13.647 5.569,13.373 5.569,13.1C5.569,12.826 5.634,12.552 5.744,12.279C5.854,12.026 6.007,11.795 6.204,11.605L18.615,-0.311C18.812,-0.5 19.054,-0.669 19.317,-0.774C19.602,-0.879 19.887,-0.942 20.172,-0.942C20.457,-0.942 20.764,-0.9 21.027,-0.795C21.29,-0.69 21.531,-0.521 21.751,-0.332C21.948,-0.142 22.102,0.11 22.211,0.363C22.343,0.616 22.387,0.889 22.387,1.184C22.387,1.458 22.321,1.731 22.211,1.984C22.102,2.237 21.926,2.468 21.707,2.679L10.853,13.1L12.914,15.058L21.707,23.521Z" transform="rotate(-180 13.978 13.058)" fill="#181725" stroke="#181725" stroke-width="0.2" stroke-miterlimit="3.999327"/>
<path d="M21.707,23.521C22.102,23.921 22.321,24.447 22.299,24.994C22.299,25.542 22.08,26.047 21.663,26.447C21.268,26.826 20.72,27.058 20.15,27.058C19.58,27.058 19.032,26.868 18.615,26.489L6.204,14.573C6.007,14.384 5.854,14.152 5.744,13.9C5.634,13.647 5.569,13.373 5.569,13.1C5.569,12.826 5.634,12.552 5.744,12.279C5.854,12.026 6.007,11.795 6.204,11.605L18.615,-0.311C18.812,-0.5 19.054,-0.669 19.317,-0.774C19.602,-0.879 19.887,-0.942 20.172,-0.942C20.457,-0.942 20.764,-0.9 21.027,-0.795C21.29,-0.69 21.531,-0.521 21.751,-0.332C21.948,-0.142 22.102,0.11 22.211,0.363C22.343,0.616 22.387,0.889 22.387,1.184C22.387,1.458 22.321,1.731 22.211,1.984C22.102,2.237 21.926,2.468 21.707,2.679L10.853,13.1L12.914,15.058L21.707,23.521Z" transform="rotate(-180 13.978 13.058)" fill="#181725" stroke="#181725" stroke-width="0.2" stroke-miterlimit="3.999327"/>
<path d="M21.707,23.521C22.102,23.921 22.321,24.447 22.299,24.994C22.299,25.542 22.08,26.047 21.663,26.447C21.268,26.826 20.72,27.058 20.15,27.058C19.58,27.058 19.032,26.868 18.615,26.489L6.204,14.573C6.007,14.384 5.854,14.152 5.744,13.9C5.634,13.647 5.569,13.373 5.569,13.1C5.569,12.826 5.634,12.552 5.744,12.279C5.854,12.026 6.007,11.795 6.204,11.605L18.615,-0.311C18.812,-0.5 19.054,-0.669 19.317,-0.774C19.602,-0.879 19.887,-0.942 20.172,-0.942C20.457,-0.942 20.764,-0.9 21.027,-0.795C21.29,-0.69 21.531,-0.521 21.751,-0.332C21.948,-0.142 22.102,0.11 22.211,0.363C22.343,0.616 22.387,0.889 22.387,1.184C22.387,1.458 22.321,1.731 22.211,1.984C22.102,2.237 21.926,2.468 21.707,2.679L10.853,13.1L12.914,15.058L21.707,23.521Z" transform="rotate(-180 13.978 13.058)" fill="#181725" stroke="#181725" stroke-width="0.2" stroke-miterlimit="3.999327"/>
</svg>
