<svg width="30" height="30" viewBox="0 0 30 30" fill="none" xmlns="http://www.w3.org/2000/svg" xmlns:xlink="http://www.w3.org/1999/xlink">
<path d="M14.579,23.939L5.482,28.722L7.22,18.592L-0.143,11.417L10.029,9.939L14.579,0.722L19.128,9.939L29.3,11.417L21.939,18.592L23.678,28.722L14.579,23.939Z" fill="#F3603F"/>
<path d="M14.579,23.939L5.482,28.722L7.22,18.592L-0.143,11.417L10.029,9.939L14.579,0.722L19.128,9.939L29.3,11.417L21.939,18.592L23.678,28.722L14.579,23.939Z" fill="#F3603F"/>
<path d="M14.579,23.939L5.482,28.722L7.22,18.592L-0.143,11.417L10.029,9.939L14.579,0.722L19.128,9.939L29.3,11.417L21.939,18.592L23.678,28.722L14.579,23.939Z" fill="#F3603F"/>
</svg>
