<svg width="32" height="28" viewBox="0 0 32 28" fill="none" xmlns="http://www.w3.org/2000/svg" xmlns:xlink="http://www.w3.org/1999/xlink">
<path d="M15.345,22.277L6.248,27.066L7.985,16.925L0.623,9.742L10.794,8.263L15.345,-0.964L19.894,8.263L30.065,9.742L22.704,16.925L24.443,27.066L15.345,22.277Z" fill="#F3603F"/>
<path d="M15.345,22.277L6.248,27.066L7.985,16.925L0.623,9.742L10.794,8.263L15.345,-0.964L19.894,8.263L30.065,9.742L22.704,16.925L24.443,27.066L15.345,22.277Z" fill="#F3603F"/>
<path d="M15.345,22.277L6.248,27.066L7.985,16.925L0.623,9.742L10.794,8.263L15.345,-0.964L19.894,8.263L30.065,9.742L22.704,16.925L24.443,27.066L15.345,22.277Z" fill="#F3603F"/>
</svg>
