<svg width="42" height="92" viewBox="0 0 42 92" fill="none" xmlns="http://www.w3.org/2000/svg" xmlns:xlink="http://www.w3.org/1999/xlink">
<path d="M33.722,79.168C33.467,79.131 33.176,79.095 32.921,79.095C28.006,78.512 25.712,75.454 25.712,69.701L25.712,28.012L34.123,28.012C37.399,28.012 40.021,25.354 40.021,22.114C40.021,18.874 37.399,16.252 34.123,16.252L25.712,16.252L25.712,6.895C25.712,4.856 24.875,2.999 23.527,1.652C22.18,0.305 20.36,-0.533 18.284,-0.533C14.207,-0.533 10.893,2.817 10.893,6.895L10.893,16.252L6.451,16.252C3.211,16.252 0.553,18.874 0.553,22.114C0.553,25.354 3.211,28.012 6.451,28.012L10.893,28.012L10.893,71.23C10.893,85.649 16.646,91.365 31.574,91.365C31.61,91.365 31.647,91.365 31.647,91.365C33.358,91.365 34.924,90.855 36.234,89.945C36.271,89.945 36.307,89.909 36.307,89.909C37.836,88.816 38.856,87.032 38.856,85.03C38.856,82.044 36.635,79.532 33.722,79.168Z" fill="#FFFFFF"/>
<path d="M38.856,85.03C38.856,87.032 37.837,88.816 36.307,89.909C36.307,89.909 36.271,89.945 36.235,89.945C35.288,90.6 34.159,90.964 32.921,90.964C29.608,90.964 26.95,88.307 26.95,85.03C26.95,81.753 29.608,79.095 32.921,79.095C33.176,79.095 33.468,79.131 33.722,79.168C36.635,79.532 38.856,82.044 38.856,85.03Z" fill="#FFFFFF"/>
</svg>
