<svg width="34" height="34" viewBox="0 0 34 34" fill="none" xmlns="http://www.w3.org/2000/svg" xmlns:xlink="http://www.w3.org/1999/xlink">
<path d="M33.34,16.344C33.34,17.088 33.052,17.807 32.513,18.328C31.986,18.861 31.259,19.158 30.508,19.158L19.178,19.158L19.178,30.367C19.178,31.111 18.878,31.83 18.339,32.35C17.812,32.871 17.098,33.169 16.346,33.169C15.594,33.169 14.867,32.871 14.341,32.35C13.802,31.83 13.501,31.111 13.501,30.367L13.501,19.158L2.172,19.158C1.42,19.158 0.693,18.861 0.167,18.328C-0.359,17.807 -0.66,17.088 -0.66,16.344C-0.66,15.6 -0.359,14.893 0.167,14.36C0.693,13.839 1.42,13.542 2.172,13.542L13.501,13.542L13.501,2.333C13.501,1.589 13.802,0.87 14.341,0.35C14.867,-0.184 15.594,-0.481 16.346,-0.481C17.098,-0.481 17.812,-0.184 18.339,0.35C18.878,0.87 19.178,1.589 19.178,2.333L19.178,13.542L30.508,13.542C31.259,13.542 31.986,13.839 32.513,14.36C33.052,14.893 33.34,15.6 33.34,16.344Z" fill="#53B175"/>
<path d="M33.34,16.344C33.34,17.088 33.052,17.807 32.513,18.328C31.986,18.861 31.259,19.158 30.508,19.158L19.178,19.158L19.178,30.367C19.178,31.111 18.878,31.83 18.339,32.35C17.812,32.871 17.098,33.169 16.346,33.169C15.594,33.169 14.867,32.871 14.341,32.35C13.802,31.83 13.501,31.111 13.501,30.367L13.501,19.158L2.172,19.158C1.42,19.158 0.693,18.861 0.167,18.328C-0.359,17.807 -0.66,17.088 -0.66,16.344C-0.66,15.6 -0.359,14.893 0.167,14.36C0.693,13.839 1.42,13.542 2.172,13.542L13.501,13.542L13.501,2.333C13.501,1.589 13.802,0.87 14.341,0.35C14.867,-0.184 15.594,-0.481 16.346,-0.481C17.098,-0.481 17.812,-0.184 18.339,0.35C18.878,0.87 19.178,1.589 19.178,2.333L19.178,13.542L30.508,13.542C31.259,13.542 31.986,13.839 32.513,14.36C33.052,14.893 33.34,15.6 33.34,16.344Z" fill="#53B175"/>
</svg>
