<svg width="38" height="46" viewBox="0 0 38 46" fill="none" xmlns="http://www.w3.org/2000/svg" xmlns:xlink="http://www.w3.org/1999/xlink">
<path d="M1.373,18.925L-0.627,18.918L-0.627,18.925L1.373,18.925ZM34.993,19.04L32.993,19.034L32.993,19.04L34.993,19.04ZM34.993,19.232L36.993,19.27C36.993,19.257 36.993,19.245 36.993,19.232L34.993,19.232ZM27.378,35.342L28.825,36.723L28.836,36.711L27.378,35.342ZM19.516,41.87L18.424,40.194C18.346,40.245 18.271,40.302 18.201,40.363L19.516,41.87ZM16.85,41.87L18.165,40.363C18.097,40.303 18.024,40.248 17.948,40.198L16.85,41.87ZM5.789,31.425L7.395,30.233L7.383,30.216L5.789,31.425ZM1.373,18.983L-0.627,18.983C-0.627,19.005 -0.627,19.028 -0.626,19.051L1.373,18.983ZM3.373,18.932C3.4,10.657 10.07,4 18.233,4.028L18.247,0.028C7.842,-0.007 -0.592,8.466 -0.627,18.918L3.373,18.932ZM18.233,4.028C26.397,4.056 33.021,10.758 32.993,19.034L36.993,19.047C37.029,8.595 28.652,0.064 18.247,0.028L18.233,4.028ZM32.993,19.04L32.993,19.232L36.993,19.232L36.993,19.04L32.993,19.04ZM32.994,19.195C32.893,24.578 29.888,29.75 25.921,33.973L28.836,36.711C33.131,32.14 36.866,26.06 36.993,19.27L32.994,19.195ZM25.932,33.961C23.676,36.324 21.156,38.415 18.424,40.194L20.607,43.546C23.598,41.599 26.356,39.309 28.825,36.723L25.932,33.961ZM18.201,40.363C18.195,40.368 18.192,40.369 18.191,40.37C18.189,40.37 18.186,40.371 18.183,40.371C18.179,40.371 18.177,40.37 18.175,40.37C18.174,40.369 18.171,40.368 18.165,40.363L15.536,43.377C17.054,44.702 19.312,44.702 20.83,43.377L18.201,40.363ZM17.948,40.198C13.879,37.527 10.307,34.154 7.395,30.233L4.184,32.617C7.374,36.914 11.29,40.613 15.753,43.542L17.948,40.198ZM7.383,30.216C4.914,26.963 3.511,23.013 3.371,18.915L-0.626,19.051C-0.459,23.972 1.226,28.72 4.196,32.634L7.383,30.216ZM3.373,18.983L3.373,18.925L-0.627,18.925L-0.627,18.983L3.373,18.983Z" fill="#181725"/>
<path d="M18.183,25.974C21.89,25.974 24.866,22.948 24.866,19.251L20.866,19.251C20.866,20.771 19.649,21.974 18.183,21.974L18.183,25.974ZM24.866,19.251C24.866,15.554 21.89,12.528 18.183,12.528L18.183,16.528C19.649,16.528 20.866,17.731 20.866,19.251L24.866,19.251ZM18.183,12.528C14.476,12.528 11.5,15.554 11.5,19.251L15.5,19.251C15.5,17.731 16.717,16.528 18.183,16.528L18.183,12.528ZM11.5,19.251C11.5,22.948 14.476,25.974 18.183,25.974L18.183,21.974C16.717,21.974 15.5,20.771 15.5,19.251L11.5,19.251Z" fill="#181725"/>
</svg>
