<svg width="30" height="20" viewBox="0 0 30 20" fill="none" xmlns="http://www.w3.org/2000/svg" xmlns:xlink="http://www.w3.org/1999/xlink">
<path d="M28.125,2.786C28.125,3.486 27.85,4.143 27.377,4.6L12.343,19.163C11.815,19.646 11.124,19.924 10.431,19.924C9.73,19.924 9.046,19.641 8.559,19.171L1.022,11.885C0.549,11.428 0.274,10.771 0.274,10.072C0.274,9.41 0.553,8.773 1.054,8.258C1.568,7.792 2.224,7.532 2.941,7.505C3.641,7.509 4.291,7.763 4.806,8.235L10.431,13.672L23.592,0.949C24.108,0.478 24.758,0.223 25.457,0.22C26.18,0.247 26.833,0.51 27.344,1.004C27.838,1.481 28.125,2.115 28.125,2.786Z" clip-rule="evenodd" fill-rule="evenodd" fill="#FCFCFC"/>
</svg>
