<svg width="32" height="24" viewBox="0 0 32 24" fill="none" xmlns="http://www.w3.org/2000/svg" xmlns:xlink="http://www.w3.org/1999/xlink">
<path d="M31.907,2.459C31.907,3.31 31.584,4.111 31.029,4.667L13.387,22.406C12.767,22.994 11.957,23.332 11.143,23.332C10.321,23.332 9.518,22.989 8.946,22.415L0.101,13.541C-0.453,12.985 -0.776,12.184 -0.776,11.332C-0.776,10.526 -0.448,9.751 0.139,9.124C0.742,8.556 1.512,8.24 2.354,8.206C3.175,8.211 3.938,8.521 4.542,9.095L11.143,15.717L26.588,0.221C27.193,-0.353 27.956,-0.663 28.777,-0.667C29.625,-0.634 30.392,-0.314 30.991,0.288C31.57,0.869 31.907,1.641 31.907,2.459Z" clip-rule="evenodd" fill-rule="evenodd" fill="#FCFCFC"/>
</svg>
