<svg width="30" height="22" viewBox="0 0 30 22" fill="none" xmlns="http://www.w3.org/2000/svg" xmlns:xlink="http://www.w3.org/1999/xlink">
<path d="M28.125,3.502C28.125,4.202 27.85,4.859 27.377,5.316L12.343,19.879C11.815,20.362 11.125,20.64 10.431,20.64C9.731,20.64 9.046,20.358 8.559,19.887L1.022,12.601C0.549,12.144 0.274,11.487 0.274,10.788C0.274,10.126 0.554,9.49 1.055,8.975C1.568,8.509 2.224,8.249 2.941,8.221C3.641,8.225 4.291,8.48 4.806,8.951L10.431,14.388L23.593,1.665C24.108,1.194 24.758,0.94 25.458,0.936C26.18,0.963 26.834,1.226 27.345,1.72C27.838,2.197 28.125,2.831 28.125,3.502Z" clip-rule="evenodd" fill-rule="evenodd" fill="#FCFCFC"/>
</svg>
