<svg width="32" height="36" viewBox="0 0 32 36" fill="none" xmlns="http://www.w3.org/2000/svg" xmlns:xlink="http://www.w3.org/1999/xlink">
<path d="M10.12,34.498C11.951,35.289 13.921,35.705 15.914,35.722C17.921,35.753 19.913,35.375 21.77,34.612C23.626,33.848 25.308,32.715 26.712,31.281C29.564,28.393 31.178,24.507 31.212,20.449C31.246,16.39 29.697,12.478 26.894,9.543L17.69,0.016C17.505,-0.178 17.283,-0.334 17.037,-0.441C16.791,-0.549 16.526,-0.606 16.257,-0.61C15.989,-0.616 15.723,-0.565 15.476,-0.46C15.229,-0.356 15.007,-0.2 14.824,-0.004L5.459,9.382C2.604,12.267 0.987,16.151 0.949,20.21C0.911,24.268 2.457,28.182 5.257,31.12C6.636,32.559 8.29,33.708 10.12,34.498ZM16.238,15.102C13.54,15.102 11.352,17.289 11.352,19.988C11.352,22.686 13.54,24.873 16.238,24.873C18.936,24.873 21.123,22.686 21.123,19.988C21.123,17.289 18.936,15.102 16.238,15.102Z" clip-rule="evenodd" fill-rule="evenodd" transform="rotate(-360 16.081 17.557)" fill="#4C4F4D"/>
</svg>
