<svg width="28" height="28" viewBox="0 0 28 28" fill="none" xmlns="http://www.w3.org/2000/svg" xmlns:xlink="http://www.w3.org/1999/xlink">
<path d="M27.018,24.372C27.412,24.772 27.631,25.298 27.609,25.845C27.609,26.393 27.39,26.898 26.974,27.298C26.58,27.677 26.032,27.909 25.463,27.909C24.893,27.909 24.346,27.719 23.929,27.34L11.531,15.424C11.334,15.235 11.181,15.003 11.071,14.75C10.962,14.498 10.896,14.224 10.896,13.95C10.896,13.677 10.962,13.403 11.071,13.129C11.181,12.877 11.334,12.645 11.531,12.455L23.929,0.539C24.126,0.35 24.367,0.181 24.63,0.076C24.915,-0.029 25.2,-0.092 25.485,-0.092C25.769,-0.092 26.076,-0.05 26.339,0.055C26.602,0.16 26.843,0.329 27.062,0.518C27.259,0.708 27.412,0.96 27.522,1.213C27.653,1.466 27.697,1.739 27.697,2.034C27.697,2.308 27.631,2.581 27.522,2.834C27.412,3.087 27.237,3.318 27.018,3.529L16.175,13.95L18.234,15.908L27.018,24.372Z" fill="#B3B3B3" stroke="#B3B3B3" stroke-width="0.1" stroke-miterlimit="3.999327"/>
<path d="M15.495,24.372C15.889,24.772 16.108,25.298 16.086,25.845C16.086,26.393 15.867,26.898 15.451,27.298C15.056,27.677 14.509,27.909 13.939,27.909C13.37,27.909 12.822,27.719 12.406,27.34L0.008,15.424C-0.189,15.235 -0.342,15.003 -0.452,14.75C-0.561,14.498 -0.627,14.224 -0.627,13.95C-0.627,13.677 -0.561,13.403 -0.452,13.129C-0.342,12.877 -0.189,12.645 0.008,12.456L12.406,0.539C12.603,0.35 12.844,0.181 13.107,0.076C13.392,-0.029 13.676,-0.092 13.961,-0.092C14.246,-0.092 14.553,-0.05 14.816,0.055C15.078,0.16 15.319,0.329 15.538,0.518C15.736,0.708 15.889,0.96 15.998,1.213C16.13,1.466 16.174,1.739 16.174,2.034C16.174,2.308 16.108,2.581 15.998,2.834C15.889,3.087 15.714,3.318 15.495,3.529L4.652,13.95L6.711,15.908L15.495,24.372Z" transform="rotate(-360 7.773 13.908)" fill="#B3B3B3" stroke="#B3B3B3" stroke-width="0.1" stroke-miterlimit="3.999327"/>
</svg>
