<svg width="98" height="114" viewBox="0 0 98 114" fill="none" xmlns="http://www.w3.org/2000/svg" xmlns:xlink="http://www.w3.org/1999/xlink">
<path d="M65.442,9.486C65.92,5.218 62.895,1.365 58.627,0.888C54.36,0.378 50.507,3.435 50.029,7.702C49.456,12.575 50.252,18.403 51.271,24.389C54.105,25.249 56.844,26.491 59.392,27.956C62.13,21.492 64.805,15.091 65.442,9.486ZM95.409,28.211C93.721,24.262 89.135,22.479 85.187,24.167C79.996,26.428 74.614,30.854 69.2,35.408C71.238,37.414 73.149,39.675 74.773,42.127C80.919,41.363 86.811,40.44 91.365,38.465C95.313,36.714 97.129,32.128 95.409,28.211ZM82.32,7.384C78.881,4.836 74.009,5.537 71.461,8.976C67.576,14.199 64.965,22.001 62.13,29.612C63.086,30.249 63.978,30.886 64.837,31.555C65.474,32.064 66.143,32.606 66.812,33.147C73.308,28.243 80.059,23.466 83.945,18.243C86.492,14.804 85.76,9.932 82.32,7.384Z" clip-rule="evenodd" fill-rule="evenodd" fill="#53B175"/>
<path d="M67.544,69.738C65.156,72.317 62.608,74.705 59.901,77.03C56.112,80.31 52.258,83.495 48.341,86.552C44.138,83.973 41.113,82.667 40.603,83.336C40.157,83.941 41.909,86.17 45.061,89.068C34.489,96.934 23.311,103.876 11.305,109.576C9.426,110.468 7.452,111.105 5.509,111.805C5,111.997 4.458,111.997 4.236,112.028C1.178,112.379 0.255,111.551 0.382,108.748C0.764,100.023 3.471,91.838 6.274,83.686C7.038,81.457 7.834,79.228 8.662,76.998C12.897,79.578 15.923,80.915 16.432,80.247C16.974,79.514 14.426,76.584 10.159,72.922C13.216,65.024 16.623,57.254 20.636,49.802C28.661,55.757 35.794,59.674 36.59,58.592C37.387,57.509 31.495,51.745 23.375,45.726L23.024,45.471C24.425,43.083 25.89,40.694 27.451,38.37C29.393,35.44 31.782,32.765 34.138,30.154C37.291,26.682 41.367,25.504 45.921,26.523C60.506,29.771 70.633,38.147 75.41,52.509C76.365,55.439 75.506,58.305 74.009,60.948C72.99,62.732 71.875,64.419 70.633,66.012C62.927,60.375 56.239,56.745 55.475,57.764C54.742,58.783 60.061,64.037 67.544,69.738Z" fill="#F3603F"/>
</svg>
