<svg width="30" height="28" viewBox="0 0 30 28" fill="none" xmlns="http://www.w3.org/2000/svg" xmlns:xlink="http://www.w3.org/1999/xlink">
<path d="M28.578,24.454C28.972,24.854 29.191,25.38 29.17,25.928C29.17,26.475 28.951,26.981 28.534,27.381C28.14,27.76 27.592,27.991 27.023,27.991C26.453,27.991 25.906,27.802 25.49,27.423L13.092,15.506C12.895,15.317 12.741,15.085 12.632,14.833C12.522,14.58 12.457,14.306 12.457,14.033C12.457,13.759 12.522,13.485 12.632,13.212C12.741,12.959 12.895,12.727 13.092,12.538L25.49,0.622C25.687,0.432 25.928,0.264 26.191,0.158C26.475,0.053 26.76,-0.01 27.045,-0.01C27.33,-0.01 27.636,0.032 27.899,0.137C28.162,0.243 28.403,0.411 28.622,0.601C28.819,0.79 28.972,1.043 29.082,1.295C29.213,1.548 29.257,1.822 29.257,2.116C29.257,2.39 29.191,2.664 29.082,2.916C28.972,3.169 28.797,3.401 28.578,3.611L17.736,14.033L19.795,15.991L28.578,24.454Z" fill="#B3B3B3" stroke="#B3B3B3" stroke-width="0.1" stroke-miterlimit="3.999327"/>
<path d="M17.055,24.454C17.449,24.854 17.668,25.381 17.646,25.928C17.646,26.475 17.427,26.981 17.011,27.381C16.617,27.76 16.069,27.991 15.5,27.991C14.93,27.991 14.383,27.802 13.966,27.423L1.568,15.507C1.371,15.317 1.218,15.085 1.108,14.833C0.999,14.58 0.933,14.306 0.933,14.033C0.933,13.759 0.999,13.485 1.108,13.212C1.218,12.959 1.371,12.727 1.568,12.538L13.966,0.622C14.163,0.432 14.404,0.264 14.667,0.159C14.952,0.053 15.237,-0.01 15.522,-0.01C15.806,-0.01 16.113,0.032 16.376,0.137C16.639,0.243 16.88,0.411 17.099,0.601C17.296,0.79 17.449,1.043 17.559,1.295C17.69,1.548 17.734,1.822 17.734,2.117C17.734,2.39 17.668,2.664 17.559,2.917C17.449,3.169 17.274,3.401 17.055,3.611L6.212,14.033L8.271,15.991L17.055,24.454Z" transform="rotate(-360 9.334 13.991)" fill="#B3B3B3" stroke="#B3B3B3" stroke-width="0.1" stroke-miterlimit="3.999327"/>
</svg>
