<svg width="722" height="190" viewBox="0 0 722 190" fill="none" xmlns="http://www.w3.org/2000/svg" xmlns:xlink="http://www.w3.org/1999/xlink">
<path d="M697.942,68.909C711.402,69.411 722,80.478 722,93.947L722,113.922C722,139.37 701.37,160 675.922,160L52.295,160C26.727,160 6,139.273 6,113.705L6,89.13C6,78.912 13.844,70.443 24.043,69.817L24.043,69.817C35.499,69.123 52.397,68.215 75.022,67.307C96.932,66.4 124.14,65.492 157.076,64.691C169.105,64.424 181.85,64.157 195.31,63.89C220.944,63.463 249.154,63.089 280.228,62.876C292.83,62.822 306.004,62.769 319.464,62.715C324.764,62.715 330.062,62.715 335.646,62.715C357.986,62.715 379.752,62.769 400.802,62.929C414.12,63.036 427.152,63.089 439.752,63.249C469.396,63.516 497.32,63.943 523.238,64.371C537.844,64.638 551.878,64.905 565.052,65.171C598.848,65.866 627.918,66.667 651.688,67.361C670.878,67.948 686.486,68.482 697.942,68.909L697.942,68.909Z" fill="#C0A719"/>
<g opacity="0.32">
<path d="M75.022,67.361C67.719,70.138 49.819,77.56 33.638,89.894C23.184,97.956 12.158,109.009 6,123.159L6,80.229C12.158,76.171 18.458,72.701 24.043,69.817C35.499,69.177 52.397,68.269 75.022,67.361Z" fill="#886800"/>
<path d="M172.541,89.093C162.23,103.349 152.35,126.896 160.369,160L121.562,160C108.817,106.339 141.323,76.011 157.075,64.745C169.104,64.478 181.849,64.211 195.31,63.944L199.319,64.531C199.176,64.585 184.426,72.54 172.541,89.093Z" fill="#886800"/>
<path d="M317.461,160L278.653,160C262.328,101.48 275.36,71.419 280.229,62.929C292.83,62.876 306.005,62.822 319.465,62.769C317.461,65.919 299.417,95.713 317.461,160Z" fill="#886800"/>
<path d="M474.407,160L435.6,160C414.979,99.664 403.666,69.87 400.945,62.982C414.263,63.089 427.294,63.143 439.896,63.303C443.333,72.326 454.789,102.441 474.407,160Z" fill="#886800"/>
<path d="M630.925,159.999L591.975,159.999C567.344,101.426 533.406,72.219 523.239,64.37C537.845,64.637 551.879,64.904 565.053,65.171C579.803,77.559 609.016,107.032 630.925,159.999Z" fill="#886800"/>
<path d="M722,84.501L722,121.503C696.511,92.136 667.155,74.997 651.689,67.361C670.878,67.949 686.487,68.483 697.943,68.91C705.246,73.021 713.408,78.147 722,84.501Z" fill="#886800"/>
</g>
<path d="M23.87,152.066C23.58,152.066 23.387,151.944 23.387,151.761C20.586,131.502 17.398,108.497 19.041,85.918C20.759,61.607 28.143,40.396 40.817,22.818C41.109,22.413 41.474,21.896 41.933,22.089L41.933,22.089C42.127,22.15 42.223,22.394 42.127,22.517C29.28,40.091 21.842,61.388 20.006,85.918C18.364,108.436 21.552,131.38 24.353,151.639C24.353,151.883 24.16,152.066 23.87,152.066Z" fill="#886800"/>
<path d="M24.256,59.802C23.967,59.802 23.773,59.619 23.773,59.436C24.836,40.763 29.376,22.273 37.297,4.394C37.393,4.211 37.683,4.089 37.876,4.15C38.166,4.211 38.263,4.394 38.166,4.577C30.335,22.133 25.809,40.405 24.68,58.804C24.655,59.22 24.673,59.802 24.256,59.802L24.256,59.802Z" fill="#886800"/>
<path d="M21.359,68.223C21.069,68.223 20.876,68.101 20.876,67.918C18.268,46.682 22.711,25.019 33.626,5.126C33.723,4.943 34.012,4.882 34.206,4.943C34.495,5.004 34.592,5.187 34.495,5.37C23.801,24.915 19.43,46.249 21.758,67.132C21.811,67.611 21.841,68.223 21.359,68.223L21.359,68.223Z" fill="#886800"/>
<path d="M23.773,60.717L23.773,60.717C23.709,60.717 23.644,60.713 23.584,60.691C23.541,60.676 23.503,60.657 23.471,60.636C23.245,60.488 23.341,60.161 23.442,59.911C24.67,56.869 26.165,53.888 27.927,51.076C35.655,38.993 48.888,29.352 61.735,20.015C61.928,19.893 62.218,19.893 62.411,20.015C62.605,20.137 62.605,20.381 62.411,20.504C49.661,29.779 36.524,39.359 28.796,51.381C27.063,54.089 25.589,56.96 24.373,59.944C24.236,60.279 24.136,60.717 23.773,60.717L23.773,60.717Z" fill="#886800"/>
<path d="M22.228,66.941L22.228,66.941C22.09,66.941 21.958,66.869 21.859,66.772C21.856,66.769 21.852,66.766 21.849,66.762C21.683,66.589 21.91,66.35 22.045,66.152C29.002,55.905 39.549,46.982 52.559,40.214C52.752,40.091 53.042,40.152 53.235,40.275C53.428,40.397 53.332,40.641 53.138,40.763C40.195,47.536 29.666,56.506 22.711,66.758C22.614,66.88 22.421,66.941 22.228,66.941Z" fill="#886800"/>
<path d="M22.518,65.843L22.518,65.843C22.39,65.843 22.255,65.842 22.144,65.777C21.999,65.691 21.963,65.553 22.035,65.416C28.893,53.578 39.905,42.96 53.911,34.844C53.947,34.821 53.986,34.803 54.027,34.789C54.406,34.661 54.829,35.179 54.491,35.393L54.491,35.393C40.726,43.364 29.893,53.726 23.116,65.355C22.977,65.595 22.796,65.843 22.518,65.843L22.518,65.843Z" fill="#886800"/>
<path d="M25.207,57.379C25.072,57.426 24.858,57.42 24.726,57.368C24.713,57.363 24.7,57.357 24.688,57.352C24.413,57.224 24.492,56.846 24.576,56.555C28.039,44.56 32.632,32.627 38.263,21.052C38.359,20.869 38.649,20.808 38.842,20.869C39.132,20.93 39.229,21.113 39.132,21.296C33.489,32.897 28.888,44.797 25.516,56.819C25.449,57.057 25.44,57.296 25.207,57.379L25.207,57.379Z" fill="#886800"/>
<path d="M24.836,68.833C23.387,68.833 21.938,68.711 20.49,68.345C18.461,67.856 17.399,66.453 16.722,65.233C14.114,60.595 13.052,55.103 13.728,48.94C14.284,43.673 15.906,38.462 17.571,33.414C17.713,32.985 17.922,32.431 18.364,32.525L18.364,32.525L18.364,32.525C18.773,32.611 18.684,33.154 18.553,33.55C16.882,38.608 15.255,43.776 14.79,49.001C14.114,55.042 15.177,60.412 17.688,64.927C18.268,66.026 19.234,67.246 20.876,67.673C28.121,69.382 35.558,66.087 39.808,62.731C44.735,58.886 47.536,54.065 50.337,49.367C50.434,49.184 50.724,49.123 51.013,49.184C51.303,49.245 51.4,49.428 51.303,49.611C48.502,54.31 45.604,59.252 40.678,63.158C36.911,66.026 31.018,68.833 24.836,68.833Z" fill="#886800"/>
<path d="M22.905,68.284L22.905,68.284C22.643,68.284 22.355,68.232 22.169,68.049C22.084,67.965 22.035,67.857 22.035,67.735C22.035,67.584 22.101,67.433 22.286,67.385C22.374,67.362 22.466,67.349 22.557,67.354C22.564,67.354 22.571,67.354 22.578,67.355C22.892,67.386 23.194,67.6 23.498,67.515L23.498,67.515C23.549,67.501 23.604,67.478 23.651,67.453C30.53,63.739 35.798,58.782 40.84,53.949C41.182,53.621 41.63,53.142 42.03,53.395L42.03,53.395C42.223,53.517 42.32,53.7 42.127,53.883C37.181,58.686 31.974,63.653 25.271,67.484C24.542,67.901 23.744,68.284 22.905,68.284L22.905,68.284Z" fill="#886800"/>
<path d="M12.955,85.369C10.927,84.088 8.898,82.745 7.643,81.098C6.387,79.45 5.904,77.315 7.16,75.606C7.643,74.935 8.512,74.263 9.574,74.08C11.217,73.775 12.859,74.691 14.018,75.606C16.722,77.925 17.978,80.915 19.137,83.783C19.524,84.759 20.586,86.956 18.848,87.505C17.109,88.115 13.921,86.041 12.955,85.369Z" fill="#886800"/>
<path d="M26.478,86.469C28.893,85.675 31.404,84.76 33.336,83.417C35.268,82.075 36.524,80.122 36.041,78.292C35.848,77.498 35.365,76.766 34.399,76.339C32.95,75.729 31.018,76.217 29.569,76.949C26.092,78.658 23.677,81.221 21.359,83.723C20.586,84.577 18.654,86.469 20.103,87.323C21.455,88.238 25.319,86.896 26.478,86.469Z" fill="#886800"/>
<path d="M11.216,102.273C8.898,100.869 6.676,99.344 5.227,97.452C3.778,95.56 3.295,93.18 4.647,91.289C5.227,90.495 6.096,89.763 7.352,89.58C9.284,89.275 11.119,90.251 12.278,91.35C15.273,93.974 16.722,97.33 18.074,100.564C18.557,101.662 19.716,104.164 17.784,104.775C15.949,105.324 12.375,103.005 11.216,102.273Z" fill="#886800"/>
<path d="M26.575,103.494C29.376,102.579 32.177,101.602 34.302,100.077C36.427,98.551 37.876,96.354 37.393,94.28C37.2,93.425 36.62,92.571 35.558,92.083C33.819,91.412 31.694,91.961 30.052,92.754C26.092,94.646 23.387,97.575 20.779,100.443C19.91,101.419 17.784,103.555 19.427,104.531C20.876,105.447 25.222,103.982 26.575,103.494Z" fill="#886800"/>
<path d="M11.313,119.909C8.319,118.688 5.421,117.346 3.199,115.515C1.074,113.624 -0.278,111.122 0.688,108.803C1.074,107.826 1.847,106.911 3.103,106.545C5.131,105.874 7.449,106.728 9.091,107.704C13.245,110.145 15.853,113.624 18.268,116.98C19.137,118.139 21.166,120.702 19.234,121.678C17.398,122.533 12.859,120.519 11.313,119.909Z" fill="#886800"/>
<path d="M28.603,118.871C31.404,117.468 34.109,115.942 36.041,113.928C37.973,111.915 38.842,109.291 37.586,107.094C37.103,106.179 36.138,105.324 34.882,104.958C32.853,104.47 30.632,105.446 29.086,106.545C25.319,109.23 23.194,112.891 21.262,116.43C20.586,117.651 18.944,120.336 20.972,121.129C22.904,121.922 27.154,119.604 28.603,118.871Z" fill="#886800"/>
<path d="M12.762,136.873C9.767,135.652 6.869,134.31 4.648,132.479C2.426,130.648 1.17,128.086 2.136,125.767C2.523,124.79 3.296,123.875 4.551,123.509C6.58,122.838 8.898,123.692 10.54,124.668C14.694,127.109 17.302,130.587 19.717,133.944C20.586,135.103 22.614,137.666 20.683,138.642C18.847,139.497 14.211,137.483 12.762,136.873Z" fill="#886800"/>
<path d="M29.956,135.835C32.757,134.432 35.462,132.906 37.393,130.892C39.325,128.879 40.195,126.255 38.939,124.058C38.456,123.143 37.49,122.288 36.234,121.922C34.206,121.434 31.984,122.41 30.439,123.509C26.672,126.194 24.546,129.855 22.615,133.394C21.938,134.615 20.296,137.3 22.325,138.093C24.353,138.886 28.603,136.567 29.956,135.835Z" fill="#886800"/>
<path d="M16.722,152.921C13.631,151.884 10.54,150.786 8.125,149.077C5.71,147.368 4.165,144.928 4.744,142.548C5.034,141.571 5.614,140.595 6.87,140.107C8.801,139.313 11.216,139.985 12.955,140.9C17.398,143.036 20.393,146.331 23.291,149.504C24.257,150.603 26.671,152.982 24.836,154.081C23.194,155.179 18.364,153.41 16.722,152.921Z" fill="#886800"/>
<path d="M33.82,150.786C36.428,149.199 38.939,147.491 40.581,145.416C42.223,143.28 42.803,140.656 41.257,138.459C40.678,137.605 39.615,136.751 38.263,136.568C36.138,136.201 34.109,137.3 32.66,138.52C29.28,141.449 27.637,145.172 26.092,148.833C25.609,150.054 24.257,152.861 26.478,153.532C28.603,154.203 32.467,151.579 33.82,150.786Z" fill="#886800"/>
<path d="M45.7,163.845L45.7,163.845C45.255,163.845 45.256,163.26 45.334,162.821C48.88,142.783 52.941,120.1 61.445,98.551C70.815,74.813 84.724,55.042 102.884,39.787C103.077,39.665 103.367,39.604 103.56,39.726L103.56,39.726C103.872,39.923 103.511,40.336 103.23,40.574C85.376,55.719 71.707,75.244 62.411,98.734C53.902,120.235 49.841,142.871 46.294,162.916C46.22,163.332 46.123,163.845 45.7,163.845L45.7,163.845Z" fill="#886800"/>
<path d="M74.679,73.837L74.679,73.837C74.615,73.837 74.55,73.833 74.489,73.811C74.443,73.795 74.404,73.775 74.37,73.752C74.151,73.603 74.243,73.283 74.336,73.035C81.054,55.226 91.153,38.074 104.263,22.106C104.438,21.893 104.601,21.612 104.877,21.6C104.901,21.599 104.926,21.6 104.952,21.601C105.124,21.614 105.313,21.705 105.394,21.857L105.394,21.857C105.496,22.046 105.326,22.235 105.189,22.401C92.096,38.277 82.094,55.333 75.369,73.045C75.231,73.407 75.066,73.837 74.679,73.837L74.679,73.837Z" fill="#886800"/>
<path d="M69.366,81.648C69.27,81.648 69.27,81.648 69.366,81.648L69.366,81.648C68.921,81.648 68.925,81.062 69.012,80.625C73.171,59.743 84.223,39.481 100.856,21.968C100.886,21.94 100.918,21.916 100.951,21.896C101.294,21.693 101.918,22.06 101.629,22.334L101.629,22.334C85.074,39.805 74.112,59.971 69.965,80.755C69.887,81.145 69.764,81.648 69.366,81.648L69.366,81.648Z" fill="#886800"/>
<path d="M74.002,74.691L74.002,74.691C73.871,74.691 73.71,74.607 73.636,74.498C73.571,74.401 73.556,74.279 73.616,74.203C75.838,71.274 78.349,68.467 81.054,65.904C92.355,55.286 108.293,47.902 123.749,40.763C123.942,40.641 124.232,40.702 124.425,40.885C124.618,41.068 124.521,41.251 124.328,41.373C108.97,48.513 93.128,55.835 81.923,66.331C79.37,68.693 77.074,71.273 74.956,74.019C74.707,74.341 74.41,74.691 74.002,74.691L74.002,74.691Z" fill="#886800"/>
<path d="M70.525,80.488C70.429,80.488 70.332,80.488 70.236,80.427C70.042,80.305 69.946,80.122 70.139,79.939C80.185,70.908 93.322,63.646 108.197,59.008C108.238,59 108.277,58.993 108.314,58.99C108.72,58.949 108.983,59.534 108.583,59.618L108.583,59.618C93.929,64.157 80.984,71.275 71.067,80.14C70.906,80.284 70.741,80.488 70.525,80.488L70.525,80.488Z" fill="#886800"/>
<path d="M71.202,79.451C71.105,79.451 71.008,79.451 70.912,79.39C70.719,79.268 70.622,79.085 70.815,78.902C81.151,68.345 95.157,59.741 111.385,53.944C111.434,53.929 111.488,53.921 111.546,53.92C111.901,53.915 112.207,54.386 111.868,54.493L111.868,54.493C95.906,60.169 82.119,68.653 71.911,78.94C71.696,79.157 71.508,79.451 71.202,79.451L71.202,79.451Z" fill="#886800"/>
<path d="M76.224,71.64L76.224,71.64C76.096,71.64 75.96,71.639 75.853,71.567C75.706,71.467 75.668,71.305 75.741,71.213C82.831,60.017 91.06,49 100.147,38.521C100.297,38.348 100.441,38.137 100.667,38.109C100.693,38.106 100.718,38.104 100.744,38.103C100.949,38.095 101.188,38.183 101.26,38.375L101.26,38.375C101.325,38.546 101.182,38.697 101.062,38.835C92.073,49.197 84.014,60.027 76.976,71.095C76.808,71.358 76.537,71.64 76.224,71.64L76.224,71.64Z" fill="#886800"/>
<path d="M75.838,82.929C73.23,82.929 70.719,82.502 68.304,81.526C66.469,80.732 65.889,79.207 65.599,77.925C64.44,73.044 65.213,67.552 67.724,61.632C69.946,56.384 73.423,51.32 76.708,46.499C76.804,46.316 77.094,46.255 77.384,46.316L77.384,46.316C77.752,46.432 77.465,46.908 77.247,47.227C74.068,51.899 70.838,56.743 68.69,61.815C66.179,67.613 65.503,73.044 66.565,77.803C66.855,78.963 67.338,80.305 68.787,80.976C75.355,83.722 83.662,81.648 88.782,79.085C94.771,76.095 99.021,71.823 103.174,67.674C103.368,67.491 103.657,67.491 103.851,67.613C104.044,67.735 104.14,67.918 103.947,68.101C99.794,72.311 95.447,76.644 89.361,79.695C85.787,81.404 80.765,82.929 75.838,82.929Z" fill="#886800"/>
<path d="M71.008,81.892C70.986,81.892 70.965,81.891 70.944,81.891C70.465,81.875 69.849,81.7 69.849,81.221L69.849,81.221C69.849,81.037 70.042,80.915 70.332,80.915C70.336,80.915 70.341,80.915 70.346,80.916C70.705,80.927 71.051,81.268 71.394,81.16L71.394,81.16C79.605,78.536 86.463,74.264 93.031,70.176C93.224,70.053 93.514,70.053 93.707,70.176C93.901,70.298 93.901,70.542 93.707,70.664C87.042,74.813 80.088,79.085 71.781,81.77C71.587,81.831 71.298,81.892 71.008,81.892Z" fill="#886800"/>
<path d="M55.649,97.086C54.104,95.56 52.558,93.913 51.786,92.082C51.109,90.251 51.303,88.116 52.945,86.651C53.621,86.041 54.587,85.553 55.746,85.553C57.485,85.553 58.837,86.651 59.61,87.75C61.542,90.435 61.831,93.486 62.025,96.476C62.121,97.513 62.411,99.771 60.576,100.076C58.837,100.32 56.422,97.879 55.649,97.086Z" fill="#886800"/>
<path d="M68.594,100.198C71.202,99.771 73.906,99.283 76.225,98.306C78.543,97.269 80.378,95.621 80.475,93.73C80.571,92.936 80.282,92.143 79.412,91.594C78.157,90.74 76.128,90.984 74.486,91.411C70.526,92.509 67.338,94.706 64.344,96.781C63.281,97.513 60.866,99.039 62.025,100.137C63.088,101.113 67.241,100.381 68.594,100.198Z" fill="#886800"/>
<path d="M48.695,113.318C46.956,111.548 45.121,109.779 44.348,107.704C43.575,105.629 43.769,103.249 45.7,101.602C46.473,100.931 47.632,100.381 48.888,100.32C50.82,100.32 52.365,101.541 53.235,102.761C55.36,105.812 55.746,109.291 56.036,112.647C56.133,113.806 56.519,116.369 54.394,116.735C52.365,116.979 49.661,114.172 48.695,113.318Z" fill="#886800"/>
<path d="M63.377,116.797C66.371,116.308 69.366,115.82 71.974,114.661C74.582,113.501 76.61,111.61 76.803,109.474C76.9,108.62 76.514,107.643 75.644,107.033C74.195,106.118 71.877,106.362 70.138,106.85C65.695,108.132 62.121,110.572 58.644,112.952C57.485,113.746 54.683,115.515 56.036,116.736C57.098,117.895 61.831,117.041 63.377,116.797Z" fill="#886800"/>
<path d="M43.382,130.465C40.871,128.818 38.359,127.109 36.814,124.912C35.268,122.776 34.785,120.092 36.427,117.956C37.104,117.101 38.166,116.308 39.518,116.064C41.643,115.759 43.672,116.918 45.024,118.139C48.309,121.129 49.757,124.912 51.11,128.574C51.593,129.794 52.752,132.601 50.53,133.272C48.502,134.005 44.638,131.32 43.382,130.465Z" fill="#886800"/>
<path d="M60.479,132.113C63.667,131.137 66.758,130.1 69.269,128.452C71.781,126.804 73.423,124.364 72.94,121.984C72.746,121.007 72.07,120.031 70.911,119.482C69.076,118.689 66.564,119.299 64.729,120.153C60.189,122.228 57.002,125.462 54.007,128.574C52.945,129.611 50.53,131.991 52.268,133.151C54.007,134.249 58.934,132.602 60.479,132.113Z" fill="#886800"/>
<path d="M39.422,147.307C36.91,145.659 34.399,143.951 32.853,141.754C31.308,139.618 30.825,136.933 32.467,134.798C33.143,133.943 34.206,133.15 35.558,132.906C37.683,132.601 39.712,133.76 41.064,134.981C44.348,137.971 45.797,141.754 47.149,145.415C47.632,146.636 48.791,149.443 46.57,150.114C44.541,150.785 40.677,148.1 39.422,147.307Z" fill="#886800"/>
<path d="M56.615,148.955C59.803,147.979 62.894,146.941 65.405,145.294C67.917,143.646 69.559,141.205 69.076,138.825C68.883,137.849 68.207,136.873 67.047,136.324C65.212,135.53 62.701,136.141 60.865,136.995C56.325,139.07 53.138,142.304 50.143,145.416C49.081,146.453 46.666,148.833 48.405,149.993C50.143,151.03 54.973,149.443 56.615,148.955Z" fill="#886800"/>
<path d="M38.359,163.54C35.654,162.075 32.949,160.488 31.114,158.475C29.279,156.461 28.506,153.837 29.762,151.579C30.341,150.664 31.211,149.81 32.563,149.505C34.688,149.016 36.813,150.054 38.262,151.213C41.933,154.02 43.865,157.681 45.7,161.221C46.28,162.441 47.922,165.126 45.797,165.919C43.961,166.713 39.808,164.272 38.359,163.54Z" fill="#886800"/>
<path d="M55.65,164.089C58.644,162.929 61.639,161.648 63.86,159.878C66.082,158.048 67.531,155.546 66.662,153.227C66.372,152.251 65.599,151.335 64.343,150.908C62.411,150.237 59.997,150.969 58.258,151.945C54.008,154.264 51.303,157.681 48.695,161.038C47.826,162.136 45.701,164.699 47.536,165.675C49.468,166.591 54.201,164.699 55.65,164.089Z" fill="#886800"/>
<path d="M47.053,187.154L47.053,187.154C46.924,187.154 46.788,187.153 46.682,187.081C46.534,186.981 46.497,186.819 46.57,186.727C58.354,168.115 71.684,147.002 88.878,127.902C107.618,107.093 129.158,90.984 152.824,80.061C153.017,79.939 153.307,80 153.5,80.183C153.693,80.366 153.596,80.549 153.403,80.671C129.834,91.533 108.487,107.581 89.748,128.329C72.682,147.226 59.423,168.166 47.798,186.676C47.653,186.907 47.326,187.154 47.053,187.154L47.053,187.154Z" fill="#886800"/>
<path d="M111.964,106.85C111.868,106.85 111.771,106.85 111.674,106.789L111.674,106.789C111.347,106.582 111.61,106.154 111.867,105.864C125.797,90.108 142.569,75.733 161.807,63.036C162,62.914 162.29,62.914 162.483,63.036C162.676,63.158 162.676,63.402 162.483,63.524C143.186,76.2 126.465,90.624 112.511,106.377C112.345,106.564 112.214,106.85 111.964,106.85L111.964,106.85Z" fill="#886800"/>
<path d="M103.561,113.257L103.561,113.257C103.432,113.257 103.295,113.257 103.19,113.184C103.188,113.182 103.185,113.18 103.183,113.178C102.959,113.012 103.253,112.71 103.406,112.477C116.06,93.275 134.999,76.012 158.233,62.548C158.269,62.525 158.308,62.507 158.349,62.493C158.728,62.365 159.151,62.884 158.813,63.097L158.813,63.097C135.671,76.503 116.73,93.648 104.171,112.793C104.023,113.019 103.831,113.257 103.561,113.257L103.561,113.257Z" fill="#886800"/>
<path d="M110.902,107.521C110.805,107.521 110.612,107.46 110.515,107.399C110.322,107.277 110.322,107.033 110.515,106.911C113.8,104.531 117.374,102.395 121.044,100.503C136.306,92.631 154.563,88.787 172.239,85.065C172.529,85.004 172.722,85.126 172.819,85.309C172.915,85.492 172.722,85.675 172.529,85.736C154.949,89.458 136.693,93.242 121.624,101.052C118.156,102.888 114.688,104.953 111.485,107.192C111.301,107.321 111.127,107.521 110.902,107.521L110.902,107.521Z" fill="#886800"/>
<path d="M105.202,112.403C105.009,112.403 104.912,112.341 104.816,112.28C104.623,112.158 104.719,111.914 104.912,111.792C118.242,105.141 133.794,100.93 150.022,99.466C150.059,99.466 150.095,99.468 150.129,99.472C150.51,99.516 150.598,100.137 150.215,100.137L150.215,100.137C134.323,101.528 119,105.677 105.939,112.166C105.708,112.281 105.46,112.403 105.202,112.403L105.202,112.403Z" fill="#886800"/>
<path d="M106.265,111.549C106.169,111.549 105.975,111.488 105.879,111.427C105.686,111.305 105.782,111.061 105.975,110.939C120.175,102.945 137.272,97.514 155.142,95.256C155.162,95.256 155.182,95.256 155.201,95.257C155.598,95.27 155.732,95.866 155.335,95.866L155.335,95.866C137.696,98.107 120.914,103.413 106.876,111.187C106.666,111.304 106.505,111.549 106.265,111.549L106.265,111.549Z" fill="#886800"/>
<path d="M114.282,105.019C114.186,105.019 114.089,105.019 113.993,104.958L113.993,104.958C113.679,104.76 114.04,104.352 114.328,104.118C125.705,94.85 138.112,86.06 151.085,77.926C151.278,77.803 151.568,77.803 151.761,77.926C151.954,78.048 151.954,78.292 151.761,78.414C138.748,86.574 126.399,95.393 114.994,104.633C114.778,104.809 114.561,105.019 114.282,105.019L114.282,105.019Z" fill="#886800"/>
<path d="M114.959,116.37C110.419,116.37 105.782,115.454 102.498,112.952C101.049,111.854 101.146,110.206 101.436,108.925C102.402,103.982 105.299,98.917 110.226,93.73C114.573,89.154 119.885,85.065 125.005,81.038C125.198,80.916 125.488,80.916 125.681,81.038C125.874,81.16 125.874,81.404 125.681,81.526C120.561,85.492 115.249,89.581 110.902,94.158C106.072,99.222 103.174,104.226 102.305,109.047C102.112,110.206 102.015,111.61 103.174,112.525C108.294,116.492 117.084,116.186 123.169,114.783C130.124,113.135 136.016,109.901 141.619,106.789C141.812,106.667 142.102,106.728 142.295,106.85C142.488,106.972 142.392,107.216 142.198,107.338C136.499,110.511 130.511,113.746 123.459,115.454C120.948,115.942 117.953,116.37 114.959,116.37Z" fill="#886800"/>
<path d="M105.589,113.867C105.106,113.867 104.623,113.745 104.333,113.501C104.14,113.318 104.14,113.135 104.237,112.891C104.333,112.708 104.623,112.647 104.816,112.708L104.816,112.708C105.087,112.793 105.346,113.134 105.63,113.135C105.649,113.135 105.668,113.135 105.686,113.135C114.572,112.281 122.976,109.596 130.994,107.033C131.062,107.018 131.125,107.011 131.184,107.01C131.543,107.005 131.819,107.535 131.476,107.643L131.476,107.643C123.451,110.238 115.142,112.893 106.176,113.777C105.979,113.797 105.787,113.867 105.589,113.867L105.589,113.867Z" fill="#886800"/>
<path d="M83.951,125.217C83.082,123.448 82.213,121.556 82.309,119.664C82.406,117.773 83.468,115.759 85.69,114.721C86.559,114.294 87.718,113.989 88.781,114.233C90.423,114.538 91.292,115.881 91.582,117.101C92.258,120.03 91.292,123.081 90.326,125.95C90.037,126.926 89.361,129.184 87.429,129.123C85.69,129.001 84.434,126.133 83.951,125.217Z" fill="#886800"/>
<path d="M95.06,130.831C97.765,130.953 100.566,131.076 103.174,130.526C105.782,129.977 108.197,128.757 109.163,126.987C109.549,126.255 109.646,125.4 109.066,124.729C108.197,123.692 106.168,123.448 104.43,123.57C100.179,123.814 96.316,125.278 92.452,126.682C91.196,127.17 88.202,128.146 88.878,129.428C89.361,130.648 93.708,130.77 95.06,130.831Z" fill="#886800"/>
<path d="M70.622,139.374C69.656,137.361 68.69,135.225 68.786,133.089C68.883,130.953 70.042,128.695 72.65,127.475C73.713,126.987 74.969,126.682 76.224,126.926C78.156,127.292 79.025,128.817 79.315,130.16C80.088,133.516 79.025,136.872 77.866,140.168C77.48,141.266 76.804,143.829 74.582,143.707C72.554,143.646 71.201,140.351 70.622,139.374Z" fill="#886800"/>
<path d="M83.179,145.721C86.27,145.904 89.361,145.965 92.259,145.416C95.157,144.806 97.958,143.463 99.02,141.388C99.407,140.534 99.503,139.619 98.924,138.825C97.958,137.666 95.64,137.422 93.708,137.544C88.878,137.849 84.531,139.436 80.184,141.022C78.736,141.571 75.355,142.67 76.127,144.134C76.804,145.477 81.633,145.599 83.179,145.721Z" fill="#886800"/>
<path d="M58.354,154.691C56.615,152.617 54.973,150.42 54.394,148.101C53.814,145.721 54.49,143.097 56.905,141.389C57.871,140.717 59.223,140.168 60.576,140.229C62.797,140.351 64.246,141.877 65.019,143.28C66.951,146.82 66.758,150.725 66.565,154.508C66.468,155.79 66.468,158.719 64.15,158.902C61.832,159.085 59.224,155.79 58.354,154.691Z" fill="#886800"/>
<path d="M74.099,159.756C77.48,159.451 80.957,159.085 84.048,157.987C87.139,156.888 89.748,154.935 90.23,152.556C90.424,151.579 90.231,150.542 89.361,149.749C87.912,148.589 85.304,148.711 83.179,149.138C77.963,150.176 73.616,152.617 69.463,154.997C68.014,155.79 64.729,157.559 65.889,159.024C67.048,160.489 72.36,159.939 74.099,159.756Z" fill="#886800"/>
<path d="M47.729,170.008C45.99,167.933 44.348,165.736 43.768,163.417C43.189,161.038 43.865,158.414 46.28,156.705C47.246,156.034 48.598,155.485 49.95,155.546C52.172,155.668 53.621,157.193 54.394,158.597C56.326,162.136 56.132,166.041 55.939,169.825C55.843,171.106 55.843,174.035 53.524,174.218C51.206,174.401 48.598,171.045 47.729,170.008Z" fill="#886800"/>
<path d="M63.474,175.073C66.854,174.768 70.332,174.401 73.423,173.303C76.514,172.205 79.122,170.252 79.605,167.872C79.798,166.896 79.605,165.858 78.736,165.065C77.287,163.906 74.679,164.028 72.554,164.455C67.337,165.492 62.991,167.933 58.837,170.313C57.388,171.106 54.104,172.876 55.263,174.34C56.422,175.744 61.735,175.195 63.474,175.073Z" fill="#886800"/>
<path d="M40.001,185.385C37.973,183.432 36.041,181.358 35.172,179.039C34.302,176.72 34.592,174.035 36.717,172.204C37.586,171.472 38.842,170.801 40.291,170.801C42.513,170.801 44.155,172.204 45.121,173.608C47.536,177.025 47.825,180.93 48.115,184.714C48.212,185.995 48.598,188.924 46.28,189.229C44.058,189.535 41.064,186.361 40.001,185.385Z" fill="#886800"/>
<path d="M56.326,189.413C59.707,188.925 63.088,188.315 65.985,187.033C68.883,185.752 71.202,183.616 71.395,181.236C71.491,180.26 71.105,179.222 70.139,178.551C68.497,177.514 65.985,177.758 63.957,178.307C58.934,179.71 54.877,182.395 51.013,185.019C49.661,185.935 46.57,187.887 48.019,189.23C49.371,190.572 54.684,189.657 56.326,189.413Z" fill="#886800"/>
<path d="M71.781,182.212C71.685,182.212 71.491,182.151 71.395,182.09C71.202,181.968 71.298,181.724 71.491,181.602C100.47,165.248 123.17,143.829 137.079,119.603C137.176,119.42 137.465,119.359 137.755,119.42C138.045,119.481 138.142,119.664 138.045,119.848C124.096,144.036 101.523,165.5 72.523,181.89C72.287,182.023 72.052,182.212 71.781,182.212L71.781,182.212Z" fill="#886800"/>
<path d="M125.488,137.971L125.488,137.971C125.182,137.971 124.956,137.538 125.224,137.391C125.246,137.379 125.269,137.369 125.295,137.361C130.511,135.469 133.988,131.869 137.176,128.33C143.282,121.386 148.841,114.095 154.207,107.02C154.508,106.622 154.876,106.107 155.335,106.301L155.335,106.301L155.335,106.301C155.712,106.42 155.409,106.947 155.17,107.262C149.775,114.379 144.187,121.771 138.045,128.696C134.91,132.236 131.402,135.895 126.051,137.872C125.871,137.939 125.68,137.971 125.488,137.971L125.488,137.971Z" fill="#886800"/>
<path d="M129.448,132.418L129.448,132.418C129.384,132.418 129.319,132.413 129.258,132.392C129.204,132.373 129.159,132.348 129.122,132.32C128.921,132.169 129.004,131.869 129.082,131.63C132.175,122.176 136.865,112.963 142.874,104.225C142.971,104.042 143.261,103.981 143.551,104.042L143.551,104.042C143.919,104.159 143.63,104.633 143.411,104.952C137.486,113.596 132.87,122.707 129.931,132.113C129.834,132.357 129.641,132.418 129.448,132.418Z" fill="#886800"/>
<path d="M127.709,134.554C127.613,134.554 127.42,134.493 127.323,134.432C125.198,132.845 125.198,130.465 125.488,128.33C126.454,120.58 129.255,113.013 133.795,105.934C133.891,105.751 134.181,105.69 134.471,105.751C134.761,105.812 134.857,106.056 134.761,106.179C130.317,113.196 127.516,120.702 126.55,128.391C126.261,130.343 126.261,132.601 128.096,133.944C128.289,134.066 128.289,134.31 128.096,134.432C127.999,134.493 127.806,134.554 127.709,134.554Z" fill="#886800"/>
<path d="M124.039,140.29L124.039,140.29C123.684,140.29 123.429,139.814 123.765,139.702C123.79,139.693 123.817,139.686 123.846,139.68C134.46,136.478 143.559,130.945 149.457,124.085C149.577,123.946 149.68,123.765 149.86,123.73C149.89,123.723 149.923,123.72 149.957,123.718C150.193,123.706 150.486,123.802 150.537,124.033L150.537,124.033C150.569,124.179 150.457,124.298 150.359,124.411C144.31,131.365 135.087,137.008 124.444,140.286C124.339,140.319 124.149,140.29 124.039,140.29L124.039,140.29Z" fill="#886800"/>
<path d="M126.067,136.567C125.874,136.567 125.681,136.506 125.584,136.323C123.846,133.15 123.942,129.672 124.425,126.377C125.101,121.19 126.357,116.064 128.192,110.999C128.289,110.816 128.482,110.694 128.772,110.755L128.772,110.755C129.18,110.841 129.084,111.382 128.944,111.775C127.225,116.591 126.041,121.514 125.391,126.438C125.005,129.672 124.811,133.028 126.55,136.079C126.621,136.213 126.588,136.346 126.454,136.432C126.338,136.506 126.205,136.567 126.067,136.567L126.067,136.567Z" fill="#886800"/>
<path d="M135.533,141.694C137.465,142.06 139.3,142.731 140.266,143.89C141.232,145.172 140.943,146.82 139.687,148.04C138.528,149.26 136.596,149.993 134.567,150.359C130.124,151.274 125.004,150.42 121.527,148.223C120.464,147.491 117.663,146.331 117.953,145.416C118.146,144.806 122.01,143.341 122.783,142.975C126.647,141.45 131.283,140.9 135.533,141.694Z" fill="#886800"/>
<path d="M106.845,136.446C106.941,135.103 107.424,133.639 108.873,132.723C110.419,131.747 112.834,131.625 114.765,132.235C116.697,132.784 118.146,133.944 119.112,135.286C121.334,138.154 121.237,141.816 118.822,144.684C118.05,145.599 116.987,147.735 115.635,147.735C114.669,147.735 111.868,145.416 111.191,144.928C108.39,142.609 106.651,139.497 106.845,136.446Z" fill="#886800"/>
<path d="M125.198,152.25C127.13,152.616 128.965,153.288 129.931,154.447C130.897,155.729 130.607,157.376 129.351,158.597C128.192,159.817 126.26,160.549 124.232,160.915C119.788,161.831 114.669,160.976 111.192,158.78C110.129,158.047 107.328,156.888 107.618,155.973C107.811,155.362 111.675,153.898 112.447,153.532C116.311,152.006 120.948,151.457 125.198,152.25Z" fill="#886800"/>
<path d="M97.668,145.965C97.765,144.623 98.248,143.158 99.697,142.243C101.242,141.267 103.657,141.145 105.589,141.755C107.521,142.304 108.97,143.463 109.936,144.806C112.158,147.674 112.061,151.335 109.646,154.203C108.873,155.119 107.811,157.254 106.459,157.254C105.493,157.254 102.691,154.936 102.015,154.447C99.214,152.129 97.475,149.016 97.668,145.965Z" fill="#886800"/>
<path d="M112.158,163.539C114.09,163.906 115.925,164.577 116.891,165.736C117.857,167.018 117.567,168.665 116.311,169.886C115.152,171.106 113.22,171.838 111.192,172.205C106.748,173.12 101.629,172.266 98.152,170.069C97.089,169.336 94.288,168.177 94.578,167.262C94.771,166.651 98.635,165.187 99.407,164.821C103.271,163.295 107.908,162.746 112.158,163.539Z" fill="#886800"/>
<path d="M85.498,155.423C85.594,154.081 86.077,152.616 87.526,151.701C89.072,150.725 91.486,150.603 93.418,151.213C95.35,151.762 96.799,152.921 97.765,154.264C99.987,157.132 99.89,160.793 97.475,163.661C96.702,164.577 95.64,166.712 94.288,166.712C93.322,166.712 90.52,164.394 89.844,163.905C87.043,161.587 85.304,158.474 85.498,155.423Z" fill="#886800"/>
</svg>
