<svg width="54" height="64" viewBox="0 0 54 64" fill="none" xmlns="http://www.w3.org/2000/svg" xmlns:xlink="http://www.w3.org/1999/xlink">
<path d="M35.055,5.378C35.319,3.016 33.645,0.883 31.283,0.618C28.92,0.336 26.787,2.029 26.523,4.391C26.206,7.088 26.646,10.314 27.21,13.628C28.779,14.104 30.295,14.791 31.706,15.602C33.222,12.024 34.702,8.481 35.055,5.378ZM51.643,15.743C50.709,13.558 48.17,12.57 45.984,13.505C43.111,14.756 40.132,17.207 37.135,19.727C38.263,20.838 39.321,22.09 40.22,23.447C43.622,23.024 46.884,22.513 49.404,21.42C51.59,20.45 52.595,17.912 51.643,15.743ZM44.398,4.215C42.494,2.804 39.797,3.192 38.387,5.096C36.236,7.987 34.791,12.306 33.222,16.519C33.75,16.872 34.244,17.224 34.72,17.594C35.073,17.876 35.443,18.176 35.813,18.476C39.409,15.761 43.146,13.117 45.297,10.226C46.707,8.322 46.302,5.625 44.398,4.215Z" clip-rule="evenodd" fill-rule="evenodd" fill="#53B175"/>
<path d="M36.218,38.731C34.896,40.159 33.486,41.481 31.987,42.768C29.889,44.583 27.756,46.346 25.588,48.038C23.261,46.611 21.586,45.888 21.304,46.258C21.058,46.593 22.027,47.827 23.772,49.431C17.92,53.785 11.732,57.628 5.086,60.784C4.046,61.277 2.953,61.63 1.878,62.018C1.596,62.123 1.296,62.123 1.173,62.141C-0.519,62.335 -1.031,61.877 -0.96,60.325C-0.748,55.495 0.75,50.965 2.301,46.452C2.724,45.218 3.165,43.984 3.623,42.75C5.968,44.178 7.643,44.918 7.925,44.548C8.224,44.143 6.814,42.521 4.452,40.494C6.144,36.122 8.03,31.82 10.252,27.695C14.694,30.992 18.643,33.16 19.083,32.561C19.524,31.961 16.263,28.771 11.768,25.439L11.574,25.298C12.349,23.976 13.16,22.654 14.024,21.367C15.099,19.745 16.421,18.264 17.726,16.819C19.471,14.897 21.727,14.245 24.248,14.809C32.322,16.607 37.928,21.243 40.572,29.194C41.101,30.816 40.625,32.402 39.796,33.865C39.232,34.852 38.615,35.787 37.928,36.668C33.662,33.548 29.96,31.538 29.537,32.102C29.131,32.667 32.075,35.575 36.218,38.731Z" fill="#F3603F"/>
</svg>
