<svg width="282" height="300" viewBox="0 0 282 300" fill="none" xmlns="http://www.w3.org/2000/svg" xmlns:xlink="http://www.w3.org/1999/xlink">
<path d="M112.585,116.492C112.585,116.492 80.908,120.861 61.929,187.423L64.864,243.199L95.859,212.547L112.585,116.492Z" fill="#FFFFFF"/>
<path d="M53.258,168.376C53.258,168.376 73.944,199.575 78.245,229.955L64.932,243.131C64.932,243.131 51.142,251.665 42.472,231.799C33.733,211.932 36.191,203.945 36.191,203.945L39.673,214.117L53.258,168.376Z" fill="#FFFFFF"/>
<path d="M39.605,214.117C39.605,214.117 25.336,209.202 21.854,200.122C21.854,200.122 33.392,191.247 33.392,179.846C33.324,179.846 40.014,204.354 39.605,214.117Z" fill="#FFFFFF"/>
<path d="M39.604,214.117C39.604,214.117 54.829,199.302 70.257,210.908C70.257,210.908 81.044,185.785 53.19,168.376L39.604,214.117Z" fill="#FFFFFF"/>
<path d="M38.907,213.4C38.511,213.785 38.503,214.418 38.888,214.814C39.273,215.21 39.906,215.219 40.302,214.834L38.907,213.4ZM70.257,210.908L69.656,211.707C69.901,211.892 70.218,211.953 70.515,211.875C70.811,211.796 71.055,211.585 71.176,211.303L70.257,210.908ZM53.72,167.528C53.252,167.236 52.635,167.378 52.342,167.846C52.049,168.315 52.192,168.932 52.66,169.224L53.72,167.528ZM39.604,214.117C40.302,214.834 40.302,214.834 40.301,214.834C40.301,214.834 40.301,214.834 40.301,214.834C40.301,214.834 40.302,214.834 40.302,214.833C40.303,214.832 40.305,214.83 40.308,214.828C40.314,214.822 40.323,214.814 40.336,214.801C40.361,214.777 40.401,214.74 40.455,214.69C40.563,214.592 40.725,214.446 40.939,214.262C41.368,213.895 42.001,213.379 42.811,212.793C44.432,211.62 46.743,210.178 49.511,209.091C55.024,206.925 62.297,206.172 69.656,211.707L70.858,210.109C62.789,204.039 54.735,204.89 48.779,207.23C45.813,208.395 43.353,209.932 41.638,211.173C40.779,211.795 40.103,212.346 39.638,212.743C39.406,212.942 39.227,213.103 39.103,213.216C39.042,213.273 38.995,213.317 38.962,213.348C38.945,213.364 38.932,213.376 38.923,213.385C38.919,213.389 38.915,213.392 38.912,213.395C38.911,213.396 38.91,213.397 38.909,213.398C38.909,213.399 38.908,213.399 38.908,213.399C38.907,213.4 38.907,213.4 39.604,214.117ZM70.257,210.908C71.176,211.303 71.176,211.302 71.177,211.301C71.177,211.301 71.177,211.3 71.178,211.299C71.178,211.298 71.179,211.296 71.18,211.294C71.182,211.289 71.184,211.283 71.188,211.276C71.194,211.261 71.203,211.24 71.214,211.212C71.236,211.158 71.267,211.08 71.305,210.98C71.382,210.779 71.49,210.486 71.615,210.111C71.865,209.361 72.188,208.277 72.484,206.925C73.077,204.222 73.569,200.432 73.165,196.078C72.352,187.323 67.922,176.405 53.72,167.528L52.66,169.224C66.312,177.757 70.416,188.104 71.173,196.263C71.554,200.366 71.09,203.944 70.531,206.497C70.251,207.771 69.949,208.787 69.718,209.478C69.602,209.824 69.505,210.088 69.438,210.264C69.404,210.351 69.378,210.417 69.361,210.459C69.353,210.48 69.346,210.495 69.342,210.504C69.341,210.509 69.339,210.512 69.339,210.513C69.338,210.514 69.338,210.515 69.338,210.515C69.338,210.515 69.338,210.514 69.338,210.514C69.338,210.514 69.338,210.514 70.257,210.908Z" fill="#7B0A32"/>
<path d="M39.809,213.366L38.376,211.932C35.986,209.611 34.553,206.403 34.416,203.057L32.709,162.779C32.709,162.779 32.163,149.193 21.923,139.089C21.923,139.089 3.558,123.455 0.486,116.219C-0.128,114.717 1.442,113.283 2.876,113.966C4.924,114.99 8.542,117.584 14.413,124.138C14.413,124.138 -0.401,108.095 0.008,99.834C0.077,98.469 1.852,97.923 2.671,99.015C5.402,102.633 11.546,110.416 19.875,118.95C19.875,118.95 10.863,104.067 11.273,96.557C11.409,94.509 14.277,94.031 14.959,96.011C17.076,101.814 21.513,112.942 24.722,112.396C24.722,112.396 28.204,96.284 41.311,108.846C41.311,108.846 46.022,113.693 32.573,111.303C32.573,111.303 34.348,121.203 43.906,122.636C43.906,122.636 39.536,108.573 43.906,106.798C43.906,106.798 47.114,106.115 50.937,121.68C51.006,122.09 51.142,122.5 51.142,122.909C51.552,125.845 52.712,137.519 49.094,153.084L53.122,168.513L39.809,213.366Z" fill="#FF9A5A"/>
<g opacity="0.39">
<path d="M39.809,213.366L38.376,211.932C35.986,209.611 34.553,206.403 34.416,203.057L32.709,162.779C32.709,162.779 32.163,149.193 21.923,139.089C21.923,139.089 3.558,123.455 0.486,116.219C-0.128,114.717 1.442,113.283 2.876,113.966C4.924,114.99 8.542,117.584 14.413,124.138C14.413,124.138 -0.401,108.095 0.008,99.834C0.077,98.469 1.852,97.923 2.671,99.015C5.402,102.633 11.546,110.416 19.875,118.95C19.875,118.95 10.863,104.067 11.273,96.557C11.409,94.509 14.277,94.031 14.959,96.011C17.076,101.814 21.513,112.942 24.722,112.396C24.722,112.396 28.204,96.284 41.311,108.846C41.311,108.846 46.022,113.693 32.573,111.303C32.573,111.303 34.348,121.203 43.906,122.636C43.906,122.636 39.536,108.573 43.906,106.798C43.906,106.798 47.114,106.115 50.937,121.68C51.006,122.09 51.142,122.5 51.142,122.909C51.552,125.845 52.712,137.519 49.094,153.084L53.122,168.513L39.809,213.366Z" fill="#7B0A32"/>
</g>
<path d="M27.405,108.662C27.756,108.235 27.695,107.605 27.268,107.254C26.842,106.903 26.212,106.965 25.861,107.391L27.405,108.662ZM25.98,116.02C26.398,116.381 27.03,116.334 27.39,115.916C27.751,115.498 27.705,114.867 27.286,114.506L25.98,116.02ZM26.633,108.026C25.861,107.391 25.861,107.391 25.86,107.392C25.86,107.392 25.86,107.392 25.86,107.393C25.859,107.393 25.859,107.394 25.858,107.394C25.857,107.396 25.856,107.397 25.854,107.399C25.851,107.403 25.847,107.408 25.842,107.414C25.833,107.426 25.821,107.441 25.805,107.461C25.774,107.501 25.732,107.556 25.681,107.626C25.58,107.766 25.443,107.965 25.291,108.212C24.99,108.703 24.62,109.405 24.371,110.228C24.121,111.05 23.979,112.034 24.184,113.06C24.392,114.106 24.947,115.129 25.98,116.02L27.286,114.506C26.579,113.895 26.263,113.263 26.145,112.67C26.023,112.058 26.099,111.42 26.284,110.809C26.47,110.198 26.753,109.654 26.996,109.257C27.116,109.061 27.224,108.906 27.299,108.802C27.337,108.75 27.366,108.712 27.385,108.688C27.394,108.676 27.4,108.668 27.404,108.663C27.406,108.661 27.407,108.66 27.407,108.66C27.407,108.659 27.407,108.66 27.407,108.66C27.407,108.66 27.407,108.66 27.406,108.661C27.406,108.661 27.406,108.661 27.406,108.661C27.406,108.661 27.405,108.662 26.633,108.026Z" fill="#7B0A32"/>
<path d="M30.987,115.342C31.52,115.2 31.838,114.652 31.696,114.118C31.554,113.584 31.006,113.267 30.472,113.409L30.987,115.342ZM13.253,127.188C13.09,127.715 13.385,128.275 13.913,128.439C14.44,128.602 15,128.306 15.164,127.779L13.253,127.188ZM30.729,114.375C30.472,113.409 30.472,113.409 30.471,113.409C30.471,113.409 30.471,113.41 30.47,113.41C30.47,113.41 30.469,113.41 30.467,113.41C30.465,113.411 30.462,113.412 30.458,113.413C30.45,113.415 30.438,113.418 30.424,113.422C30.395,113.43 30.353,113.442 30.3,113.457C30.193,113.488 30.039,113.534 29.843,113.595C29.451,113.717 28.892,113.901 28.214,114.151C26.86,114.651 25.022,115.42 23.084,116.497C19.248,118.628 14.836,122.069 13.253,127.188L15.164,127.779C16.516,123.408 20.365,120.295 24.055,118.245C25.881,117.231 27.622,116.502 28.907,116.027C29.549,115.79 30.075,115.617 30.437,115.504C30.619,115.448 30.759,115.406 30.852,115.379C30.899,115.366 30.934,115.356 30.957,115.35C30.968,115.347 30.977,115.345 30.982,115.343C30.984,115.343 30.986,115.342 30.987,115.342C30.987,115.342 30.987,115.342 30.987,115.342C30.987,115.342 30.987,115.342 30.987,115.342C30.987,115.342 30.987,115.342 30.729,114.375Z" fill="#7B0A32"/>
<path d="M28.132,108.724C27.612,108.537 27.039,108.808 26.853,109.327C26.666,109.847 26.936,110.42 27.456,110.606L28.132,108.724ZM41.01,112.644C41.561,112.622 41.991,112.157 41.969,111.605C41.947,111.053 41.482,110.624 40.93,110.646L41.01,112.644ZM27.794,109.665C27.456,110.606 27.457,110.606 27.457,110.606C27.457,110.607 27.457,110.607 27.457,110.607C27.458,110.607 27.458,110.607 27.459,110.607C27.46,110.608 27.462,110.608 27.464,110.609C27.468,110.61 27.473,110.612 27.48,110.615C27.494,110.62 27.514,110.627 27.54,110.636C27.592,110.654 27.667,110.679 27.764,110.711C27.958,110.775 28.24,110.865 28.598,110.971C29.315,111.184 30.34,111.464 31.584,111.734C34.065,112.274 37.449,112.785 41.01,112.644L40.93,110.646C37.596,110.778 34.391,110.298 32.009,109.78C30.821,109.522 29.844,109.255 29.168,109.054C28.83,108.954 28.567,108.87 28.39,108.812C28.302,108.783 28.236,108.76 28.192,108.745C28.17,108.737 28.154,108.732 28.144,108.728C28.139,108.726 28.135,108.725 28.133,108.724C28.132,108.724 28.132,108.724 28.131,108.724C28.131,108.724 28.131,108.724 28.131,108.724C28.131,108.724 28.131,108.724 28.131,108.724C28.131,108.724 28.132,108.724 27.794,109.665Z" fill="#7B0A32"/>
<path d="M142.486,91.506L142.486,105.979L133.406,110.484C133.406,110.484 139.824,159.638 150.337,159.092C160.782,158.546 160.782,133.833 160.782,133.833L170.886,119.018L170.886,85.02L142.486,91.506Z" fill="#FF9A5A"/>
<g opacity="0.39">
<path d="M142.486,91.506L142.486,105.979L133.406,110.484C133.406,110.484 139.824,159.638 150.337,159.092C160.782,158.546 160.782,133.833 160.782,133.833L170.886,119.018L170.886,85.02L142.486,91.506Z" fill="#7B0A32"/>
</g>
<path d="M142.759,102.019C142.759,102.019 154.502,104.067 163.445,93.758L142.759,93.758L142.759,102.019Z" fill="#7B0A32"/>
<path d="M146.037,138.953C146.856,140.66 147.197,142.571 147.129,144.483C146.856,149.262 146.788,158.614 150.338,159.161C155.048,159.843 153.683,142.981 153.683,142.981C153.683,142.981 157.506,126.938 168.429,129.259L192.733,103.589C192.733,103.589 223.727,109.187 231.783,119.291C231.783,119.291 216.081,281.977 240.521,300L101.661,300C101.661,300 80.976,149.671 112.584,116.561L131.973,109.256L146.037,138.953Z" fill="#FFFFFF"/>
<path d="M146.135,144.647C145.622,144.442 145.04,144.691 144.835,145.204C144.63,145.717 144.879,146.299 145.392,146.504L146.135,144.647ZM155.233,147.205C155.756,147.028 156.036,146.46 155.859,145.937C155.681,145.414 155.114,145.134 154.59,145.311L155.233,147.205ZM145.763,145.575C145.392,146.504 145.392,146.504 145.393,146.504C145.393,146.504 145.393,146.504 145.393,146.504C145.394,146.504 145.394,146.505 145.395,146.505C145.396,146.505 145.398,146.506 145.399,146.507C145.403,146.508 145.408,146.51 145.414,146.512C145.427,146.517 145.444,146.524 145.466,146.532C145.51,146.549 145.572,146.572 145.652,146.601C145.812,146.659 146.041,146.738 146.327,146.828C146.897,147.007 147.701,147.231 148.639,147.411C150.487,147.764 152.977,147.97 155.233,147.205L154.59,145.311C152.818,145.912 150.734,145.775 149.015,145.446C148.169,145.284 147.441,145.082 146.926,144.92C146.669,144.839 146.467,144.769 146.331,144.72C146.263,144.695 146.211,144.676 146.178,144.663C146.161,144.657 146.149,144.652 146.142,144.65C146.139,144.648 146.136,144.647 146.135,144.647C146.134,144.646 146.134,144.646 146.134,144.646C146.134,144.646 146.134,144.646 146.134,144.646C146.134,144.646 146.134,144.647 146.134,144.647C146.135,144.647 146.135,144.647 145.763,145.575Z" fill="#FFFFFF"/>
<path d="M146.135,148.948C145.622,148.743 145.04,148.992 144.835,149.505C144.63,150.018 144.879,150.6 145.392,150.805L146.135,148.948ZM155.233,151.506C155.756,151.329 156.036,150.761 155.859,150.238C155.681,149.715 155.114,149.435 154.59,149.612L155.233,151.506ZM145.763,149.876C145.392,150.805 145.392,150.805 145.393,150.805C145.393,150.805 145.393,150.805 145.393,150.805C145.394,150.806 145.394,150.806 145.395,150.806C145.396,150.807 145.398,150.807 145.399,150.808C145.403,150.809 145.408,150.811 145.414,150.814C145.427,150.819 145.444,150.825 145.466,150.834C145.51,150.85 145.572,150.874 145.652,150.902C145.812,150.96 146.041,151.039 146.327,151.129C146.897,151.309 147.701,151.533 148.639,151.712C150.487,152.066 152.977,152.271 155.233,151.506L154.59,149.612C152.818,150.213 150.734,150.077 149.015,149.748C148.169,149.586 147.441,149.383 146.926,149.221C146.669,149.14 146.467,149.07 146.331,149.021C146.263,148.997 146.211,148.977 146.178,148.965C146.161,148.958 146.149,148.954 146.142,148.951C146.139,148.949 146.136,148.948 146.135,148.948C146.134,148.948 146.134,148.948 146.134,148.948C146.134,148.948 146.134,148.948 146.134,148.948C146.134,148.948 146.134,148.948 146.134,148.948C146.135,148.948 146.135,148.948 145.763,149.876Z" fill="#FFFFFF"/>
<path d="M146.135,153.317C145.622,153.112 145.04,153.361 144.835,153.874C144.63,154.387 144.879,154.969 145.392,155.174L146.135,153.317ZM155.233,155.875C155.756,155.698 156.036,155.13 155.859,154.607C155.681,154.084 155.114,153.804 154.59,153.981L155.233,155.875ZM145.763,154.246C145.392,155.174 145.392,155.174 145.393,155.174C145.393,155.174 145.393,155.174 145.393,155.175C145.394,155.175 145.394,155.175 145.395,155.175C145.396,155.176 145.398,155.176 145.399,155.177C145.403,155.178 145.408,155.18 145.414,155.183C145.427,155.188 145.444,155.194 145.466,155.203C145.51,155.219 145.572,155.243 145.652,155.272C145.812,155.329 146.041,155.408 146.327,155.498C146.897,155.678 147.701,155.902 148.639,156.081C150.487,156.435 152.977,156.64 155.233,155.875L154.59,153.981C152.818,154.582 150.734,154.446 149.015,154.117C148.169,153.955 147.441,153.752 146.926,153.59C146.669,153.51 146.467,153.439 146.331,153.39C146.263,153.366 146.211,153.346 146.178,153.334C146.161,153.328 146.149,153.323 146.142,153.32C146.139,153.319 146.136,153.318 146.135,153.317C146.134,153.317 146.134,153.317 146.134,153.317C146.134,153.317 146.134,153.317 146.134,153.317C146.134,153.317 146.134,153.317 146.134,153.317C146.135,153.317 146.135,153.317 145.763,154.246Z" fill="#FFFFFF"/>
<path d="M95.918,167.899C96.182,167.414 96.002,166.807 95.517,166.543C95.032,166.279 94.425,166.458 94.161,166.943L95.918,167.899ZM95.474,246.258C95.504,246.809 95.975,247.232 96.526,247.203C97.078,247.173 97.501,246.702 97.471,246.151L95.474,246.258ZM95.039,167.421C94.161,166.943 94.159,166.947 94.157,166.95C94.157,166.951 94.155,166.954 94.154,166.956C94.152,166.96 94.15,166.965 94.147,166.969C94.143,166.977 94.139,166.986 94.135,166.995C94.127,167.012 94.119,167.03 94.111,167.048C94.095,167.085 94.08,167.126 94.064,167.173C94.033,167.264 93.999,167.385 93.963,167.545C93.891,167.866 93.802,168.377 93.712,169.196C93.532,170.835 93.34,173.768 93.271,178.997C93.134,189.458 93.494,209.179 95.474,246.258L97.471,246.151C95.492,209.089 95.135,189.418 95.271,179.023C95.339,173.824 95.53,170.963 95.7,169.414C95.785,168.64 95.864,168.209 95.914,167.986C95.939,167.875 95.955,167.823 95.96,167.811C95.962,167.805 95.96,167.811 95.954,167.826C95.95,167.833 95.946,167.843 95.94,167.855C95.937,167.862 95.934,167.868 95.93,167.876C95.928,167.879 95.926,167.883 95.924,167.887C95.923,167.889 95.921,167.892 95.921,167.893C95.919,167.896 95.918,167.899 95.039,167.421Z" fill="#7B0A32"/>
<path d="M153.614,142.981C153.614,142.981 151.703,127.962 169.999,119.292L173.481,133.082C173.481,133.014 161.124,124.685 153.614,142.981Z" fill="#FFFFFF"/>
<path d="M172.921,133.842C173.379,134.151 174,134.031 174.31,133.574C174.619,133.116 174.498,132.494 174.041,132.185L172.921,133.842ZM152.688,142.605C152.48,143.117 152.727,143.7 153.239,143.908C153.751,144.115 154.334,143.868 154.541,143.356L152.688,142.605ZM173.481,133.014C174.041,132.185 174.04,132.185 174.04,132.184C174.039,132.184 174.039,132.184 174.038,132.183C174.037,132.183 174.036,132.182 174.034,132.181C174.031,132.179 174.028,132.176 174.023,132.173C174.014,132.167 174.002,132.16 173.988,132.15C173.958,132.131 173.916,132.104 173.863,132.072C173.757,132.007 173.605,131.917 173.412,131.811C173.027,131.6 172.473,131.325 171.787,131.057C170.419,130.523 168.49,130.005 166.29,130.112C164.073,130.22 161.615,130.961 159.228,132.9C156.851,134.829 154.593,137.904 152.688,142.605L154.541,143.356C156.357,138.876 158.442,136.114 160.488,134.452C162.523,132.8 164.567,132.198 166.387,132.109C168.223,132.02 169.865,132.453 171.059,132.92C171.654,133.152 172.13,133.389 172.453,133.566C172.614,133.654 172.736,133.727 172.816,133.776C172.856,133.8 172.885,133.819 172.903,133.83C172.911,133.836 172.917,133.84 172.92,133.842C172.922,133.843 172.923,133.843 172.923,133.843C172.923,133.843 172.923,133.843 172.922,133.843C172.922,133.843 172.922,133.843 172.922,133.843C172.921,133.842 172.921,133.842 173.481,133.014Z" fill="#7B0A32"/>
<path d="M142.487,99.493L142.487,105.979C142.487,105.979 131.973,112.123 141.872,126.255C144.262,129.668 145.832,133.56 146.446,137.656C146.719,139.772 146.992,142.366 147.129,145.575C147.129,145.575 144.262,123.456 113.813,137.383C113.813,137.383 105.007,115.059 136.138,101.61L142.487,99.493Z" fill="#FFFFFF"/>
<path d="M146.069,145.703C146.14,146.251 146.641,146.638 147.189,146.567C147.737,146.496 148.123,145.994 148.052,145.446L146.069,145.703ZM113.745,137.383L112.815,137.749C112.916,138.005 113.117,138.207 113.371,138.31C113.626,138.413 113.911,138.406 114.161,138.292L113.745,137.383ZM136.466,102.527C136.973,102.308 137.206,101.72 136.987,101.213C136.768,100.706 136.18,100.472 135.673,100.691L136.466,102.527ZM147.061,145.575C148.052,145.446 148.052,145.445 148.052,145.445C148.052,145.444 148.052,145.443 148.052,145.442C148.052,145.441 148.051,145.439 148.051,145.437C148.05,145.432 148.05,145.426 148.049,145.419C148.046,145.405 148.044,145.385 148.04,145.36C148.032,145.311 148.021,145.241 148.005,145.153C147.974,144.978 147.924,144.728 147.851,144.419C147.703,143.803 147.458,142.945 147.065,141.964C146.28,140.007 144.888,137.521 142.463,135.49C137.525,131.352 128.735,129.427 113.329,136.473L114.161,138.292C129.204,131.411 137.071,133.582 141.179,137.023C143.277,138.78 144.505,140.954 145.209,142.709C145.56,143.584 145.777,144.345 145.905,144.884C145.969,145.153 146.011,145.365 146.037,145.506C146.049,145.577 146.058,145.63 146.063,145.663C146.065,145.68 146.067,145.692 146.068,145.699C146.069,145.702 146.069,145.704 146.069,145.705C146.069,145.705 146.069,145.705 146.069,145.705C146.069,145.705 146.069,145.705 146.069,145.705C146.069,145.704 146.069,145.703 147.061,145.575ZM113.745,137.383C114.675,137.016 114.676,137.016 114.676,137.017C114.676,137.017 114.676,137.017 114.676,137.017C114.676,137.017 114.676,137.017 114.676,137.017C114.675,137.016 114.675,137.013 114.673,137.01C114.67,137.003 114.666,136.99 114.659,136.972C114.646,136.937 114.626,136.881 114.6,136.806C114.549,136.655 114.475,136.425 114.39,136.125C114.22,135.524 114.007,134.642 113.845,133.539C113.519,131.33 113.397,128.249 114.207,124.766C115.814,117.858 121.146,109.146 136.466,102.527L135.673,100.691C119.862,107.522 114.031,116.696 112.259,124.313C111.38,128.092 111.513,131.433 111.866,133.83C112.043,135.029 112.275,135.996 112.465,136.669C112.56,137.006 112.645,137.269 112.707,137.451C112.739,137.543 112.764,137.614 112.782,137.664C112.792,137.689 112.799,137.708 112.805,137.723C112.807,137.73 112.81,137.736 112.811,137.74C112.812,137.742 112.813,137.744 112.813,137.746C112.814,137.747 112.814,137.748 112.814,137.748C112.815,137.749 112.815,137.749 113.745,137.383Z" fill="#7B0A32"/>
<path d="M210.141,115.127C222.225,121.886 211.78,130.351 205.021,136.29C199.218,142.435 191.572,145.985 183.516,148.238C182.424,148.715 181.263,148.511 180.512,147.555C169.384,132.263 171.433,100.039 186.042,87.41C189.729,85.566 191.299,91.984 192.528,94.441C196.692,102.702 202.768,109.87 210.141,115.127Z" fill="#FFB715"/>
<path d="M182.424,148.579C178.259,141.001 177.645,131.853 179.079,123.387C180.512,114.854 183.857,106.798 187.203,98.81C189.114,94.373 191.026,89.731 190.889,84.883C190.753,78.466 186.588,72.322 180.649,69.796C177.099,72.527 175.255,75.735 172.047,78.739C173.958,80.173 176.143,81.265 178.464,82.016C167.063,98.128 165.152,120.52 173.754,138.27C176.143,143.39 177.031,147.008 182.424,148.579Z" fill="#FFB715"/>
<path d="M178.396,82.084C178.396,82.084 187.954,86.659 190.821,84.884C190.821,84.884 185.906,91.301 175.802,86.112L178.396,82.084Z" fill="#7B0A32"/>
<path d="M185.018,106.593C185.018,106.593 171.296,142.912 187.134,146.736L181.605,148.306C181.605,148.306 165.903,143.186 185.018,106.593Z" fill="#7B0A32"/>
<path d="M190.368,78.516C189.943,78.163 189.313,78.221 188.96,78.646C188.607,79.07 188.665,79.701 189.089,80.054L190.368,78.516ZM180.512,116.902L181.408,117.348L181.417,117.327L180.512,116.902ZM178.988,147.097C179.414,147.448 180.045,147.388 180.396,146.962C180.748,146.536 180.687,145.906 180.261,145.554L178.988,147.097ZM189.729,79.285C189.089,80.054 189.088,80.053 189.086,80.051C189.086,80.051 189.084,80.05 189.083,80.049C189.081,80.047 189.079,80.045 189.077,80.044C189.074,80.041 189.07,80.038 189.067,80.035C189.062,80.03 189.057,80.026 189.054,80.023C189.048,80.018 189.048,80.017 189.052,80.022C189.061,80.031 189.09,80.064 189.131,80.126C189.214,80.248 189.353,80.491 189.491,80.902C189.769,81.728 190.047,83.237 189.858,85.808C189.478,90.965 187.232,100.24 179.607,116.477L181.417,117.327C189.085,100.999 191.447,91.466 191.852,85.955C192.056,83.192 191.77,81.404 191.387,80.264C191.195,79.693 190.978,79.287 190.789,79.006C190.694,78.866 190.607,78.758 190.534,78.678C190.498,78.638 190.465,78.605 190.437,78.578C190.423,78.565 190.41,78.553 190.399,78.543C190.393,78.537 190.387,78.533 190.382,78.528C190.38,78.526 190.377,78.524 190.375,78.522C190.374,78.521 190.372,78.52 190.371,78.519C190.37,78.518 190.368,78.516 189.729,79.285ZM180.512,116.902C179.617,116.456 179.617,116.456 179.617,116.456C179.617,116.456 179.617,116.457 179.616,116.457C179.616,116.458 179.615,116.46 179.614,116.461C179.613,116.464 179.611,116.469 179.608,116.475C179.602,116.486 179.594,116.503 179.583,116.525C179.562,116.568 179.532,116.631 179.493,116.713C179.414,116.877 179.302,117.116 179.163,117.422C178.885,118.035 178.501,118.916 178.071,119.997C177.214,122.156 176.169,125.131 175.432,128.371C174.698,131.603 174.259,135.154 174.652,138.448C175.047,141.753 176.291,144.871 178.988,147.097L180.261,145.554C178.077,143.752 176.992,141.179 176.638,138.211C176.282,135.233 176.675,131.931 177.383,128.814C178.089,125.706 179.096,122.834 179.93,120.735C180.346,119.688 180.718,118.836 180.984,118.249C181.118,117.955 181.225,117.727 181.298,117.574C181.334,117.498 181.362,117.44 181.381,117.402C181.39,117.383 181.397,117.369 181.401,117.36C181.404,117.355 181.405,117.352 181.406,117.35C181.407,117.349 181.407,117.348 181.407,117.348C181.407,117.348 181.407,117.348 181.407,117.347C181.407,117.348 181.407,117.348 180.512,116.902Z" fill="#7B0A32"/>
<path d="M128.15,34.569C128.15,34.569 112.448,80.377 132.656,91.232C152.863,102.087 167.2,97.035 174.163,79.285C174.163,79.285 186.725,39.074 142.418,30.404L128.15,34.569Z" fill="#FF9A5A"/>
<g opacity="0.39">
<path d="M128.15,34.569C128.15,34.569 112.448,80.377 132.656,91.232C152.863,102.087 167.2,97.035 174.163,79.285C174.163,79.285 186.725,39.074 142.418,30.404L128.15,34.569Z" fill="#7B0A32"/>
</g>
<path d="M139.756,76.418C141.258,78.125 143.374,79.353 145.627,79.353C147.88,79.353 150.133,77.783 150.542,75.53C149.518,74.301 147.948,73.619 146.446,73.277C144.944,72.936 143.306,72.936 141.667,72.936C140.985,72.936 140.302,72.936 139.619,73.209C137.503,73.892 138.732,75.325 139.756,76.418Z" fill="#7B0A32"/>
<path d="M152.932,71.844C151.225,70.752 148.631,69.659 145.832,69.318C143.784,72.185 141.053,70.82 139.892,70.069C139.073,70.41 137.298,71.639 136.547,72.253C133.884,74.575 132.792,76.008 128.901,76.623C128.833,77.51 132.519,78.534 133.475,78.534C137.025,78.876 137.571,76.281 140.234,74.643C141.804,77.374 146.173,77.852 148.221,75.121C151.43,78.739 157.164,79.9 161.465,77.783C158.325,76.418 155.867,73.755 152.932,71.844Z" fill="#FFF0D3"/>
<path d="M145.919,53.069C146.22,52.606 146.089,51.986 145.625,51.685C145.162,51.384 144.543,51.516 144.242,51.979L145.919,53.069ZM140.507,70.684L139.954,71.517L139.959,71.521L140.507,70.684ZM147.338,68.747C147.588,68.254 147.391,67.652 146.898,67.402C146.406,67.152 145.804,67.349 145.554,67.842L147.338,68.747ZM145.081,52.524C144.242,51.979 144.242,51.979 144.242,51.98C144.242,51.98 144.241,51.98 144.241,51.98C144.241,51.981 144.24,51.982 144.24,51.983C144.238,51.985 144.236,51.988 144.234,51.992C144.229,52 144.221,52.011 144.212,52.026C144.193,52.056 144.165,52.1 144.129,52.156C144.058,52.269 143.954,52.433 143.825,52.643C143.567,53.062 143.205,53.663 142.787,54.395C141.953,55.855 140.888,57.846 139.981,59.954C139.08,62.046 138.303,64.322 138.095,66.332C137.891,68.308 138.214,70.365 139.954,71.517L141.059,69.85C140.273,69.329 139.905,68.281 140.085,66.538C140.261,64.829 140.944,62.774 141.818,60.745C142.685,58.73 143.711,56.809 144.524,55.387C144.929,54.677 145.28,54.095 145.528,53.691C145.653,53.489 145.751,53.332 145.818,53.226C145.852,53.173 145.878,53.133 145.895,53.107C145.903,53.093 145.91,53.084 145.914,53.077C145.916,53.074 145.917,53.072 145.918,53.07C145.919,53.07 145.919,53.069 145.919,53.069C145.919,53.069 145.919,53.069 145.919,53.069C145.919,53.069 145.919,53.069 145.081,52.524ZM139.959,71.521C141.035,72.224 142.099,72.435 143.09,72.277C144.053,72.124 144.849,71.638 145.456,71.12C146.065,70.601 146.531,70.01 146.84,69.562C146.997,69.335 147.118,69.138 147.201,68.995C147.242,68.923 147.275,68.865 147.298,68.822C147.309,68.801 147.318,68.784 147.325,68.771C147.328,68.765 147.331,68.76 147.333,68.756C147.334,68.753 147.335,68.752 147.336,68.75C147.336,68.749 147.337,68.749 147.337,68.748C147.337,68.748 147.337,68.747 147.337,68.747C147.338,68.747 147.338,68.747 146.446,68.294C145.554,67.842 145.554,67.841 145.554,67.841C145.555,67.841 145.555,67.841 145.555,67.841C145.555,67.84 145.555,67.84 145.555,67.84C145.555,67.839 145.555,67.839 145.555,67.84C145.555,67.84 145.554,67.841 145.553,67.844C145.551,67.849 145.546,67.858 145.539,67.87C145.525,67.896 145.503,67.937 145.472,67.989C145.41,68.095 145.317,68.248 145.194,68.426C144.944,68.788 144.591,69.23 144.159,69.598C143.725,69.968 143.258,70.225 142.775,70.302C142.319,70.375 141.753,70.304 141.054,69.847L139.959,71.521Z" fill="#7B0A32"/>
<path d="M151.789,57.475C151.281,57.691 151.044,58.278 151.261,58.787C151.477,59.295 152.064,59.531 152.573,59.315L151.789,57.475ZM162.878,60.806C163.305,61.156 163.935,61.095 164.286,60.668C164.637,60.242 164.575,59.611 164.148,59.261L162.878,60.806ZM152.573,59.315C155.913,57.892 160.092,58.514 162.878,60.806L164.148,59.261C160.791,56.5 155.822,55.757 151.789,57.475L152.573,59.315Z" fill="#7B0A32"/>
<path d="M127.193,52.04C126.662,52.192 126.354,52.745 126.506,53.276C126.657,53.807 127.211,54.115 127.742,53.963L127.193,52.04ZM138.133,56.444C138.602,56.736 139.219,56.594 139.511,56.126C139.804,55.657 139.662,55.04 139.193,54.748L138.133,56.444ZM127.742,53.963C129.431,53.48 131.283,53.591 133.064,54.1L133.613,52.177C131.571,51.593 129.327,51.43 127.193,52.04L127.742,53.963ZM133.064,54.1C134.859,54.613 136.547,55.452 138.133,56.444L139.193,54.748C137.503,53.691 135.641,52.756 133.613,52.177L133.064,54.1Z" fill="#7B0A32"/>
<path d="M162.216,49.656C163.855,50.68 164.606,52.046 164.879,53.138C165.015,53.684 164.401,54.162 163.923,53.889C161.329,52.66 159.963,50.407 154.297,51.226C148.767,52.114 154.775,45.082 162.216,49.656Z" fill="#FFF0D3"/>
<path d="M131.905,43.58C129.993,43.785 128.696,44.673 127.945,45.56C127.604,45.97 127.945,46.652 128.491,46.652C131.358,46.652 133.543,45.219 138.322,48.427C142.964,51.636 140.643,42.693 131.905,43.58Z" fill="#FFF0D3"/>
<path d="M130.335,67.406C133.389,67.406 135.864,64.931 135.864,61.876C135.864,58.822 133.389,56.347 130.335,56.347C127.28,56.347 124.805,58.822 124.805,61.876C124.805,64.931 127.28,67.406 130.335,67.406Z" fill="#FF9A5A"/>
<path d="M163.377,65.768C163.377,68.84 160.919,71.298 157.847,71.298C154.775,71.298 152.317,68.84 152.317,65.768C152.317,62.696 154.775,60.238 157.847,60.238C160.919,60.238 163.377,62.696 163.377,65.768Z" fill="#FF9A5A"/>
<path d="M125.487,44.127C125.487,44.127 131.632,31.77 148.221,34.705C164.811,37.641 175.802,66.451 175.802,66.451L174.641,77.51C174.641,77.51 193.893,68.362 193.893,43.58C193.893,18.799 171.911,11.357 171.911,11.357C171.911,11.357 165.084,-5.915 145.081,2.141C125.009,10.129 125.487,44.127 125.487,44.127Z" fill="#FFB715"/>
<path d="M171.35,12.186C171.807,12.495 172.429,12.376 172.739,11.918C173.048,11.461 172.928,10.839 172.471,10.529L171.35,12.186ZM147.593,7.692C147.077,7.888 146.817,8.465 147.013,8.982C147.209,9.498 147.787,9.758 148.303,9.562L147.593,7.692ZM171.911,11.358C172.471,10.529 172.471,10.529 172.47,10.529C172.47,10.529 172.47,10.528 172.469,10.528C172.468,10.528 172.467,10.527 172.466,10.526C172.464,10.525 172.461,10.523 172.457,10.52C172.45,10.516 172.44,10.509 172.428,10.501C172.402,10.484 172.366,10.46 172.32,10.431C172.227,10.371 172.092,10.287 171.917,10.183C171.569,9.975 171.061,9.686 170.415,9.358C169.122,8.701 167.266,7.88 164.998,7.215C160.465,5.886 154.24,5.168 147.593,7.692L148.303,9.562C154.423,7.238 160.179,7.886 164.435,9.134C166.562,9.758 168.303,10.528 169.509,11.141C170.111,11.447 170.578,11.713 170.892,11.9C171.048,11.994 171.167,12.067 171.244,12.117C171.282,12.141 171.311,12.16 171.328,12.172C171.337,12.177 171.344,12.182 171.347,12.184C171.349,12.185 171.35,12.186 171.351,12.186C171.351,12.186 171.351,12.186 171.351,12.186C171.351,12.186 171.351,12.186 171.351,12.186C171.35,12.186 171.35,12.186 171.911,11.358Z" fill="#7B0A32"/>
<path d="M192.443,37.098C192.747,37.56 193.367,37.688 193.828,37.384C194.29,37.081 194.418,36.461 194.114,35.999L192.443,37.098ZM146.631,27.249C146.132,27.486 145.92,28.083 146.157,28.581C146.395,29.08 146.991,29.292 147.49,29.055L146.631,27.249ZM193.279,36.549C194.114,35.999 194.114,35.999 194.113,35.998C194.113,35.998 194.113,35.997 194.112,35.996C194.111,35.995 194.11,35.993 194.109,35.991C194.106,35.987 194.102,35.981 194.098,35.974C194.088,35.961 194.075,35.941 194.059,35.917C194.025,35.868 193.976,35.798 193.913,35.709C193.785,35.532 193.597,35.278 193.349,34.964C192.852,34.334 192.112,33.46 191.128,32.461C189.16,30.465 186.205,27.961 182.249,25.931C174.294,21.847 162.411,19.741 146.631,27.249L147.49,29.055C162.704,21.816 173.931,23.909 181.336,27.71C185.06,29.622 187.848,31.983 189.703,33.865C190.63,34.805 191.322,35.624 191.779,36.203C192.008,36.492 192.177,36.721 192.288,36.876C192.343,36.953 192.384,37.011 192.41,37.049C192.423,37.068 192.432,37.081 192.437,37.09C192.44,37.094 192.442,37.097 192.443,37.098C192.444,37.099 192.444,37.099 192.444,37.099C192.444,37.099 192.444,37.099 192.444,37.099C192.444,37.099 192.443,37.098 193.279,36.549Z" fill="#7B0A32"/>
<path d="M145.416,30.858C144.875,30.748 144.347,31.098 144.237,31.639C144.127,32.18 144.477,32.708 145.018,32.818L145.416,30.858ZM174.804,66.454C174.843,67.005 175.322,67.419 175.873,67.38C176.424,67.341 176.838,66.862 176.799,66.312L174.804,66.454ZM145.217,31.838C145.018,32.818 145.017,32.818 145.017,32.818C145.017,32.818 145.017,32.818 145.017,32.818C145.017,32.818 145.018,32.818 145.019,32.819C145.022,32.819 145.025,32.82 145.031,32.821C145.042,32.823 145.06,32.827 145.085,32.833C145.134,32.843 145.209,32.86 145.308,32.884C145.507,32.931 145.803,33.004 146.183,33.108C146.944,33.317 148.039,33.647 149.364,34.133C152.014,35.105 155.567,36.694 159.178,39.158C166.383,44.076 173.807,52.461 174.804,66.454L176.799,66.312C175.748,51.563 167.88,42.676 160.305,37.506C156.525,34.927 152.816,33.269 150.052,32.255C148.669,31.748 147.519,31.401 146.711,31.179C146.307,31.069 145.988,30.989 145.768,30.937C145.658,30.911 145.572,30.892 145.513,30.879C145.484,30.873 145.461,30.868 145.444,30.864C145.436,30.863 145.43,30.861 145.425,30.86C145.423,30.86 145.421,30.859 145.419,30.859C145.419,30.859 145.418,30.859 145.418,30.859C145.417,30.859 145.416,30.858 145.217,31.838Z" fill="#7B0A32"/>
<path d="M192.238,58.603C192.428,58.085 192.162,57.51 191.644,57.32C191.125,57.129 190.551,57.395 190.36,57.913L192.238,58.603ZM174.239,75.113C173.707,75.259 173.394,75.81 173.541,76.342C173.687,76.875 174.238,77.187 174.77,77.041L174.239,75.113ZM191.299,58.258C190.36,57.913 190.36,57.913 190.36,57.913C190.36,57.913 190.36,57.913 190.36,57.913C190.36,57.913 190.36,57.913 190.36,57.914C190.36,57.915 190.359,57.917 190.358,57.919C190.356,57.925 190.353,57.934 190.348,57.946C190.339,57.971 190.324,58.009 190.304,58.06C190.264,58.162 190.204,58.314 190.122,58.511C189.958,58.904 189.71,59.473 189.376,60.168C188.709,61.56 187.703,63.447 186.351,65.426C183.629,69.412 179.602,73.635 174.239,75.113L174.77,77.041C180.808,75.378 185.178,70.691 188.003,66.554C189.425,64.471 190.48,62.492 191.18,61.033C191.53,60.303 191.792,59.701 191.968,59.28C192.056,59.069 192.122,58.903 192.167,58.788C192.189,58.73 192.207,58.686 192.218,58.655C192.224,58.639 192.229,58.627 192.232,58.618C192.233,58.614 192.235,58.611 192.236,58.608C192.236,58.607 192.237,58.606 192.237,58.605C192.237,58.605 192.237,58.604 192.237,58.604C192.237,58.604 192.238,58.603 191.299,58.258Z" fill="#7B0A32"/>
<path d="M231.714,119.223C231.714,119.223 265.371,160.663 272.061,207.222C273.427,216.507 269.672,225.86 262.367,231.731C258.134,235.144 252.468,239.104 245.3,243.2L226.731,220.74C226.731,220.671 213.964,128.303 231.714,119.223Z" fill="#FFFFFF"/>
<path d="M195.322,185.877C195.824,186.106 196.417,185.884 196.646,185.381C196.875,184.879 196.654,184.286 196.151,184.057L195.322,185.877ZM143.563,174.959C143.012,175.005 142.604,175.489 142.651,176.039C142.697,176.59 143.181,176.998 143.731,176.951L143.563,174.959ZM196.151,184.057C179.815,176.612 161.483,173.442 143.563,174.959L143.731,176.951C161.311,175.464 179.298,178.575 195.322,185.877L196.151,184.057Z" fill="#FFB715"/>
<path d="M156.572,176.351C157.017,176.678 157.643,176.583 157.97,176.138C158.297,175.693 158.202,175.067 157.757,174.74L156.572,176.351ZM148.972,173.224L148.888,174.221L148.901,174.222L148.972,173.224ZM131.86,171.473C131.308,171.46 130.85,171.897 130.837,172.449C130.824,173.001 131.26,173.46 131.813,173.473L131.86,171.473ZM157.757,174.74C155.182,172.846 151.911,172.432 149.043,172.227L148.901,174.222C151.767,174.426 154.505,174.831 156.572,176.351L157.757,174.74ZM149.056,172.228C143.355,171.747 137.59,171.61 131.86,171.473L131.813,173.473C137.552,173.61 143.257,173.746 148.888,174.221L149.056,172.228Z" fill="#FFB715"/>
<path d="M153.176,176.515C153.712,176.38 154.036,175.836 153.901,175.3C153.766,174.765 153.222,174.441 152.687,174.576L153.176,176.515ZM133.045,177.14C132.493,177.151 132.054,177.608 132.065,178.16C132.077,178.712 132.533,179.151 133.086,179.139L133.045,177.14ZM152.687,174.576C146.282,176.194 139.668,177.005 133.045,177.14L133.086,179.139C139.843,179.002 146.61,178.174 153.176,176.515L152.687,174.576Z" fill="#FFB715"/>
<path d="M155.508,175.959C155.699,175.441 155.434,174.866 154.916,174.675C154.397,174.484 153.823,174.75 153.632,175.268L155.508,175.959ZM151.361,178.14L151.016,177.201L150.999,177.208L151.361,178.14ZM135.962,180.417C135.41,180.439 134.98,180.904 135.001,181.456C135.023,182.007 135.488,182.437 136.04,182.416L135.962,180.417ZM153.632,175.268C153.485,175.665 153.174,176.029 152.696,176.367C152.217,176.705 151.626,176.977 151.016,177.201L151.707,179.078C152.394,178.825 153.168,178.482 153.85,178.001C154.532,177.519 155.177,176.86 155.508,175.959L153.632,175.268ZM150.999,177.208C146.177,179.083 141.097,180.217 135.962,180.417L136.04,182.416C141.417,182.206 146.715,181.02 151.724,179.072L150.999,177.208Z" fill="#FFB715"/>
<path d="M158.227,176.174C158.65,176.53 159.281,176.475 159.636,176.053C159.992,175.63 159.937,174.999 159.515,174.644L158.227,176.174ZM143.583,168.199C143.033,168.159 142.553,168.573 142.513,169.123C142.473,169.674 142.887,170.153 143.438,170.194L143.583,168.199ZM159.515,174.644C155.05,170.887 149.387,168.624 143.583,168.199L143.438,170.194C148.83,170.588 154.091,172.694 158.227,176.174L159.515,174.644Z" fill="#FFB715"/>
<path d="M156.959,176.411C157.324,175.996 157.284,175.364 156.869,174.999C156.455,174.634 155.823,174.675 155.458,175.089L156.959,176.411ZM150.474,179.232L150.113,178.299L150.106,178.302L150.474,179.232ZM140.091,181.326C139.551,181.443 139.208,181.975 139.324,182.515C139.441,183.055 139.973,183.398 140.513,183.281L140.091,181.326ZM155.458,175.089C154.131,176.597 152.224,177.482 150.113,178.299L150.835,180.164C152.956,179.343 155.282,178.317 156.959,176.411L155.458,175.089ZM150.106,178.302C146.882,179.578 143.521,180.586 140.091,181.326L140.513,183.281C144.046,182.519 147.512,181.48 150.842,180.162L150.106,178.302Z" fill="#FFB715"/>
<path d="M157.506,169.947C157.301,169.06 157.301,168.036 157.847,167.216C158.393,166.397 159.485,166.056 160.51,166.192C161.465,166.329 162.353,166.943 163.035,167.694C164.537,169.333 165.152,171.79 164.537,173.907C164.333,174.589 164.196,176.16 163.582,176.296C163.172,176.364 161.465,175.204 161.056,174.931C159.281,173.839 157.915,172.064 157.506,169.947Z" fill="#FFB715"/>
<path d="M160.51,183.874C159.69,184.284 158.666,184.489 157.779,184.147C156.823,183.806 156.277,182.782 156.209,181.758C156.14,180.734 156.55,179.778 157.096,178.959C158.393,177.116 160.646,176.023 162.899,176.16C163.582,176.228 165.152,176.023 165.425,176.569C165.63,176.979 164.811,178.891 164.674,179.3C163.923,181.348 162.421,182.987 160.51,183.874Z" fill="#FFB715"/>
<path d="M166.176,171.176C165.971,170.289 165.971,169.265 166.517,168.445C167.063,167.626 168.156,167.285 169.18,167.421C170.135,167.558 171.023,168.172 171.706,168.923C173.208,170.562 173.822,173.019 173.208,175.136C173.003,175.818 172.866,177.389 172.252,177.525C171.842,177.593 170.135,176.433 169.726,176.16C167.951,175.068 166.585,173.224 166.176,171.176Z" fill="#FFB715"/>
<path d="M168.292,184.898C167.473,185.308 166.449,185.513 165.562,185.171C164.606,184.83 164.06,183.806 163.991,182.782C163.923,181.758 164.333,180.802 164.879,179.983C166.176,178.14 168.429,177.047 170.682,177.184C171.364,177.252 172.935,177.047 173.208,177.593C173.412,178.003 172.593,179.915 172.457,180.324C171.706,182.372 170.204,184.011 168.292,184.898Z" fill="#FFB715"/>
<path d="M175.87,173.292C175.665,172.405 175.665,171.381 176.212,170.562C176.758,169.742 177.85,169.401 178.874,169.538C179.83,169.674 180.717,170.289 181.4,171.039C182.902,172.678 183.516,175.136 182.902,177.252C182.697,177.935 182.561,179.505 181.946,179.641C181.537,179.71 179.83,178.549 179.42,178.276C177.577,177.184 176.28,175.34 175.87,173.292Z" fill="#FFB715"/>
<path d="M176.621,187.151C175.802,187.561 174.778,187.766 173.89,187.424C172.935,187.083 172.388,186.059 172.32,185.035C172.252,184.011 172.662,183.055 173.208,182.236C174.505,180.393 176.758,179.3 179.011,179.437C179.693,179.505 181.263,179.3 181.537,179.846C181.741,180.256 180.922,182.168 180.786,182.577C180.035,184.625 178.533,186.332 176.621,187.151Z" fill="#FFB715"/>
<path d="M191.002,198.251C191.552,198.301 192.039,197.897 192.09,197.347C192.141,196.797 191.736,196.31 191.186,196.259L191.002,198.251ZM138.595,205.013C138.091,205.24 137.866,205.831 138.093,206.335C138.319,206.839 138.911,207.064 139.415,206.837L138.595,205.013ZM191.186,196.259C173.265,194.605 155,197.637 138.595,205.013L139.415,206.837C155.505,199.603 173.423,196.628 191.002,198.251L191.186,196.259Z" fill="#FFB715"/>
<path d="M151.347,202.035C151.876,202.194 152.434,201.894 152.592,201.365C152.751,200.836 152.451,200.279 151.922,200.12L151.347,202.035ZM143.169,201.556L142.927,200.585L142.918,200.588L143.169,201.556ZM126.472,205.589C125.947,205.762 125.662,206.327 125.835,206.852C126.007,207.376 126.572,207.662 127.097,207.489L126.472,205.589ZM151.922,200.12C148.896,199.212 145.64,199.907 142.927,200.585L143.412,202.526C146.16,201.839 148.911,201.305 151.347,202.035L151.922,200.12ZM142.918,200.588C137.353,202.03 131.863,203.815 126.472,205.589L127.097,207.489C132.492,205.714 137.925,203.948 143.42,202.524L142.918,200.588Z" fill="#FFB715"/>
<path d="M148.157,203.279C148.618,202.975 148.746,202.355 148.442,201.893C148.138,201.432 147.518,201.304 147.057,201.608L148.157,203.279ZM129.317,210.444C128.797,210.629 128.525,211.201 128.709,211.721C128.894,212.242 129.466,212.514 129.986,212.329L129.317,210.444ZM147.057,201.608C141.525,205.251 135.59,208.219 129.317,210.444L129.986,212.329C136.412,210.049 142.492,207.009 148.157,203.279L147.057,201.608Z" fill="#FFB715"/>
<path d="M150.177,202.034C150.177,201.481 149.729,201.034 149.177,201.034C148.625,201.034 148.177,201.481 148.177,202.034L150.177,202.034ZM146.992,205.447L146.362,204.671C146.354,204.677 146.347,204.683 146.339,204.69L146.992,205.447ZM133.17,212.712C132.657,212.918 132.409,213.501 132.616,214.013C132.822,214.525 133.405,214.773 133.917,214.567L133.17,212.712ZM148.177,202.034C148.177,202.948 147.471,203.769 146.362,204.671L147.623,206.223C148.698,205.35 150.177,203.987 150.177,202.034L148.177,202.034ZM146.339,204.69C142.462,208.032 137.983,210.773 133.17,212.712L133.917,214.567C138.935,212.546 143.603,209.689 147.645,206.205L146.339,204.69Z" fill="#FFB715"/>
<path d="M152.852,201.331C153.369,201.526 153.946,201.265 154.141,200.748C154.335,200.231 154.074,199.654 153.557,199.459L152.852,201.331ZM136.427,198.61C135.893,198.751 135.575,199.299 135.717,199.833C135.859,200.367 136.407,200.684 136.94,200.542L136.427,198.61ZM153.557,199.459C148.104,197.406 142.019,197.123 136.427,198.61L136.94,200.542C142.134,199.162 147.792,199.425 152.852,201.331L153.557,199.459Z" fill="#FFB715"/>
<path d="M151.669,201.942C151.883,201.433 151.643,200.847 151.134,200.633C150.624,200.42 150.038,200.66 149.825,201.169L151.669,201.942ZM146.514,206.744L147.172,207.498L147.175,207.495L146.514,206.744ZM137.458,212.173C136.987,212.461 136.84,213.077 137.128,213.548C137.417,214.019 138.033,214.166 138.504,213.877L137.458,212.173ZM149.825,201.169C149.035,203.053 147.56,204.492 145.854,205.993L147.175,207.495C148.882,205.993 150.684,204.291 151.669,201.942L149.825,201.169ZM145.857,205.99C143.235,208.276 140.413,210.359 137.458,212.173L138.504,213.877C141.556,212.004 144.468,209.855 147.172,207.498L145.857,205.99Z" fill="#FFB715"/>
<path d="M150.064,195.753C149.586,194.934 149.245,193.978 149.45,193.09C149.723,192.135 150.61,191.452 151.634,191.247C152.59,191.042 153.614,191.315 154.502,191.793C156.482,192.817 157.847,194.934 157.983,197.186C158.052,197.869 158.393,199.439 157.847,199.781C157.437,199.985 155.457,199.439 155.048,199.371C153,198.825 151.157,197.528 150.064,195.753Z" fill="#FFB715"/>
<path d="M157.506,207.836C156.823,208.451 155.935,208.997 155.048,208.997C154.024,208.929 153.136,208.178 152.795,207.29C152.385,206.403 152.454,205.311 152.727,204.355C153.341,202.238 155.116,200.463 157.233,199.849C157.915,199.644 159.349,198.961 159.758,199.439C160.1,199.781 159.963,201.829 159.963,202.307C159.895,204.355 159.008,206.403 157.506,207.836Z" fill="#FFB715"/>
<path d="M158.666,193.978C158.188,193.159 157.847,192.203 158.052,191.315C158.325,190.36 159.212,189.677 160.236,189.472C161.192,189.267 162.216,189.54 163.104,190.018C165.084,191.042 166.449,193.159 166.586,195.412C166.654,196.094 166.995,197.664 166.449,198.006C166.039,198.211 164.06,197.664 163.65,197.596C161.602,197.05 159.759,195.753 158.666,193.978Z" fill="#FFB715"/>
<path d="M165.152,206.266C164.469,206.881 163.582,207.427 162.694,207.427C161.67,207.358 160.783,206.608 160.441,205.72C160.032,204.833 160.1,203.74 160.373,202.784C160.987,200.668 162.762,198.893 164.879,198.279C165.561,198.074 166.995,197.391 167.405,197.869C167.746,198.21 167.61,200.258 167.61,200.736C167.541,202.716 166.654,204.832 165.152,206.266Z" fill="#FFB715"/>
<path d="M168.497,192.817C168.019,191.998 167.678,191.042 167.883,190.155C168.156,189.199 169.043,188.516 170.067,188.311C171.023,188.107 172.047,188.38 172.935,188.858C174.914,189.882 176.28,191.998 176.416,194.251C176.485,194.934 176.826,196.504 176.28,196.845C175.87,197.05 173.89,196.504 173.481,196.436C171.433,195.889 169.589,194.592 168.497,192.817Z" fill="#FFB715"/>
<path d="M173.822,205.652C173.139,206.266 172.252,206.812 171.364,206.812C170.34,206.744 169.453,205.993 169.111,205.106C168.702,204.218 168.77,203.126 169.043,202.17C169.658,200.054 171.433,198.279 173.549,197.664C174.232,197.46 175.665,196.777 176.075,197.255C176.416,197.596 176.28,199.644 176.28,200.122C176.211,202.102 175.324,204.218 173.822,205.652Z" fill="#FFB715"/>
<path d="M199.779,187.421C199.966,187.94 200.538,188.21 201.058,188.024C201.578,187.837 201.848,187.264 201.661,186.744L199.779,187.421ZM171.612,142.705C171.196,142.342 170.564,142.385 170.201,142.801C169.838,143.217 169.881,143.849 170.297,144.212L171.612,142.705ZM201.661,186.744C195.596,169.859 185.122,154.492 171.612,142.705L170.297,144.212C183.549,155.774 193.829,170.854 199.779,187.421L201.661,186.744Z" fill="#FFB715"/>
<path d="M179.591,153.021C179.669,153.568 180.175,153.948 180.722,153.87C181.269,153.792 181.649,153.285 181.571,152.738L179.591,153.021ZM176.553,145.37L175.778,146.002L175.779,146.004L176.553,145.37ZM165.888,131.859C165.514,131.452 164.882,131.426 164.475,131.799C164.068,132.173 164.042,132.806 164.416,133.212L165.888,131.859ZM181.571,152.738C181.117,149.565 179.162,146.981 177.327,144.737L175.779,146.004C177.63,148.266 179.225,150.46 179.591,153.021L181.571,152.738ZM177.328,144.738C173.686,140.272 169.77,136.082 165.888,131.859L164.416,133.212C168.316,137.455 172.183,141.593 175.778,146.002L177.328,144.738Z" fill="#FFB715"/>
<path d="M177.114,150.724C177.582,151.017 178.199,150.875 178.492,150.407C178.786,149.939 178.644,149.322 178.176,149.029L177.114,150.724ZM162.655,136.681C162.268,136.287 161.634,136.283 161.241,136.671C160.848,137.058 160.843,137.691 161.231,138.085L162.655,136.681ZM178.176,149.029C172.568,145.515 167.306,141.399 162.655,136.681L161.231,138.085C166.002,142.925 171.389,147.137 177.114,150.724L178.176,149.029Z" fill="#FFB715"/>
<path d="M179.125,152.027C179.634,151.812 179.873,151.226 179.659,150.717C179.445,150.208 178.858,149.969 178.349,150.183L179.125,152.027ZM174.71,150.559L175.138,149.655L175.125,149.649L174.71,150.559ZM162.283,141.088C161.878,140.712 161.246,140.735 160.869,141.139C160.493,141.544 160.516,142.177 160.921,142.553L162.283,141.088ZM178.349,150.183C177.493,150.544 176.432,150.268 175.138,149.655L174.281,151.463C175.582,152.078 177.387,152.758 179.125,152.027L178.349,150.183ZM175.125,149.649C170.441,147.508 166.094,144.632 162.283,141.088L160.921,142.553C164.892,146.245 169.42,149.24 174.294,151.468L175.125,149.649Z" fill="#FFB715"/>
<path d="M180.88,154.113C180.921,154.664 181.4,155.078 181.951,155.038C182.502,154.997 182.915,154.518 182.875,153.967L180.88,154.113ZM176.431,138.036C176.075,137.613 175.444,137.559 175.022,137.914C174.599,138.27 174.545,138.901 174.9,139.323L176.431,138.036ZM182.875,153.967C182.45,148.163 180.187,142.501 176.431,138.036L174.9,139.323C178.38,143.46 180.486,148.721 180.88,154.113L182.875,153.967Z" fill="#FFB715"/>
<path d="M179.792,153.333C180.344,153.317 180.778,152.856 180.761,152.304C180.744,151.752 180.283,151.318 179.731,151.334L179.792,153.333ZM173.276,150.695L172.868,151.608L172.878,151.613L173.276,150.695ZM164.55,144.746C164.092,144.437 163.471,144.558 163.162,145.016C162.853,145.474 162.974,146.095 163.432,146.404L164.55,144.746ZM179.731,151.334C177.721,151.395 175.717,150.663 173.673,149.778L172.878,151.613C174.931,152.503 177.296,153.409 179.792,153.333L179.731,151.334ZM173.684,149.782C170.522,148.37 167.433,146.69 164.55,144.746L163.432,146.404C166.42,148.42 169.612,150.154 172.868,151.608L173.684,149.782Z" fill="#FFB715"/>
<path d="M184.813,149.262C185.359,148.511 186.042,147.76 186.998,147.623C187.954,147.418 188.978,147.965 189.592,148.784C190.207,149.603 190.343,150.627 190.275,151.651C190.138,153.904 188.773,156.02 186.861,157.044C186.247,157.386 185.018,158.41 184.472,158C184.062,157.727 183.789,155.679 183.653,155.269C183.243,153.221 183.584,150.968 184.813,149.262Z" fill="#FFB715"/>
<path d="M176.894,161.072C176.006,160.731 175.187,160.185 174.846,159.297C174.436,158.341 174.778,157.249 175.46,156.498C176.143,155.747 177.099,155.337 178.123,155.201C180.307,154.86 182.697,155.747 184.131,157.385C184.608,157.932 185.837,158.887 185.632,159.502C185.496,159.911 183.516,160.662 183.107,160.867C181.127,161.755 178.874,161.823 176.894,161.072Z" fill="#FFB715"/>
<path d="M190.002,156.293C190.548,155.543 191.231,154.792 192.186,154.655C193.142,154.45 194.166,154.996 194.781,155.816C195.395,156.635 195.532,157.659 195.463,158.683C195.327,160.936 193.961,163.052 192.05,164.076C191.435,164.418 190.207,165.442 189.66,165.032C189.251,164.759 188.978,162.711 188.841,162.301C188.432,160.253 188.773,158.068 190.002,156.293Z" fill="#FFB715"/>
<path d="M181.605,167.353C180.717,167.011 179.898,166.465 179.557,165.578C179.147,164.622 179.488,163.53 180.171,162.779C180.854,162.028 181.809,161.618 182.834,161.482C185.018,161.14 187.408,162.028 188.841,163.666C189.319,164.212 190.548,165.168 190.343,165.783C190.207,166.192 188.227,166.943 187.817,167.148C185.837,168.035 183.516,168.104 181.605,167.353Z" fill="#FFB715"/>
<path d="M195.19,164.69C195.736,163.939 196.419,163.189 197.375,163.052C198.331,162.847 199.355,163.393 199.969,164.213C200.584,165.032 200.72,166.056 200.652,167.08C200.515,169.333 199.15,171.449 197.238,172.473C196.624,172.814 195.395,173.839 194.849,173.429C194.439,173.156 194.166,171.108 194.03,170.698C193.62,168.65 194.03,166.465 195.19,164.69Z" fill="#FFB715"/>
<path d="M185.769,174.931C184.882,174.59 184.063,174.043 183.721,173.156C183.312,172.2 183.653,171.108 184.336,170.357C185.018,169.606 185.974,169.196 186.998,169.06C189.183,168.718 191.572,169.606 193.006,171.244C193.484,171.791 194.713,172.746 194.508,173.361C194.371,173.77 192.391,174.521 191.982,174.726C190.002,175.614 187.749,175.75 185.769,174.931Z" fill="#FFB715"/>
<path d="M205.114,183.021C205.133,183.573 205.596,184.005 206.148,183.986C206.7,183.967 207.132,183.504 207.113,182.952L205.114,183.021ZM218.472,131.9C218.724,131.408 218.53,130.806 218.039,130.554C217.548,130.302 216.945,130.496 216.693,130.987L218.472,131.9ZM207.113,182.952C206.504,165.303 210.427,147.585 218.472,131.9L216.693,130.987C208.49,146.978 204.494,165.034 205.114,183.021L207.113,182.952Z" fill="#FFB715"/>
<path d="M211.149,143.969C211.28,144.505 211.821,144.834 212.358,144.703C212.894,144.572 213.223,144.031 213.092,143.495L211.149,143.969ZM213.077,135.266L214.028,135.575L214.031,135.565L213.077,135.266ZM219.877,119.524C220.081,119.011 219.83,118.429 219.317,118.225C218.804,118.022 218.223,118.272 218.019,118.785L219.877,119.524ZM213.092,143.495C212.483,140.996 213.141,138.304 214.028,135.575L212.126,134.957C211.238,137.69 210.393,140.869 211.149,143.969L213.092,143.495ZM214.031,135.565C215.726,130.141 217.762,124.845 219.877,119.524L218.019,118.785C215.901,124.114 213.841,129.469 212.122,134.968L214.031,135.565Z" fill="#FFB715"/>
<path d="M212.953,139.249C212.627,139.694 212.723,140.32 213.168,140.646C213.613,140.973 214.239,140.877 214.566,140.432L212.953,139.249ZM224.644,122.829C224.864,122.322 224.631,121.734 224.124,121.514C223.618,121.294 223.029,121.527 222.809,122.034L224.644,122.829ZM214.566,140.432C218.571,134.977 221.953,129.04 224.644,122.829L222.809,122.034C220.176,128.112 216.867,133.917 212.953,139.249L214.566,140.432Z" fill="#FFB715"/>
<path d="M213.261,140.412C212.709,140.385 212.241,140.811 212.215,141.363C212.188,141.915 212.614,142.383 213.166,142.409L213.261,140.412ZM216.763,139.431L216.043,138.736L216.032,138.748L216.763,139.431ZM226.611,126.886C226.847,126.386 226.633,125.79 226.133,125.555C225.634,125.319 225.038,125.533 224.802,126.033L226.611,126.886ZM213.166,142.409C215.106,142.502 216.555,141.12 217.494,140.113L216.032,138.748C215.06,139.79 214.188,140.456 213.261,140.412L213.166,142.409ZM217.483,140.125C221.246,136.223 224.312,131.763 226.611,126.886L224.802,126.033C222.595,130.714 219.654,134.993 216.044,138.737L217.483,140.125Z" fill="#FFB715"/>
<path d="M210.418,145.607C210.586,146.133 211.149,146.423 211.675,146.254C212.201,146.086 212.491,145.523 212.322,144.997L210.418,145.607ZM212.387,129.029C212.562,128.505 212.278,127.938 211.755,127.764C211.231,127.589 210.664,127.872 210.49,128.396L212.387,129.029ZM212.322,144.997C210.679,139.87 210.68,134.148 212.387,129.029L210.49,128.396C208.646,133.926 208.647,140.083 210.418,145.607L212.322,144.997Z" fill="#FFB715"/>
<path d="M212.333,141.97C211.812,142.155 211.54,142.727 211.725,143.247C211.909,143.768 212.481,144.04 213.001,143.855L212.333,141.97ZM218.06,138.953L217.344,138.256L217.338,138.261L218.06,138.953ZM225.639,131.333C225.955,130.88 225.844,130.257 225.391,129.941C224.938,129.625 224.315,129.736 223.999,130.189L225.639,131.333ZM213.001,143.855C215.357,143.019 217.203,141.293 218.782,139.645L217.338,138.261C215.777,139.89 214.21,141.304 212.333,141.97L213.001,143.855ZM218.777,139.65C221.273,137.085 223.56,134.312 225.639,131.333L223.999,130.189C221.981,133.08 219.763,135.769 217.344,138.256L218.777,139.65Z" fill="#FFB715"/>
<path d="M206.864,141.889C206.113,141.342 205.158,140.933 204.27,141.138C203.314,141.342 202.563,142.23 202.29,143.186C202.085,144.142 202.29,145.166 202.7,146.121C203.656,148.169 205.704,149.603 207.888,149.876C208.571,149.944 210.073,150.422 210.483,149.944C210.756,149.603 210.278,147.555 210.21,147.077C209.8,145.029 208.639,143.117 206.864,141.889Z" fill="#FFB715"/>
<path d="M218.607,149.944C219.289,149.33 219.904,148.442 219.904,147.555C219.904,146.531 219.221,145.643 218.334,145.166C217.446,144.756 216.354,144.688 215.398,144.961C213.213,145.439 211.37,147.145 210.619,149.262C210.414,149.944 209.595,151.31 210.005,151.788C210.278,152.129 212.394,152.129 212.804,152.129C214.92,152.129 217.036,151.378 218.607,149.944Z" fill="#FFB715"/>
<path d="M204.68,150.354C203.929,149.808 202.973,149.398 202.085,149.603C201.13,149.808 200.379,150.695 200.105,151.651C199.901,152.607 200.105,153.631 200.515,154.587C201.471,156.635 203.519,158.068 205.704,158.341C206.386,158.41 207.888,158.888 208.298,158.41C208.571,158.068 208.093,156.02 208.025,155.542C207.615,153.494 206.386,151.583 204.68,150.354Z" fill="#FFB715"/>
<path d="M216.559,157.522C217.241,156.908 217.856,156.02 217.856,155.133C217.856,154.109 217.173,153.221 216.285,152.743C215.398,152.334 214.306,152.265 213.35,152.538C211.165,153.016 209.322,154.723 208.571,156.839C208.366,157.522 207.547,158.887 207.957,159.365C208.23,159.707 210.346,159.707 210.756,159.707C212.872,159.775 215.057,159.024 216.559,157.522Z" fill="#FFB715"/>
<path d="M202.905,160.117C202.154,159.57 201.198,159.161 200.31,159.366C199.355,159.57 198.604,160.458 198.331,161.414C198.126,162.37 198.331,163.394 198.74,164.349C199.696,166.397 201.744,167.831 203.929,168.104C204.611,168.172 206.113,168.65 206.523,168.172C206.796,167.831 206.318,165.783 206.25,165.305C205.84,163.257 204.68,161.345 202.905,160.117Z" fill="#FFB715"/>
<path d="M215.466,166.192C216.149,165.578 216.763,164.691 216.763,163.803C216.763,162.779 216.08,161.891 215.193,161.414C214.305,161.004 213.213,160.936 212.257,161.209C210.073,161.687 208.229,163.393 207.479,165.51C207.274,166.192 206.454,167.558 206.864,168.036C207.137,168.377 209.254,168.377 209.663,168.377C211.848,168.377 213.964,167.626 215.466,166.192Z" fill="#FFB715"/>
<path d="M221.908,195.788C221.927,196.34 222.39,196.772 222.942,196.753C223.494,196.734 223.926,196.271 223.907,195.719L221.908,195.788ZM235.267,144.666C235.519,144.175 235.325,143.572 234.833,143.32C234.342,143.068 233.739,143.262 233.487,143.754L235.267,144.666ZM223.907,195.719C223.299,178.069 227.221,160.352 235.267,144.666L233.487,143.754C225.285,159.745 221.288,177.801 221.908,195.788L223.907,195.719Z" fill="#FFB715"/>
<path d="M227.876,156.735C228.007,157.272 228.548,157.601 229.084,157.47C229.621,157.339 229.95,156.798 229.819,156.261L227.876,156.735ZM229.803,148.033L230.754,148.342L230.757,148.331L229.803,148.033ZM236.603,132.291C236.807,131.777 236.557,131.196 236.044,130.992C235.53,130.788 234.949,131.039 234.745,131.552L236.603,132.291ZM229.819,156.261C229.209,153.763 229.867,151.071 230.754,148.342L228.852,147.724C227.964,150.456 227.12,153.636 227.876,156.735L229.819,156.261ZM230.757,148.331C232.452,142.908 234.489,137.612 236.603,132.291L234.745,131.552C232.627,136.881 230.567,142.235 228.849,147.735L230.757,148.331Z" fill="#FFB715"/>
<path d="M229.68,152.015C229.353,152.46 229.449,153.086 229.894,153.413C230.339,153.74 230.965,153.644 231.292,153.199L229.68,152.015ZM241.37,135.596C241.59,135.089 241.357,134.5 240.851,134.281C240.344,134.061 239.755,134.294 239.535,134.801L241.37,135.596ZM231.292,153.199C235.297,147.743 238.679,141.807 241.37,135.596L239.535,134.801C236.902,140.878 233.594,146.684 229.68,152.015L231.292,153.199Z" fill="#FFB715"/>
<path d="M229.987,153.178C229.435,153.152 228.967,153.578 228.941,154.129C228.914,154.681 229.34,155.15 229.892,155.176L229.987,153.178ZM233.489,152.197L232.77,151.503L232.758,151.515L233.489,152.197ZM243.337,139.652C243.573,139.153 243.359,138.557 242.859,138.322C242.36,138.086 241.764,138.3 241.528,138.8L243.337,139.652ZM229.892,155.176C231.832,155.268 233.281,153.886 234.22,152.88L232.758,151.515C231.786,152.556 230.914,153.222 229.987,153.178L229.892,155.176ZM234.209,152.891C237.972,148.989 241.038,144.529 243.337,139.652L241.528,138.8C239.322,143.48 236.38,147.759 232.77,151.503L234.209,152.891Z" fill="#FFB715"/>
<path d="M227.144,158.374C227.312,158.9 227.875,159.189 228.401,159.021C228.927,158.852 229.217,158.289 229.048,157.763L227.144,158.374ZM229.113,141.795C229.288,141.271 229.005,140.705 228.481,140.53C227.957,140.356 227.39,140.639 227.216,141.163L229.113,141.795ZM229.048,157.763C227.405,152.637 227.406,146.915 229.113,141.795L227.216,141.163C225.372,146.693 225.373,152.85 227.144,158.374L229.048,157.763Z" fill="#FFB715"/>
<path d="M229.059,154.737C228.538,154.922 228.266,155.493 228.451,156.014C228.636,156.534 229.207,156.806 229.728,156.622L229.059,154.737ZM234.787,151.72L234.07,151.022L234.065,151.028L234.787,151.72ZM242.365,144.1C242.681,143.647 242.57,143.023 242.117,142.707C241.664,142.391 241.041,142.502 240.725,142.955L242.365,144.1ZM229.728,156.622C232.083,155.786 233.929,154.06 235.509,152.412L234.065,151.028C232.504,152.657 230.936,154.071 229.059,154.737L229.728,156.622ZM235.503,152.417C237.999,149.852 240.287,147.079 242.365,144.1L240.725,142.955C238.708,145.847 236.489,148.536 234.07,151.022L235.503,152.417Z" fill="#FFB715"/>
<path d="M223.59,154.724C222.839,154.177 221.884,153.768 220.996,153.973C220.04,154.177 219.289,155.065 219.016,156.021C218.812,156.976 219.016,158 219.426,158.956C220.382,161.004 222.43,162.438 224.614,162.711C225.297,162.779 226.799,163.257 227.209,162.779C227.482,162.438 227.004,160.39 226.936,159.912C226.526,157.796 225.365,155.884 223.59,154.724Z" fill="#FFB715"/>
<path d="M235.333,162.779C236.015,162.165 236.63,161.277 236.63,160.39C236.63,159.366 235.947,158.478 235.06,158C234.172,157.591 233.08,157.523 232.124,157.796C229.939,158.274 228.096,159.98 227.345,162.097C227.14,162.779 226.321,164.145 226.731,164.623C227.004,164.964 229.12,164.964 229.53,164.964C231.646,164.964 233.831,164.213 235.333,162.779Z" fill="#FFB715"/>
<path d="M221.406,163.189C220.655,162.643 219.699,162.233 218.812,162.438C217.856,162.643 217.105,163.53 216.832,164.486C216.627,165.442 216.832,166.466 217.241,167.422C218.197,169.47 220.245,170.903 222.43,171.176C223.113,171.245 224.615,171.723 225.024,171.245C225.297,170.903 224.819,168.855 224.751,168.377C224.341,166.261 223.181,164.349 221.406,163.189Z" fill="#FFB715"/>
<path d="M233.285,170.357C233.967,169.743 234.582,168.855 234.582,167.968C234.582,166.944 233.899,166.056 233.012,165.578C232.124,165.169 231.032,165.1 230.076,165.373C227.891,165.851 226.048,167.558 225.297,169.674C225.092,170.357 224.273,171.722 224.683,172.2C224.956,172.542 227.072,172.542 227.482,172.542C229.666,172.542 231.783,171.791 233.285,170.357Z" fill="#FFB715"/>
<path d="M219.699,172.951C218.948,172.405 217.992,171.995 217.105,172.2C216.149,172.405 215.398,173.292 215.125,174.248C214.92,175.204 215.125,176.228 215.535,177.184C216.49,179.232 218.538,180.666 220.723,180.939C221.406,181.007 222.908,181.485 223.317,181.007C223.59,180.666 223.113,178.617 223.044,178.14C222.566,176.023 221.406,174.112 219.699,172.951Z" fill="#FFB715"/>
<path d="M232.192,178.959C232.875,178.345 233.489,177.457 233.489,176.57C233.489,175.546 232.807,174.658 231.919,174.18C231.032,173.771 229.939,173.702 228.984,173.975C226.799,174.453 224.956,176.16 224.205,178.276C224,178.959 223.181,180.324 223.59,180.802C223.863,181.144 225.98,181.144 226.389,181.144C228.574,181.144 230.69,180.393 232.192,178.959Z" fill="#FFB715"/>
<path d="M189.865,178.276C189.865,178.276 195.259,164.759 213.555,169.811L202.836,179.437L189.865,178.276Z" fill="#FF6B40"/>
<path d="M183.858,221.49C181.741,220.535 179.693,219.374 177.85,218.009C176.416,216.985 175.119,215.756 174.095,214.39C172.457,212.137 171.569,209.475 171.159,206.744C169.931,198.688 172.457,190.223 177.986,184.079C178.942,182.986 180.035,181.962 181.195,181.143C184.404,178.822 188.432,177.593 192.459,177.525C196.487,177.388 200.515,178.344 204.133,179.982C206.455,173.429 213.418,168.377 220.655,168.172C223.112,168.104 225.638,168.582 227.891,169.674C230.895,171.176 233.148,173.77 234.582,176.706C236.015,179.641 236.63,182.918 236.834,186.127C236.971,188.311 236.971,190.564 236.357,192.681C234.991,197.869 230.622,201.897 226.389,205.379C220.859,209.953 215.057,214.254 208.708,217.736C205.977,219.237 203.109,220.603 200.037,221.285C194.917,222.514 188.636,223.607 183.858,221.49Z" fill="#FF6B40"/>
<g opacity="0.23">
<path d="M185.974,184.966C184.95,185.786 183.516,187.765 183.038,189.404C182.561,191.179 184.677,192.476 186.042,191.315C188.227,189.54 191.504,186.468 190.685,184.693C189.524,183.328 187.066,183.464 185.974,184.966Z" fill="#FFFFFF"/>
</g>
<g opacity="0.23">
<path d="M208.913,189.677C209.527,190.838 211.029,192.749 212.599,193.568C214.169,194.456 215.944,192.681 215.193,191.042C213.964,188.517 211.712,184.625 209.8,185.035C208.093,185.854 207.684,188.312 208.913,189.677Z" fill="#FFFFFF"/>
</g>
<g opacity="0.23">
<path d="M195.805,193.227C195.327,194.182 194.849,196.026 195.054,197.391C195.259,198.825 197.17,199.166 197.853,197.869C198.877,195.889 200.379,192.681 199.218,191.656C197.853,190.974 196.146,191.793 195.805,193.227Z" fill="#FFFFFF"/>
</g>
<g opacity="0.23">
<path d="M220.928,175.818C219.904,175.818 218.06,176.296 216.9,177.115C215.739,177.934 216.354,179.778 217.787,179.778C219.972,179.778 223.522,179.505 223.932,178.003C223.932,176.569 222.361,175.409 220.928,175.818Z" fill="#FFFFFF"/>
</g>
<path d="M193.68,191.929C193.943,191.443 193.763,190.836 193.278,190.573C192.792,190.309 192.185,190.489 191.922,190.975L193.68,191.929ZM191.174,218.474C191.355,218.995 191.925,219.271 192.447,219.089C192.968,218.908 193.244,218.338 193.063,217.816L191.174,218.474ZM192.801,191.452C191.922,190.975 191.922,190.975 191.921,190.976C191.921,190.976 191.921,190.976 191.921,190.977C191.92,190.978 191.92,190.979 191.919,190.98C191.918,190.982 191.916,190.986 191.914,190.989C191.91,190.997 191.904,191.008 191.898,191.021C191.884,191.047 191.865,191.084 191.841,191.132C191.793,191.227 191.725,191.365 191.643,191.543C191.478,191.9 191.252,192.421 191,193.091C190.496,194.432 189.887,196.375 189.453,198.811C188.583,203.687 188.412,210.537 191.174,218.474L193.063,217.816C190.431,210.256 190.602,203.759 191.422,199.163C191.832,196.862 192.405,195.038 192.872,193.795C193.105,193.174 193.312,192.699 193.458,192.383C193.531,192.225 193.589,192.107 193.627,192.031C193.646,191.993 193.661,191.965 193.67,191.948C193.674,191.939 193.677,191.933 193.679,191.93C193.68,191.929 193.68,191.928 193.68,191.927C193.681,191.927 193.681,191.927 193.68,191.928C193.68,191.928 193.68,191.928 193.68,191.928C193.68,191.928 193.68,191.929 192.801,191.452Z" fill="#7B0A32"/>
<path d="M189.014,181.923C189.558,181.828 189.922,181.309 189.826,180.765C189.731,180.221 189.213,179.858 188.669,179.953L189.014,181.923ZM176.73,216.212C176.832,216.755 177.354,217.113 177.897,217.011C178.44,216.91 178.798,216.387 178.696,215.844L176.73,216.212ZM188.841,180.938C188.669,179.953 188.668,179.953 188.667,179.953C188.666,179.953 188.665,179.954 188.664,179.954C188.662,179.954 188.66,179.954 188.658,179.955C188.654,179.956 188.648,179.957 188.641,179.958C188.628,179.96 188.611,179.964 188.59,179.968C188.547,179.977 188.489,179.99 188.416,180.007C188.271,180.042 188.067,180.096 187.814,180.176C187.31,180.336 186.611,180.6 185.798,181.021C184.17,181.863 182.091,183.335 180.221,185.855C176.467,190.915 173.695,200.002 176.73,216.212L178.696,215.844C175.724,199.968 178.515,191.511 181.827,187.047C183.491,184.805 185.32,183.52 186.717,182.797C187.417,182.434 188.01,182.213 188.419,182.083C188.623,182.018 188.782,181.976 188.884,181.952C188.935,181.94 188.973,181.931 188.995,181.927C189.006,181.925 189.013,181.923 189.016,181.923C189.018,181.922 189.018,181.922 189.018,181.922C189.018,181.922 189.017,181.922 189.017,181.922C189.016,181.923 189.016,181.923 189.015,181.923C189.015,181.923 189.014,181.923 188.841,180.938Z" fill="#7B0A32"/>
<path d="M189.57,176.939C189.02,176.989 188.615,177.475 188.665,178.025C188.715,178.575 189.201,178.98 189.751,178.93L189.57,176.939ZM198.262,178.071L198.184,179.068L198.194,179.069L198.262,178.071ZM201.383,179.4C201.929,179.486 202.441,179.114 202.527,178.568C202.613,178.023 202.241,177.511 201.695,177.425L201.383,179.4ZM189.751,178.93C193.406,178.598 195.573,178.862 198.184,179.068L198.341,177.074C195.764,176.871 193.424,176.588 189.57,176.939L189.751,178.93ZM198.194,179.069C199.164,179.136 199.967,179.219 200.525,179.286C200.803,179.319 201.021,179.348 201.167,179.369C201.24,179.379 201.296,179.387 201.332,179.392C201.35,179.395 201.364,179.397 201.372,179.398C201.377,179.399 201.38,179.399 201.382,179.4C201.382,179.4 201.383,179.4 201.383,179.4C201.384,179.4 201.384,179.4 201.384,179.4C201.384,179.4 201.384,179.4 201.383,179.4C201.383,179.4 201.383,179.4 201.383,179.4C201.383,179.4 201.383,179.4 201.539,178.412C201.695,177.425 201.695,177.425 201.695,177.425C201.695,177.424 201.695,177.424 201.695,177.424C201.695,177.424 201.695,177.424 201.694,177.424C201.694,177.424 201.694,177.424 201.693,177.424C201.692,177.424 201.691,177.424 201.689,177.424C201.686,177.423 201.682,177.422 201.676,177.422C201.665,177.42 201.648,177.417 201.627,177.414C201.585,177.408 201.524,177.399 201.444,177.388C201.285,177.366 201.055,177.335 200.762,177.3C200.176,177.23 199.34,177.143 198.331,177.073L198.194,179.069Z" fill="#7B0A32"/>
<path d="M207.835,179.716C207.424,180.085 207.39,180.717 207.759,181.128C208.128,181.539 208.76,181.573 209.171,181.204L207.835,179.716ZM234.281,178.425C234.627,178.855 235.257,178.923 235.687,178.576C236.117,178.23 236.185,177.6 235.839,177.17L234.281,178.425ZM208.503,180.46C209.171,181.204 209.171,181.205 209.171,181.205C209.171,181.205 209.171,181.205 209.171,181.205C209.171,181.205 209.171,181.204 209.172,181.204C209.173,181.202 209.176,181.2 209.179,181.197C209.185,181.191 209.196,181.182 209.21,181.169C209.239,181.144 209.284,181.106 209.343,181.055C209.461,180.954 209.638,180.805 209.868,180.619C210.328,180.246 210.999,179.724 211.836,179.134C213.515,177.95 215.839,176.51 218.447,175.447C221.061,174.381 223.896,173.722 226.624,174.023C229.317,174.321 231.973,175.56 234.281,178.425L235.839,177.17C233.197,173.891 230.059,172.391 226.844,172.036C223.665,171.684 220.479,172.459 217.692,173.595C214.897,174.734 212.438,176.263 210.684,177.499C209.805,178.118 209.098,178.668 208.608,179.065C208.364,179.263 208.173,179.424 208.042,179.536C207.977,179.592 207.926,179.635 207.892,179.666C207.874,179.681 207.861,179.693 207.851,179.701C207.847,179.706 207.843,179.709 207.84,179.711C207.839,179.713 207.838,179.714 207.837,179.714C207.836,179.715 207.836,179.715 207.836,179.715C207.835,179.716 207.835,179.716 208.503,180.46Z" fill="#7B0A32"/>
<path d="M215.845,182.129C215.372,181.845 214.757,181.998 214.473,182.471C214.188,182.944 214.341,183.559 214.815,183.843L215.845,182.129ZM230.767,198.891C231.029,199.377 231.636,199.558 232.122,199.295C232.608,199.032 232.789,198.425 232.526,197.939L230.767,198.891ZM215.33,182.986C214.815,183.843 214.815,183.843 214.814,183.843C214.814,183.843 214.814,183.843 214.815,183.843C214.815,183.843 214.815,183.844 214.816,183.844C214.817,183.845 214.818,183.846 214.821,183.847C214.826,183.85 214.833,183.855 214.844,183.861C214.865,183.874 214.896,183.893 214.939,183.919C215.023,183.971 215.148,184.049 215.311,184.152C215.635,184.358 216.106,184.662 216.686,185.054C217.846,185.839 219.441,186.97 221.173,188.358C224.662,191.152 228.612,194.908 230.767,198.891L232.526,197.939C230.175,193.594 225.967,189.635 222.424,186.797C220.64,185.368 219,184.204 217.806,183.397C217.208,182.993 216.721,182.678 216.382,182.463C216.212,182.356 216.08,182.273 215.989,182.217C215.943,182.189 215.908,182.167 215.884,182.153C215.872,182.145 215.862,182.14 215.856,182.136C215.853,182.134 215.85,182.132 215.848,182.131C215.847,182.131 215.847,182.13 215.846,182.13C215.846,182.13 215.846,182.13 215.845,182.13C215.845,182.129 215.845,182.129 215.33,182.986Z" fill="#7B0A32"/>
<path d="M206.534,184.471C206.675,183.938 206.358,183.39 205.824,183.248C205.29,183.107 204.742,183.425 204.601,183.958L206.534,184.471ZM214.303,214.311C214.787,214.576 215.395,214.399 215.66,213.915C215.926,213.431 215.749,212.823 215.264,212.557L214.303,214.311ZM205.567,184.215C204.601,183.958 204.601,183.959 204.6,183.959C204.6,183.96 204.6,183.96 204.6,183.961C204.6,183.962 204.599,183.963 204.599,183.965C204.598,183.969 204.597,183.973 204.595,183.979C204.592,183.992 204.588,184.009 204.582,184.031C204.571,184.075 204.555,184.139 204.535,184.221C204.496,184.386 204.441,184.626 204.377,184.932C204.249,185.544 204.084,186.422 203.934,187.5C203.634,189.652 203.39,192.616 203.623,195.85C204.086,202.3 206.469,210.015 214.303,214.311L215.264,212.557C208.283,208.729 206.058,201.835 205.617,195.706C205.398,192.651 205.628,189.833 205.914,187.776C206.058,186.749 206.214,185.916 206.334,185.342C206.394,185.055 206.445,184.834 206.481,184.686C206.498,184.612 206.512,184.557 206.521,184.52C206.526,184.502 206.529,184.489 206.531,184.481C206.532,184.477 206.533,184.474 206.534,184.472C206.534,184.472 206.534,184.471 206.534,184.471C206.534,184.471 206.534,184.471 206.534,184.471C206.534,184.471 206.534,184.471 205.567,184.215Z" fill="#7B0A32"/>
<path d="M188.158,180.733C185.223,183.259 199.423,181.416 200.857,181.826C196.76,184.01 191.982,187.424 192.255,192.612C205.089,186.878 199.423,181.757 218.06,184.556C215.739,180.938 210.551,180.87 208.298,180.392C209.732,176.228 214.101,173.497 214.988,169.196C209.732,169.196 204.611,173.155 202.632,177.798C197.648,179.163 194.303,176.296 188.158,180.733Z" fill="#005B39"/>
<path d="M197.17,173.087C195.327,171.654 193.074,170.698 190.821,170.357C189.729,170.152 189.251,168.786 190.07,168.035C191.913,166.329 194.166,165.168 196.624,164.69C196.897,164.622 197.238,164.554 197.511,164.622C198.467,164.69 199.15,165.441 199.696,166.192C202.632,170.152 203.451,175.272 204.133,180.119C204.202,180.802 202.563,181.007 202.154,180.734C201.608,180.256 201.403,178.686 201.061,178.003C200.242,176.023 198.877,174.385 197.17,173.087Z" fill="#005B39"/>
<path d="M235.06,187.492C234.855,182.099 236.357,176.706 238.746,171.859C241.136,167.012 244.276,162.574 247.689,158.341C248.987,162.028 247.485,167.08 246.119,170.766C243.525,177.73 240.316,182.372 235.06,187.492Z" fill="#008054"/>
<path d="M247.759,162.258C248.075,161.805 247.963,161.181 247.51,160.866C247.056,160.55 246.433,160.662 246.118,161.115L247.759,162.258ZM234.975,184.187C234.846,184.724 235.177,185.264 235.714,185.393C236.251,185.521 236.791,185.19 236.919,184.653L234.975,184.187ZM246.118,161.115C241.236,168.128 236.995,175.755 234.975,184.187L236.919,184.653C238.858,176.564 242.946,169.172 247.759,162.258L246.118,161.115Z" fill="#005B39"/>
<path d="M156.208,206.813C141.462,278.905 263.937,290.169 239.497,204.765C239.497,204.765 172.047,222.651 156.208,206.813Z" fill="#7B0A32"/>
<path d="M215.671,226.611L184.95,229.41C184.95,229.41 179.693,220.057 174.163,217.667C172.798,217.053 171.501,218.555 172.184,219.852L178.464,231.867C178.464,231.867 163.923,225.109 158.393,219.647C157.369,218.691 155.867,218.418 154.638,219.169C152.659,220.466 152.522,223.812 167.609,232.891C167.609,232.891 148.289,221.832 147.06,224.972C145.832,228.181 151.225,231.116 165.561,239.991C165.561,239.991 146.924,233.711 144.671,236.168C142.418,238.626 167.678,248.866 167.678,248.866C167.678,248.866 149.723,244.156 147.675,246.067C145.559,247.979 156.55,254.26 182.014,257.4C207.479,260.54 227.345,251.665 227.345,251.665C227.345,251.665 239.429,225.245 215.671,226.611Z" fill="#FF9A5A"/>
<g opacity="0.39">
<path d="M215.671,226.611L184.95,229.41C184.95,229.41 179.693,220.057 174.163,217.667C172.798,217.053 171.501,218.555 172.184,219.852L178.464,231.867C178.464,231.867 163.923,225.109 158.393,219.647C157.369,218.691 155.867,218.418 154.638,219.169C152.659,220.466 152.522,223.812 167.609,232.891C167.609,232.891 148.289,221.832 147.06,224.972C145.832,228.181 151.225,231.116 165.561,239.991C165.561,239.991 146.924,233.711 144.671,236.168C142.418,238.626 167.678,248.866 167.678,248.866C167.678,248.866 149.723,244.156 147.675,246.067C145.559,247.979 156.55,254.26 182.014,257.4C207.479,260.54 227.345,251.665 227.345,251.665C227.345,251.665 239.429,225.245 215.671,226.611Z" fill="#7B0A32"/>
</g>
<path d="M215.671,226.611C215.671,226.611 226.594,237.807 219.836,254.328C219.836,254.328 228.233,272.283 245.3,243.2L236.015,213.162L215.671,226.611Z" fill="#FFFFFF"/>
<path d="M221.61,198.757C204.338,208.997 193.825,230.297 198.808,250.095C210.551,237.466 219.767,223.197 227.345,207.768C233.148,198.142 235.879,190.769 221.61,198.757Z" fill="#C0A719"/>
<path d="M216.324,211.396C216.707,210.998 216.693,210.365 216.295,209.982C215.896,209.6 215.263,209.613 214.881,210.012L216.324,211.396ZM199.527,241.067C199.442,241.612 199.816,242.124 200.361,242.209C200.907,242.294 201.418,241.92 201.503,241.374L199.527,241.067ZM214.881,210.012C206.751,218.489 201.333,229.464 199.527,241.067L201.503,241.374C203.247,230.175 208.479,219.577 216.324,211.396L214.881,210.012Z" fill="#005B39"/>
<path d="M244.959,178.822C247.348,178.481 250.215,179.027 251.376,181.143C251.922,182.167 251.99,183.396 252.127,184.557C252.536,188.107 254.175,191.725 257.247,193.432C260.592,195.275 264.757,194.456 268.511,195.002C270.969,195.412 273.632,196.777 274.11,199.235C274.383,200.805 273.632,202.443 273.836,204.082C274.041,206.266 275.953,207.905 277.591,209.407C279.23,210.909 280.937,212.82 280.595,215.073C280.595,215.278 280.527,215.551 280.39,215.688C280.186,215.892 279.912,215.892 279.708,215.961C278.137,216.097 276.567,215.346 275.27,214.459C274.451,213.912 273.632,213.298 272.676,213.23C271.788,213.23 271.037,213.708 270.287,214.117C268.648,215.005 266.736,215.619 264.893,215.141C261.343,214.322 259.91,210.158 257.52,207.359C255.472,204.901 252.536,203.331 249.328,202.989C246.938,202.716 244.549,203.194 242.228,202.853C239.224,202.443 236.357,200.737 234.582,198.211C228.847,190.155 236.152,179.983 244.959,178.822Z" fill="#C0A719"/>
<path d="M232.327,189.993C232.012,190.447 232.124,191.07 232.577,191.385C233.03,191.701 233.653,191.589 233.969,191.135L232.327,189.993ZM238.132,188.311L238.113,187.312L238.096,187.312L238.132,188.311ZM248.44,192.066L247.894,192.904L247.898,192.907L248.44,192.066ZM254.585,196.572L253.947,197.342L253.949,197.344L254.585,196.572ZM275.996,213.297C276.523,213.462 277.084,213.168 277.249,212.641C277.413,212.113 277.12,211.553 276.592,211.388L275.996,213.297ZM233.969,191.135C234.799,189.942 236.391,189.374 238.167,189.311L238.096,187.312C236.049,187.385 233.681,188.046 232.327,189.993L233.969,191.135ZM238.15,189.311C241.518,189.249 244.783,190.875 247.894,192.904L248.987,191.229C245.817,189.161 242.118,187.237 238.113,187.312L238.15,189.311ZM247.898,192.907C249.981,194.25 251.997,195.729 253.947,197.342L255.222,195.802C253.213,194.139 251.133,192.613 248.982,191.226L247.898,192.907ZM253.949,197.344C255.666,198.758 257.302,200.259 258.96,201.781C260.613,203.297 262.288,204.834 264.053,206.287L265.324,204.743C263.607,203.33 261.971,201.829 260.313,200.307C258.66,198.791 256.985,197.254 255.22,195.8L253.949,197.344ZM264.053,206.287C267.569,209.183 271.443,211.874 275.996,213.297L276.592,211.388C272.407,210.08 268.771,207.582 265.324,204.743L264.053,206.287Z" fill="#005B39"/>
<path d="M238.356,188.093C238.236,187.554 237.701,187.215 237.162,187.336C236.623,187.457 236.284,187.991 236.405,188.53L238.356,188.093ZM243.52,199.48C243.882,199.897 244.513,199.942 244.931,199.581C245.348,199.219 245.393,198.587 245.032,198.17L243.52,199.48ZM236.405,188.53C236.892,190.703 238.039,192.693 239.356,194.492C240.668,196.285 242.214,197.973 243.52,199.48L245.032,198.17C243.675,196.605 242.218,195.016 240.97,193.311C239.726,191.611 238.757,189.88 238.356,188.093L236.405,188.53Z" fill="#005B39"/>
<path d="M249.813,192.207C249.665,191.675 249.113,191.364 248.581,191.513C248.049,191.661 247.738,192.213 247.887,192.745L249.813,192.207ZM253.047,200.818C253.431,201.215 254.064,201.225 254.461,200.84C254.858,200.456 254.868,199.823 254.483,199.426L253.047,200.818ZM247.887,192.745C248.774,195.925 250.897,198.599 253.047,200.818L254.483,199.426C252.401,197.277 250.564,194.898 249.813,192.207L247.887,192.745Z" fill="#005B39"/>
<path d="M261.49,201.708C261.348,201.174 260.8,200.857 260.266,200.999C259.733,201.141 259.415,201.689 259.558,202.223L261.49,201.708ZM264.046,210.99C264.393,211.42 265.022,211.488 265.452,211.141C265.882,210.795 265.95,210.165 265.604,209.735L264.046,210.99ZM259.558,202.223C260.415,205.438 261.984,208.43 264.046,210.99L265.604,209.735C263.706,207.379 262.271,204.637 261.49,201.708L259.558,202.223Z" fill="#005B39"/>
<path d="M269.023,207.858C268.809,207.349 268.223,207.11 267.714,207.324C267.205,207.539 266.966,208.125 267.18,208.634L269.023,207.858ZM269.67,212.523C270.034,212.938 270.666,212.981 271.081,212.617C271.497,212.253 271.539,211.621 271.176,211.206L269.67,212.523ZM267.18,208.634C267.776,210.049 268.659,211.367 269.67,212.523L271.176,211.206C270.275,210.177 269.52,209.037 269.023,207.858L267.18,208.634Z" fill="#005B39"/>
<path d="M266.146,205.471C265.594,205.458 265.136,205.895 265.122,206.447C265.109,207 265.546,207.458 266.098,207.471L266.146,205.471ZM274.092,209.111C274.607,209.31 275.186,209.052 275.384,208.537C275.583,208.021 275.325,207.443 274.81,207.245L274.092,209.111ZM266.098,207.471C268.838,207.536 271.523,208.123 274.092,209.111L274.81,207.245C272.053,206.184 269.141,205.543 266.146,205.471L266.098,207.471Z" fill="#005B39"/>
<path d="M260.454,200.634C259.907,200.71 259.526,201.215 259.602,201.762C259.678,202.309 260.183,202.691 260.73,202.615L260.454,200.634ZM267.648,202.934C268.183,203.072 268.728,202.75 268.865,202.215C269.003,201.68 268.681,201.135 268.146,200.997L267.648,202.934ZM260.73,202.615C263.079,202.288 265.403,202.357 267.648,202.934L268.146,200.997C265.611,200.345 263.02,200.277 260.454,200.634L260.73,202.615Z" fill="#005B39"/>
<path d="M249.224,191.272C248.672,191.292 248.24,191.755 248.26,192.307C248.28,192.859 248.743,193.29 249.295,193.271L249.224,191.272ZM254.567,194.16C255.082,194.359 255.661,194.102 255.859,193.586C256.057,193.071 255.8,192.492 255.285,192.294L254.567,194.16ZM249.295,193.271C251.069,193.207 252.915,193.525 254.567,194.16L255.285,192.294C253.387,191.564 251.273,191.199 249.224,191.272L249.295,193.271Z" fill="#005B39"/>
<path d="M236.756,187.531C236.325,187.876 236.255,188.505 236.6,188.936C236.945,189.368 237.574,189.437 238.005,189.092L236.756,187.531ZM246.187,187.127C246.74,187.127 247.187,186.679 247.187,186.127C247.187,185.575 246.74,185.127 246.187,185.127L246.187,187.127ZM238.005,189.092C238.393,188.782 239.179,188.383 240.1,188.023C241.005,187.669 241.903,187.406 242.452,187.32L242.14,185.344C241.392,185.462 240.344,185.78 239.372,186.16C238.415,186.534 237.392,187.022 236.756,187.531L238.005,189.092ZM242.452,187.32C243.659,187.129 244.878,187.127 246.187,187.127L246.187,185.127C244.903,185.127 243.527,185.125 242.14,185.344L242.452,187.32Z" fill="#005B39"/>
<path d="M259.022,216.439C253.492,215.141 248.304,212.684 243.798,209.27C241.75,207.768 239.838,205.993 238.541,203.809C237.244,201.624 236.561,198.962 237.039,196.504C238.814,197.528 240.657,198.484 242.432,199.508C244.481,200.737 246.597,201.965 248.44,203.536C250.079,204.901 251.512,206.539 252.946,208.11C255.335,210.636 256.701,213.844 259.022,216.439Z" fill="#008054"/>
<path d="M237.615,198.145C237.089,197.978 236.527,198.269 236.359,198.795C236.192,199.321 236.483,199.884 237.009,200.051L237.615,198.145ZM241.477,201.419L242.071,200.615L242.07,200.614L241.477,201.419ZM253.331,212.845C253.722,213.235 254.355,213.235 254.745,212.845C255.136,212.454 255.136,211.821 254.745,211.43L253.331,212.845ZM237.009,200.051C238.349,200.477 239.606,201.283 240.883,202.224L242.07,200.614C240.753,199.644 239.28,198.675 237.615,198.145L237.009,200.051ZM240.883,202.224C245.287,205.476 249.481,208.994 253.331,212.845L254.745,211.43C250.813,207.498 246.541,203.916 242.071,200.615L240.883,202.224Z" fill="#005B39"/>
<path d="M261.821,231.663C260.456,230.502 258.749,229.887 257.042,229.614C246.119,227.976 253.287,220.125 250.83,212.206C248.645,204.56 240.999,209.338 239.292,202.375C234.855,173.156 212.872,195.207 207.82,210.704C208.639,209.953 224.068,205.242 224.614,225.655C225.024,228.59 228.779,229.683 230.69,227.43C232.124,225.791 233.421,224.631 234.786,226.064C236.288,227.703 236.63,230.024 237.449,232.14C240.453,239.923 245.846,232.755 251.034,238.08C261.548,249.959 269.877,238.489 261.821,231.663Z" fill="#005B39"/>
<path d="M207.515,208.74C207.298,209.248 207.533,209.835 208.041,210.053C208.549,210.27 209.137,210.035 209.354,209.527L207.515,208.74ZM245.983,227.703L245.148,228.253L245.157,228.267L245.983,227.703ZM261.858,240.261C262.385,240.429 262.947,240.139 263.115,239.612C263.283,239.086 262.993,238.524 262.467,238.356L261.858,240.261ZM209.354,209.527C211.394,204.761 213.318,201.268 215.131,198.816C216.949,196.355 218.604,195.015 220.08,194.437C221.511,193.878 222.869,193.998 224.24,194.676C225.649,195.374 227.079,196.668 228.53,198.463C231.437,202.059 234.203,207.368 236.955,212.901C239.68,218.379 242.391,224.075 245.148,228.253L246.817,227.152C244.147,223.104 241.507,217.561 238.745,212.01C236.011,206.512 233.153,201.001 230.086,197.206C228.55,195.307 226.905,193.764 225.127,192.884C223.309,191.985 221.365,191.788 219.352,192.575C217.385,193.344 215.455,195.012 213.522,197.627C211.584,200.249 209.589,203.896 207.515,208.74L209.354,209.527ZM245.157,228.267C249.126,234.079 255.267,238.157 261.858,240.261L262.467,238.356C256.224,236.363 250.485,232.522 246.809,227.139L245.157,228.267Z" fill="#008054"/>
<path d="M223.439,193.494C223.813,193.088 223.786,192.455 223.38,192.081C222.973,191.708 222.341,191.734 221.967,192.14L223.439,193.494ZM219.607,205.991C219.719,206.532 220.248,206.88 220.789,206.768C221.329,206.656 221.677,206.127 221.566,205.586L219.607,205.991ZM221.967,192.14C218.471,195.94 218.711,201.649 219.607,205.991L221.566,205.586C220.687,201.327 220.654,196.521 223.439,193.494L221.967,192.14Z" fill="#008054"/>
<path d="M229.742,196.91C229.891,196.378 229.58,195.826 229.049,195.677C228.517,195.528 227.965,195.838 227.816,196.37L229.742,196.91ZM228.432,219.688C228.681,220.181 229.283,220.379 229.776,220.13C230.269,219.881 230.466,219.28 230.218,218.787L228.432,219.688ZM227.816,196.37C225.749,203.742 224.709,212.313 228.432,219.688L230.218,218.787C226.841,212.098 227.712,204.148 229.742,196.91L227.816,196.37Z" fill="#008054"/>
<path d="M236.332,207.462C236.352,206.911 235.92,206.447 235.368,206.427C234.816,206.408 234.353,206.839 234.333,207.391L236.332,207.462ZM236.462,225.709C236.68,226.216 237.269,226.45 237.776,226.232C238.283,226.014 238.518,225.425 238.299,224.918L236.462,225.709ZM234.333,207.391C234.129,213.097 234.039,220.079 236.462,225.709L238.299,224.918C236.08,219.762 236.126,213.226 236.332,207.462L234.333,207.391Z" fill="#008054"/>
<path d="M243.979,222.583C243.979,222.03 243.531,221.583 242.979,221.583C242.426,221.583 241.979,222.03 241.979,222.583L243.979,222.583ZM243.532,231.842C243.707,232.366 244.273,232.649 244.797,232.474C245.321,232.3 245.604,231.733 245.429,231.21L243.532,231.842ZM241.979,222.583C241.979,225.774 242.546,228.884 243.532,231.842L245.429,231.21C244.504,228.432 243.979,225.535 243.979,222.583L241.979,222.583Z" fill="#008054"/>
<path d="M252.258,233.035C251.998,232.548 251.393,232.364 250.905,232.624C250.418,232.883 250.234,233.489 250.494,233.976L252.258,233.035ZM254.6,239.781C254.974,240.187 255.606,240.214 256.013,239.84C256.419,239.466 256.445,238.833 256.072,238.427L254.6,239.781ZM250.494,233.976C251.625,236.097 252.97,238.01 254.6,239.781L256.072,238.427C254.56,236.784 253.312,235.011 252.258,233.035L250.494,233.976Z" fill="#008054"/>
<path d="M255.252,234.975C254.706,235.059 254.331,235.57 254.415,236.116C254.499,236.661 255.01,237.036 255.556,236.952L255.252,234.975ZM260.791,236.756C261.342,236.797 261.822,236.383 261.863,235.833C261.903,235.282 261.49,234.802 260.939,234.761L260.791,236.756ZM255.556,236.952C257.254,236.691 259.021,236.625 260.791,236.756L260.939,234.761C259.023,234.62 257.104,234.69 255.252,234.975L255.556,236.952Z" fill="#008054"/>
<path d="M244.109,222.507C243.615,222.26 243.014,222.461 242.767,222.955C242.52,223.449 242.72,224.049 243.214,224.296L244.109,222.507ZM249.263,228.505C249.668,228.88 250.301,228.856 250.676,228.45C251.051,228.045 251.027,227.413 250.622,227.037L249.263,228.505ZM243.214,224.296C245.445,225.412 247.484,226.858 249.263,228.505L250.622,227.037C248.714,225.271 246.52,223.713 244.109,222.507L243.214,224.296Z" fill="#008054"/>
<path d="M235.72,206.505C235.211,206.291 234.624,206.53 234.411,207.04C234.197,207.549 234.436,208.135 234.945,208.349L235.72,206.505ZM245.069,214.885C245.494,215.239 246.124,215.182 246.478,214.757C246.831,214.333 246.774,213.702 246.35,213.349L245.069,214.885ZM234.945,208.349C238.227,209.727 242.235,212.523 245.069,214.885L246.35,213.349C243.45,210.932 239.265,207.994 235.72,206.505L234.945,208.349Z" fill="#008054"/>
<path d="M228.184,195.436C227.632,195.425 227.175,195.864 227.164,196.416C227.154,196.968 227.593,197.425 228.145,197.435L228.184,195.436ZM236.285,202.01C236.687,202.389 237.32,202.371 237.699,201.969C238.078,201.567 238.059,200.934 237.657,200.555L236.285,202.01ZM228.145,197.435C231.188,197.495 233.857,199.721 236.285,202.01L237.657,200.555C235.306,198.338 232.104,195.513 228.184,195.436L228.145,197.435Z" fill="#008054"/>
<path d="M222.008,191.893C221.611,192.277 221.6,192.91 221.983,193.307C222.367,193.704 223,193.715 223.397,193.332L222.008,191.893ZM230.978,192.382C231.529,192.412 232,191.989 232.03,191.438C232.06,190.886 231.637,190.415 231.086,190.385L230.978,192.382ZM223.397,193.332C224.124,192.63 225.272,192.31 226.719,192.228C228.164,192.147 229.64,192.31 230.978,192.382L231.086,190.385C229.897,190.321 228.199,190.142 226.606,190.231C225.015,190.321 223.262,190.683 222.008,191.893L223.397,193.332Z" fill="#008054"/>
<path d="M182.97,213.366C183.926,213.435 185.496,213.23 187.544,213.23C184.813,207.222 183.926,202.785 180.376,197.733C175.392,190.564 162.421,189.404 159.349,198.689C159.212,204.833 154.297,207.086 149.04,209.065C140.575,211.728 134.84,233.574 147.47,218.76C152.112,213.093 156.686,217.804 162.011,218.896C169.794,218.896 174.778,204.696 182.97,213.366Z" fill="#005B39"/>
<path d="M186.19,212.739C186.371,213.26 186.941,213.536 187.463,213.355C187.984,213.174 188.26,212.604 188.079,212.082L186.19,212.739ZM164.401,204.833L165.249,205.363L165.258,205.348L164.401,204.833ZM160.031,208.246L160.313,209.206L160.316,209.205L160.031,208.246ZM139.589,221.183C139.495,221.727 139.86,222.245 140.404,222.339C140.948,222.433 141.466,222.069 141.56,221.524L139.589,221.183ZM188.079,212.082C185.791,205.496 181.962,199.998 177.469,197.91C175.177,196.844 172.708,196.67 170.267,197.715C167.857,198.746 165.588,200.916 163.544,204.317L165.258,205.348C167.173,202.161 169.162,200.363 171.054,199.553C172.913,198.757 174.788,198.869 176.626,199.723C180.394,201.475 183.972,206.353 186.19,212.739L188.079,212.082ZM163.553,204.303C162.643,205.758 161.332,206.818 159.747,207.287L160.316,209.205C162.418,208.582 164.11,207.185 165.249,205.363L163.553,204.303ZM159.75,207.286C157.784,207.863 155.755,208.315 153.647,208.866C151.575,209.407 149.486,210.031 147.576,210.924C143.696,212.737 140.545,215.673 139.589,221.183L141.56,221.524C142.38,216.795 144.998,214.336 148.422,212.736C150.164,211.922 152.112,211.334 154.153,210.801C156.158,210.277 158.319,209.79 160.313,209.206L159.75,207.286Z" fill="#008054"/>
<path d="M182.872,205.693C183.385,205.898 183.966,205.648 184.172,205.136C184.377,204.623 184.127,204.041 183.615,203.836L182.872,205.693ZM174.002,207.334C173.612,207.724 173.612,208.358 174.002,208.748C174.393,209.139 175.026,209.139 175.417,208.748L174.002,207.334ZM183.615,203.836C181.592,203.027 179.74,203.325 178.124,204.124C176.549,204.901 175.171,206.165 174.002,207.334L175.417,208.748C176.569,207.596 177.751,206.538 179.01,205.917C180.226,205.316 181.481,205.136 182.872,205.693L183.615,203.836Z" fill="#008054"/>
<path d="M178.094,200.15C178.638,200.053 179,199.534 178.903,198.99C178.805,198.447 178.286,198.085 177.742,198.182L178.094,200.15ZM169.139,206.509C168.934,207.022 169.183,207.604 169.696,207.809C170.209,208.014 170.791,207.765 170.996,207.252L169.139,206.509ZM177.742,198.182C173.397,198.958 170.544,202.996 169.139,206.509L170.996,207.252C172.321,203.938 174.793,200.74 178.094,200.15L177.742,198.182Z" fill="#008054"/>
<path d="M166.423,203.201C166.389,202.65 165.915,202.23 165.364,202.264C164.812,202.298 164.393,202.772 164.427,203.323L166.423,203.201ZM162.551,212.939C162.239,213.395 162.357,214.017 162.813,214.328C163.269,214.64 163.891,214.523 164.203,214.067L162.551,212.939ZM164.427,203.323C164.628,206.615 164.267,210.425 162.551,212.939L164.203,214.067C166.309,210.982 166.631,206.6 166.423,203.201L164.427,203.323Z" fill="#008054"/>
<path d="M160.175,209.102C160.422,208.609 160.222,208.008 159.728,207.761C159.234,207.514 158.633,207.714 158.386,208.208L160.175,209.102ZM155.324,213.197C155.005,213.648 155.111,214.272 155.562,214.591C156.013,214.911 156.637,214.804 156.956,214.353L155.324,213.197ZM158.386,208.208C157.529,209.921 156.468,211.583 155.324,213.197L156.956,214.353C158.133,212.691 159.257,210.939 160.175,209.102L158.386,208.208Z" fill="#008054"/>
<path d="M152.893,210.919C153.238,210.487 153.168,209.858 152.737,209.513C152.306,209.168 151.676,209.238 151.331,209.669L152.893,210.919ZM146.925,215.594C146.76,216.121 147.054,216.682 147.581,216.847C148.109,217.011 148.669,216.717 148.834,216.19L146.925,215.594ZM151.331,209.669C151.017,210.062 150.648,210.464 150.242,210.897C149.843,211.322 149.404,211.781 148.989,212.254C148.163,213.194 147.331,214.295 146.925,215.594L148.834,216.19C149.111,215.304 149.713,214.46 150.491,213.574C150.878,213.133 151.284,212.71 151.7,212.266C152.108,211.831 152.525,211.379 152.893,210.919L151.331,209.669Z" fill="#008054"/>
<path d="M158.204,209.334C158.579,209.739 159.212,209.765 159.617,209.39C160.023,209.016 160.048,208.383 159.674,207.977L158.204,209.334ZM155.662,206.222C155.11,206.222 154.662,206.669 154.662,207.222C154.662,207.774 155.11,208.222 155.662,208.222L155.662,206.222ZM159.674,207.977C158.667,206.886 157.172,206.222 155.662,206.222L155.662,208.222C156.61,208.222 157.573,208.65 158.204,209.334L159.674,207.977Z" fill="#008054"/>
<path d="M165.157,204.226C165.689,204.374 166.241,204.062 166.388,203.53C166.536,202.998 166.225,202.447 165.692,202.299L165.157,204.226ZM160.762,203.378C160.41,203.804 160.471,204.434 160.898,204.785C161.324,205.136 161.954,205.075 162.305,204.649L160.762,203.378ZM165.692,202.299C164.993,202.104 164.122,201.976 163.256,202.082C162.38,202.189 161.447,202.546 160.762,203.378L162.305,204.649C162.576,204.32 162.974,204.131 163.498,204.067C164.031,204.002 164.628,204.079 165.157,204.226L165.692,202.299Z" fill="#008054"/>
<path d="M175.017,198.908C175.402,199.304 176.035,199.312 176.431,198.927C176.827,198.542 176.835,197.908 176.45,197.513L175.017,198.908ZM166.079,194.357C165.535,194.447 165.167,194.963 165.258,195.507C165.348,196.052 165.864,196.42 166.408,196.329L166.079,194.357ZM176.45,197.513C173.664,194.652 170.042,193.696 166.079,194.357L166.408,196.329C169.819,195.761 172.751,196.581 175.017,198.908L176.45,197.513Z" fill="#008054"/>
</svg>
