<svg width="28" height="30" viewBox="0 0 28 30" fill="none" xmlns="http://www.w3.org/2000/svg" xmlns:xlink="http://www.w3.org/1999/xlink">
<path d="M27.018,24.464C27.412,24.864 27.631,25.39 27.609,25.938C27.609,26.485 27.39,26.991 26.974,27.391C26.58,27.77 26.032,28.001 25.463,28.001C24.893,28.001 24.346,27.812 23.929,27.433L11.531,15.516C11.334,15.327 11.181,15.095 11.071,14.843C10.962,14.59 10.896,14.316 10.896,14.043C10.896,13.769 10.962,13.495 11.071,13.222C11.181,12.969 11.334,12.737 11.531,12.548L23.929,0.632C24.126,0.442 24.367,0.274 24.63,0.168C24.915,0.063 25.2,0 25.485,0C25.769,0 26.076,0.042 26.339,0.147C26.602,0.253 26.843,0.421 27.062,0.611C27.259,0.8 27.412,1.053 27.522,1.305C27.653,1.558 27.697,1.832 27.697,2.126C27.697,2.4 27.631,2.674 27.522,2.926C27.412,3.179 27.237,3.411 27.018,3.621L16.175,14.043L18.234,16.001L27.018,24.464Z" fill="#B3B3B3" stroke="#B3B3B3" stroke-width="0.1" stroke-miterlimit="3.999327"/>
<path d="M15.495,24.464C15.889,24.864 16.108,25.39 16.086,25.938C16.086,26.485 15.867,26.991 15.451,27.391C15.056,27.77 14.509,28.001 13.939,28.001C13.37,28.001 12.822,27.812 12.406,27.433L0.008,15.516C-0.189,15.327 -0.342,15.095 -0.452,14.843C-0.561,14.59 -0.627,14.316 -0.627,14.043C-0.627,13.769 -0.561,13.495 -0.452,13.222C-0.342,12.969 -0.189,12.737 0.008,12.548L12.406,0.632C12.603,0.442 12.844,0.274 13.107,0.168C13.392,0.063 13.676,0 13.961,0C14.246,0 14.553,0.042 14.816,0.147C15.078,0.253 15.319,0.421 15.538,0.611C15.736,0.8 15.889,1.053 15.998,1.305C16.13,1.558 16.174,1.832 16.174,2.126C16.174,2.4 16.108,2.674 15.998,2.926C15.889,3.179 15.714,3.411 15.495,3.621L4.652,14.043L6.711,16.001L15.495,24.464Z" transform="rotate(-360 7.773 14.001)" fill="#B3B3B3" stroke="#B3B3B3" stroke-width="0.1" stroke-miterlimit="3.999327"/>
</svg>
