<svg width="132" height="156" viewBox="0 0 132 156" fill="none" xmlns="http://www.w3.org/2000/svg" xmlns:xlink="http://www.w3.org/1999/xlink">
<path d="M89.286,12.597C89.948,6.687 85.755,1.35 79.842,0.688C73.928,-0.018 68.588,4.217 67.926,10.127C67.132,16.876 68.235,24.948 69.648,33.24C73.575,34.431 77.371,36.152 80.901,38.181C84.696,29.226 88.403,20.361 89.286,12.597ZM130.813,38.534C128.475,33.064 122.12,30.594 116.647,32.932C109.454,36.063 101.996,42.195 94.493,48.502C97.318,51.281 99.966,54.413 102.216,57.809C110.734,56.751 118.898,55.471 125.209,52.737C130.681,50.311 133.197,43.959 130.813,38.534ZM112.676,9.686C107.909,6.157 101.157,7.128 97.627,11.892C92.243,19.126 88.624,29.932 84.696,40.474C86.02,41.357 87.256,42.239 88.448,43.165C89.33,43.871 90.257,44.621 91.184,45.37C100.186,38.578 109.542,31.961 114.926,24.727C118.457,19.964 117.442,13.215 112.676,9.686Z" clip-rule="evenodd" fill-rule="evenodd" fill="#FFFFFF"/>
<path d="M92.199,96.052C88.889,99.625 85.359,102.933 81.607,106.153C76.356,110.696 71.016,115.107 65.588,119.342C59.762,115.769 55.57,113.96 54.864,114.887C54.246,115.725 56.673,118.812 61.042,122.826C46.391,133.721 30.901,143.337 14.263,151.233C11.659,152.468 8.923,153.35 6.231,154.32C5.525,154.585 4.775,154.585 4.466,154.629C0.229,155.114 -1.05,153.968 -0.874,150.086C-0.344,138 3.407,126.664 7.29,115.372C8.35,112.284 9.453,109.197 10.6,106.109C16.47,109.682 20.662,111.534 21.368,110.608C22.118,109.594 18.588,105.536 12.674,100.463C16.911,89.524 21.633,78.761 27.194,68.44C38.315,76.688 48.2,82.114 49.303,80.614C50.407,79.114 42.242,71.13 30.989,62.794L30.503,62.441C32.445,59.133 34.475,55.825 36.638,52.604C39.33,48.546 42.64,44.841 45.905,41.224C50.274,36.416 55.923,34.784 62.234,36.196C82.446,40.695 96.48,52.296 103.099,72.189C104.423,76.247 103.232,80.217 101.158,83.878C99.745,86.348 98.201,88.686 96.48,90.891C85.8,83.084 76.532,78.056 75.473,79.467C74.458,80.879 81.828,88.157 92.199,96.052Z" fill="#FFFFFF"/>
</svg>
