<svg width="110" height="128" viewBox="0 0 110 128" fill="none" xmlns="http://www.w3.org/2000/svg" xmlns:xlink="http://www.w3.org/1999/xlink">
<path d="M74.398,9.894C74.944,5.015 71.485,0.61 66.606,0.063C61.727,-0.519 57.322,2.976 56.775,7.855C56.12,13.426 57.03,20.089 58.195,26.934C61.436,27.917 64.567,29.337 67.48,31.012C70.611,23.62 73.669,16.302 74.398,9.894ZM108.659,31.303C106.729,26.788 101.486,24.749 96.971,26.679C91.037,29.264 84.883,34.325 78.694,39.531C81.024,41.825 83.209,44.41 85.066,47.214C92.093,46.34 98.828,45.284 104.035,43.027C108.55,41.024 110.625,35.781 108.659,31.303ZM93.695,7.491C89.762,4.578 84.192,5.379 81.279,9.311C76.837,15.283 73.851,24.203 70.611,32.905C71.703,33.633 72.723,34.361 73.706,35.126C74.434,35.708 75.199,36.327 75.963,36.946C83.391,31.339 91.11,25.878 95.551,19.907C98.464,15.974 97.627,10.404 93.695,7.491Z" clip-rule="evenodd" fill-rule="evenodd" fill="#FFFFFF"/>
<path d="M76.801,78.781C74.07,81.73 71.157,84.461 68.062,87.119C63.73,90.869 59.324,94.51 54.846,98.005C50.04,95.056 46.581,93.563 45.998,94.328C45.489,95.02 47.491,97.568 51.096,100.881C39.008,109.875 26.228,117.812 12.501,124.329C10.353,125.349 8.096,126.077 5.875,126.878C5.292,127.096 4.673,127.096 4.419,127.133C0.923,127.533 -0.133,126.587 0.013,123.383C0.45,113.406 3.545,104.049 6.749,94.728C7.623,92.18 8.533,89.631 9.479,87.082C14.322,90.031 17.781,91.561 18.363,90.796C18.982,89.959 16.07,86.609 11.191,82.422C14.686,73.392 18.582,64.508 23.169,55.988C32.345,62.797 40.5,67.275 41.411,66.038C42.321,64.8 35.585,58.209 26.301,51.328L25.9,51.037C27.502,48.306 29.177,45.575 30.961,42.917C33.182,39.568 35.913,36.509 38.607,33.524C42.212,29.555 46.872,28.208 52.079,29.373C68.754,33.087 80.332,42.663 85.794,59.083C86.886,62.433 85.903,65.71 84.192,68.732C83.027,70.771 81.752,72.7 80.332,74.521C71.521,68.076 63.875,63.926 63.002,65.091C62.164,66.256 68.244,72.264 76.801,78.781Z" fill="#FFFFFF"/>
</svg>
