<svg width="42" height="54" viewBox="0 0 42 54" fill="none" xmlns="http://www.w3.org/2000/svg" xmlns:xlink="http://www.w3.org/1999/xlink">
<path d="M27.737,4.05C27.941,2.053 26.651,0.25 24.832,0.026C23.013,-0.213 21.371,1.218 21.167,3.216C20.923,5.496 21.262,8.224 21.697,11.026C22.905,11.429 24.072,12.01 25.158,12.696C26.326,9.67 27.466,6.674 27.737,4.05ZM40.511,12.815C39.791,10.967 37.837,10.132 36.154,10.922C33.941,11.98 31.647,14.052 29.339,16.184C30.208,17.123 31.022,18.181 31.715,19.329C34.335,18.971 36.846,18.539 38.787,17.615C40.47,16.795 41.244,14.648 40.511,12.815ZM34.932,3.067C33.466,1.874 31.389,2.202 30.303,3.812C28.647,6.257 27.534,9.908 26.326,13.471C26.733,13.769 27.113,14.067 27.479,14.38C27.751,14.619 28.036,14.872 28.321,15.125C31.09,12.83 33.968,10.594 35.624,8.15C36.71,6.54 36.398,4.259 34.932,3.067Z" clip-rule="evenodd" fill-rule="evenodd" fill="#D9D9D9"/>
<path d="M28.633,32.252C27.615,33.459 26.529,34.577 25.375,35.665C23.76,37.201 22.118,38.691 20.448,40.122C18.656,38.915 17.367,38.304 17.149,38.617C16.959,38.9 17.706,39.943 19.05,41.3C14.543,44.982 9.778,48.231 4.661,50.899C3.86,51.316 3.018,51.615 2.19,51.942C1.973,52.032 1.742,52.032 1.647,52.047C0.344,52.211 -0.049,51.823 0.005,50.511C0.168,46.427 1.322,42.597 2.516,38.781C2.842,37.737 3.181,36.694 3.534,35.651C5.34,36.858 6.629,37.484 6.846,37.171C7.077,36.828 5.991,35.457 4.172,33.743C5.475,30.046 6.928,26.409 8.638,22.921C12.059,25.709 15.1,27.542 15.439,27.035C15.778,26.528 13.267,23.83 9.806,21.013L9.656,20.894C10.254,19.776 10.878,18.658 11.543,17.57C12.371,16.199 13.389,14.947 14.394,13.724C15.738,12.1 17.475,11.548 19.416,12.025C25.633,13.546 29.95,17.466 31.986,24.188C32.393,25.56 32.027,26.901 31.389,28.138C30.955,28.973 30.479,29.763 29.95,30.508C26.665,27.87 23.814,26.171 23.489,26.648C23.176,27.125 25.443,29.584 28.633,32.252Z" fill="#D9D9D9"/>
</svg>
