<svg width="28" height="28" viewBox="0 0 28 28" fill="none" xmlns="http://www.w3.org/2000/svg" xmlns:xlink="http://www.w3.org/1999/xlink">
<path d="M27.018,24.454C27.412,24.854 27.631,25.38 27.609,25.928C27.609,26.475 27.39,26.981 26.974,27.381C26.58,27.76 26.032,27.991 25.463,27.991C24.893,27.991 24.346,27.802 23.929,27.423L11.531,15.506C11.334,15.317 11.181,15.085 11.071,14.833C10.962,14.58 10.896,14.306 10.896,14.033C10.896,13.759 10.962,13.485 11.071,13.212C11.181,12.959 11.334,12.727 11.531,12.538L23.929,0.622C24.126,0.432 24.367,0.264 24.63,0.158C24.915,0.053 25.2,-0.01 25.485,-0.01C25.769,-0.01 26.076,0.032 26.339,0.137C26.602,0.243 26.843,0.411 27.062,0.601C27.259,0.79 27.412,1.043 27.522,1.295C27.653,1.548 27.697,1.822 27.697,2.116C27.697,2.39 27.631,2.664 27.522,2.916C27.412,3.169 27.237,3.401 27.018,3.611L16.175,14.033L18.234,15.991L27.018,24.454Z" fill="#B3B3B3" stroke="#B3B3B3" stroke-width="0.1" stroke-miterlimit="3.999327"/>
<path d="M15.495,24.454C15.889,24.854 16.108,25.381 16.086,25.928C16.086,26.475 15.867,26.981 15.451,27.381C15.056,27.76 14.509,27.991 13.939,27.991C13.37,27.991 12.822,27.802 12.406,27.423L0.008,15.507C-0.189,15.317 -0.342,15.085 -0.452,14.833C-0.561,14.58 -0.627,14.306 -0.627,14.033C-0.627,13.759 -0.561,13.485 -0.452,13.212C-0.342,12.959 -0.189,12.727 0.008,12.538L12.406,0.622C12.603,0.432 12.844,0.264 13.107,0.159C13.392,0.053 13.676,-0.01 13.961,-0.01C14.246,-0.01 14.553,0.032 14.816,0.137C15.078,0.243 15.319,0.411 15.538,0.601C15.736,0.79 15.889,1.043 15.998,1.295C16.13,1.548 16.174,1.822 16.174,2.117C16.174,2.39 16.108,2.664 15.998,2.917C15.889,3.169 15.714,3.401 15.495,3.611L4.652,14.033L6.711,15.991L15.495,24.454Z" transform="rotate(-360 7.773 13.991)" fill="#B3B3B3" stroke="#B3B3B3" stroke-width="0.1" stroke-miterlimit="3.999327"/>
</svg>
