<svg width="30" height="28" viewBox="0 0 30 28" fill="none" xmlns="http://www.w3.org/2000/svg" xmlns:xlink="http://www.w3.org/1999/xlink">
<path d="M28.578,24.372C28.972,24.772 29.191,25.298 29.17,25.846C29.17,26.393 28.951,26.898 28.534,27.298C28.14,27.677 27.592,27.909 27.023,27.909C26.453,27.909 25.906,27.719 25.49,27.34L13.092,15.424C12.895,15.235 12.741,15.003 12.632,14.75C12.522,14.498 12.457,14.224 12.457,13.95C12.457,13.677 12.522,13.403 12.632,13.129C12.741,12.877 12.895,12.645 13.092,12.456L25.49,0.539C25.687,0.35 25.928,0.181 26.191,0.076C26.475,-0.029 26.76,-0.092 27.045,-0.092C27.33,-0.092 27.636,-0.05 27.899,0.055C28.162,0.16 28.403,0.329 28.622,0.518C28.819,0.708 28.972,0.96 29.082,1.213C29.213,1.466 29.257,1.739 29.257,2.034C29.257,2.308 29.191,2.581 29.082,2.834C28.972,3.087 28.797,3.318 28.578,3.529L17.736,13.95L19.795,15.908L28.578,24.372Z" fill="#B3B3B3" stroke="#B3B3B3" stroke-width="0.1" stroke-miterlimit="3.999327"/>
<path d="M17.055,24.372C17.449,24.772 17.668,25.298 17.646,25.846C17.646,26.393 17.427,26.898 17.011,27.298C16.617,27.677 16.069,27.909 15.5,27.909C14.93,27.909 14.383,27.719 13.966,27.34L1.568,15.424C1.371,15.235 1.218,15.003 1.108,14.751C0.999,14.498 0.933,14.224 0.933,13.95C0.933,13.677 0.999,13.403 1.108,13.129C1.218,12.877 1.371,12.645 1.568,12.456L13.966,0.539C14.163,0.35 14.404,0.182 14.667,0.076C14.952,-0.029 15.237,-0.092 15.522,-0.092C15.806,-0.092 16.113,-0.05 16.376,0.055C16.639,0.16 16.88,0.329 17.099,0.518C17.296,0.708 17.449,0.961 17.559,1.213C17.69,1.466 17.734,1.739 17.734,2.034C17.734,2.308 17.668,2.582 17.559,2.834C17.449,3.087 17.274,3.318 17.055,3.529L6.212,13.95L8.271,15.908L17.055,24.372Z" transform="rotate(-360 9.334 13.908)" fill="#B3B3B3" stroke="#B3B3B3" stroke-width="0.1" stroke-miterlimit="3.999327"/>
</svg>
