<svg width="46" height="50" viewBox="0 0 46 50" fill="none" xmlns="http://www.w3.org/2000/svg" xmlns:xlink="http://www.w3.org/1999/xlink">
<path d="M45.858,25.034C45.858,23.056 45.701,21.612 45.363,20.115L23.373,20.115L23.373,29.045L36.281,29.045C36.021,31.265 34.615,34.607 31.492,36.853L31.449,37.152L38.402,42.686L38.883,42.736C43.307,38.537 45.858,32.361 45.858,25.034Z" fill="#FFFFFF"/>
<path d="M23.373,48.564C29.697,48.564 35.006,46.425 38.883,42.735L31.493,36.853C29.515,38.27 26.86,39.259 23.373,39.259C17.18,39.259 11.923,35.061 10.049,29.259L9.774,29.283L2.544,35.032L2.45,35.302C6.301,43.163 14.213,48.564 23.373,48.564Z" fill="#FFFFFF"/>
<path d="M10.049,29.259C9.554,27.762 9.268,26.157 9.268,24.499C9.268,22.842 9.554,21.237 10.023,19.74L10.01,19.421L2.689,13.58L2.45,13.697C0.863,16.959 -0.048,20.622 -0.048,24.499C-0.048,28.377 0.863,32.04 2.45,35.302L10.049,29.259Z" fill="#FFFFFF"/>
<path d="M23.374,9.74C27.772,9.74 30.738,11.692 32.43,13.323L39.04,6.692C34.981,2.815 29.698,0.435 23.374,0.435C14.213,0.435 6.302,5.836 2.451,13.697L10.024,19.74C11.924,13.938 17.18,9.74 23.374,9.74Z" fill="#FFFFFF"/>
</svg>
