<svg width="32" height="32" viewBox="0 0 32 32" fill="none" xmlns="http://www.w3.org/2000/svg" xmlns:xlink="http://www.w3.org/1999/xlink">
<path d="M30.281,27.256C30.718,27.7 30.961,28.284 30.937,28.891C30.937,29.498 30.694,30.059 30.232,30.503C29.795,30.923 29.187,31.18 28.556,31.18C27.924,31.18 27.316,30.97 26.855,30.55L13.1,17.329C12.881,17.119 12.711,16.862 12.59,16.582C12.468,16.302 12.395,15.998 12.395,15.694C12.395,15.391 12.468,15.087 12.59,14.783C12.711,14.503 12.881,14.246 13.1,14.036L26.855,0.816C27.073,0.606 27.341,0.419 27.632,0.302C27.948,0.185 28.264,0.115 28.58,0.115C28.896,0.115 29.236,0.162 29.528,0.279C29.819,0.396 30.087,0.582 30.33,0.793C30.548,1.003 30.718,1.283 30.84,1.563C30.986,1.844 31.034,2.147 31.034,2.474C31.034,2.778 30.961,3.082 30.84,3.362C30.718,3.642 30.524,3.899 30.281,4.133L18.252,15.694L20.536,17.867L30.281,27.256Z" fill="#181725" stroke="#181725" stroke-width="0.1" stroke-miterlimit="3.999327"/>
<path d="M17.497,27.256C17.934,27.7 18.177,28.284 18.153,28.891C18.153,29.498 17.91,30.059 17.448,30.503C17.011,30.923 16.403,31.18 15.772,31.18C15.14,31.18 14.532,30.97 14.071,30.55L0.316,17.329C0.097,17.119 -0.073,16.862 -0.194,16.582C-0.316,16.302 -0.389,15.998 -0.389,15.694C-0.389,15.391 -0.316,15.087 -0.194,14.783C-0.073,14.503 0.097,14.246 0.316,14.036L14.071,0.816C14.289,0.606 14.557,0.419 14.848,0.302C15.164,0.185 15.48,0.115 15.796,0.115C16.112,0.115 16.452,0.162 16.744,0.279C17.035,0.396 17.303,0.582 17.546,0.793C17.764,1.003 17.934,1.283 18.056,1.563C18.202,1.844 18.25,2.147 18.25,2.474C18.25,2.778 18.177,3.082 18.056,3.362C17.934,3.642 17.74,3.899 17.497,4.133L5.468,15.694L7.752,17.867L17.497,27.256Z" transform="rotate(-360 8.931 15.648)" fill="#181725" stroke="#181725" stroke-width="0.1" stroke-miterlimit="3.999327"/>
</svg>
