<svg width="32" height="32" viewBox="0 0 32 32" fill="none" xmlns="http://www.w3.org/2000/svg" xmlns:xlink="http://www.w3.org/1999/xlink">
<path d="M31.07,27.03C31.508,27.474 31.751,28.058 31.726,28.665C31.726,29.272 31.483,29.833 31.022,30.277C30.584,30.697 29.977,30.954 29.345,30.954C28.713,30.954 28.105,30.744 27.644,30.324L13.889,17.103C13.671,16.893 13.5,16.636 13.379,16.356C13.257,16.076 13.185,15.772 13.185,15.468C13.185,15.165 13.257,14.861 13.379,14.557C13.5,14.277 13.671,14.02 13.889,13.81L27.644,0.59C27.862,0.38 28.13,0.193 28.421,0.076C28.737,-0.041 29.053,-0.111 29.369,-0.111C29.685,-0.111 30.025,-0.064 30.317,0.053C30.608,0.169 30.876,0.356 31.119,0.567C31.338,0.777 31.508,1.057 31.629,1.337C31.775,1.618 31.824,1.921 31.824,2.248C31.824,2.552 31.751,2.856 31.629,3.136C31.508,3.416 31.313,3.673 31.07,3.907L19.041,15.468L21.325,17.641L31.07,27.03Z" fill="#181725" stroke="#181725" stroke-width="0.1" stroke-miterlimit="3.999327"/>
<path d="M18.286,27.03C18.723,27.474 18.966,28.058 18.942,28.665C18.942,29.272 18.699,29.833 18.237,30.277C17.8,30.697 17.192,30.954 16.561,30.954C15.929,30.954 15.321,30.744 14.86,30.324L1.105,17.103C0.886,16.893 0.716,16.636 0.595,16.356C0.473,16.076 0.4,15.772 0.4,15.468C0.4,15.165 0.473,14.861 0.595,14.557C0.716,14.277 0.886,14.02 1.105,13.81L14.86,0.59C15.078,0.38 15.346,0.193 15.637,0.076C15.953,-0.041 16.269,-0.111 16.585,-0.111C16.901,-0.111 17.241,-0.064 17.533,0.053C17.824,0.169 18.092,0.356 18.335,0.567C18.553,0.777 18.723,1.057 18.845,1.337C18.991,1.618 19.039,1.921 19.039,2.248C19.039,2.552 18.966,2.856 18.845,3.136C18.723,3.416 18.529,3.673 18.286,3.907L6.257,15.468L8.541,17.641L18.286,27.03Z" transform="rotate(-360 9.72 15.422)" fill="#181725" stroke="#181725" stroke-width="0.1" stroke-miterlimit="3.999327"/>
</svg>
