<svg width="30" height="30" viewBox="0 0 30 30" fill="none" xmlns="http://www.w3.org/2000/svg" xmlns:xlink="http://www.w3.org/1999/xlink">
<path d="M28.578,24.464C28.972,24.864 29.191,25.39 29.17,25.938C29.17,26.485 28.951,26.991 28.534,27.391C28.14,27.77 27.592,28.001 27.023,28.001C26.453,28.001 25.906,27.812 25.49,27.433L13.092,15.516C12.895,15.327 12.741,15.095 12.632,14.843C12.522,14.59 12.457,14.316 12.457,14.043C12.457,13.769 12.522,13.495 12.632,13.222C12.741,12.969 12.895,12.737 13.092,12.548L25.49,0.632C25.687,0.442 25.928,0.274 26.191,0.168C26.475,0.063 26.76,0 27.045,0C27.33,0 27.636,0.042 27.899,0.147C28.162,0.253 28.403,0.421 28.622,0.611C28.819,0.8 28.972,1.053 29.082,1.305C29.213,1.558 29.257,1.832 29.257,2.126C29.257,2.4 29.191,2.674 29.082,2.926C28.972,3.179 28.797,3.411 28.578,3.621L17.736,14.043L19.795,16.001L28.578,24.464Z" fill="#B3B3B3" stroke="#B3B3B3" stroke-width="0.1" stroke-miterlimit="3.999327"/>
<path d="M17.055,24.464C17.449,24.864 17.668,25.391 17.646,25.938C17.646,26.485 17.427,26.991 17.011,27.391C16.617,27.77 16.069,28.001 15.5,28.001C14.93,28.001 14.383,27.812 13.966,27.433L1.568,15.517C1.371,15.327 1.218,15.095 1.108,14.843C0.999,14.59 0.933,14.316 0.933,14.043C0.933,13.769 0.999,13.495 1.108,13.222C1.218,12.969 1.371,12.737 1.568,12.548L13.966,0.632C14.163,0.442 14.404,0.274 14.667,0.169C14.952,0.063 15.237,0 15.522,0C15.806,0 16.113,0.042 16.376,0.147C16.639,0.253 16.88,0.421 17.099,0.611C17.296,0.8 17.449,1.053 17.559,1.305C17.69,1.558 17.734,1.832 17.734,2.127C17.734,2.4 17.668,2.674 17.559,2.927C17.449,3.179 17.274,3.411 17.055,3.621L6.212,14.043L8.271,16.001L17.055,24.464Z" transform="rotate(-360 9.334 14.001)" fill="#B3B3B3" stroke="#B3B3B3" stroke-width="0.1" stroke-miterlimit="3.999327"/>
</svg>
