<svg width="32" height="32" viewBox="0 0 32 32" fill="none" xmlns="http://www.w3.org/2000/svg" xmlns:xlink="http://www.w3.org/1999/xlink">
<path d="M30.4,26.609C30.838,27.052 31.081,27.636 31.056,28.244C31.056,28.851 30.813,29.411 30.352,29.855C29.914,30.276 29.307,30.533 28.675,30.533C28.043,30.533 27.436,30.322 26.974,29.902L13.219,16.682C13.001,16.471 12.831,16.215 12.709,15.934C12.588,15.654 12.515,15.35 12.515,15.047C12.515,14.743 12.588,14.439 12.709,14.136C12.831,13.856 13.001,13.599 13.219,13.388L26.974,0.168C27.193,-0.042 27.46,-0.229 27.751,-0.346C28.067,-0.462 28.383,-0.532 28.699,-0.532C29.015,-0.532 29.355,-0.486 29.647,-0.369C29.939,-0.252 30.206,-0.065 30.449,0.145C30.668,0.355 30.838,0.635 30.959,0.916C31.105,1.196 31.154,1.5 31.154,1.827C31.154,2.13 31.081,2.434 30.959,2.714C30.838,2.994 30.643,3.251 30.4,3.485L18.371,15.047L20.656,17.219L30.4,26.609Z" fill="#181725" stroke="#181725" stroke-width="0.1" stroke-miterlimit="3.999327"/>
<path d="M17.616,26.609C18.053,27.052 18.296,27.636 18.272,28.244C18.272,28.851 18.029,29.411 17.567,29.855C17.13,30.276 16.522,30.533 15.891,30.533C15.259,30.533 14.651,30.322 14.19,29.902L0.435,16.682C0.216,16.471 0.046,16.215 -0.075,15.934C-0.197,15.654 -0.27,15.35 -0.27,15.047C-0.27,14.743 -0.197,14.439 -0.075,14.136C0.046,13.856 0.216,13.599 0.435,13.388L14.19,0.168C14.408,-0.042 14.676,-0.229 14.967,-0.346C15.283,-0.462 15.599,-0.532 15.915,-0.532C16.231,-0.532 16.571,-0.486 16.863,-0.369C17.154,-0.252 17.422,-0.065 17.665,0.145C17.883,0.355 18.053,0.635 18.175,0.916C18.321,1.196 18.369,1.5 18.369,1.827C18.369,2.13 18.296,2.434 18.175,2.714C18.053,2.994 17.859,3.251 17.616,3.485L5.587,15.047L7.871,17.219L17.616,26.609Z" transform="rotate(-360 9.05 15)" fill="#181725" stroke="#181725" stroke-width="0.1" stroke-miterlimit="3.999327"/>
</svg>
