<svg width="42" height="40" viewBox="0 0 42 40" fill="none" xmlns="http://www.w3.org/2000/svg" xmlns:xlink="http://www.w3.org/1999/xlink">
<path d="M14.67,39.765C15.774,39.765 16.67,38.869 16.67,37.765C16.67,36.66 15.774,35.765 14.67,35.765L14.67,39.765ZM2.67,33.765L0.67,33.765L2.67,33.765ZM6.67,1.765L6.67,-0.235L6.67,1.765ZM14.67,3.765C15.774,3.765 16.67,2.869 16.67,1.765C16.67,0.66 15.774,-0.235 14.67,-0.235L14.67,3.765ZM14.67,35.765L6.67,35.765L6.67,39.765L14.67,39.765L14.67,35.765ZM6.67,35.765C6.139,35.765 5.631,35.554 5.256,35.179L2.427,38.007C3.552,39.132 5.079,39.765 6.67,39.765L6.67,35.765ZM5.256,35.179C4.881,34.804 4.67,34.295 4.67,33.765L0.67,33.765C0.67,35.356 1.302,36.882 2.427,38.007L5.256,35.179ZM4.67,33.765L4.67,5.765L0.67,5.765L0.67,33.765L4.67,33.765ZM4.67,5.765C4.67,5.234 4.881,4.726 5.256,4.35L2.427,1.522C1.302,2.647 0.67,4.173 0.67,5.765L4.67,5.765ZM5.256,4.35C5.631,3.975 6.139,3.765 6.67,3.765L6.67,-0.235C5.079,-0.235 3.552,0.397 2.427,1.522L5.256,4.35ZM6.67,3.765L14.67,3.765L14.67,-0.235L6.67,-0.235L6.67,3.765Z" fill="#53B175"/>
<path d="M27.256,28.35C26.475,29.131 26.475,30.398 27.256,31.179C28.037,31.96 29.303,31.96 30.084,31.179L27.256,28.35ZM38.67,19.765L40.084,21.179C40.865,20.398 40.865,19.131 40.084,18.35L38.67,19.765ZM30.084,8.35C29.303,7.569 28.037,7.569 27.256,8.35C26.475,9.131 26.475,10.398 27.256,11.179L30.084,8.35ZM30.084,31.179L40.084,21.179L37.256,18.35L27.256,28.35L30.084,31.179ZM40.084,18.35L30.084,8.35L27.256,11.179L37.256,21.179L40.084,18.35Z" fill="#53B175"/>
<line x1="14.67" y1="17.765" x2="38.67" y2="17.765" stroke="#53B175" stroke-width="2" stroke-miterlimit="3.999327" stroke-linecap="round" stroke-linejoin="round"/>
</svg>
