<svg width="28" height="28" viewBox="0 0 28 28" fill="none" xmlns="http://www.w3.org/2000/svg" xmlns:xlink="http://www.w3.org/1999/xlink">
<path d="M27.018,24.418C27.412,24.818 27.631,25.344 27.609,25.892C27.609,26.439 27.39,26.944 26.974,27.344C26.58,27.723 26.032,27.955 25.463,27.955C24.893,27.955 24.346,27.765 23.929,27.386L11.531,15.47C11.334,15.281 11.181,15.049 11.071,14.796C10.962,14.544 10.896,14.27 10.896,13.996C10.896,13.723 10.962,13.449 11.071,13.175C11.181,12.923 11.334,12.691 11.531,12.502L23.929,0.585C24.126,0.396 24.367,0.227 24.63,0.122C24.915,0.017 25.2,-0.046 25.485,-0.046C25.769,-0.046 26.076,-0.004 26.339,0.101C26.602,0.206 26.843,0.375 27.062,0.564C27.259,0.754 27.412,1.006 27.522,1.259C27.653,1.512 27.697,1.785 27.697,2.08C27.697,2.354 27.631,2.628 27.522,2.88C27.412,3.133 27.237,3.364 27.018,3.575L16.175,13.996L18.234,15.954L27.018,24.418Z" fill="#B3B3B3" stroke="#B3B3B3" stroke-width="0.1" stroke-miterlimit="3.999327"/>
<path d="M15.495,24.418C15.889,24.818 16.108,25.344 16.086,25.892C16.086,26.439 15.867,26.944 15.451,27.344C15.056,27.723 14.509,27.955 13.939,27.955C13.37,27.955 12.822,27.765 12.406,27.386L0.008,15.47C-0.189,15.281 -0.342,15.049 -0.452,14.797C-0.561,14.544 -0.627,14.27 -0.627,13.997C-0.627,13.723 -0.561,13.449 -0.452,13.175C-0.342,12.923 -0.189,12.691 0.008,12.502L12.406,0.585C12.603,0.396 12.844,0.228 13.107,0.122C13.392,0.017 13.676,-0.046 13.961,-0.046C14.246,-0.046 14.553,-0.004 14.816,0.101C15.078,0.207 15.319,0.375 15.538,0.564C15.736,0.754 15.889,1.007 15.998,1.259C16.13,1.512 16.174,1.786 16.174,2.08C16.174,2.354 16.108,2.628 15.998,2.88C15.889,3.133 15.714,3.365 15.495,3.575L4.652,13.997L6.711,15.954L15.495,24.418Z" transform="rotate(-360 7.773 13.954)" fill="#B3B3B3" stroke="#B3B3B3" stroke-width="0.1" stroke-miterlimit="3.999327"/>
</svg>
