<svg width="30" height="28" viewBox="0 0 30 28" fill="none" xmlns="http://www.w3.org/2000/svg" xmlns:xlink="http://www.w3.org/1999/xlink">
<path d="M28.578,24.418C28.972,24.818 29.191,25.344 29.17,25.892C29.17,26.439 28.951,26.944 28.534,27.344C28.14,27.723 27.592,27.955 27.023,27.955C26.453,27.955 25.906,27.765 25.49,27.386L13.092,15.47C12.895,15.281 12.741,15.049 12.632,14.797C12.522,14.544 12.457,14.27 12.457,13.997C12.457,13.723 12.522,13.449 12.632,13.175C12.741,12.923 12.895,12.691 13.092,12.502L25.49,0.585C25.687,0.396 25.928,0.228 26.191,0.122C26.475,0.017 26.76,-0.046 27.045,-0.046C27.33,-0.046 27.636,-0.004 27.899,0.101C28.162,0.206 28.403,0.375 28.622,0.564C28.819,0.754 28.972,1.007 29.082,1.259C29.213,1.512 29.257,1.786 29.257,2.08C29.257,2.354 29.191,2.628 29.082,2.88C28.972,3.133 28.797,3.365 28.578,3.575L17.736,13.997L19.795,15.954L28.578,24.418Z" fill="#B3B3B3" stroke="#B3B3B3" stroke-width="0.1" stroke-miterlimit="3.999327"/>
<path d="M17.055,24.418C17.449,24.818 17.668,25.344 17.646,25.892C17.646,26.439 17.427,26.945 17.011,27.345C16.617,27.724 16.069,27.955 15.5,27.955C14.93,27.955 14.383,27.766 13.966,27.387L1.568,15.47C1.371,15.281 1.218,15.049 1.108,14.797C0.999,14.544 0.933,14.27 0.933,13.997C0.933,13.723 0.999,13.449 1.108,13.176C1.218,12.923 1.371,12.691 1.568,12.502L13.966,0.586C14.163,0.396 14.404,0.228 14.667,0.122C14.952,0.017 15.237,-0.046 15.522,-0.046C15.806,-0.046 16.113,-0.004 16.376,0.101C16.639,0.207 16.88,0.375 17.099,0.565C17.296,0.754 17.449,1.007 17.559,1.259C17.69,1.512 17.734,1.786 17.734,2.08C17.734,2.354 17.668,2.628 17.559,2.88C17.449,3.133 17.274,3.365 17.055,3.575L6.212,13.997L8.271,15.955L17.055,24.418Z" transform="rotate(-360 9.334 13.955)" fill="#B3B3B3" stroke="#B3B3B3" stroke-width="0.1" stroke-miterlimit="3.999327"/>
</svg>
