<svg width="42" height="40" viewBox="0 0 42 40" fill="none" xmlns="http://www.w3.org/2000/svg" xmlns:xlink="http://www.w3.org/1999/xlink">
<path d="M20.183,-0.292C16.227,-0.292 12.361,0.881 9.072,3.079C5.783,5.276 3.219,8.4 1.706,12.054C0.192,15.709 -0.204,19.73 0.567,23.61C1.339,27.489 3.244,31.053 6.041,33.85C8.838,36.647 12.402,38.552 16.281,39.324C20.161,40.095 24.182,39.699 27.837,38.186C31.491,36.672 34.615,34.108 36.813,30.819C39.01,27.53 40.183,23.664 40.183,19.708C40.183,17.082 39.666,14.481 38.661,12.054C37.656,9.628 36.183,7.423 34.325,5.566C32.468,3.709 30.263,2.236 27.837,1.23C25.41,0.225 22.81,-0.292 20.183,-0.292L20.183,-0.292ZM20.183,35.708C17.019,35.708 13.925,34.77 11.294,33.012C8.663,31.253 6.612,28.755 5.401,25.831C4.19,22.907 3.873,19.69 4.491,16.587C5.108,13.483 6.632,10.632 8.869,8.394C11.107,6.157 13.958,4.633 17.062,4.015C20.165,3.398 23.383,3.715 26.306,4.926C29.23,6.137 31.729,8.188 33.487,10.819C35.245,13.45 36.183,16.544 36.183,19.708C36.183,23.951 34.498,28.021 31.497,31.022C28.496,34.022 24.427,35.708 20.183,35.708L20.183,35.708Z" fill="#181725"/>
<path d="M20.618,7.708C18.762,7.708 16.981,8.446 15.668,9.758C14.356,11.071 13.618,12.852 13.618,14.708C13.618,15.239 13.829,15.747 14.204,16.122C14.579,16.497 15.088,16.708 15.618,16.708C16.149,16.708 16.657,16.497 17.032,16.122C17.407,15.747 17.618,15.239 17.618,14.708C17.618,14.115 17.794,13.535 18.124,13.041C18.453,12.548 18.922,12.164 19.47,11.937C20.018,11.709 20.621,11.65 21.203,11.766C21.785,11.882 22.32,12.167 22.739,12.587C23.159,13.006 23.445,13.541 23.561,14.123C23.676,14.705 23.617,15.308 23.39,15.856C23.163,16.404 22.778,16.873 22.285,17.203C21.792,17.532 21.212,17.708 20.618,17.708C20.088,17.708 19.579,17.919 19.204,18.294C18.829,18.669 18.618,19.178 18.618,19.708L18.618,23.708C18.618,24.239 18.829,24.747 19.204,25.122C19.579,25.497 20.088,25.708 20.618,25.708C21.149,25.708 21.657,25.497 22.032,25.122C22.407,24.747 22.618,24.239 22.618,23.708L22.618,21.388C24.234,20.916 25.626,19.876 26.535,18.459C27.445,17.042 27.812,15.344 27.568,13.678C27.325,12.012 26.487,10.49 25.21,9.393C23.933,8.296 22.302,7.698 20.618,7.708L20.618,7.708Z" fill="#181725"/>
<circle cx="20.618" cy="29.708" r="2" fill="#181725"/>
</svg>
