<svg width="450" height="342" viewBox="0 0 450 342" fill="none" xmlns="http://www.w3.org/2000/svg" xmlns:xlink="http://www.w3.org/1999/xlink">
<path d="M446.018,314.164L345.16,181.859C339.132,173.954 329.77,169.319 319.832,169.319L129.803,169.319C119.865,169.319 110.503,173.954 104.476,181.859L3.626,314.164C-4.856,325.293 3.077,341.323 17.073,341.323L432.572,341.323C446.568,341.314 454.5,325.284 446.018,314.164Z" fill="url(#pf_0_1_509)"/>
<path d="M9.305,314.438C6.64,314.438 4.166,315.226 2.087,316.573C-3.702,327.464 4.066,341.313 17.073,341.313L432.571,341.313C445.579,341.313 453.347,327.464 447.557,316.573C445.479,315.226 443.005,314.438 440.339,314.438L9.305,314.438Z" fill="#C9CDD3"/>
<path d="M181.528,237.359L253.689,314.439L224.195,314.439L160.332,246.638L181.528,237.359Z" fill="#FFFFFF"/>
<path d="M331.641,171.609C327.931,170.126 323.937,169.329 319.843,169.329L283.185,169.329L29.246,280.556L3.626,314.164C3.232,314.686 2.884,315.217 2.555,315.749L331.641,171.609Z" fill="#FEE379"/>
<path d="M2.564,315.748L160.333,246.637L224.196,314.439L2.564,315.748Z" fill="#86ADFF"/>
<path d="M29.246,280.556L283.184,169.329L129.803,169.329C119.864,169.329 110.503,173.963 104.476,181.868L29.246,280.556Z" fill="#69CA9F"/>
<path d="M381.167,229.096L373.372,218.874L325.887,239.63L282.396,193.172L261.484,202.331L304.957,248.772L224.818,283.799L233.996,293.408L314.007,258.445L366.429,314.439L395.914,314.439L334.937,249.294L381.167,229.096Z" fill="#C9CDD3"/>
<g opacity="0.3">
<path d="M349.566,187.639L345.16,181.859C339.133,173.954 329.771,169.319 319.833,169.319L224.818,169.319L224.818,241.975L349.566,187.639Z" fill="url(#pf_0_1_516)"/>
</g>
<path d="M213.964,0.668C177.672,5.523 149.927,34.606 146.547,71.062C144.221,96.141 153.692,119.059 170.051,134.942C176.353,141.061 182.206,147.592 187.574,154.48C202.807,174.018 213.24,196.863 218.635,221.036L222.977,240.49C223.169,241.36 223.939,241.974 224.827,241.974C225.716,241.974 226.485,241.36 226.677,240.49L231.285,219.808C236.524,196.304 246.573,174.073 261.283,155.012C266.532,148.215 272.284,141.812 278.577,135.922C293.883,121.587 303.455,101.198 303.455,78.564C303.446,31.564 262.227,-5.798 213.964,0.668Z" fill="url(#pf_0_1_518)"/>
<path d="M224.819,109.124C238.28,109.124 249.193,98.211 249.193,84.75C249.193,71.288 238.28,60.376 224.819,60.376C211.357,60.376 200.444,71.288 200.444,84.75C200.444,98.211 211.357,109.124 224.819,109.124Z" transform="rotate(-90 224.818 84.75)" fill="#FFFFFF"/>
<defs>
<linearGradient id="pf_0_1_509" x1="35.201" y1="142.329" x2="359.648" y2="412.018" gradientUnits="userSpaceOnUse">
<stop stop-color="#F6F8FF"/>
<stop offset="1" stop-color="#DEE0ED"/>
</linearGradient>
<linearGradient id="pf_0_1_516" x1="373.622" y1="125.746" x2="209.805" y2="225.702" gradientUnits="userSpaceOnUse">
<stop stop-color="#000000"/>
<stop offset="1" stop-color="#000000"/>
</linearGradient>
<linearGradient id="pf_0_1_518" x1="247.309" y1="163.496" x2="189.818" y2="-30.008" gradientUnits="userSpaceOnUse">
<stop stop-color="#5565EE"/>
<stop offset="0.309" stop-color="#5F75FF"/>
<stop offset="0.514" stop-color="#6E89FA"/>
<stop offset="0.764" stop-color="#6E89FA"/>
<stop offset="1" stop-color="#7D99FD"/>
</linearGradient>
</defs>
</svg>
