<svg width="152" height="130" viewBox="0 0 152 130" fill="none" xmlns="http://www.w3.org/2000/svg" xmlns:xlink="http://www.w3.org/1999/xlink">
<path d="M109.388,104.209C109.553,102.728 108.503,101.39 107.022,101.224C105.541,101.048 104.204,102.109 104.038,103.59C103.839,105.281 104.116,107.303 104.469,109.381C105.453,109.68 106.403,110.111 107.288,110.619C108.238,108.375 109.167,106.154 109.388,104.209ZM119.788,110.708C119.202,109.337 117.611,108.718 116.24,109.304C114.439,110.089 112.571,111.625 110.692,113.205C111.399,113.902 112.062,114.686 112.626,115.538C114.759,115.272 116.804,114.952 118.384,114.266C119.755,113.659 120.385,112.067 119.788,110.708ZM115.245,103.479C114.052,102.595 112.361,102.838 111.477,104.032C110.128,105.844 109.222,108.552 108.238,111.194C108.57,111.415 108.879,111.636 109.178,111.868C109.399,112.045 109.631,112.233 109.863,112.421C112.118,110.719 114.461,109.061 115.809,107.248C116.693,106.054 116.439,104.363 115.245,103.479Z" clip-rule="evenodd" fill-rule="evenodd" transform="rotate(-284.262 111.992 108.371)" fill="#53B175"/>
<path d="M141.918,102.949C141.089,103.844 140.205,104.673 139.265,105.48C137.95,106.619 136.613,107.724 135.253,108.785C133.794,107.89 132.744,107.436 132.568,107.669C132.413,107.879 133.021,108.652 134.115,109.658C130.445,112.388 126.566,114.798 122.399,116.776C121.747,117.085 121.062,117.306 120.388,117.55C120.211,117.616 120.023,117.616 119.945,117.627C118.884,117.749 118.564,117.461 118.608,116.489C118.741,113.46 119.68,110.62 120.653,107.79C120.918,107.017 121.194,106.243 121.482,105.469C122.952,106.364 124.002,106.829 124.179,106.597C124.367,106.342 123.482,105.325 122.001,104.054C123.062,101.313 124.245,98.617 125.638,96.03C128.423,98.097 130.899,99.457 131.175,99.081C131.451,98.705 129.406,96.704 126.588,94.616L126.467,94.527C126.953,93.698 127.461,92.869 128.003,92.062C128.677,91.046 129.506,90.117 130.324,89.211C131.418,88.006 132.833,87.597 134.413,87.951C139.475,89.078 142.99,91.985 144.648,96.97C144.98,97.987 144.681,98.981 144.162,99.899C143.808,100.518 143.421,101.103 142.99,101.656C140.315,99.7 137.994,98.44 137.729,98.793C137.475,99.147 139.321,100.971 141.918,102.949Z" transform="rotate(-284.262 131.696 102.741)" fill="#F3603F"/>
<g opacity="0.8">
<path d="M99.905,67.796C96.402,67.796 94.125,69.2 92.743,71.863L92.666,71.863L92.666,70.205C92.666,69.012 91.693,68.05 90.5,68.05C89.306,68.05 88.344,69.012 88.344,70.205L88.344,88.542C88.344,89.735 89.306,90.708 90.5,90.708L90.71,90.708C91.903,90.708 92.876,89.735 92.876,88.542L92.876,77.622C92.876,74.052 94.921,71.675 98.336,71.675C101.652,71.675 103.243,73.599 103.243,77.036L103.243,88.542C103.243,89.735 104.205,90.708 105.398,90.708L105.608,90.708C106.802,90.708 107.764,89.735 107.764,88.542L107.764,76.185C107.764,70.968 104.912,67.796 99.905,67.796Z" transform="rotate(-284.262 98.054 79.252)" fill="#181725"/>
<path d="M79.706,53.109C73.373,53.109 69.24,57.729 69.24,64.814C69.24,71.91 73.329,76.331 79.894,76.331C83.962,76.331 87.322,74.529 88.836,71.722C89.399,70.694 88.626,69.423 87.454,69.423L86.305,69.423C85.73,69.423 85.233,69.754 84.934,70.252C84.061,71.755 82.226,72.661 79.983,72.661C76.269,72.661 73.804,70.075 73.804,66.151L73.804,65.886L88.283,65.886C89.145,65.886 89.853,65.179 89.853,64.317L89.853,64.294C89.853,57.431 85.929,53.109 79.706,53.109ZM73.826,62.67C74.081,59.188 76.435,56.801 79.695,56.801C82.989,56.801 85.222,59.144 85.321,62.67L73.826,62.67Z" transform="rotate(-284.262 79.546 64.72)" fill="#181725"/>
<path d="M69.882,54.369L68.678,54.369C68.026,54.369 67.462,54.778 67.219,55.386C66.434,57.387 64.644,58.459 62.101,58.459C58.465,58.459 56.012,55.53 56.012,50.656C56.012,45.892 58.432,42.853 62.079,42.853C64.71,42.853 66.467,44.157 67.186,46.014C67.429,46.633 67.993,47.064 68.667,47.064L69.871,47.064C70.921,47.064 71.706,46.036 71.364,45.041C70.203,41.626 66.887,39.028 62.035,39.028C55.636,39.028 51.414,43.604 51.414,50.656C51.414,57.829 55.647,62.25 62.079,62.25C66.688,62.25 70.115,59.995 71.375,56.425C71.728,55.419 70.955,54.369 69.882,54.369Z" transform="rotate(-284.262 61.437 50.639)" fill="#181725"/>
<path d="M49.845,51.814C49.768,51.803 49.679,51.792 49.602,51.792C48.11,51.615 47.414,50.687 47.414,48.941L47.414,36.285L49.967,36.285C50.961,36.285 51.757,35.479 51.757,34.495C51.757,33.511 50.961,32.715 49.967,32.715L47.414,32.715L47.414,29.875C47.414,29.256 47.159,28.692 46.75,28.283C46.342,27.874 45.789,27.62 45.159,27.62C43.921,27.62 42.915,28.637 42.915,29.875L42.915,32.715L41.567,32.715C40.583,32.715 39.776,33.511 39.776,34.495C39.776,35.479 40.583,36.285 41.567,36.285L42.915,36.285L42.915,49.405C42.915,53.782 44.662,55.517 49.193,55.517C49.204,55.517 49.215,55.517 49.215,55.517C49.735,55.517 50.21,55.362 50.608,55.086C50.619,55.086 50.63,55.075 50.63,55.075C51.094,54.743 51.404,54.202 51.404,53.594C51.404,52.687 50.729,51.925 49.845,51.814Z" transform="rotate(-284.262 45.767 41.568)" fill="#181725"/>
<path d="M33.368,16.848C29.831,16.848 26.913,18.285 25.421,20.506C25.178,20.882 25.057,21.291 25.057,21.689C25.057,22.794 25.941,23.822 27.19,23.822C27.919,23.822 28.616,23.435 28.958,22.794C29.688,21.424 31.246,20.584 33.247,20.584C36.275,20.584 37.999,22.009 37.999,24.596L37.999,24.872C37.999,25.701 37.358,26.386 36.529,26.43L31.887,26.696C26.295,27.049 23.233,29.348 23.233,33.316C23.233,37.361 26.361,40.025 30.892,40.025C33.976,40.025 36.794,38.489 38.043,36.024L38.143,36.024L38.143,37.638C38.143,38.235 38.386,38.776 38.773,39.174C39.171,39.561 39.712,39.804 40.309,39.804C41.503,39.804 42.464,38.831 42.464,37.638L42.464,24.264C42.464,19.777 38.894,16.848 33.368,16.848ZM37.999,31.293C37.999,34.267 35.457,36.422 32.097,36.422C29.489,36.422 27.798,35.173 27.798,33.228C27.798,31.227 29.411,30.078 32.495,29.89L37.999,29.514L37.999,31.293Z" transform="rotate(-284.262 32.849 28.436)" fill="#181725"/>
<path d="M21.241,4.84C18.566,4.84 16.488,6.365 15.77,8.885L15.692,8.885L15.692,7.227C15.692,6.033 14.72,5.072 13.537,5.072C12.343,5.072 11.371,6.033 11.371,7.227L11.371,25.464C11.371,26.083 11.625,26.658 12.034,27.067C12.443,27.475 13.007,27.73 13.637,27.73C14.886,27.73 15.902,26.713 15.902,25.464L15.902,14.212C15.902,11.018 17.781,8.951 20.765,8.951C20.887,8.951 21.02,8.951 21.141,8.962C22.07,8.996 22.821,8.233 22.821,7.304L22.821,6.431C22.821,5.558 22.114,4.84 21.241,4.84Z" transform="rotate(-284.262 17.096 16.285)" fill="#181725"/>
</g>
<path d="M51.932,29.724C51.932,30.332 51.623,30.874 51.159,31.205C51.159,31.205 51.148,31.216 51.136,31.216C50.849,31.415 50.506,31.526 50.131,31.526C49.125,31.526 48.318,30.719 48.318,29.724C48.318,28.73 49.125,27.923 50.131,27.923C50.208,27.923 50.296,27.934 50.374,27.945C51.258,28.055 51.932,28.818 51.932,29.724Z" transform="rotate(-284.262 50.125 29.724)" fill="#181725"/>
</svg>
