<svg width="42" height="32" viewBox="0 0 42 32" fill="none" xmlns="http://www.w3.org/2000/svg" xmlns:xlink="http://www.w3.org/1999/xlink">
<path d="M4.183,0.771L36.183,0.771C37.244,0.771 38.261,1.223 39.012,2.028C39.762,2.832 40.183,3.924 40.183,5.061L40.183,26.513C40.183,27.651 39.762,28.742 39.012,29.546C38.261,30.351 37.244,30.803 36.183,30.803L4.183,30.803C3.122,30.803 2.105,30.351 1.355,29.546C0.605,28.742 0.183,27.651 0.183,26.513L0.183,5.061C0.183,3.924 0.605,2.832 1.355,2.028C2.105,1.223 3.122,0.771 4.183,0.771ZM4.183,5.061L4.183,26.513L36.183,26.513L36.183,5.061L4.183,5.061ZM22.183,9.352L32.183,9.352C32.714,9.352 33.222,9.578 33.597,9.98C33.972,10.382 34.183,10.928 34.183,11.497C34.183,12.066 33.972,12.611 33.597,13.014C33.222,13.416 32.714,13.642 32.183,13.642L22.183,13.642C21.653,13.642 21.144,13.416 20.769,13.014C20.394,12.611 20.183,12.066 20.183,11.497C20.183,10.928 20.394,10.382 20.769,9.98C21.144,9.578 21.653,9.352 22.183,9.352ZM22.183,15.787L32.183,15.787C32.714,15.787 33.222,16.013 33.597,16.415C33.972,16.818 34.183,17.363 34.183,17.932C34.183,18.501 33.972,19.047 33.597,19.449C33.222,19.851 32.714,20.077 32.183,20.077L22.183,20.077C21.653,20.077 21.144,19.851 20.769,19.449C20.394,19.047 20.183,18.501 20.183,17.932C20.183,17.363 20.394,16.818 20.769,16.415C21.144,16.013 21.653,15.787 22.183,15.787Z" fill="#181725" stroke="#FFFFFF" stroke-width="0.2" stroke-miterlimit="3.999327"/>
<path d="M13.684,11.163L13.684,12.288C13.684,12.897 13.408,13.469 12.931,13.875C12.436,14.299 11.794,14.539 11.115,14.539C10.437,14.539 9.776,14.299 9.299,13.875C8.822,13.469 8.547,12.897 8.547,12.288L8.547,11.163C8.547,10.572 8.822,10 9.299,9.576C9.776,9.152 10.437,8.912 11.115,8.912C11.794,8.912 12.436,9.152 12.931,9.576C13.408,10 13.684,10.572 13.684,11.163Z" fill="#181725"/>
<path d="M15.61,17.804L15.61,18.727C15.61,19.169 15.39,19.612 15.041,19.926C14.674,20.24 14.179,20.424 13.684,20.424L8.547,20.424C8.033,20.424 7.538,20.24 7.19,19.926C6.823,19.612 6.621,19.169 6.621,18.727L6.621,17.749C6.621,17.122 6.841,16.494 7.245,15.978C7.648,15.461 8.217,15.055 8.877,14.815C8.969,14.797 9.042,14.779 9.134,14.779C9.226,14.779 9.299,14.797 9.391,14.815L12.675,14.815C12.711,14.815 12.73,14.815 12.748,14.834C12.748,14.815 12.766,14.815 12.766,14.815C13.06,14.797 13.243,14.815 13.262,14.815C13.959,15.055 14.546,15.461 14.968,15.996C15.371,16.531 15.61,17.159 15.61,17.804Z" fill="#181725"/>
</svg>
