<svg width="42" height="46" viewBox="0 0 42 46" fill="none" xmlns="http://www.w3.org/2000/svg" xmlns:xlink="http://www.w3.org/1999/xlink">
<path d="M8.183,2.294L8.183,0.294C7.553,0.294 6.961,0.591 6.583,1.094L8.183,2.294ZM2.183,10.294L0.583,9.094C0.323,9.441 0.183,9.862 0.183,10.294L2.183,10.294ZM2.183,38.294L0.183,38.294L2.183,38.294ZM38.183,10.294L40.183,10.294C40.183,9.862 40.043,9.441 39.783,9.094L38.183,10.294ZM32.183,2.294L33.783,1.094C33.405,0.591 32.813,0.294 32.183,0.294L32.183,2.294ZM6.583,1.094L0.583,9.094L3.783,11.494L9.783,3.494L6.583,1.094ZM0.183,10.294L0.183,38.294L4.183,38.294L4.183,10.294L0.183,10.294ZM0.183,38.294C0.183,39.886 0.815,41.412 1.94,42.537L4.769,39.709C4.394,39.334 4.183,38.825 4.183,38.294L0.183,38.294ZM1.94,42.537C3.066,43.662 4.592,44.294 6.183,44.294L6.183,40.294C5.653,40.294 5.144,40.084 4.769,39.709L1.94,42.537ZM6.183,44.294L34.183,44.294L34.183,40.294L6.183,40.294L6.183,44.294ZM34.183,44.294C35.774,44.294 37.3,43.662 38.426,42.537L35.597,39.709C35.222,40.084 34.713,40.294 34.183,40.294L34.183,44.294ZM38.426,42.537C39.551,41.412 40.183,39.886 40.183,38.294L36.183,38.294C36.183,38.825 35.972,39.334 35.597,39.709L38.426,42.537ZM40.183,38.294L40.183,10.294L36.183,10.294L36.183,38.294L40.183,38.294ZM39.783,9.094L33.783,1.094L30.583,3.494L36.583,11.494L39.783,9.094ZM32.183,0.294L8.183,0.294L8.183,4.294L32.183,4.294L32.183,0.294Z" fill="#181725"/>
<line x1="2.183" y1="8.294" x2="38.183" y2="8.294" stroke="#181725" stroke-width="2" stroke-miterlimit="3.999327" stroke-linecap="round" stroke-linejoin="round"/>
<path d="M30.183,18.294C30.183,17.19 29.288,16.294 28.183,16.294C27.078,16.294 26.183,17.19 26.183,18.294L30.183,18.294ZM20.183,26.294L20.183,28.294L20.183,26.294ZM14.183,18.294C14.183,17.19 13.288,16.294 12.183,16.294C11.078,16.294 10.183,17.19 10.183,18.294L14.183,18.294ZM26.183,18.294C26.183,19.886 25.551,21.412 24.426,22.537L27.254,25.365C29.129,23.49 30.183,20.947 30.183,18.294L26.183,18.294ZM24.426,22.537C23.3,23.662 21.774,24.294 20.183,24.294L20.183,28.294C22.835,28.294 25.379,27.241 27.254,25.365L24.426,22.537ZM20.183,24.294C18.592,24.294 17.066,23.662 15.94,22.537L13.112,25.365C14.987,27.241 17.531,28.294 20.183,28.294L20.183,24.294ZM15.94,22.537C14.815,21.412 14.183,19.886 14.183,18.294L10.183,18.294C10.183,20.947 11.237,23.49 13.112,25.365L15.94,22.537Z" fill="#181725"/>
</svg>
