<svg width="16" height="28" viewBox="0 0 16 28" fill="none" xmlns="http://www.w3.org/2000/svg" xmlns:xlink="http://www.w3.org/1999/xlink">
<path d="M14.256,23.047C14.585,23.419 14.768,23.908 14.749,24.416C14.749,24.924 14.567,25.393 14.22,25.765C13.891,26.117 13.435,26.332 12.96,26.332C12.486,26.332 12.03,26.156 11.683,25.804L1.352,14.739C1.187,14.563 1.06,14.348 0.968,14.114C0.877,13.879 0.822,13.625 0.822,13.371C0.822,13.117 0.877,12.862 0.968,12.608C1.06,12.374 1.187,12.159 1.352,11.983L11.683,0.918C11.847,0.742 12.048,0.586 12.267,0.488C12.504,0.39 12.741,0.332 12.979,0.332C13.216,0.332 13.472,0.371 13.691,0.468C13.91,0.566 14.11,0.723 14.293,0.898C14.457,1.074 14.585,1.309 14.676,1.544C14.786,1.778 14.822,2.032 14.822,2.306C14.822,2.56 14.768,2.814 14.676,3.049C14.585,3.283 14.439,3.498 14.256,3.694L5.221,13.371L6.937,15.189L14.256,23.047Z" transform="rotate(-180 7.822 13.332)" fill="#7C7C7C"/>
</svg>
