<svg width="34" height="36" viewBox="0 0 34 36" fill="none" xmlns="http://www.w3.org/2000/svg" xmlns:xlink="http://www.w3.org/1999/xlink">
<path d="M33.936,17.419C33.936,18.17 33.648,18.897 33.109,19.423C32.583,19.962 31.856,20.263 31.104,20.263L19.775,20.263L19.775,31.588C19.775,32.339 19.474,33.066 18.935,33.592C18.409,34.118 17.694,34.419 16.943,34.419C16.191,34.419 15.464,34.118 14.937,33.592C14.398,33.066 14.098,32.339 14.098,31.588L14.098,20.263L2.769,20.263C2.017,20.263 1.29,19.962 0.763,19.423C0.237,18.897 -0.064,18.17 -0.064,17.419C-0.064,16.667 0.237,15.953 0.763,15.414C1.29,14.888 2.017,14.587 2.769,14.587L14.098,14.587L14.098,3.263C14.098,2.511 14.398,1.784 14.937,1.258C15.464,0.719 16.191,0.419 16.943,0.419C17.694,0.419 18.409,0.719 18.935,1.258C19.474,1.784 19.775,2.511 19.775,3.263L19.775,14.587L31.104,14.587C31.856,14.587 32.583,14.888 33.109,15.414C33.648,15.953 33.936,16.667 33.936,17.419Z" fill="#FFFFFF"/>
</svg>
