<svg width="34" height="34" viewBox="0 0 34 34" fill="none" xmlns="http://www.w3.org/2000/svg" xmlns:xlink="http://www.w3.org/1999/xlink">
<path d="M33.936,16.322C33.936,17.073 33.648,17.8 33.109,18.326C32.583,18.865 31.856,19.166 31.104,19.166L19.775,19.166L19.775,30.491C19.775,31.242 19.474,31.969 18.935,32.495C18.409,33.021 17.694,33.322 16.943,33.322C16.191,33.322 15.464,33.021 14.937,32.495C14.398,31.969 14.098,31.242 14.098,30.491L14.098,19.166L2.769,19.166C2.017,19.166 1.29,18.865 0.763,18.326C0.237,17.8 -0.064,17.073 -0.064,16.322C-0.064,15.57 0.237,14.856 0.763,14.317C1.29,13.791 2.017,13.491 2.769,13.491L14.098,13.491L14.098,2.166C14.098,1.414 14.398,0.687 14.937,0.161C15.464,-0.378 16.191,-0.678 16.943,-0.678C17.694,-0.678 18.409,-0.378 18.935,0.161C19.474,0.687 19.775,1.414 19.775,2.166L19.775,13.491L31.104,13.491C31.856,13.491 32.583,13.791 33.109,14.317C33.648,14.856 33.936,15.57 33.936,16.322Z" fill="#FFFFFF"/>
</svg>
