<svg width="34" height="6" viewBox="0 0 34 6" fill="none" xmlns="http://www.w3.org/2000/svg" xmlns:xlink="http://www.w3.org/1999/xlink">
<path d="M33.594,2.275C33.594,3.027 33.306,3.754 32.767,4.28C32.24,4.818 31.513,5.119 30.762,5.119L19.432,5.119L13.755,5.119L2.426,5.119C1.674,5.119 0.947,4.818 0.421,4.28C-0.105,3.754 -0.406,3.027 -0.406,2.275C-0.406,1.524 -0.105,0.81 0.421,0.271C0.947,-0.255 1.674,-0.556 2.426,-0.556L13.755,-0.556L19.432,-0.556L30.762,-0.556C31.513,-0.556 32.24,-0.255 32.767,0.271C33.306,0.81 33.594,1.524 33.594,2.275Z" fill="#B3B3B3"/>
</svg>
