<svg width="34" height="36" viewBox="0 0 34 36" fill="none" xmlns="http://www.w3.org/2000/svg" xmlns:xlink="http://www.w3.org/1999/xlink">
<path d="M33.164,17.444C33.164,18.196 32.876,18.922 32.337,19.449C31.811,19.987 31.084,20.288 30.332,20.288L19.003,20.288L19.003,31.613C19.003,32.364 18.702,33.091 18.163,33.617C17.637,34.143 16.922,34.444 16.17,34.444C15.418,34.444 14.692,34.143 14.165,33.617C13.626,33.091 13.326,32.364 13.326,31.613L13.326,20.288L1.996,20.288C1.244,20.288 0.518,19.987 -0.009,19.449C-0.535,18.922 -0.836,18.196 -0.836,17.444C-0.836,16.692 -0.535,15.978 -0.009,15.44C0.518,14.914 1.244,14.613 1.996,14.613L13.326,14.613L13.326,3.288C13.326,2.536 13.626,1.81 14.165,1.283C14.692,0.745 15.418,0.444 16.17,0.444C16.922,0.444 17.637,0.745 18.163,1.283C18.702,1.81 19.003,2.536 19.003,3.288L19.003,14.613L30.332,14.613C31.084,14.613 31.811,14.914 32.337,15.44C32.876,15.978 33.164,16.692 33.164,17.444Z" fill="#53B175"/>
</svg>
