<svg width="34" height="42" viewBox="0 0 34 42" fill="none" xmlns="http://www.w3.org/2000/svg" xmlns:xlink="http://www.w3.org/1999/xlink">
<path d="M9.082,20.844C9.363,20.739 9.666,20.684 9.972,20.683C10.279,20.682 10.582,20.735 10.864,20.838C11.147,20.941 11.403,21.093 11.617,21.284C11.831,21.475 12,21.701 12.112,21.95C12.224,22.199 12.278,22.464 12.271,22.732C12.263,22.999 12.195,23.262 12.069,23.506C11.943,23.75 11.762,23.969 11.537,24.15C11.313,24.332 11.049,24.473 10.761,24.564C9.229,25.09 7.915,26.007 6.989,27.195C6.063,28.383 5.567,29.787 5.567,31.224L5.567,34.704C5.567,35.234 5.809,35.743 6.238,36.118C6.668,36.493 7.251,36.704 7.858,36.704L26.185,36.704C26.793,36.704 27.376,36.493 27.805,36.118C28.235,35.743 28.476,35.234 28.476,34.704L28.476,31.41C28.477,29.927 27.961,28.478 26.997,27.257C26.033,26.036 24.666,25.099 23.079,24.572C22.789,24.484 22.523,24.346 22.295,24.167C22.067,23.987 21.883,23.77 21.754,23.527C21.624,23.285 21.552,23.022 21.541,22.754C21.53,22.487 21.58,22.22 21.689,21.97C21.799,21.72 21.964,21.491 22.176,21.298C22.389,21.105 22.643,20.951 22.925,20.845C23.207,20.739 23.51,20.684 23.816,20.682C24.123,20.681 24.427,20.733 24.71,20.836C27.165,21.652 29.278,23.1 30.769,24.989C32.259,26.877 33.058,29.116 33.058,31.41L33.058,34.704C33.058,36.295 32.334,37.821 31.045,38.946C29.756,40.071 28.008,40.704 26.185,40.704L7.858,40.704C6.036,40.704 4.287,40.071 2.999,38.946C1.71,37.821 0.986,36.295 0.986,34.704L0.986,31.224C0.986,28.984 1.758,26.796 3.202,24.945C4.646,23.094 6.695,21.665 9.082,20.844ZM17.022,0.704C19.452,0.704 21.783,1.546 23.501,3.047C25.22,4.547 26.185,6.582 26.185,8.704L26.185,12.704C26.185,14.825 25.22,16.86 23.501,18.36C21.783,19.861 19.452,20.704 17.022,20.704C14.591,20.704 12.261,19.861 10.542,18.36C8.824,16.86 7.858,14.825 7.858,12.704L7.858,8.704C7.858,6.582 8.824,4.547 10.542,3.047C12.261,1.546 14.591,0.704 17.022,0.704ZM17.022,4.704C15.807,4.704 14.641,5.125 13.782,5.875C12.923,6.625 12.44,7.643 12.44,8.704L12.44,12.704C12.44,13.764 12.923,14.782 13.782,15.532C14.641,16.282 15.807,16.704 17.022,16.704C18.237,16.704 19.402,16.282 20.262,15.532C21.121,14.782 21.604,13.764 21.604,12.704L21.604,8.704C21.604,7.643 21.121,6.625 20.262,5.875C19.402,5.125 18.237,4.704 17.022,4.704Z" fill="#030303"/>
</svg>
