<svg width="36" height="36" viewBox="0 0 36 36" fill="none" xmlns="http://www.w3.org/2000/svg" xmlns:xlink="http://www.w3.org/1999/xlink">
<path d="M34.148,17.866C34.148,18.618 33.86,19.344 33.321,19.871C32.795,20.409 32.068,20.71 31.316,20.71L19.987,20.71L19.987,32.035C19.987,32.786 19.686,33.513 19.147,34.039C18.62,34.565 17.906,34.866 17.154,34.866C16.402,34.866 15.675,34.565 15.149,34.039C14.61,33.513 14.309,32.786 14.309,32.035L14.309,20.71L2.98,20.71C2.228,20.71 1.501,20.409 0.975,19.871C0.449,19.344 0.148,18.618 0.148,17.866C0.148,17.114 0.449,16.4 0.975,15.862C1.501,15.336 2.228,15.035 2.98,15.035L14.309,15.035L14.309,3.71C14.309,2.958 14.61,2.232 15.149,1.705C15.675,1.167 16.402,0.866 17.154,0.866C17.906,0.866 18.62,1.167 19.147,1.705C19.686,2.232 19.987,2.958 19.987,3.71L19.987,15.035L31.316,15.035C32.068,15.035 32.795,15.336 33.321,15.862C33.86,16.4 34.148,17.114 34.148,17.866Z" fill="#FFFFFF"/>
</svg>
