<svg width="26" height="32" viewBox="0 0 26 32" fill="none" xmlns="http://www.w3.org/2000/svg" xmlns:xlink="http://www.w3.org/1999/xlink">
<path d="M13.501,-0.111C5.723,-0.111 0.646,6.119 0.646,15.674C0.646,25.243 5.669,31.205 13.732,31.205C18.728,31.205 22.854,28.776 24.714,24.99C25.406,23.603 24.456,21.889 23.017,21.889L21.605,21.889C20.899,21.889 20.289,22.336 19.922,23.007C18.85,25.034 16.596,26.257 13.841,26.257C9.28,26.257 6.253,22.769 6.253,17.477L6.253,17.12L24.035,17.12C25.094,17.12 25.963,16.166 25.963,15.003L25.963,14.973C25.963,5.717 21.144,-0.111 13.501,-0.111ZM6.28,12.782C6.592,8.087 9.483,4.867 13.488,4.867C17.533,4.867 20.275,8.027 20.397,12.782L6.28,12.782Z" fill="#D9D9D9"/>
</svg>
