<svg width="34" height="34" viewBox="0 0 34 34" fill="none" xmlns="http://www.w3.org/2000/svg" xmlns:xlink="http://www.w3.org/1999/xlink">
<path d="M33,17.001C33,17.753 32.712,18.479 32.173,19.005C31.647,19.544 30.92,19.845 30.168,19.845L18.839,19.845L18.839,31.17C18.839,31.921 18.538,32.648 17.999,33.174C17.473,33.7 16.758,34.001 16.006,34.001C15.254,34.001 14.527,33.7 14.001,33.174C13.462,32.648 13.161,31.921 13.161,31.17L13.161,19.845L1.832,19.845C1.08,19.845 0.353,19.544 -0.173,19.005C-0.699,18.479 -1,17.753 -1,17.001C-1,16.249 -0.699,15.535 -0.173,14.997C0.353,14.47 1.08,14.17 1.832,14.17L13.161,14.17L13.161,2.845C13.161,2.093 13.462,1.366 14.001,0.84C14.527,0.302 15.254,0.001 16.006,0.001C16.758,0.001 17.473,0.302 17.999,0.84C18.538,1.366 18.839,2.093 18.839,2.845L18.839,14.17L30.168,14.17C30.92,14.17 31.647,14.47 32.173,14.997C32.712,15.535 33,16.249 33,17.001Z" fill="#FFFFFF"/>
</svg>
