<svg width="36" height="6" viewBox="0 0 36 6" fill="none" xmlns="http://www.w3.org/2000/svg" xmlns:xlink="http://www.w3.org/1999/xlink">
<path d="M34.61,2.944C34.61,3.696 34.322,4.423 33.783,4.949C33.257,5.487 32.53,5.788 31.778,5.788L20.449,5.788L14.772,5.788L3.442,5.788C2.69,5.788 1.964,5.487 1.437,4.949C0.911,4.423 0.61,3.696 0.61,2.944C0.61,2.193 0.911,1.479 1.437,0.94C1.964,0.414 2.69,0.113 3.442,0.113L14.772,0.113L20.449,0.113L31.778,0.113C32.53,0.113 33.257,0.414 33.783,0.94C34.322,1.479 34.61,2.193 34.61,2.944Z" fill="#B3B3B3"/>
</svg>
