<svg width="40" height="24" viewBox="0 0 40 24" fill="none" xmlns="http://www.w3.org/2000/svg" xmlns:xlink="http://www.w3.org/1999/xlink">
<path d="M38.661,7.791C39.286,7.791 39.792,7.285 39.792,6.66L39.792,0.626C39.792,0.001 39.286,-0.505 38.661,-0.505L1.705,-0.505C1.08,-0.505 0.574,0.001 0.574,0.626L0.574,6.66C0.574,7.285 1.08,7.791 1.705,7.791C3.576,7.791 5.099,9.314 5.099,11.185C5.099,13.056 3.577,14.579 1.705,14.579C1.08,14.579 0.574,15.085 0.574,15.71L0.574,21.744C0.574,22.369 1.08,22.875 1.705,22.875L38.661,22.875C39.286,22.875 39.792,22.369 39.792,21.744L39.792,15.71C39.792,15.085 39.286,14.579 38.661,14.579C36.79,14.579 35.267,13.056 35.267,11.185C35.267,9.314 36.79,7.791 38.661,7.791ZM37.53,16.728L37.53,20.613L13.772,20.613L13.772,17.219C13.772,16.594 13.266,16.087 12.641,16.087C12.016,16.087 11.51,16.594 11.51,17.219L11.51,20.613L2.836,20.613L2.836,16.728C5.415,16.202 7.362,13.917 7.362,11.185C7.362,8.453 5.415,6.168 2.836,5.642L2.836,1.757L11.51,1.757L11.51,5.151C11.51,5.776 12.016,6.283 12.641,6.283C13.266,6.283 13.772,5.776 13.772,5.151L13.772,1.757L37.53,1.757L37.53,5.642C34.951,6.168 33.005,8.453 33.005,11.185C33.005,13.917 34.951,16.202 37.53,16.728Z" transform="rotate(-87.694 20.183 11.185)" fill="#181725" stroke="#181725" stroke-width="0.3" stroke-miterlimit="3.999327"/>
</svg>
