<svg width="46" height="40" viewBox="0 0 46 40" fill="none" xmlns="http://www.w3.org/2000/svg" xmlns:xlink="http://www.w3.org/1999/xlink">
<path d="M7.311,17.687L22.959,33.335L38.607,17.687C39.991,16.303 40.768,14.427 40.768,12.47C40.768,10.514 39.991,8.637 38.607,7.254C37.922,6.569 37.109,6.026 36.214,5.655C35.319,5.284 34.36,5.093 33.391,5.093C31.434,5.093 29.558,5.87 28.174,7.254L22.959,12.469L17.744,7.256C16.357,5.891 14.487,5.13 12.541,5.138C10.595,5.145 8.731,5.922 7.354,7.297C5.978,8.673 5.201,10.537 5.193,12.483C5.185,14.429 5.946,16.3 7.311,17.687ZM21.221,3.775L22.959,5.513L24.697,3.775C25.837,2.625 27.193,1.711 28.687,1.087C30.18,0.462 31.783,0.139 33.402,0.136C35.021,0.132 36.625,0.448 38.121,1.066C39.618,1.684 40.977,2.592 42.122,3.736C43.267,4.881 44.175,6.241 44.792,7.737C45.41,9.234 45.727,10.838 45.723,12.457C45.72,14.076 45.396,15.678 44.772,17.172C44.147,18.666 43.234,20.021 42.084,21.161L24.7,38.548C24.472,38.777 24.2,38.958 23.902,39.082C23.603,39.205 23.283,39.269 22.96,39.269C22.637,39.269 22.317,39.205 22.019,39.082C21.72,38.958 21.449,38.777 21.221,38.548L3.834,21.164C2.669,20.028 1.74,18.671 1.103,17.174C0.466,15.676 0.132,14.067 0.122,12.439C0.111,10.811 0.424,9.198 1.042,7.692C1.66,6.187 2.571,4.818 3.722,3.667C4.873,2.517 6.241,1.605 7.746,0.987C9.252,0.369 10.865,0.056 12.493,0.066C14.121,0.076 15.73,0.41 17.228,1.047C18.725,1.684 20.082,2.612 21.218,3.777L21.221,3.775Z" fill="#181725"/>
</svg>
