<svg width="38" height="38" viewBox="0 0 38 38" fill="none" xmlns="http://www.w3.org/2000/svg" xmlns:xlink="http://www.w3.org/1999/xlink">
<path d="M16.392,28.143C17.968,28.143 19.528,27.832 20.984,27.229C22.44,26.626 23.763,25.742 24.877,24.628C25.991,23.514 26.875,22.191 27.478,20.735C28.081,19.279 28.392,17.718 28.392,16.143C28.392,14.567 28.081,13.006 27.478,11.55C26.875,10.094 25.991,8.772 24.877,7.657C23.763,6.543 22.44,5.659 20.984,5.056C19.528,4.453 17.968,4.143 16.392,4.143C13.209,4.143 10.157,5.407 7.906,7.657C5.656,9.908 4.392,12.96 4.392,16.143C4.392,19.325 5.656,22.377 7.906,24.628C10.157,26.878 13.209,28.143 16.392,28.143ZM29.032,25.955L36.192,33.115C36.382,33.299 36.535,33.52 36.639,33.764C36.744,34.008 36.799,34.271 36.801,34.536C36.803,34.802 36.752,35.065 36.652,35.311C36.551,35.557 36.402,35.78 36.214,35.967C36.026,36.155 35.803,36.303 35.557,36.404C35.311,36.504 35.048,36.555 34.782,36.552C34.517,36.55 34.254,36.494 34.01,36.389C33.767,36.284 33.546,36.132 33.362,35.941L26.202,28.781C22.987,31.276 18.941,32.453 14.889,32.071C10.837,31.689 7.083,29.777 4.391,26.725C1.699,23.672 0.271,19.708 0.399,15.64C0.526,11.572 2.199,7.706 5.077,4.828C7.955,1.95 11.821,0.277 15.89,0.149C19.958,0.022 23.921,1.45 26.974,4.142C30.026,6.834 31.938,10.588 32.32,14.64C32.702,18.692 31.525,22.738 29.03,25.953L29.032,25.955Z" fill="#53B175"/>
</svg>
