<svg width="46" height="40" viewBox="0 0 46 40" fill="none" xmlns="http://www.w3.org/2000/svg" xmlns:xlink="http://www.w3.org/1999/xlink">
<path d="M6.871,17.687L22.52,33.335L38.168,17.687C39.551,16.303 40.329,14.427 40.329,12.47C40.329,10.514 39.551,8.637 38.168,7.254C37.483,6.569 36.67,6.026 35.774,5.655C34.879,5.284 33.92,5.093 32.951,5.093C30.995,5.093 29.118,5.87 27.735,7.254L22.52,12.469L17.304,7.256C15.917,5.891 14.047,5.13 12.101,5.138C10.155,5.145 8.291,5.922 6.915,7.297C5.539,8.673 4.762,10.537 4.754,12.483C4.746,14.429 5.507,16.3 6.871,17.687ZM20.781,3.775L22.52,5.513L24.258,3.775C25.398,2.625 26.754,1.711 28.247,1.087C29.741,0.462 31.343,0.139 32.963,0.136C34.582,0.132 36.185,0.448 37.682,1.066C39.178,1.684 40.538,2.592 41.683,3.736C42.828,4.881 43.735,6.241 44.353,7.737C44.971,9.234 45.287,10.838 45.284,12.457C45.28,14.076 44.957,15.678 44.332,17.172C43.708,18.666 42.795,20.021 41.645,21.161L24.261,38.548C24.032,38.777 23.761,38.958 23.462,39.082C23.164,39.205 22.844,39.269 22.521,39.269C22.198,39.269 21.878,39.205 21.579,39.082C21.281,38.958 21.01,38.777 20.781,38.548L3.395,21.164C2.229,20.028 1.301,18.671 0.664,17.174C0.026,15.676 -0.307,14.067 -0.318,12.439C-0.328,10.811 -0.015,9.198 0.603,7.692C1.221,6.187 2.132,4.818 3.282,3.667C4.433,2.517 5.801,1.605 7.307,0.987C8.812,0.369 10.426,0.056 12.053,0.066C13.681,0.076 15.29,0.41 16.788,1.047C18.286,1.684 19.642,2.612 20.779,3.777L20.781,3.775Z" fill="#53B175"/>
</svg>
