<svg width="46" height="40" viewBox="0 0 46 40" fill="none" xmlns="http://www.w3.org/2000/svg" xmlns:xlink="http://www.w3.org/1999/xlink">
<path d="M17.714,38.704C16.417,38.704 15.173,38.188 14.255,37.271C13.338,36.354 12.823,35.11 12.823,33.813C12.823,32.516 13.338,31.272 14.255,30.355C15.173,29.437 16.417,28.922 17.714,28.922C19.011,28.922 20.255,29.437 21.172,30.355C22.089,31.272 22.604,32.516 22.604,33.813C22.604,35.11 22.089,36.354 21.172,37.271C20.255,38.188 19.011,38.704 17.714,38.704ZM34.831,38.704C33.534,38.704 32.29,38.188 31.373,37.271C30.456,36.354 29.941,35.11 29.941,33.813C29.941,32.516 30.456,31.272 31.373,30.355C32.29,29.437 33.534,28.922 34.831,28.922C36.128,28.922 37.372,29.437 38.29,30.355C39.207,31.272 39.722,32.516 39.722,33.813C39.722,35.11 39.207,36.354 38.29,37.271C37.372,38.188 36.128,38.704 34.831,38.704ZM2.949,4.28C2.338,4.26 1.759,4.004 1.334,3.565C0.91,3.127 0.672,2.54 0.672,1.929C0.672,1.318 0.91,0.731 1.334,0.293C1.759,-0.146 2.338,-0.403 2.949,-0.422L5.763,-0.422C7.969,-0.422 9.876,1.109 10.356,3.26L13.42,17.057C13.899,19.209 15.806,20.74 18.012,20.74L36.382,20.74L39.908,6.63L17.056,6.63C16.451,6.603 15.88,6.343 15.462,5.905C15.044,5.468 14.811,4.886 14.811,4.28C14.811,3.675 15.044,3.093 15.462,2.655C15.88,2.217 16.451,1.958 17.056,1.93L39.908,1.93C40.623,1.93 41.328,2.093 41.971,2.406C42.613,2.72 43.176,3.175 43.616,3.739C44.056,4.302 44.361,4.959 44.51,5.658C44.658,6.357 44.644,7.081 44.471,7.775L40.945,21.88C40.69,22.897 40.103,23.801 39.276,24.446C38.45,25.092 37.431,25.443 36.382,25.442L18.012,25.442C15.872,25.443 13.796,24.713 12.126,23.374C10.457,22.035 9.294,20.166 8.83,18.077L5.763,4.28L2.949,4.28Z" fill="#030303"/>
</svg>
