<svg width="68" height="76" viewBox="0 0 68 76" fill="none" xmlns="http://www.w3.org/2000/svg" xmlns:xlink="http://www.w3.org/1999/xlink">
<path d="M61.011,49.805L57.043,49.805C54.894,49.805 53.037,51.153 52.236,53.155C49.651,59.745 43.753,63.277 35.379,63.277C23.4,63.277 15.317,53.628 15.317,37.572C15.317,21.879 23.291,11.867 35.306,11.867C43.972,11.867 49.761,16.163 52.127,22.28C52.928,24.319 54.785,25.739 57.006,25.739L60.975,25.739C64.434,25.739 67.019,22.353 65.89,19.076C62.067,7.825 51.144,-0.731 35.16,-0.731C14.079,-0.731 0.171,14.343 0.171,37.572C0.171,61.202 14.116,75.765 35.306,75.765C50.489,75.765 61.776,68.338 65.926,56.578C67.092,53.264 64.543,49.805 61.011,49.805Z" fill="#FFFFFF"/>
</svg>
