<svg width="34" height="34" viewBox="0 0 34 34" fill="none" xmlns="http://www.w3.org/2000/svg" xmlns:xlink="http://www.w3.org/1999/xlink">
<path d="M33.68,16.322C33.68,17.073 33.392,17.8 32.853,18.326C32.327,18.865 31.6,19.166 30.848,19.166L19.519,19.166L19.519,30.491C19.519,31.242 19.218,31.969 18.679,32.495C18.153,33.021 17.439,33.322 16.687,33.322C15.935,33.322 15.208,33.021 14.682,32.495C14.143,31.969 13.842,31.242 13.842,30.491L13.842,19.166L2.513,19.166C1.761,19.166 1.034,18.865 0.508,18.326C-0.019,17.8 -0.32,17.073 -0.32,16.322C-0.32,15.57 -0.019,14.856 0.508,14.317C1.034,13.791 1.761,13.491 2.513,13.491L13.842,13.491L13.842,2.166C13.842,1.414 14.143,0.687 14.682,0.161C15.208,-0.378 15.935,-0.678 16.687,-0.678C17.439,-0.678 18.153,-0.378 18.679,0.161C19.218,0.687 19.519,1.414 19.519,2.166L19.519,13.491L30.848,13.491C31.6,13.491 32.327,13.791 32.853,14.317C33.392,14.856 33.68,15.57 33.68,16.322Z" fill="#FFFFFF"/>
</svg>
