<svg width="18" height="30" viewBox="0 0 18 30" fill="none" xmlns="http://www.w3.org/2000/svg" xmlns:xlink="http://www.w3.org/1999/xlink">
<path d="M16.007,24.758C16.401,25.158 16.62,25.684 16.598,26.231C16.598,26.779 16.379,27.284 15.963,27.684C15.569,28.063 15.021,28.294 14.452,28.294C13.882,28.294 13.335,28.105 12.919,27.726L0.521,15.81C0.324,15.621 0.171,15.389 0.061,15.137C-0.048,14.884 -0.114,14.61 -0.114,14.337C-0.114,14.063 -0.048,13.789 0.061,13.515C0.171,13.263 0.324,13.031 0.521,12.842L12.919,0.926C13.116,0.737 13.357,0.568 13.619,0.463C13.904,0.358 14.189,0.294 14.474,0.294C14.758,0.294 15.065,0.337 15.328,0.442C15.591,0.547 15.832,0.715 16.051,0.905C16.248,1.094 16.401,1.347 16.511,1.6C16.642,1.852 16.686,2.126 16.686,2.421C16.686,2.694 16.62,2.968 16.511,3.221C16.401,3.473 16.226,3.705 16.007,3.915L5.165,14.337L7.224,16.294L16.007,24.758Z" transform="rotate(-360 8.286 14.294)" fill="#181725"/>
</svg>
