<svg width="38" height="38" viewBox="0 0 38 38" fill="none" xmlns="http://www.w3.org/2000/svg" xmlns:xlink="http://www.w3.org/1999/xlink">
<path d="M16.648,28.475C18.224,28.475 19.784,28.165 21.24,27.562C22.696,26.959 24.019,26.075 25.133,24.96C26.248,23.846 27.132,22.523 27.735,21.067C28.338,19.611 28.648,18.051 28.648,16.475C28.648,14.899 28.338,13.339 27.735,11.883C27.132,10.427 26.248,9.104 25.133,7.99C24.019,6.875 22.696,5.992 21.24,5.389C19.784,4.785 18.224,4.475 16.648,4.475C13.465,4.475 10.413,5.739 8.163,7.99C5.912,10.24 4.648,13.292 4.648,16.475C4.648,19.658 5.912,22.71 8.163,24.96C10.413,27.211 13.465,28.475 16.648,28.475ZM29.288,26.287L36.448,33.447C36.639,33.632 36.791,33.852 36.896,34.097C37,34.341 37.055,34.603 37.057,34.869C37.06,35.134 37.009,35.398 36.908,35.643C36.807,35.889 36.659,36.112 36.471,36.3C36.283,36.487 36.059,36.636 35.814,36.736C35.568,36.837 35.304,36.887 35.039,36.884C34.773,36.882 34.511,36.827 34.267,36.722C34.023,36.617 33.802,36.464 33.618,36.273L26.458,29.113C23.243,31.609 19.198,32.785 15.145,32.403C11.093,32.021 7.339,30.11 4.647,27.057C1.955,24.005 0.527,20.041 0.655,15.973C0.782,11.905 2.455,8.038 5.333,5.16C8.211,2.282 12.078,0.609 16.146,0.482C20.214,0.354 24.178,1.782 27.23,4.474C30.283,7.166 32.194,10.921 32.576,14.973C32.958,19.025 31.782,23.07 29.286,26.285L29.288,26.287Z" fill="#181725"/>
</svg>
