<svg width="26" height="32" viewBox="0 0 26 32" fill="none" xmlns="http://www.w3.org/2000/svg" xmlns:xlink="http://www.w3.org/1999/xlink">
<path d="M13.501,-0.111C5.723,-0.111 0.646,6.119 0.646,15.674C0.646,25.243 5.669,31.205 13.732,31.205C18.727,31.205 22.854,28.776 24.713,24.99C25.406,23.603 24.456,21.889 23.017,21.889L21.605,21.889C20.899,21.889 20.288,22.336 19.922,23.007C18.849,25.034 16.596,26.257 13.84,26.257C9.279,26.257 6.252,22.769 6.252,17.477L6.252,17.12L24.035,17.12C25.094,17.12 25.962,16.166 25.962,15.003L25.962,14.973C25.962,5.717 21.143,-0.111 13.501,-0.111ZM6.279,12.782C6.592,8.087 9.483,4.867 13.487,4.867C17.533,4.867 20.275,8.027 20.397,12.782L6.279,12.782Z" fill="#D9D9D9"/>
</svg>
