<svg width="84" height="94" viewBox="0 0 84 94" fill="none" xmlns="http://www.w3.org/2000/svg" xmlns:xlink="http://www.w3.org/1999/xlink">
<path d="M41.589,-0.045C16.302,-0.045 -0.203,18.392 -0.203,46.666C-0.203,74.985 16.125,92.628 42.339,92.628C58.58,92.628 71.995,85.439 78.041,74.235C80.292,70.133 77.203,65.06 72.525,65.06L67.935,65.06C65.641,65.06 63.655,66.383 62.463,68.368C58.977,74.367 51.651,77.984 42.692,77.984C27.864,77.984 18.023,67.663 18.023,52.004L18.023,50.945L75.835,50.945C79.277,50.945 82.101,48.122 82.101,44.682L82.101,44.593C82.101,17.202 66.435,-0.045 41.589,-0.045ZM18.111,38.109C19.126,24.215 28.526,14.687 41.545,14.687C54.696,14.687 63.611,24.038 64.008,38.109L18.111,38.109Z" fill="#FFFFFF"/>
</svg>
