<svg width="18" height="28" viewBox="0 0 18 28" fill="none" xmlns="http://www.w3.org/2000/svg" xmlns:xlink="http://www.w3.org/1999/xlink">
<path d="M16.579,24.291C16.973,24.691 17.192,25.217 17.17,25.764C17.17,26.312 16.951,26.817 16.535,27.217C16.141,27.596 15.593,27.828 15.024,27.828C14.454,27.828 13.907,27.638 13.491,27.259L1.093,15.343C0.896,15.154 0.743,14.922 0.633,14.67C0.524,14.417 0.458,14.143 0.458,13.87C0.458,13.596 0.524,13.322 0.633,13.049C0.743,12.796 0.896,12.564 1.093,12.375L13.491,0.459C13.688,0.27 13.929,0.101 14.192,-0.004C14.476,-0.109 14.761,-0.172 15.046,-0.172C15.331,-0.172 15.637,-0.13 15.9,-0.025C16.163,0.08 16.404,0.249 16.623,0.438C16.82,0.628 16.973,0.88 17.083,1.133C17.214,1.386 17.258,1.659 17.258,1.954C17.258,2.228 17.192,2.501 17.083,2.754C16.973,3.007 16.798,3.238 16.579,3.449L5.737,13.87L7.796,15.828L16.579,24.291Z" transform="rotate(-360 8.858 13.828)" fill="#181725"/>
</svg>
