<svg width="34" height="34" viewBox="0 0 34 34" fill="none" xmlns="http://www.w3.org/2000/svg" xmlns:xlink="http://www.w3.org/1999/xlink">
<path d="M33.17,16.355C33.17,17.107 32.881,17.833 32.342,18.359C31.816,18.898 31.089,19.199 30.337,19.199L19.008,19.199L19.008,30.524C19.008,31.275 18.707,32.002 18.169,32.528C17.642,33.054 16.928,33.355 16.176,33.355C15.424,33.355 14.697,33.054 14.171,32.528C13.632,32.002 13.331,31.275 13.331,30.524L13.331,19.199L2.002,19.199C1.25,19.199 0.523,18.898 -0.003,18.359C-0.53,17.833 -0.83,17.107 -0.83,16.355C-0.83,15.603 -0.53,14.889 -0.003,14.35C0.523,13.824 1.25,13.524 2.002,13.524L13.331,13.524L13.331,2.199C13.331,1.447 13.632,0.72 14.171,0.194C14.697,-0.344 15.424,-0.645 16.176,-0.645C16.928,-0.645 17.642,-0.344 18.169,0.194C18.707,0.72 19.008,1.447 19.008,2.199L19.008,13.524L30.337,13.524C31.089,13.524 31.816,13.824 32.342,14.35C32.881,14.889 33.17,15.603 33.17,16.355Z" fill="#FFFFFF"/>
</svg>
