<svg width="36" height="34" viewBox="0 0 36 34" fill="none" xmlns="http://www.w3.org/2000/svg" xmlns:xlink="http://www.w3.org/1999/xlink">
<path d="M34.206,16.846C34.206,17.598 33.917,18.324 33.378,18.851C32.852,19.389 32.125,19.69 31.373,19.69L20.044,19.69L20.044,31.015C20.044,31.767 19.743,32.493 19.204,33.019C18.678,33.546 17.964,33.846 17.212,33.846C16.46,33.846 15.733,33.546 15.207,33.019C14.668,32.493 14.367,31.767 14.367,31.015L14.367,19.69L3.038,19.69C2.286,19.69 1.559,19.389 1.033,18.851C0.506,18.324 0.206,17.598 0.206,16.846C0.206,16.095 0.506,15.38 1.033,14.842C1.559,14.316 2.286,14.015 3.038,14.015L14.367,14.015L14.367,2.69C14.367,1.938 14.668,1.212 15.207,0.686C15.733,0.147 16.46,-0.154 17.212,-0.154C17.964,-0.154 18.678,0.147 19.204,0.686C19.743,1.212 20.044,1.938 20.044,2.69L20.044,14.015L31.373,14.015C32.125,14.015 32.852,14.316 33.378,14.842C33.917,15.38 34.206,16.095 34.206,16.846Z" fill="#FFFFFF"/>
</svg>
