<svg width="22" height="38" viewBox="0 0 22 38" fill="none" xmlns="http://www.w3.org/2000/svg" xmlns:xlink="http://www.w3.org/1999/xlink">
<path d="M19.623,32.257C20.092,32.772 20.353,33.448 20.327,34.152C20.327,34.856 20.066,35.505 19.571,36.02C19.101,36.507 18.449,36.805 17.771,36.805C17.093,36.805 16.442,36.561 15.946,36.074L1.187,20.754C0.953,20.51 0.77,20.212 0.64,19.887C0.509,19.563 0.431,19.211 0.431,18.859C0.431,18.507 0.509,18.155 0.64,17.803C0.77,17.478 0.953,17.181 1.187,16.937L15.946,1.617C16.181,1.373 16.468,1.157 16.781,1.021C17.12,0.886 17.459,0.805 17.798,0.805C18.136,0.805 18.502,0.859 18.814,0.994C19.127,1.129 19.414,1.346 19.675,1.59C19.91,1.833 20.092,2.158 20.223,2.483C20.379,2.808 20.431,3.16 20.431,3.539C20.431,3.89 20.353,4.242 20.223,4.567C20.092,4.892 19.884,5.19 19.623,5.46L6.715,18.859L9.166,21.376L19.623,32.257Z" transform="rotate(-360 10.431 18.805)" fill="#FFF9FF"/>
</svg>
