<svg width="42" height="40" viewBox="0 0 42 40" fill="none" xmlns="http://www.w3.org/2000/svg" xmlns:xlink="http://www.w3.org/1999/xlink">
<path d="M31.041,14.399L33.975,11.464C37.721,13.625 40.215,16.611 40.215,19.92C40.215,26.527 30.331,31.867 20.28,31.881C18.235,31.881 16.195,31.667 14.194,31.243L17.676,27.763C18.526,27.851 19.395,27.896 20.274,27.894L20.278,27.894C19.451,27.894 18.653,27.769 17.904,27.535L21.853,23.584C22.79,23.182 23.541,22.43 23.946,21.493L27.893,17.544C28.265,18.735 28.352,19.995 28.148,21.226C27.944,22.456 27.454,23.621 26.718,24.628C25.982,25.634 25.02,26.454 23.909,27.021C22.799,27.589 21.571,27.888 20.324,27.894C28.786,27.864 36.228,23.541 36.228,19.92C36.228,18.041 34.19,15.961 31.041,14.399ZM12.497,21.665C12.236,20.499 12.24,19.29 12.509,18.127C12.777,16.963 13.304,15.874 14.05,14.942C14.795,14.009 15.741,13.255 16.817,12.737C17.893,12.218 19.072,11.948 20.266,11.947C11.857,11.917 4.332,16.288 4.332,19.92C4.332,21.706 6.134,23.662 8.971,25.191L6.064,28.094C2.606,25.957 0.345,23.08 0.345,19.92C0.345,13.314 10.281,7.926 20.28,7.96C22.102,7.966 23.922,8.147 25.68,8.482L22.138,12.022C21.56,11.978 20.974,11.953 20.384,11.947C20.946,11.955 21.494,12.02 22.024,12.138L12.495,21.665L12.497,21.665ZM38.404,1.395C38.778,1.769 38.988,2.276 38.988,2.805C38.988,3.333 38.778,3.84 38.404,4.214L4.575,38.043C4.392,38.233 4.172,38.385 3.929,38.49C3.685,38.595 3.424,38.65 3.159,38.653C2.895,38.655 2.632,38.605 2.387,38.505C2.142,38.405 1.919,38.257 1.732,38.07C1.545,37.883 1.396,37.66 1.296,37.415C1.196,37.17 1.145,36.908 1.147,36.643C1.149,36.378 1.204,36.117 1.308,35.874C1.413,35.63 1.564,35.41 1.755,35.226L35.584,1.397C35.769,1.212 35.989,1.065 36.231,0.964C36.473,0.864 36.732,0.813 36.994,0.813C37.256,0.813 37.515,0.864 37.757,0.964C37.999,1.065 38.219,1.212 38.404,1.397L38.404,1.395Z" fill="#7C7C7C"/>
</svg>
