<svg width="36" height="6" viewBox="0 0 36 6" fill="none" xmlns="http://www.w3.org/2000/svg" xmlns:xlink="http://www.w3.org/1999/xlink">
<path d="M34.033,2.193C34.033,2.945 33.745,3.671 33.206,4.197C32.68,4.736 31.953,5.037 31.201,5.037L19.872,5.037L14.195,5.037L2.865,5.037C2.114,5.037 1.387,4.736 0.86,4.197C0.334,3.671 0.033,2.945 0.033,2.193C0.033,1.441 0.334,0.727 0.86,0.189C1.387,-0.338 2.114,-0.638 2.865,-0.638L14.195,-0.638L19.872,-0.638L31.201,-0.638C31.953,-0.638 32.68,-0.338 33.206,0.189C33.745,0.727 34.033,1.441 34.033,2.193Z" fill="#B3B3B3"/>
</svg>
