<svg width="68" height="76" viewBox="0 0 68 76" fill="none" xmlns="http://www.w3.org/2000/svg" xmlns:xlink="http://www.w3.org/1999/xlink">
<path d="M34.154,-0.731C13.291,-0.731 -0.326,14.488 -0.326,37.827C-0.326,61.202 13.146,75.765 34.773,75.765C48.172,75.765 59.24,69.831 64.229,60.583C66.085,57.197 63.537,53.01 59.677,53.01L55.891,53.01C53.997,53.01 52.359,54.102 51.376,55.74C48.5,60.692 42.456,63.678 35.064,63.678C22.831,63.678 14.711,55.158 14.711,42.232L14.711,41.358L62.408,41.358C65.248,41.358 67.578,39.028 67.578,36.188L67.578,36.115C67.578,13.505 54.653,-0.731 34.154,-0.731ZM14.784,30.763C15.622,19.294 23.377,11.43 34.118,11.43C44.968,11.43 52.323,19.149 52.65,30.763L14.784,30.763Z" fill="#FFFFFF"/>
</svg>
