<svg width="46" height="92" viewBox="0 0 46 92" fill="none" xmlns="http://www.w3.org/2000/svg" xmlns:xlink="http://www.w3.org/1999/xlink">
<path d="M39.059,0.219C28.379,0.219 20.082,6.307 17.214,16.363L16.905,16.363L16.905,9.747C16.905,4.983 13.021,1.146 8.299,1.146C3.533,1.146 -0.351,4.983 -0.351,9.747L-0.351,82.527C-0.351,84.997 0.664,87.291 2.297,88.923C3.93,90.555 6.181,91.57 8.696,91.57C13.683,91.57 17.743,87.512 17.743,82.527L17.743,37.624C17.743,24.876 25.246,16.628 37.161,16.628C37.646,16.628 38.176,16.628 38.661,16.672C42.368,16.805 45.369,13.761 45.369,10.056L45.369,6.571C45.369,3.087 42.545,0.219 39.059,0.219Z" fill="#FFFFFF"/>
</svg>
