<svg width="14" height="14" viewBox="0 0 14 14" fill="none" xmlns="http://www.w3.org/2000/svg" xmlns:xlink="http://www.w3.org/1999/xlink">
<path d="M12.025,6.224C12.025,6.491 11.918,6.749 11.717,6.936C11.52,7.127 11.249,7.234 10.969,7.234L6.743,7.234L6.743,11.257C6.743,11.524 6.631,11.782 6.43,11.969C6.233,12.156 5.967,12.263 5.686,12.263C5.406,12.263 5.135,12.156 4.938,11.969C4.737,11.782 4.625,11.524 4.625,11.257L4.625,7.234L0.399,7.234C0.119,7.234 -0.152,7.127 -0.349,6.936C-0.545,6.749 -0.657,6.491 -0.657,6.224C-0.657,5.956 -0.545,5.703 -0.349,5.511C-0.152,5.325 0.119,5.218 0.399,5.218L4.625,5.218L4.625,1.195C4.625,0.928 4.737,0.669 4.938,0.483C5.135,0.291 5.406,0.184 5.686,0.184C5.967,0.184 6.233,0.291 6.43,0.483C6.631,0.669 6.743,0.928 6.743,1.195L6.743,5.218L10.969,5.218C11.249,5.218 11.52,5.325 11.717,5.511C11.918,5.703 12.025,5.956 12.025,6.224Z" fill="#FFFFFF"/>
</svg>
