<svg width="34" height="36" viewBox="0 0 34 36" fill="none" xmlns="http://www.w3.org/2000/svg" xmlns:xlink="http://www.w3.org/1999/xlink">
<path d="M33.498,17.866C33.498,18.618 33.21,19.344 32.671,19.871C32.145,20.409 31.418,20.71 30.666,20.71L19.337,20.71L19.337,32.035C19.337,32.787 19.036,33.513 18.497,34.039C17.971,34.566 17.256,34.866 16.504,34.866C15.752,34.866 15.026,34.566 14.499,34.039C13.96,33.513 13.659,32.787 13.659,32.035L13.659,20.71L2.33,20.71C1.578,20.71 0.852,20.409 0.325,19.871C-0.201,19.344 -0.502,18.618 -0.502,17.866C-0.502,17.115 -0.201,16.4 0.325,15.862C0.852,15.336 1.578,15.035 2.33,15.035L13.659,15.035L13.659,3.71C13.659,2.958 13.96,2.232 14.499,1.706C15.026,1.167 15.752,0.866 16.504,0.866C17.256,0.866 17.971,1.167 18.497,1.706C19.036,2.232 19.337,2.958 19.337,3.71L19.337,15.035L30.666,15.035C31.418,15.035 32.145,15.336 32.671,15.862C33.21,16.4 33.498,17.115 33.498,17.866Z" fill="#FFFFFF"/>
</svg>
