<svg width="18" height="28" viewBox="0 0 18 28" fill="none" xmlns="http://www.w3.org/2000/svg" xmlns:xlink="http://www.w3.org/1999/xlink">
<path d="M16.474,24.19C16.868,24.59 17.087,25.116 17.065,25.664C17.065,26.211 16.846,26.716 16.43,27.116C16.036,27.495 15.488,27.727 14.918,27.727C14.349,27.727 13.801,27.538 13.385,27.159L0.988,15.243C0.791,15.053 0.637,14.822 0.528,14.569C0.418,14.317 0.353,14.043 0.353,13.769C0.353,13.495 0.418,13.222 0.528,12.948C0.637,12.695 0.791,12.464 0.988,12.274L13.385,0.359C13.582,0.169 13.823,0.001 14.086,-0.105C14.371,-0.21 14.656,-0.273 14.94,-0.273C15.225,-0.273 15.532,-0.231 15.795,-0.126C16.057,-0.02 16.298,0.148 16.517,0.338C16.715,0.527 16.868,0.78 16.977,1.032C17.109,1.285 17.153,1.559 17.153,1.853C17.153,2.127 17.087,2.401 16.977,2.653C16.868,2.906 16.693,3.138 16.474,3.348L5.631,13.769L7.69,15.727L16.474,24.19Z" transform="rotate(-360 8.753 13.727)" fill="#181725"/>
</svg>
