<svg width="42" height="44" viewBox="0 0 42 44" fill="none" xmlns="http://www.w3.org/2000/svg" xmlns:xlink="http://www.w3.org/1999/xlink">
<path d="M24,10.944L24,27.694C24,28.482 23.684,29.237 23.121,29.793C22.559,30.35 21.796,30.663 21,30.663C20.204,30.663 19.441,30.35 18.879,29.793C18.316,29.237 18,28.482 18,27.694L18,10.944L14.637,14.275C14.074,14.832 13.31,15.145 12.513,15.144C11.717,15.144 10.953,14.831 10.391,14.273C9.828,13.716 9.511,12.96 9.512,12.172C9.512,11.384 9.829,10.628 10.392,10.071L18.879,1.678C19.157,1.401 19.487,1.182 19.851,1.032C20.215,0.882 20.606,0.805 21,0.805C21.394,0.805 21.785,0.882 22.149,1.032C22.513,1.182 22.843,1.401 23.121,1.678L31.608,10.074C31.887,10.35 32.108,10.678 32.259,11.038C32.409,11.399 32.487,11.785 32.487,12.175C32.487,12.566 32.409,12.952 32.258,13.312C32.107,13.673 31.885,14 31.606,14.276C31.328,14.552 30.996,14.771 30.632,14.92C30.268,15.069 29.877,15.146 29.483,15.146C29.089,15.146 28.698,15.069 28.334,14.919C27.97,14.77 27.639,14.551 27.36,14.275L24,10.944ZM9,18.621C9.796,18.621 10.559,18.934 11.121,19.491C11.684,20.048 12,20.803 12,21.59C12,22.378 11.684,23.133 11.121,23.689C10.559,24.246 9.796,24.559 9,24.559L6,24.559L6,36.435L36,36.435L36,24.559L33,24.559C32.204,24.559 31.441,24.246 30.879,23.689C30.316,23.133 30,22.378 30,21.59C30,20.803 30.316,20.048 30.879,19.491C31.441,18.934 32.204,18.621 33,18.621L36,18.621C37.591,18.621 39.117,19.247 40.243,20.36C41.368,21.474 42,22.984 42,24.559L42,36.435C42,38.009 41.368,39.52 40.243,40.633C39.117,41.747 37.591,42.372 36,42.372L6,42.372C4.409,42.372 2.883,41.747 1.757,40.633C0.632,39.52 0,38.009 0,36.435L0,24.559C0,22.984 0.632,21.474 1.757,20.36C2.883,19.247 4.409,18.621 6,18.621L9,18.621Z" fill="#181725" stroke="#FFFFFF" stroke-width="0.3" stroke-miterlimit="3.999327"/>
</svg>
