<svg width="24" height="32" viewBox="0 0 24 32" fill="none" xmlns="http://www.w3.org/2000/svg" xmlns:xlink="http://www.w3.org/1999/xlink">
<path d="M21.849,20.578L20.369,20.578C19.568,20.578 18.876,21.129 18.577,21.949C17.614,24.647 15.415,26.093 12.292,26.093C7.827,26.093 4.813,22.143 4.813,15.569C4.813,9.145 7.786,5.046 12.265,5.046C15.496,5.046 17.654,6.805 18.537,9.309C18.835,10.144 19.528,10.725 20.356,10.725L21.835,10.725C23.125,10.725 24.089,9.339 23.668,7.997C22.243,3.391 18.17,-0.111 12.211,-0.111C4.351,-0.111 -0.834,6.06 -0.834,15.569C-0.834,25.243 4.365,31.205 12.265,31.205C17.926,31.205 22.134,28.165 23.681,23.35C24.116,21.994 23.166,20.578 21.849,20.578Z" fill="#D9D9D9"/>
</svg>
