<svg width="36" height="36" viewBox="0 0 36 36" fill="none" xmlns="http://www.w3.org/2000/svg" xmlns:xlink="http://www.w3.org/1999/xlink">
<path d="M34.725,17.362C34.725,18.113 34.436,18.84 33.897,19.366C33.371,19.905 32.644,20.206 31.892,20.206L20.563,20.206L20.563,31.531C20.563,32.282 20.262,33.009 19.724,33.535C19.197,34.061 18.483,34.362 17.731,34.362C16.979,34.362 16.252,34.061 15.726,33.535C15.187,33.009 14.886,32.282 14.886,31.531L14.886,20.206L3.557,20.206C2.805,20.206 2.078,19.905 1.552,19.366C1.025,18.84 0.725,18.113 0.725,17.362C0.725,16.61 1.025,15.896 1.552,15.357C2.078,14.831 2.805,14.531 3.557,14.531L14.886,14.531L14.886,3.206C14.886,2.454 15.187,1.727 15.726,1.201C16.252,0.662 16.979,0.362 17.731,0.362C18.483,0.362 19.197,0.662 19.724,1.201C20.262,1.727 20.563,2.454 20.563,3.206L20.563,14.531L31.892,14.531C32.644,14.531 33.371,14.831 33.897,15.357C34.436,15.896 34.725,16.61 34.725,17.362Z" fill="#53B175"/>
</svg>
