<svg width="18" height="30" viewBox="0 0 18 30" fill="none" xmlns="http://www.w3.org/2000/svg" xmlns:xlink="http://www.w3.org/1999/xlink">
<path d="M16.579,25.222C16.973,25.622 17.192,26.148 17.17,26.696C17.17,27.243 16.951,27.748 16.535,28.148C16.141,28.527 15.593,28.759 15.024,28.759C14.454,28.759 13.907,28.57 13.491,28.191L1.093,16.275C0.896,16.085 0.743,15.854 0.633,15.601C0.524,15.349 0.458,15.075 0.458,14.801C0.458,14.528 0.524,14.254 0.633,13.98C0.743,13.728 0.896,13.496 1.093,13.306L13.491,1.391C13.688,1.201 13.929,1.033 14.192,0.928C14.476,0.822 14.761,0.759 15.046,0.759C15.331,0.759 15.637,0.801 15.9,0.906C16.163,1.012 16.404,1.18 16.623,1.37C16.82,1.559 16.973,1.812 17.083,2.064C17.214,2.317 17.258,2.591 17.258,2.885C17.258,3.159 17.192,3.433 17.083,3.685C16.973,3.938 16.798,4.17 16.579,4.38L5.737,14.801L7.796,16.759L16.579,25.222Z" transform="rotate(-360 8.858 14.759)" fill="#181725"/>
</svg>
