<svg width="48" height="40" viewBox="0 0 48 40" fill="none" xmlns="http://www.w3.org/2000/svg" xmlns:xlink="http://www.w3.org/1999/xlink">
<path d="M7.976,18.233L23.624,33.882L39.272,18.233C40.656,16.85 41.433,14.974 41.433,13.017C41.433,11.06 40.656,9.184 39.272,7.801C38.587,7.116 37.774,6.572 36.879,6.201C35.984,5.831 35.025,5.64 34.056,5.64C32.099,5.64 30.223,6.417 28.839,7.801L23.624,13.016L18.409,7.803C17.022,6.438 15.152,5.677 13.206,5.684C11.26,5.692 9.396,6.468 8.02,7.844C6.643,9.22 5.867,11.084 5.859,13.03C5.85,14.976 6.612,16.846 7.976,18.233ZM21.886,4.321L23.624,6.06L25.363,4.321C26.502,3.171 27.858,2.258 29.352,1.634C30.846,1.009 32.448,0.686 34.067,0.682C35.686,0.679 37.29,0.995 38.786,1.613C40.283,2.231 41.643,3.138 42.787,4.283C43.932,5.428 44.84,6.788 45.458,8.284C46.076,9.781 46.392,11.384 46.388,13.003C46.385,14.622 46.061,16.225 45.437,17.719C44.812,19.212 43.899,20.568 42.749,21.708L25.365,39.095C25.137,39.323 24.866,39.505 24.567,39.628C24.269,39.752 23.949,39.816 23.625,39.816C23.302,39.816 22.982,39.752 22.684,39.628C22.385,39.505 22.114,39.323 21.886,39.095L4.499,21.71C3.334,20.574 2.406,19.218 1.768,17.72C1.131,16.223 0.798,14.613 0.787,12.986C0.777,11.358 1.09,9.745 1.708,8.239C2.326,6.733 3.236,5.365 4.387,4.214C5.538,3.063 6.906,2.152 8.412,1.534C9.917,0.916 11.531,0.603 13.158,0.613C14.786,0.623 16.395,0.956 17.893,1.593C19.391,2.23 20.747,3.158 21.883,4.324L21.886,4.321Z" fill="#7C7C7C"/>
</svg>
