<svg width="38" height="76" viewBox="0 0 38 76" fill="none" xmlns="http://www.w3.org/2000/svg" xmlns:xlink="http://www.w3.org/1999/xlink">
<path d="M31.627,-0.512C22.815,-0.512 15.97,4.512 13.604,12.813L13.349,12.813L13.349,7.352C13.349,3.42 10.145,0.252 6.249,0.252C2.317,0.252 -0.887,3.42 -0.887,7.352L-0.887,67.428C-0.887,69.467 -0.05,71.36 1.297,72.707C2.645,74.054 4.501,74.892 6.577,74.892C10.691,74.892 14.041,71.542 14.041,67.428L14.041,30.363C14.041,19.841 20.23,13.032 30.061,13.032C30.461,13.032 30.898,13.032 31.299,13.068C34.357,13.178 36.833,10.665 36.833,7.607L36.833,4.731C36.833,1.854 34.503,-0.512 31.627,-0.512Z" fill="#FFFFFF"/>
</svg>
