<svg width="34" height="6" viewBox="0 0 34 6" fill="none" xmlns="http://www.w3.org/2000/svg" xmlns:xlink="http://www.w3.org/1999/xlink">
<path d="M34,2.711C34,3.464 33.712,4.191 33.173,4.718C32.647,5.257 31.92,5.558 31.168,5.558L19.839,5.558L14.161,5.558L2.832,5.558C2.08,5.558 1.353,5.257 0.827,4.718C0.301,4.191 0,3.464 0,2.711C0,1.959 0.301,1.244 0.827,0.705C1.353,0.178 2.08,-0.123 2.832,-0.123L14.161,-0.123L19.839,-0.123L31.168,-0.123C31.92,-0.123 32.647,0.178 33.173,0.705C33.712,1.244 34,1.959 34,2.711Z" fill="#B3B3B3"/>
</svg>
