<svg width="34" height="6" viewBox="0 0 34 6" fill="none" xmlns="http://www.w3.org/2000/svg" xmlns:xlink="http://www.w3.org/1999/xlink">
<path d="M33.594,2.285C33.594,3.037 33.306,3.764 32.767,4.29C32.24,4.828 31.513,5.129 30.762,5.129L19.432,5.129L13.755,5.129L2.426,5.129C1.674,5.129 0.947,4.828 0.421,4.29C-0.105,3.764 -0.406,3.037 -0.406,2.285C-0.406,1.534 -0.105,0.82 0.421,0.281C0.947,-0.245 1.674,-0.546 2.426,-0.546L13.755,-0.546L19.432,-0.546L30.762,-0.546C31.513,-0.546 32.24,-0.245 32.767,0.281C33.306,0.82 33.594,1.534 33.594,2.285Z" fill="#B3B3B3"/>
</svg>
