<svg width="18" height="28" viewBox="0 0 18 28" fill="none" xmlns="http://www.w3.org/2000/svg" xmlns:xlink="http://www.w3.org/1999/xlink">
<path d="M16.579,24.19C16.973,24.59 17.192,25.116 17.17,25.664C17.17,26.211 16.951,26.716 16.535,27.116C16.141,27.495 15.593,27.727 15.024,27.727C14.454,27.727 13.907,27.537 13.491,27.158L1.093,15.243C0.896,15.053 0.743,14.822 0.633,14.569C0.524,14.316 0.458,14.043 0.458,13.769C0.458,13.495 0.524,13.222 0.633,12.948C0.743,12.695 0.896,12.464 1.093,12.274L13.491,0.358C13.688,0.169 13.929,0 14.192,-0.105C14.476,-0.21 14.761,-0.273 15.046,-0.273C15.331,-0.273 15.637,-0.231 15.9,-0.126C16.163,-0.021 16.404,0.148 16.623,0.337C16.82,0.527 16.973,0.779 17.083,1.032C17.214,1.285 17.258,1.558 17.258,1.853C17.258,2.127 17.192,2.4 17.083,2.653C16.973,2.906 16.798,3.137 16.579,3.348L5.737,13.769L7.796,15.727L16.579,24.19Z" transform="rotate(-360 8.858 13.727)" fill="#181725"/>
</svg>
