<svg width="20" height="38" viewBox="0 0 20 38" fill="none" xmlns="http://www.w3.org/2000/svg" xmlns:xlink="http://www.w3.org/1999/xlink">
<path d="M18.892,31.717C19.361,32.232 19.622,32.908 19.596,33.612C19.596,34.316 19.335,34.965 18.84,35.48C18.371,35.967 17.719,36.265 17.041,36.265C16.363,36.265 15.711,36.021 15.215,35.534L0.457,20.214C0.222,19.97 0.039,19.672 -0.091,19.347C-0.221,19.023 -0.3,18.671 -0.3,18.319C-0.3,17.967 -0.221,17.615 -0.091,17.263C0.039,16.938 0.222,16.641 0.457,16.397L15.215,1.077C15.45,0.833 15.737,0.617 16.05,0.481C16.389,0.346 16.728,0.265 17.067,0.265C17.406,0.265 17.771,0.319 18.084,0.454C18.397,0.589 18.683,0.806 18.944,1.05C19.179,1.293 19.361,1.618 19.492,1.943C19.648,2.268 19.7,2.62 19.7,2.998C19.7,3.35 19.622,3.702 19.492,4.027C19.361,4.352 19.153,4.65 18.892,4.92L5.985,18.319L8.436,20.836L18.892,31.717Z" fill="#181725"/>
</svg>
