<svg width="18" height="30" viewBox="0 0 18 30" fill="none" xmlns="http://www.w3.org/2000/svg" xmlns:xlink="http://www.w3.org/1999/xlink">
<path d="M16.474,25.222C16.868,25.622 17.087,26.149 17.065,26.696C17.065,27.243 16.846,27.749 16.43,28.149C16.036,28.528 15.488,28.759 14.918,28.759C14.349,28.759 13.801,28.57 13.385,28.191L0.988,16.275C0.791,16.086 0.637,15.854 0.528,15.601C0.418,15.349 0.353,15.075 0.353,14.801C0.353,14.528 0.418,14.254 0.528,13.98C0.637,13.728 0.791,13.496 0.988,13.307L13.385,1.391C13.582,1.201 13.823,1.033 14.086,0.928C14.371,0.822 14.656,0.759 14.94,0.759C15.225,0.759 15.532,0.801 15.795,0.907C16.057,1.012 16.298,1.18 16.517,1.37C16.715,1.559 16.868,1.812 16.977,2.065C17.109,2.317 17.153,2.591 17.153,2.886C17.153,3.159 17.087,3.433 16.977,3.686C16.868,3.938 16.693,4.17 16.474,4.38L5.631,14.801L7.69,16.759L16.474,25.222Z" transform="rotate(-360 8.753 14.759)" fill="#181725"/>
</svg>
