<svg width="40" height="42" viewBox="0 0 40 42" fill="none" xmlns="http://www.w3.org/2000/svg" xmlns:xlink="http://www.w3.org/1999/xlink">
<path d="M11.262,4.704L5.262,4.704C4.732,4.704 4.223,4.914 3.848,5.289C3.473,5.664 3.262,6.173 3.262,6.704L3.262,10.704C3.262,11.234 3.473,11.743 3.848,12.118C4.223,12.493 4.732,12.704 5.262,12.704L9.262,12.704C9.792,12.704 10.301,12.493 10.676,12.118C11.051,11.743 11.262,11.234 11.262,10.704L11.262,4.704ZM5.282,16.704L5.282,36.634L9.262,36.634L9.262,26.704C9.262,25.643 9.683,24.625 10.434,23.875C11.184,23.125 12.201,22.704 13.262,22.704L17.262,22.704C18.323,22.704 19.34,23.125 20.09,23.875C20.841,24.625 21.262,25.643 21.262,26.704L21.262,36.634L33.288,36.634L33.288,16.704L29.262,16.704C27.726,16.704 26.322,16.126 25.262,15.176C24.163,16.161 22.738,16.706 21.262,16.704L17.262,16.704C15.726,16.704 14.322,16.126 13.262,15.176C12.163,16.161 10.738,16.706 9.262,16.704L5.282,16.704ZM1.282,15.196C0.646,14.633 0.137,13.941 -0.211,13.167C-0.56,12.393 -0.739,11.553 -0.738,10.704L-0.738,6.704C-0.738,5.112 -0.106,3.586 1.019,2.461C2.145,1.336 3.671,0.704 5.262,0.704L33.262,0.704C34.853,0.704 36.379,1.336 37.505,2.461C38.63,3.586 39.262,5.112 39.262,6.704L39.262,10.704C39.262,12.468 38.502,14.056 37.288,15.154L37.288,36.634C37.288,37.694 36.867,38.712 36.116,39.462C35.366,40.212 34.349,40.634 33.288,40.634L18.008,40.634C17.762,40.68 17.512,40.704 17.262,40.704L13.262,40.704C13.012,40.704 12.762,40.68 12.516,40.634L5.284,40.634C4.223,40.634 3.206,40.212 2.456,39.462C1.705,38.712 1.284,37.694 1.284,36.634L1.284,15.194L1.282,15.196ZM17.262,36.636L17.262,26.704L13.262,26.704L13.262,36.634L17.262,36.634L17.262,36.636ZM23.262,4.704L15.262,4.704L15.262,10.704C15.262,11.234 15.473,11.743 15.848,12.118C16.223,12.493 16.732,12.704 17.262,12.704L21.262,12.704C21.792,12.704 22.301,12.493 22.676,12.118C23.051,11.743 23.262,11.234 23.262,10.704L23.262,4.704ZM27.262,4.704L27.262,10.704C27.262,11.234 27.473,11.743 27.848,12.118C28.223,12.493 28.732,12.704 29.262,12.704L33.262,12.704C33.792,12.704 34.301,12.493 34.676,12.118C35.051,11.743 35.262,11.234 35.262,10.704L35.262,6.704C35.262,6.173 35.051,5.664 34.676,5.289C34.301,4.914 33.792,4.704 33.262,4.704L27.262,4.704ZM27.262,22.704L29.262,22.704C29.792,22.704 30.301,22.914 30.676,23.289C31.051,23.664 31.262,24.173 31.262,24.704L31.262,30.704C31.262,31.234 31.051,31.743 30.676,32.118C30.301,32.493 29.792,32.704 29.262,32.704L27.262,32.704C26.732,32.704 26.223,32.493 25.848,32.118C25.473,31.743 25.262,31.234 25.262,30.704L25.262,24.704C25.262,24.173 25.473,23.664 25.848,23.289C26.223,22.914 26.732,22.704 27.262,22.704L27.262,22.704Z" fill="#030303" stroke="#FFFFFF" stroke-width="0.1" stroke-miterlimit="3.999327"/>
</svg>
