<svg width="34" height="36" viewBox="0 0 34 36" fill="none" xmlns="http://www.w3.org/2000/svg" xmlns:xlink="http://www.w3.org/1999/xlink">
<path d="M33.68,17.225C33.68,17.976 33.392,18.703 32.853,19.229C32.327,19.768 31.6,20.068 30.848,20.068L19.519,20.068L19.519,31.393C19.519,32.145 19.218,32.872 18.679,33.398C18.153,33.924 17.439,34.225 16.687,34.225C15.935,34.225 15.208,33.924 14.682,33.398C14.143,32.872 13.842,32.145 13.842,31.393L13.842,20.068L2.513,20.068C1.761,20.068 1.034,19.768 0.508,19.229C-0.019,18.703 -0.32,17.976 -0.32,17.225C-0.32,16.473 -0.019,15.759 0.508,15.22C1.034,14.694 1.761,14.393 2.513,14.393L13.842,14.393L13.842,3.068C13.842,2.317 14.143,1.59 14.682,1.064C15.208,0.525 15.935,0.225 16.687,0.225C17.439,0.225 18.153,0.525 18.679,1.064C19.218,1.59 19.519,2.317 19.519,3.068L19.519,14.393L30.848,14.393C31.6,14.393 32.327,14.694 32.853,15.22C33.392,15.759 33.68,16.473 33.68,17.225Z" fill="#FFFFFF"/>
</svg>
