<svg width="18" height="28" viewBox="0 0 18 28" fill="none" xmlns="http://www.w3.org/2000/svg" xmlns:xlink="http://www.w3.org/1999/xlink">
<path d="M16.007,23.916C16.401,24.3 16.62,24.806 16.599,25.332C16.599,25.857 16.38,26.343 15.963,26.727C15.569,27.091 15.021,27.313 14.452,27.313C13.883,27.313 13.335,27.131 12.919,26.767L0.521,15.322C0.324,15.14 0.171,14.917 0.061,14.675C-0.048,14.432 -0.114,14.169 -0.114,13.906C-0.114,13.644 -0.048,13.381 0.061,13.118C0.171,12.875 0.324,12.653 0.521,12.471L12.919,1.025C13.116,0.843 13.357,0.681 13.62,0.58C13.904,0.479 14.189,0.418 14.474,0.418C14.759,0.418 15.065,0.459 15.328,0.56C15.591,0.661 15.832,0.823 16.051,1.005C16.248,1.187 16.401,1.43 16.511,1.672C16.642,1.915 16.686,2.178 16.686,2.461C16.686,2.724 16.62,2.987 16.511,3.229C16.401,3.472 16.226,3.694 16.007,3.897L5.165,13.906L7.224,15.787L16.007,23.916Z" transform="rotate(-360 8.286 13.866)" fill="#181725"/>
</svg>
