<svg width="34" height="6" viewBox="0 0 34 6" fill="none" xmlns="http://www.w3.org/2000/svg" xmlns:xlink="http://www.w3.org/1999/xlink">
<path d="M33.594,2.239C33.594,2.991 33.306,3.717 32.767,4.244C32.24,4.782 31.513,5.083 30.762,5.083L19.432,5.083L13.755,5.083L2.426,5.083C1.674,5.083 0.947,4.782 0.421,4.244C-0.105,3.717 -0.406,2.991 -0.406,2.239C-0.406,1.488 -0.105,0.773 0.421,0.235C0.947,-0.291 1.674,-0.592 2.426,-0.592L13.755,-0.592L19.432,-0.592L30.762,-0.592C31.513,-0.592 32.24,-0.291 32.767,0.235C33.306,0.773 33.594,1.488 33.594,2.239Z" fill="#B3B3B3"/>
</svg>
