<svg width="36" height="6" viewBox="0 0 36 6" fill="none" xmlns="http://www.w3.org/2000/svg" xmlns:xlink="http://www.w3.org/1999/xlink">
<path d="M34.033,2.275C34.033,3.027 33.745,3.754 33.206,4.28C32.68,4.818 31.953,5.119 31.201,5.119L19.872,5.119L14.195,5.119L2.865,5.119C2.114,5.119 1.387,4.818 0.86,4.28C0.334,3.754 0.033,3.027 0.033,2.275C0.033,1.524 0.334,0.81 0.86,0.271C1.387,-0.255 2.114,-0.556 2.865,-0.556L14.195,-0.556L19.872,-0.556L31.201,-0.556C31.953,-0.556 32.68,-0.255 33.206,0.271C33.745,0.81 34.033,1.524 34.033,2.275Z" fill="#B3B3B3"/>
</svg>
