<svg width="36" height="36" viewBox="0 0 36 36" fill="none" xmlns="http://www.w3.org/2000/svg" xmlns:xlink="http://www.w3.org/1999/xlink">
<path d="M15.519,27.143C17.095,27.143 18.655,26.833 20.111,26.23C21.567,25.627 22.89,24.743 24.004,23.628C25.119,22.514 26.003,21.191 26.606,19.735C27.209,18.279 27.519,16.719 27.519,15.143C27.519,13.567 27.209,12.007 26.606,10.551C26.003,9.095 25.119,7.772 24.004,6.658C22.89,5.544 21.567,4.66 20.111,4.057C18.655,3.453 17.095,3.143 15.519,3.143C12.336,3.143 9.284,4.407 7.034,6.658C4.783,8.908 3.519,11.96 3.519,15.143C3.519,18.326 4.783,21.378 7.034,23.628C9.284,25.879 12.336,27.143 15.519,27.143ZM28.159,24.955L35.319,32.115C35.51,32.3 35.662,32.52 35.767,32.765C35.871,33.009 35.926,33.271 35.928,33.537C35.931,33.802 35.88,34.066 35.779,34.311C35.678,34.557 35.53,34.78 35.342,34.968C35.154,35.155 34.93,35.304 34.685,35.404C34.439,35.505 34.175,35.555 33.91,35.552C33.644,35.55 33.382,35.495 33.138,35.39C32.894,35.285 32.673,35.132 32.489,34.941L25.329,27.781C22.114,30.277 18.069,31.453 14.017,31.071C9.965,30.689 6.21,28.778 3.518,25.725C0.826,22.673 -0.602,18.709 -0.474,14.641C-0.347,10.573 1.326,6.706 4.204,3.828C7.082,0.95 10.949,-0.723 15.017,-0.85C19.085,-0.978 23.049,0.45 26.101,3.142C29.154,5.834 31.065,9.589 31.447,13.641C31.829,17.693 30.653,21.738 28.157,24.953L28.159,24.955Z" fill="#181B19"/>
</svg>
