<svg width="34" height="36" viewBox="0 0 34 36" fill="none" xmlns="http://www.w3.org/2000/svg" xmlns:xlink="http://www.w3.org/1999/xlink">
<path d="M33.68,17.419C33.68,18.17 33.392,18.897 32.853,19.423C32.327,19.962 31.6,20.262 30.848,20.262L19.519,20.262L19.519,31.587C19.519,32.339 19.218,33.066 18.679,33.592C18.153,34.118 17.439,34.419 16.687,34.419C15.935,34.419 15.208,34.118 14.682,33.592C14.143,33.066 13.842,32.339 13.842,31.587L13.842,20.262L2.513,20.262C1.761,20.262 1.034,19.962 0.508,19.423C-0.019,18.897 -0.32,18.17 -0.32,17.419C-0.32,16.667 -0.019,15.953 0.508,15.414C1.034,14.888 1.761,14.587 2.513,14.587L13.842,14.587L13.842,3.262C13.842,2.511 14.143,1.784 14.682,1.258C15.208,0.719 15.935,0.419 16.687,0.419C17.439,0.419 18.153,0.719 18.679,1.258C19.218,1.784 19.519,2.511 19.519,3.262L19.519,14.587L30.848,14.587C31.6,14.587 32.327,14.888 32.853,15.414C33.392,15.953 33.68,16.667 33.68,17.419Z" fill="#FFFFFF"/>
</svg>
