<svg width="40" height="42" viewBox="0 0 40 42" fill="none" xmlns="http://www.w3.org/2000/svg" xmlns:xlink="http://www.w3.org/1999/xlink">
<path d="M11.976,4.704L5.976,4.704C5.446,4.704 4.937,4.914 4.562,5.289C4.187,5.664 3.976,6.173 3.976,6.704L3.976,10.704C3.976,11.234 4.187,11.743 4.562,12.118C4.937,12.493 5.446,12.704 5.976,12.704L9.976,12.704C10.507,12.704 11.015,12.493 11.39,12.118C11.765,11.743 11.976,11.234 11.976,10.704L11.976,4.704ZM5.996,16.704L5.996,36.634L9.976,36.634L9.976,26.704C9.976,25.643 10.398,24.625 11.148,23.875C11.898,23.125 12.915,22.704 13.976,22.704L17.976,22.704C19.037,22.704 20.054,23.125 20.804,23.875C21.555,24.625 21.976,25.643 21.976,26.704L21.976,36.634L34.002,36.634L34.002,16.704L29.976,16.704C28.44,16.704 27.036,16.126 25.976,15.176C24.877,16.161 23.452,16.706 21.976,16.704L17.976,16.704C16.44,16.704 15.036,16.126 13.976,15.176C12.877,16.161 11.452,16.706 9.976,16.704L5.996,16.704ZM1.996,15.196C1.36,14.633 0.851,13.941 0.503,13.167C0.154,12.393 -0.025,11.553 -0.024,10.704L-0.024,6.704C-0.024,5.112 0.608,3.586 1.733,2.461C2.859,1.336 4.385,0.704 5.976,0.704L33.976,0.704C35.567,0.704 37.093,1.336 38.219,2.461C39.344,3.586 39.976,5.112 39.976,6.704L39.976,10.704C39.976,12.468 39.216,14.056 38.002,15.154L38.002,36.634C38.002,37.694 37.581,38.712 36.83,39.462C36.08,40.212 35.063,40.634 34.002,40.634L18.722,40.634C18.476,40.68 18.226,40.704 17.976,40.704L13.976,40.704C13.726,40.704 13.476,40.68 13.23,40.634L5.998,40.634C4.937,40.634 3.92,40.212 3.17,39.462C2.42,38.712 1.998,37.694 1.998,36.634L1.998,15.194L1.996,15.196ZM17.976,36.636L17.976,26.704L13.976,26.704L13.976,36.634L17.976,36.634L17.976,36.636ZM23.976,4.704L15.976,4.704L15.976,10.704C15.976,11.234 16.187,11.743 16.562,12.118C16.937,12.493 17.446,12.704 17.976,12.704L21.976,12.704C22.506,12.704 23.015,12.493 23.39,12.118C23.765,11.743 23.976,11.234 23.976,10.704L23.976,4.704ZM27.976,4.704L27.976,10.704C27.976,11.234 28.187,11.743 28.562,12.118C28.937,12.493 29.446,12.704 29.976,12.704L33.976,12.704C34.506,12.704 35.015,12.493 35.39,12.118C35.765,11.743 35.976,11.234 35.976,10.704L35.976,6.704C35.976,6.173 35.765,5.664 35.39,5.289C35.015,4.914 34.506,4.704 33.976,4.704L27.976,4.704ZM27.976,22.704L29.976,22.704C30.506,22.704 31.015,22.914 31.39,23.289C31.765,23.664 31.976,24.173 31.976,24.704L31.976,30.704C31.976,31.234 31.765,31.743 31.39,32.118C31.015,32.493 30.506,32.704 29.976,32.704L27.976,32.704C27.446,32.704 26.937,32.493 26.562,32.118C26.187,31.743 25.976,31.234 25.976,30.704L25.976,24.704C25.976,24.173 26.187,23.664 26.562,23.289C26.937,22.914 27.446,22.704 27.976,22.704L27.976,22.704Z" fill="#181725" stroke="#FFFFFF" stroke-width="0.1" stroke-miterlimit="3.999327"/>
</svg>
