<svg width="34" height="36" viewBox="0 0 34 36" fill="none" xmlns="http://www.w3.org/2000/svg" xmlns:xlink="http://www.w3.org/1999/xlink">
<path d="M33.887,17.592C33.887,18.344 33.599,19.07 33.06,19.596C32.533,20.135 31.806,20.436 31.055,20.436L19.725,20.436L19.725,31.761C19.725,32.512 19.424,33.239 18.886,33.765C18.359,34.291 17.645,34.592 16.893,34.592C16.141,34.592 15.414,34.291 14.888,33.765C14.349,33.239 14.048,32.512 14.048,31.761L14.048,20.436L2.719,20.436C1.967,20.436 1.24,20.135 0.714,19.596C0.187,19.07 -0.113,18.344 -0.113,17.592C-0.113,16.84 0.187,16.126 0.714,15.588C1.24,15.061 1.967,14.761 2.719,14.761L14.048,14.761L14.048,3.436C14.048,2.684 14.349,1.958 14.888,1.431C15.414,0.893 16.141,0.592 16.893,0.592C17.645,0.592 18.359,0.893 18.886,1.431C19.424,1.958 19.725,2.684 19.725,3.436L19.725,14.761L31.055,14.761C31.806,14.761 32.533,15.061 33.06,15.588C33.599,16.126 33.887,16.84 33.887,17.592Z" fill="#FFFFFF"/>
</svg>
