<svg width="36" height="36" viewBox="0 0 36 36" fill="none" xmlns="http://www.w3.org/2000/svg" xmlns:xlink="http://www.w3.org/1999/xlink">
<path d="M34.725,17.454C34.725,18.206 34.436,18.932 33.897,19.459C33.371,19.997 32.644,20.298 31.892,20.298L20.563,20.298L20.563,31.623C20.563,32.375 20.262,33.101 19.724,33.627C19.197,34.154 18.483,34.454 17.731,34.454C16.979,34.454 16.252,34.154 15.726,33.627C15.187,33.101 14.886,32.375 14.886,31.623L14.886,20.298L3.557,20.298C2.805,20.298 2.078,19.997 1.552,19.459C1.025,18.932 0.725,18.206 0.725,17.454C0.725,16.702 1.025,15.988 1.552,15.45C2.078,14.924 2.805,14.623 3.557,14.623L14.886,14.623L14.886,3.298C14.886,2.546 15.187,1.82 15.726,1.293C16.252,0.755 16.979,0.454 17.731,0.454C18.483,0.454 19.197,0.755 19.724,1.293C20.262,1.82 20.563,2.546 20.563,3.298L20.563,14.623L31.892,14.623C32.644,14.623 33.371,14.924 33.897,15.45C34.436,15.988 34.725,16.702 34.725,17.454Z" fill="#53B175"/>
</svg>
