<svg width="32" height="32" viewBox="0 0 32 32" fill="none" xmlns="http://www.w3.org/2000/svg" xmlns:xlink="http://www.w3.org/1999/xlink">
<path d="M20.275,9.079L5.64,23.714L4.683,26.978L7.881,26.054L22.564,11.37L20.275,9.079ZM22.772,6.582L25.061,8.872L27.195,6.738C27.347,6.586 27.433,6.38 27.433,6.165C27.433,5.95 27.347,5.745 27.195,5.593L26.049,4.448C25.897,4.296 25.691,4.211 25.477,4.211C25.262,4.211 25.056,4.296 24.904,4.448L22.773,6.582L22.772,6.582ZM28.34,2.158L29.485,3.303C30.244,4.062 30.67,5.092 30.67,6.165C30.67,7.239 30.244,8.268 29.485,9.027L9.581,28.933L2.748,30.908C2.469,30.988 2.175,30.992 1.894,30.92C1.613,30.847 1.357,30.701 1.153,30.495C0.948,30.29 0.802,30.034 0.73,29.753C0.659,29.472 0.664,29.177 0.745,28.899L2.766,22.009L22.618,2.157C23.377,1.398 24.406,0.971 25.48,0.971C26.553,0.971 27.583,1.398 28.342,2.157L28.34,2.158Z" fill="#53B175"/>
</svg>
