<svg width="36" height="36" viewBox="0 0 36 36" fill="none" xmlns="http://www.w3.org/2000/svg" xmlns:xlink="http://www.w3.org/1999/xlink">
<path d="M34.206,17.259C34.206,18.011 33.917,18.738 33.378,19.264C32.852,19.803 32.125,20.103 31.373,20.103L20.044,20.103L20.044,31.428C20.044,32.18 19.743,32.906 19.204,33.433C18.678,33.959 17.964,34.259 17.212,34.259C16.46,34.259 15.733,33.959 15.207,33.433C14.668,32.906 14.367,32.18 14.367,31.428L14.367,20.103L3.038,20.103C2.286,20.103 1.559,19.803 1.033,19.264C0.506,18.738 0.206,18.011 0.206,17.259C0.206,16.508 0.506,15.794 1.033,15.255C1.559,14.729 2.286,14.428 3.038,14.428L14.367,14.428L14.367,3.103C14.367,2.352 14.668,1.625 15.207,1.099C15.733,0.56 16.46,0.259 17.212,0.259C17.964,0.259 18.678,0.56 19.204,1.099C19.743,1.625 20.044,2.352 20.044,3.103L20.044,14.428L31.373,14.428C32.125,14.428 32.852,14.729 33.378,15.255C33.917,15.794 34.206,16.508 34.206,17.259Z" fill="#FFFFFF"/>
</svg>
