<svg width="66" height="76" viewBox="0 0 66 76" fill="none" xmlns="http://www.w3.org/2000/svg" xmlns:xlink="http://www.w3.org/1999/xlink">
<path d="M34.147,-0.731C22.496,-0.731 12.884,4.002 7.968,11.321C7.167,12.559 6.767,13.906 6.767,15.216C6.767,18.857 9.68,22.243 13.794,22.243C16.197,22.243 18.491,20.969 19.619,18.857C22.022,14.343 27.156,11.575 33.746,11.575C43.722,11.575 49.402,16.272 49.402,24.792L49.402,25.702C49.402,28.433 47.291,30.69 44.56,30.836L29.268,31.71C10.845,32.875 0.759,40.448 0.759,53.519C0.759,66.845 11.063,75.62 25.991,75.62C36.149,75.62 45.434,70.559 49.548,62.44L49.876,62.44L49.876,67.755C49.876,69.722 50.677,71.506 51.951,72.816C53.262,74.091 55.046,74.892 57.012,74.892C60.944,74.892 64.112,71.688 64.112,67.755L64.112,23.7C64.112,8.918 52.352,-0.731 34.147,-0.731ZM49.402,46.856C49.402,56.65 41.028,63.75 29.96,63.75C21.367,63.75 15.796,59.636 15.796,53.228C15.796,46.638 21.112,42.851 31.27,42.232L49.402,40.994L49.402,46.856Z" fill="#FFFFFF"/>
</svg>
