<svg width="34" height="34" viewBox="0 0 34 34" fill="none" xmlns="http://www.w3.org/2000/svg" xmlns:xlink="http://www.w3.org/1999/xlink">
<path d="M33.206,16.846C33.206,17.598 32.917,18.325 32.378,18.851C31.852,19.389 31.125,19.69 30.373,19.69L19.044,19.69L19.044,31.015C19.044,31.767 18.743,32.493 18.204,33.019C17.678,33.546 16.964,33.846 16.212,33.846C15.46,33.846 14.733,33.546 14.207,33.019C13.668,32.493 13.367,31.767 13.367,31.015L13.367,19.69L2.038,19.69C1.286,19.69 0.559,19.389 0.033,18.851C-0.494,18.325 -0.794,17.598 -0.794,16.846C-0.794,16.095 -0.494,15.381 0.033,14.842C0.559,14.316 1.286,14.015 2.038,14.015L13.367,14.015L13.367,2.69C13.367,1.938 13.668,1.212 14.207,0.686C14.733,0.147 15.46,-0.154 16.212,-0.154C16.964,-0.154 17.678,0.147 18.204,0.686C18.743,1.212 19.044,1.938 19.044,2.69L19.044,14.015L30.373,14.015C31.125,14.015 31.852,14.316 32.378,14.842C32.917,15.381 33.206,16.095 33.206,16.846Z" fill="#FFFFFF"/>
</svg>
