<svg width="34" height="36" viewBox="0 0 34 36" fill="none" xmlns="http://www.w3.org/2000/svg" xmlns:xlink="http://www.w3.org/1999/xlink">
<path d="M33.105,17.259C33.105,18.011 32.817,18.738 32.278,19.264C31.752,19.803 31.025,20.103 30.273,20.103L18.944,20.103L18.944,31.428C18.944,32.18 18.643,32.906 18.104,33.433C17.578,33.959 16.864,34.259 16.112,34.259C15.36,34.259 14.633,33.959 14.107,33.433C13.568,32.906 13.267,32.18 13.267,31.428L13.267,20.103L1.938,20.103C1.186,20.103 0.459,19.803 -0.067,19.264C-0.594,18.738 -0.895,18.011 -0.895,17.259C-0.895,16.508 -0.594,15.794 -0.067,15.255C0.459,14.729 1.186,14.428 1.938,14.428L13.267,14.428L13.267,3.103C13.267,2.352 13.568,1.625 14.107,1.099C14.633,0.56 15.36,0.259 16.112,0.259C16.864,0.259 17.578,0.56 18.104,1.099C18.643,1.625 18.944,2.352 18.944,3.103L18.944,14.428L30.273,14.428C31.025,14.428 31.752,14.729 32.278,15.255C32.817,15.794 33.105,16.508 33.105,17.259Z" fill="#FFFFFF"/>
</svg>
