<svg width="26" height="32" viewBox="0 0 26 32" fill="none" xmlns="http://www.w3.org/2000/svg" xmlns:xlink="http://www.w3.org/1999/xlink">
<path d="M14.678,-0.052C10.375,-0.052 7.579,1.841 5.882,5.434L5.787,5.434L5.787,3.198C5.787,1.588 4.593,0.291 3.127,0.291C1.66,0.291 0.479,1.588 0.479,3.198L0.479,27.926C0.479,29.536 1.66,30.848 3.127,30.848L3.384,30.848C4.85,30.848 6.045,29.536 6.045,27.926L6.045,13.199C6.045,8.385 8.556,5.18 12.751,5.18C16.823,5.18 18.778,7.774 18.778,12.409L18.778,27.926C18.778,29.536 19.959,30.848 21.425,30.848L21.683,30.848C23.149,30.848 24.33,29.536 24.33,27.926L24.33,11.262C24.33,4.226 20.827,-0.052 14.678,-0.052Z" fill="#D9D9D9"/>
</svg>
