<svg width="20" height="36" viewBox="0 0 20 36" fill="none" xmlns="http://www.w3.org/2000/svg" xmlns:xlink="http://www.w3.org/1999/xlink">
<path d="M18.732,31.453C19.201,31.967 19.462,32.644 19.436,33.347C19.436,34.051 19.175,34.701 18.68,35.215C18.21,35.702 17.558,36 16.88,36C16.202,36 15.55,35.756 15.055,35.269L0.296,19.949C0.062,19.705 -0.121,19.408 -0.251,19.083C-0.382,18.758 -0.46,18.406 -0.46,18.054C-0.46,17.702 -0.382,17.35 -0.251,16.998C-0.121,16.674 0.062,16.376 0.296,16.132L15.055,0.812C15.29,0.568 15.577,0.352 15.889,0.217C16.228,0.081 16.567,0 16.906,0C17.245,0 17.61,0.054 17.923,0.189C18.236,0.325 18.523,0.541 18.784,0.785C19.019,1.029 19.201,1.353 19.331,1.678C19.488,2.003 19.54,2.355 19.54,2.734C19.54,3.086 19.462,3.438 19.331,3.762C19.201,4.087 18.992,4.385 18.732,4.656L5.824,18.054L8.275,20.571L18.732,31.453Z" fill="#181725"/>
</svg>
