<svg width="34" height="36" viewBox="0 0 34 36" fill="none" xmlns="http://www.w3.org/2000/svg" xmlns:xlink="http://www.w3.org/1999/xlink">
<path d="M33.164,17.454C33.164,18.206 32.876,18.932 32.337,19.459C31.811,19.997 31.084,20.298 30.332,20.298L19.003,20.298L19.003,31.623C19.003,32.375 18.702,33.101 18.163,33.627C17.637,34.154 16.922,34.454 16.17,34.454C15.418,34.454 14.692,34.154 14.165,33.627C13.626,33.101 13.326,32.375 13.326,31.623L13.326,20.298L1.996,20.298C1.244,20.298 0.518,19.997 -0.009,19.459C-0.535,18.932 -0.836,18.206 -0.836,17.454C-0.836,16.702 -0.535,15.988 -0.009,15.45C0.518,14.924 1.244,14.623 1.996,14.623L13.326,14.623L13.326,3.298C13.326,2.546 13.626,1.82 14.165,1.293C14.692,0.755 15.418,0.454 16.17,0.454C16.922,0.454 17.637,0.755 18.163,1.293C18.702,1.82 19.003,2.546 19.003,3.298L19.003,14.623L30.332,14.623C31.084,14.623 31.811,14.924 32.337,15.45C32.876,15.988 33.164,16.702 33.164,17.454Z" fill="#53B175"/>
</svg>
