<svg width="42" height="28" viewBox="0 0 42 28" fill="none" xmlns="http://www.w3.org/2000/svg" xmlns:xlink="http://www.w3.org/1999/xlink">
<path d="M36.183,8.532L36.183,4.69L4.183,4.69L4.183,8.532L36.183,8.532ZM36.183,12.374L4.183,12.374L4.183,23.9L36.183,23.9L36.183,12.374ZM4.183,0.848L36.183,0.848C37.244,0.848 38.261,1.252 39.012,1.973C39.762,2.694 40.183,3.671 40.183,4.69L40.183,23.9C40.183,24.919 39.762,25.897 39.012,26.617C38.261,27.338 37.244,27.743 36.183,27.743L4.183,27.743C3.122,27.743 2.105,27.338 1.355,26.617C0.605,25.897 0.183,24.919 0.183,23.9L0.183,4.69C0.183,3.671 0.605,2.694 1.355,1.973C2.105,1.252 3.122,0.848 4.183,0.848ZM8.183,16.216L10.183,16.216C10.714,16.216 11.222,16.419 11.597,16.779C11.972,17.139 12.183,17.628 12.183,18.137C12.183,18.647 11.972,19.135 11.597,19.496C11.222,19.856 10.714,20.058 10.183,20.058L8.183,20.058C7.653,20.058 7.144,19.856 6.769,19.496C6.394,19.135 6.183,18.647 6.183,18.137C6.183,17.628 6.394,17.139 6.769,16.779C7.144,16.419 7.653,16.216 8.183,16.216ZM18.183,16.216L28.183,16.216C28.714,16.216 29.222,16.419 29.597,16.779C29.972,17.139 30.183,17.628 30.183,18.137C30.183,18.647 29.972,19.135 29.597,19.496C29.222,19.856 28.714,20.058 28.183,20.058L18.183,20.058C17.653,20.058 17.144,19.856 16.769,19.496C16.394,19.135 16.183,18.647 16.183,18.137C16.183,17.628 16.394,17.139 16.769,16.779C17.144,16.419 17.653,16.216 18.183,16.216Z" fill="#181725"/>
</svg>
