<svg width="40" height="30" viewBox="0 0 40 30" fill="none" xmlns="http://www.w3.org/2000/svg" xmlns:xlink="http://www.w3.org/1999/xlink">
<path d="M38.215,4.651C38.215,5.894 37.745,7.093 36.891,7.95L17.038,27.911C16.141,28.768 14.946,29.282 13.708,29.282C12.47,29.282 11.274,28.768 10.42,27.911L0.472,17.93C-0.381,17.074 -0.851,15.874 -0.851,14.632C-0.851,13.39 -0.339,12.233 0.515,11.334C1.412,10.477 2.564,10.006 3.803,9.963C5.041,9.963 6.194,10.434 7.09,11.291L13.708,17.93L30.273,1.31C31.17,0.454 32.323,-0.018 33.561,-0.018C34.799,0.025 35.952,0.496 36.848,1.396C37.702,2.253 38.215,3.409 38.215,4.651Z" fill="#53B175" stroke="#FCFCFC" stroke-width="0.9" stroke-miterlimit="3.999327"/>
</svg>
