<svg width="42" height="42" viewBox="0 0 42 42" fill="none" xmlns="http://www.w3.org/2000/svg" xmlns:xlink="http://www.w3.org/1999/xlink">
<path d="M12.913,4.704L6.913,4.704C6.383,4.704 5.874,4.914 5.499,5.289C5.124,5.664 4.913,6.173 4.913,6.704L4.913,10.704C4.913,11.234 5.124,11.743 5.499,12.118C5.874,12.493 6.383,12.704 6.913,12.704L10.913,12.704C11.444,12.704 11.952,12.493 12.327,12.118C12.702,11.743 12.913,11.234 12.913,10.704L12.913,4.704ZM6.933,16.704L6.933,36.634L10.913,36.634L10.913,26.704C10.913,25.643 11.335,24.625 12.085,23.875C12.835,23.125 13.852,22.704 14.913,22.704L18.913,22.704C19.974,22.704 20.991,23.125 21.741,23.875C22.492,24.625 22.913,25.643 22.913,26.704L22.913,36.634L34.939,36.634L34.939,16.704L30.913,16.704C29.377,16.704 27.973,16.126 26.913,15.176C25.814,16.161 24.389,16.706 22.913,16.704L18.913,16.704C17.377,16.704 15.973,16.126 14.913,15.176C13.814,16.161 12.389,16.706 10.913,16.704L6.933,16.704ZM2.933,15.196C2.297,14.633 1.788,13.941 1.44,13.167C1.091,12.393 0.912,11.553 0.913,10.704L0.913,6.704C0.913,5.112 1.545,3.586 2.67,2.461C3.796,1.336 5.322,0.704 6.913,0.704L34.913,0.704C36.504,0.704 38.03,1.336 39.156,2.461C40.281,3.586 40.913,5.112 40.913,6.704L40.913,10.704C40.913,12.468 40.153,14.056 38.939,15.154L38.939,36.634C38.939,37.694 38.518,38.712 37.767,39.462C37.017,40.212 36,40.634 34.939,40.634L19.659,40.634C19.413,40.68 19.163,40.704 18.913,40.704L14.913,40.704C14.663,40.704 14.413,40.68 14.167,40.634L6.935,40.634C5.874,40.634 4.857,40.212 4.107,39.462C3.357,38.712 2.935,37.694 2.935,36.634L2.935,15.194L2.933,15.196ZM18.913,36.636L18.913,26.704L14.913,26.704L14.913,36.634L18.913,36.634L18.913,36.636ZM24.913,4.704L16.913,4.704L16.913,10.704C16.913,11.234 17.124,11.743 17.499,12.118C17.874,12.493 18.383,12.704 18.913,12.704L22.913,12.704C23.443,12.704 23.952,12.493 24.327,12.118C24.702,11.743 24.913,11.234 24.913,10.704L24.913,4.704ZM28.913,4.704L28.913,10.704C28.913,11.234 29.124,11.743 29.499,12.118C29.874,12.493 30.383,12.704 30.913,12.704L34.913,12.704C35.443,12.704 35.952,12.493 36.327,12.118C36.702,11.743 36.913,11.234 36.913,10.704L36.913,6.704C36.913,6.173 36.702,5.664 36.327,5.289C35.952,4.914 35.443,4.704 34.913,4.704L28.913,4.704ZM28.913,22.704L30.913,22.704C31.443,22.704 31.952,22.914 32.327,23.289C32.702,23.664 32.913,24.173 32.913,24.704L32.913,30.704C32.913,31.234 32.702,31.743 32.327,32.118C31.952,32.493 31.443,32.704 30.913,32.704L28.913,32.704C28.383,32.704 27.874,32.493 27.499,32.118C27.124,31.743 26.913,31.234 26.913,30.704L26.913,24.704C26.913,24.173 27.124,23.664 27.499,23.289C27.874,22.914 28.383,22.704 28.913,22.704L28.913,22.704Z" fill="#181725" stroke="#FFFFFF" stroke-width="0.1" stroke-miterlimit="3.999327"/>
</svg>
