<svg width="14" height="14" viewBox="0 0 14 14" fill="none" xmlns="http://www.w3.org/2000/svg" xmlns:xlink="http://www.w3.org/1999/xlink">
<path d="M12.924,6.224C12.924,6.491 12.819,6.749 12.621,6.936C12.429,7.127 12.163,7.234 11.888,7.234L7.744,7.234L7.744,11.257C7.744,11.524 7.634,11.782 7.437,11.969C7.244,12.156 6.983,12.263 6.708,12.263C6.433,12.263 6.167,12.156 5.974,11.969C5.777,11.782 5.667,11.524 5.667,11.257L5.667,7.234L1.523,7.234C1.248,7.234 0.982,7.127 0.79,6.936C0.597,6.749 0.487,6.491 0.487,6.224C0.487,5.956 0.597,5.703 0.79,5.511C0.982,5.325 1.248,5.218 1.523,5.218L5.667,5.218L5.667,1.195C5.667,0.928 5.777,0.669 5.974,0.483C6.167,0.291 6.433,0.184 6.708,0.184C6.983,0.184 7.244,0.291 7.437,0.483C7.634,0.669 7.744,0.928 7.744,1.195L7.744,5.218L11.888,5.218C12.163,5.218 12.429,5.325 12.621,5.511C12.819,5.703 12.924,5.956 12.924,6.224Z" fill="#FFFFFF"/>
</svg>
