<svg width="18" height="30" viewBox="0 0 18 30" fill="none" xmlns="http://www.w3.org/2000/svg" xmlns:xlink="http://www.w3.org/1999/xlink">
<path d="M16.474,25.222C16.868,25.622 17.087,26.148 17.065,26.695C17.065,27.243 16.846,27.748 16.43,28.148C16.036,28.527 15.488,28.759 14.918,28.759C14.349,28.759 13.801,28.569 13.385,28.19L0.988,16.274C0.791,16.085 0.637,15.853 0.528,15.601C0.418,15.348 0.353,15.074 0.353,14.801C0.353,14.527 0.418,14.253 0.528,13.98C0.637,13.727 0.791,13.495 0.988,13.306L13.385,1.39C13.582,1.201 13.823,1.032 14.086,0.927C14.371,0.822 14.656,0.759 14.94,0.759C15.225,0.759 15.532,0.801 15.795,0.906C16.057,1.011 16.298,1.18 16.517,1.369C16.715,1.559 16.868,1.811 16.977,2.064C17.109,2.316 17.153,2.59 17.153,2.885C17.153,3.159 17.087,3.432 16.977,3.685C16.868,3.937 16.693,4.169 16.474,4.38L5.631,14.801L7.69,16.759L16.474,25.222Z" transform="rotate(-360 8.753 14.759)" fill="#181725"/>
</svg>
