<svg width="36" height="36" viewBox="0 0 36 36" fill="none" xmlns="http://www.w3.org/2000/svg" xmlns:xlink="http://www.w3.org/1999/xlink">
<path d="M34.725,17.444C34.725,18.196 34.436,18.922 33.897,19.449C33.371,19.987 32.644,20.288 31.892,20.288L20.563,20.288L20.563,31.613C20.563,32.364 20.262,33.091 19.724,33.617C19.197,34.143 18.483,34.444 17.731,34.444C16.979,34.444 16.252,34.143 15.726,33.617C15.187,33.091 14.886,32.364 14.886,31.613L14.886,20.288L3.557,20.288C2.805,20.288 2.078,19.987 1.552,19.449C1.025,18.922 0.725,18.196 0.725,17.444C0.725,16.692 1.025,15.978 1.552,15.44C2.078,14.914 2.805,14.613 3.557,14.613L14.886,14.613L14.886,3.288C14.886,2.536 15.187,1.81 15.726,1.283C16.252,0.745 16.979,0.444 17.731,0.444C18.483,0.444 19.197,0.745 19.724,1.283C20.262,1.81 20.563,2.536 20.563,3.288L20.563,14.613L31.892,14.613C32.644,14.613 33.371,14.914 33.897,15.44C34.436,15.978 34.725,16.692 34.725,17.444Z" fill="#53B175"/>
</svg>
