<svg width="46" height="40" viewBox="0 0 46 40" fill="none" xmlns="http://www.w3.org/2000/svg" xmlns:xlink="http://www.w3.org/1999/xlink">
<path d="M17.97,39.036C16.673,39.036 15.429,38.521 14.512,37.604C13.594,36.686 13.079,35.442 13.079,34.145C13.079,32.848 13.594,31.604 14.512,30.687C15.429,29.77 16.673,29.255 17.97,29.255C19.267,29.255 20.511,29.77 21.428,30.687C22.345,31.604 22.861,32.848 22.861,34.145C22.861,35.442 22.345,36.686 21.428,37.604C20.511,38.521 19.267,39.036 17.97,39.036ZM35.087,39.036C33.79,39.036 32.546,38.521 31.629,37.604C30.712,36.686 30.197,35.442 30.197,34.145C30.197,32.848 30.712,31.604 31.629,30.687C32.546,29.77 33.79,29.255 35.087,29.255C36.385,29.255 37.629,29.77 38.546,30.687C39.463,31.604 39.978,32.848 39.978,34.145C39.978,35.442 39.463,36.686 38.546,37.604C37.629,38.521 36.385,39.036 35.087,39.036ZM3.205,4.613C2.594,4.593 2.016,4.337 1.591,3.898C1.166,3.459 0.928,2.872 0.928,2.261C0.928,1.651 1.166,1.064 1.591,0.625C2.016,0.186 2.594,-0.07 3.205,-0.09L6.019,-0.09C8.225,-0.09 10.133,1.441 10.612,3.593L13.676,17.39C14.155,19.542 16.063,21.072 18.268,21.072L36.638,21.072L40.164,6.963L17.312,6.963C16.707,6.935 16.137,6.675 15.718,6.238C15.3,5.8 15.067,5.218 15.067,4.613C15.067,4.007 15.3,3.425 15.718,2.988C16.137,2.55 16.707,2.29 17.312,2.263L40.164,2.263C40.879,2.262 41.584,2.425 42.227,2.739C42.869,3.052 43.432,3.508 43.872,4.071C44.312,4.635 44.618,5.291 44.766,5.99C44.914,6.69 44.901,7.414 44.727,8.107L41.201,22.212C40.947,23.23 40.359,24.133 39.533,24.779C38.706,25.424 37.687,25.775 36.638,25.775L18.268,25.775C16.128,25.775 14.052,25.045 12.382,23.706C10.713,22.367 9.55,20.499 9.086,18.409L6.019,4.613L3.205,4.613Z" fill="#181725"/>
</svg>
