<svg width="18" height="30" viewBox="0 0 18 30" fill="none" xmlns="http://www.w3.org/2000/svg" xmlns:xlink="http://www.w3.org/1999/xlink">
<path d="M16.007,24.758C16.401,25.158 16.62,25.684 16.598,26.232C16.598,26.779 16.379,27.284 15.963,27.684C15.569,28.063 15.021,28.295 14.452,28.295C13.882,28.295 13.335,28.106 12.919,27.727L0.521,15.811C0.324,15.621 0.171,15.39 0.061,15.137C-0.048,14.884 -0.114,14.611 -0.114,14.337C-0.114,14.063 -0.048,13.79 0.061,13.516C0.171,13.263 0.324,13.032 0.521,12.842L12.919,0.926C13.116,0.737 13.357,0.569 13.62,0.463C13.904,0.358 14.189,0.295 14.474,0.295C14.759,0.295 15.065,0.337 15.328,0.442C15.591,0.548 15.832,0.716 16.051,0.905C16.248,1.095 16.401,1.348 16.511,1.6C16.642,1.853 16.686,2.126 16.686,2.421C16.686,2.695 16.62,2.969 16.511,3.221C16.401,3.474 16.226,3.705 16.007,3.916L5.165,14.337L7.224,16.295L16.007,24.758Z" transform="rotate(-360 8.286 14.295)" fill="#181725"/>
</svg>
