<svg width="22" height="38" viewBox="0 0 22 38" fill="none" xmlns="http://www.w3.org/2000/svg" xmlns:xlink="http://www.w3.org/1999/xlink">
<path d="M19.802,31.654C20.271,32.168 20.532,32.845 20.506,33.548C20.506,34.252 20.245,34.902 19.75,35.416C19.28,35.903 18.628,36.201 17.95,36.201C17.272,36.201 16.621,35.957 16.125,35.47L1.366,20.15C1.132,19.906 0.949,19.608 0.819,19.284C0.688,18.959 0.61,18.607 0.61,18.255C0.61,17.903 0.688,17.551 0.819,17.199C0.949,16.875 1.132,16.577 1.366,16.333L16.125,1.013C16.36,0.769 16.647,0.553 16.96,0.417C17.299,0.282 17.637,0.201 17.976,0.201C18.315,0.201 18.681,0.255 18.993,0.39C19.306,0.526 19.593,0.742 19.854,0.986C20.089,1.229 20.271,1.554 20.402,1.879C20.558,2.204 20.61,2.556 20.61,2.935C20.61,3.287 20.532,3.639 20.402,3.963C20.271,4.288 20.063,4.586 19.802,4.857L6.894,18.255L9.345,20.772L19.802,31.654Z" fill="#181725"/>
</svg>
