<svg width="36" height="36" viewBox="0 0 36 36" fill="none" xmlns="http://www.w3.org/2000/svg" xmlns:xlink="http://www.w3.org/1999/xlink">
<path d="M34.693,17.866C34.693,18.618 34.405,19.344 33.866,19.871C33.339,20.409 32.612,20.71 31.861,20.71L20.531,20.71L20.531,32.035C20.531,32.787 20.231,33.513 19.692,34.039C19.165,34.566 18.451,34.866 17.699,34.866C16.947,34.866 16.22,34.566 15.694,34.039C15.155,33.513 14.854,32.787 14.854,32.035L14.854,20.71L3.525,20.71C2.773,20.71 2.046,20.409 1.52,19.871C0.994,19.344 0.693,18.618 0.693,17.866C0.693,17.115 0.994,16.4 1.52,15.862C2.046,15.336 2.773,15.035 3.525,15.035L14.854,15.035L14.854,3.71C14.854,2.958 15.155,2.232 15.694,1.706C16.22,1.167 16.947,0.866 17.699,0.866C18.451,0.866 19.165,1.167 19.692,1.706C20.231,2.232 20.531,2.958 20.531,3.71L20.531,15.035L31.861,15.035C32.612,15.035 33.339,15.336 33.866,15.862C34.405,16.4 34.693,17.115 34.693,17.866Z" fill="#FFFFFF"/>
</svg>
