<svg width="78" height="92" viewBox="0 0 78 92" fill="none" xmlns="http://www.w3.org/2000/svg" xmlns:xlink="http://www.w3.org/1999/xlink">
<path d="M46.386,0.131C32.396,0.131 23.305,5.733 17.789,16.364L17.48,16.364L17.48,9.747C17.48,4.983 13.596,1.146 8.83,1.146C4.064,1.146 0.225,4.983 0.225,9.747L0.225,82.924C0.225,87.688 4.064,91.57 8.83,91.57L9.669,91.57C14.435,91.57 18.318,87.688 18.318,82.924L18.318,39.344C18.318,25.097 26.483,15.614 40.119,15.614C53.359,15.614 59.714,23.289 59.714,37.007L59.714,82.924C59.714,87.688 63.553,91.57 68.319,91.57L69.158,91.57C73.924,91.57 77.763,87.688 77.763,82.924L77.763,33.61C77.763,12.791 66.377,0.131 46.386,0.131Z" fill="#FFFFFF"/>
</svg>
