<svg width="46" height="40" viewBox="0 0 46 40" fill="none" xmlns="http://www.w3.org/2000/svg" xmlns:xlink="http://www.w3.org/1999/xlink">
<path d="M17.365,38.704C16.068,38.704 14.824,38.188 13.907,37.271C12.99,36.354 12.474,35.11 12.474,33.813C12.474,32.516 12.99,31.272 13.907,30.355C14.824,29.437 16.068,28.922 17.365,28.922C18.662,28.922 19.906,29.437 20.823,30.355C21.74,31.272 22.256,32.516 22.256,33.813C22.256,35.11 21.74,36.354 20.823,37.271C19.906,38.188 18.662,38.704 17.365,38.704ZM34.482,38.704C33.185,38.704 31.941,38.188 31.024,37.271C30.107,36.354 29.592,35.11 29.592,33.813C29.592,32.516 30.107,31.272 31.024,30.355C31.941,29.437 33.185,28.922 34.482,28.922C35.78,28.922 37.024,29.437 37.941,30.355C38.858,31.272 39.373,32.516 39.373,33.813C39.373,35.11 38.858,36.354 37.941,37.271C37.024,38.188 35.78,38.704 34.482,38.704ZM2.6,4.28C1.989,4.26 1.411,4.004 0.986,3.565C0.561,3.127 0.323,2.54 0.323,1.929C0.323,1.318 0.561,0.731 0.986,0.293C1.411,-0.146 1.989,-0.403 2.6,-0.422L5.414,-0.422C7.62,-0.422 9.528,1.109 10.007,3.26L13.071,17.057C13.55,19.209 15.458,20.74 17.663,20.74L36.033,20.74L39.559,6.63L16.707,6.63C16.102,6.603 15.532,6.343 15.113,5.905C14.695,5.468 14.462,4.886 14.462,4.28C14.462,3.675 14.695,3.093 15.113,2.655C15.532,2.217 16.102,1.958 16.707,1.93L39.559,1.93C40.274,1.93 40.979,2.093 41.622,2.406C42.264,2.72 42.827,3.175 43.267,3.739C43.707,4.302 44.013,4.959 44.161,5.658C44.309,6.357 44.296,7.081 44.122,7.775L40.596,21.88C40.342,22.897 39.754,23.801 38.928,24.446C38.101,25.092 37.082,25.443 36.033,25.442L17.663,25.442C15.523,25.443 13.447,24.713 11.777,23.374C10.108,22.035 8.945,20.166 8.481,18.077L5.414,4.28L2.6,4.28Z" fill="#181725"/>
</svg>
