<svg width="44" height="40" viewBox="0 0 44 40" fill="none" xmlns="http://www.w3.org/2000/svg" xmlns:xlink="http://www.w3.org/1999/xlink">
<path d="M16.428,38.703C15.131,38.703 13.887,38.188 12.97,37.271C12.052,36.354 11.537,35.11 11.537,33.813C11.537,32.516 12.052,31.272 12.97,30.354C13.887,29.437 15.131,28.922 16.428,28.922C17.725,28.922 18.969,29.437 19.886,30.354C20.803,31.272 21.319,32.516 21.319,33.813C21.319,35.11 20.803,36.354 19.886,37.271C18.969,38.188 17.725,38.703 16.428,38.703ZM33.545,38.703C32.248,38.703 31.004,38.188 30.087,37.271C29.17,36.354 28.655,35.11 28.655,33.813C28.655,32.516 29.17,31.272 30.087,30.354C31.004,29.437 32.248,28.922 33.545,28.922C34.843,28.922 36.087,29.437 37.004,30.354C37.921,31.272 38.436,32.516 38.436,33.813C38.436,35.11 37.921,36.354 37.004,37.271C36.087,38.188 34.843,38.703 33.545,38.703ZM1.663,4.28C1.052,4.26 0.474,4.004 0.049,3.565C-0.376,3.126 -0.614,2.54 -0.614,1.929C-0.614,1.318 -0.376,0.731 0.049,0.292C0.474,-0.146 1.052,-0.403 1.663,-0.422L4.477,-0.422C6.683,-0.422 8.591,1.108 9.07,3.26L12.134,17.057C12.613,19.209 14.521,20.74 16.726,20.74L35.096,20.74L38.622,6.63L15.77,6.63C15.165,6.602 14.595,6.343 14.176,5.905C13.758,5.467 13.525,4.885 13.525,4.28C13.525,3.675 13.758,3.093 14.176,2.655C14.595,2.217 15.165,1.958 15.77,1.93L38.622,1.93C39.337,1.93 40.042,2.093 40.685,2.406C41.327,2.719 41.89,3.175 42.33,3.739C42.77,4.302 43.076,4.958 43.224,5.658C43.372,6.357 43.359,7.081 43.185,7.774L39.659,21.879C39.405,22.897 38.817,23.801 37.991,24.446C37.164,25.092 36.145,25.442 35.096,25.442L16.726,25.442C14.586,25.443 12.51,24.713 10.84,23.374C9.171,22.035 8.008,20.166 7.544,18.077L4.477,4.28L1.663,4.28Z" fill="#181725"/>
</svg>
