<svg width="34" height="34" viewBox="0 0 34 34" fill="none" xmlns="http://www.w3.org/2000/svg" xmlns:xlink="http://www.w3.org/1999/xlink">
<path d="M33.34,16.717C33.34,17.47 33.052,18.197 32.513,18.724C31.986,19.263 31.259,19.564 30.508,19.564L19.178,19.564L19.178,30.901C19.178,31.654 18.878,32.381 18.339,32.908C17.812,33.435 17.098,33.736 16.346,33.736C15.594,33.736 14.867,33.435 14.341,32.908C13.802,32.381 13.501,31.654 13.501,30.901L13.501,19.564L2.172,19.564C1.42,19.564 0.693,19.263 0.167,18.724C-0.359,18.197 -0.66,17.47 -0.66,16.717C-0.66,15.965 -0.359,15.25 0.167,14.711C0.693,14.184 1.42,13.883 2.172,13.883L13.501,13.883L13.501,2.546C13.501,1.794 13.802,1.066 14.341,0.539C14.867,0 15.594,-0.301 16.346,-0.301C17.098,-0.301 17.812,0 18.339,0.539C18.878,1.066 19.178,1.794 19.178,2.546L19.178,13.883L30.508,13.883C31.259,13.883 31.986,14.184 32.513,14.711C33.052,15.25 33.34,15.965 33.34,16.717Z" fill="#53B175"/>
</svg>
