<svg width="34" height="36" viewBox="0 0 34 36" fill="none" xmlns="http://www.w3.org/2000/svg" xmlns:xlink="http://www.w3.org/1999/xlink">
<path d="M33.206,17.259C33.206,18.011 32.917,18.738 32.378,19.264C31.852,19.803 31.125,20.103 30.373,20.103L19.044,20.103L19.044,31.428C19.044,32.18 18.743,32.906 18.204,33.433C17.678,33.959 16.964,34.259 16.212,34.259C15.46,34.259 14.733,33.959 14.207,33.433C13.668,32.906 13.367,32.18 13.367,31.428L13.367,20.103L2.038,20.103C1.286,20.103 0.559,19.803 0.033,19.264C-0.494,18.738 -0.794,18.011 -0.794,17.259C-0.794,16.508 -0.494,15.794 0.033,15.255C0.559,14.729 1.286,14.428 2.038,14.428L13.367,14.428L13.367,3.103C13.367,2.352 13.668,1.625 14.207,1.099C14.733,0.56 15.46,0.259 16.212,0.259C16.964,0.259 17.678,0.56 18.204,1.099C18.743,1.625 19.044,2.352 19.044,3.103L19.044,14.428L30.373,14.428C31.125,14.428 31.852,14.729 32.378,15.255C32.917,15.794 33.206,16.508 33.206,17.259Z" fill="#FFFFFF"/>
</svg>
