<svg width="14" height="14" viewBox="0 0 14 14" fill="none" xmlns="http://www.w3.org/2000/svg" xmlns:xlink="http://www.w3.org/1999/xlink">
<path d="M13.377,6.224C13.377,6.491 13.269,6.749 13.068,6.936C12.872,7.127 12.601,7.234 12.32,7.234L8.094,7.234L8.094,11.257C8.094,11.524 7.982,11.782 7.781,11.969C7.585,12.156 7.318,12.263 7.038,12.263C6.757,12.263 6.486,12.156 6.29,11.969C6.089,11.782 5.977,11.524 5.977,11.257L5.977,7.234L1.751,7.234C1.47,7.234 1.199,7.127 1.003,6.936C0.807,6.749 0.694,6.491 0.694,6.224C0.694,5.956 0.807,5.703 1.003,5.511C1.199,5.325 1.47,5.218 1.751,5.218L5.977,5.218L5.977,1.195C5.977,0.928 6.089,0.669 6.29,0.483C6.486,0.291 6.757,0.184 7.038,0.184C7.318,0.184 7.585,0.291 7.781,0.483C7.982,0.669 8.094,0.928 8.094,1.195L8.094,5.218L12.32,5.218C12.601,5.218 12.872,5.325 13.068,5.511C13.269,5.703 13.377,5.956 13.377,6.224Z" fill="#FFFFFF"/>
</svg>
