<svg width="36" height="36" viewBox="0 0 36 36" fill="none" xmlns="http://www.w3.org/2000/svg" xmlns:xlink="http://www.w3.org/1999/xlink">
<path d="M34.914,17.258C34.914,18.01 34.626,18.736 34.087,19.262C33.56,19.801 32.833,20.102 32.082,20.102L20.752,20.102L20.752,31.427C20.752,32.178 20.452,32.905 19.913,33.431C19.386,33.957 18.672,34.258 17.92,34.258C17.168,34.258 16.441,33.957 15.915,33.431C15.376,32.905 15.075,32.178 15.075,31.427L15.075,20.102L3.746,20.102C2.994,20.102 2.267,19.801 1.741,19.262C1.215,18.736 0.914,18.01 0.914,17.258C0.914,16.506 1.215,15.792 1.741,15.253C2.267,14.727 2.994,14.427 3.746,14.427L15.075,14.427L15.075,3.102C15.075,2.35 15.376,1.623 15.915,1.097C16.441,0.559 17.168,0.258 17.92,0.258C18.672,0.258 19.386,0.559 19.913,1.097C20.452,1.623 20.752,2.35 20.752,3.102L20.752,14.427L32.082,14.427C32.833,14.427 33.56,14.727 34.087,15.253C34.626,15.792 34.914,16.506 34.914,17.258Z" fill="#FFFFFF"/>
</svg>
