<svg width="32" height="42" viewBox="0 0 32 42" fill="none" xmlns="http://www.w3.org/2000/svg" xmlns:xlink="http://www.w3.org/1999/xlink">
<path d="M7.796,20.844C8.077,20.739 8.38,20.684 8.686,20.683C8.993,20.682 9.296,20.735 9.579,20.838C9.861,20.941 10.117,21.093 10.331,21.284C10.546,21.475 10.714,21.701 10.826,21.95C10.938,22.199 10.992,22.464 10.985,22.732C10.978,22.999 10.909,23.262 10.783,23.506C10.657,23.75 10.476,23.969 10.252,24.15C10.027,24.332 9.763,24.473 9.475,24.564C7.944,25.09 6.629,26.007 5.703,27.195C4.777,28.383 4.281,29.787 4.281,31.224L4.281,34.704C4.281,35.234 4.523,35.743 4.952,36.118C5.382,36.493 5.965,36.704 6.572,36.704L24.9,36.704C25.507,36.704 26.09,36.493 26.52,36.118C26.949,35.743 27.19,35.234 27.19,34.704L27.19,31.41C27.191,29.927 26.675,28.478 25.711,27.257C24.747,26.036 23.381,25.099 21.793,24.572C21.503,24.484 21.237,24.346 21.009,24.167C20.782,23.987 20.598,23.77 20.468,23.527C20.338,23.285 20.266,23.022 20.255,22.754C20.244,22.487 20.294,22.22 20.404,21.97C20.513,21.72 20.678,21.491 20.891,21.298C21.103,21.105 21.357,20.951 21.639,20.845C21.921,20.739 22.224,20.684 22.531,20.682C22.837,20.681 23.141,20.733 23.424,20.836C25.879,21.652 27.992,23.1 29.483,24.989C30.974,26.877 31.772,29.116 31.772,31.41L31.772,34.704C31.772,36.295 31.048,37.821 29.759,38.946C28.47,40.071 26.722,40.704 24.9,40.704L6.572,40.704C4.75,40.704 3.002,40.071 1.713,38.946C0.424,37.821 -0.3,36.295 -0.3,34.704L-0.3,31.224C-0.3,28.984 0.472,26.796 1.916,24.945C3.36,23.094 5.409,21.665 7.796,20.844ZM15.736,0.704C18.166,0.704 20.497,1.546 22.216,3.047C23.934,4.547 24.9,6.582 24.9,8.704L24.9,12.704C24.9,14.825 23.934,16.86 22.216,18.36C20.497,19.861 18.166,20.704 15.736,20.704C13.306,20.704 10.975,19.861 9.256,18.36C7.538,16.86 6.572,14.825 6.572,12.704L6.572,8.704C6.572,6.582 7.538,4.547 9.256,3.047C10.975,1.546 13.306,0.704 15.736,0.704ZM15.736,4.704C14.521,4.704 13.355,5.125 12.496,5.875C11.637,6.625 11.154,7.643 11.154,8.704L11.154,12.704C11.154,13.764 11.637,14.782 12.496,15.532C13.355,16.282 14.521,16.704 15.736,16.704C16.951,16.704 18.117,16.282 18.976,15.532C19.835,14.782 20.318,13.764 20.318,12.704L20.318,8.704C20.318,7.643 19.835,6.625 18.976,5.875C18.117,5.125 16.951,4.704 15.736,4.704Z" fill="#53B175"/>
</svg>
