<svg width="18" height="28" viewBox="0 0 18 28" fill="none" xmlns="http://www.w3.org/2000/svg" xmlns:xlink="http://www.w3.org/1999/xlink">
<path d="M16.474,24.291C16.868,24.691 17.087,25.217 17.065,25.764C17.065,26.312 16.846,26.817 16.43,27.217C16.036,27.596 15.488,27.828 14.918,27.828C14.349,27.828 13.801,27.638 13.385,27.259L0.988,15.343C0.791,15.154 0.637,14.922 0.528,14.67C0.418,14.417 0.353,14.143 0.353,13.87C0.353,13.596 0.418,13.322 0.528,13.049C0.637,12.796 0.791,12.564 0.988,12.375L13.385,0.459C13.582,0.27 13.823,0.101 14.086,-0.004C14.371,-0.109 14.656,-0.172 14.94,-0.172C15.225,-0.172 15.532,-0.13 15.795,-0.025C16.057,0.08 16.298,0.249 16.517,0.438C16.715,0.628 16.868,0.88 16.977,1.133C17.109,1.386 17.153,1.659 17.153,1.954C17.153,2.228 17.087,2.501 16.977,2.754C16.868,3.007 16.693,3.238 16.474,3.449L5.631,13.87L7.69,15.828L16.474,24.291Z" transform="rotate(-360 8.753 13.828)" fill="#181725"/>
</svg>
