<svg width="34" height="6" viewBox="0 0 34 6" fill="none" xmlns="http://www.w3.org/2000/svg" xmlns:xlink="http://www.w3.org/1999/xlink">
<path d="M33.594,2.193C33.594,2.945 33.306,3.671 32.767,4.197C32.24,4.736 31.513,5.037 30.762,5.037L19.432,5.037L13.755,5.037L2.426,5.037C1.674,5.037 0.947,4.736 0.421,4.197C-0.105,3.671 -0.406,2.945 -0.406,2.193C-0.406,1.441 -0.105,0.727 0.421,0.189C0.947,-0.338 1.674,-0.638 2.426,-0.638L13.755,-0.638L19.432,-0.638L30.762,-0.638C31.513,-0.638 32.24,-0.338 32.767,0.189C33.306,0.727 33.594,1.441 33.594,2.193Z" fill="#B3B3B3"/>
</svg>
