<svg width="82" height="94" viewBox="0 0 82 94" fill="none" xmlns="http://www.w3.org/2000/svg" xmlns:xlink="http://www.w3.org/1999/xlink">
<path d="M74.26,61.178L69.45,61.178C66.846,61.178 64.596,62.81 63.625,65.237C60.491,73.22 53.342,77.499 43.192,77.499C28.673,77.499 18.876,65.81 18.876,46.358C18.876,27.347 28.54,15.217 43.104,15.217C53.607,15.217 60.624,20.421 63.492,27.832C64.463,30.302 66.714,32.022 69.406,32.022L74.216,32.022C78.409,32.022 81.542,27.92 80.174,23.95C75.54,10.321 62.301,-0.045 42.927,-0.045C17.375,-0.045 0.517,18.216 0.517,46.358C0.517,74.985 17.419,92.628 43.104,92.628C61.506,92.628 75.187,83.63 80.218,69.383C81.63,65.369 78.541,61.178 74.26,61.178Z" fill="#FFFFFF"/>
</svg>
