<svg width="34" height="36" viewBox="0 0 34 36" fill="none" xmlns="http://www.w3.org/2000/svg" xmlns:xlink="http://www.w3.org/1999/xlink">
<path d="M33.947,17.259C33.947,18.011 33.659,18.738 33.12,19.264C32.593,19.803 31.866,20.103 31.115,20.103L19.785,20.103L19.785,31.428C19.785,32.18 19.485,32.906 18.946,33.433C18.419,33.959 17.705,34.259 16.953,34.259C16.201,34.259 15.474,33.959 14.948,33.433C14.409,32.906 14.108,32.18 14.108,31.428L14.108,20.103L2.779,20.103C2.027,20.103 1.3,19.803 0.774,19.264C0.248,18.738 -0.053,18.011 -0.053,17.259C-0.053,16.508 0.248,15.794 0.774,15.255C1.3,14.729 2.027,14.428 2.779,14.428L14.108,14.428L14.108,3.103C14.108,2.352 14.409,1.625 14.948,1.099C15.474,0.56 16.201,0.259 16.953,0.259C17.705,0.259 18.419,0.56 18.946,1.099C19.485,1.625 19.785,2.352 19.785,3.103L19.785,14.428L31.115,14.428C31.866,14.428 32.593,14.729 33.12,15.255C33.659,15.794 33.947,16.508 33.947,17.259Z" fill="#FFFFFF"/>
</svg>
