<svg width="34" height="42" viewBox="0 0 34 42" fill="none" xmlns="http://www.w3.org/2000/svg" xmlns:xlink="http://www.w3.org/1999/xlink">
<path d="M8.732,20.844C9.014,20.739 9.317,20.684 9.623,20.683C9.929,20.682 10.233,20.735 10.515,20.838C10.798,20.941 11.054,21.093 11.268,21.284C11.482,21.475 11.651,21.701 11.763,21.95C11.875,22.199 11.929,22.464 11.922,22.732C11.914,22.999 11.846,23.262 11.72,23.506C11.594,23.75 11.413,23.969 11.188,24.15C10.964,24.332 10.7,24.473 10.412,24.564C8.88,25.09 7.566,26.007 6.64,27.195C5.714,28.383 5.218,29.787 5.218,31.224L5.218,34.704C5.218,35.234 5.46,35.743 5.889,36.118C6.319,36.493 6.902,36.704 7.509,36.704L25.836,36.704C26.444,36.704 27.026,36.493 27.456,36.118C27.886,35.743 28.127,35.234 28.127,34.704L28.127,31.41C28.127,29.927 27.611,28.478 26.647,27.257C25.684,26.036 24.317,25.099 22.73,24.572C22.44,24.484 22.173,24.346 21.946,24.167C21.718,23.987 21.534,23.77 21.405,23.527C21.275,23.285 21.202,23.022 21.191,22.754C21.18,22.487 21.231,22.22 21.34,21.97C21.449,21.72 21.615,21.491 21.827,21.298C22.039,21.105 22.294,20.951 22.576,20.845C22.857,20.739 23.161,20.684 23.467,20.682C23.774,20.681 24.078,20.733 24.361,20.836C26.816,21.652 28.929,23.1 30.419,24.989C31.91,26.877 32.709,29.116 32.709,31.41L32.709,34.704C32.709,36.295 31.985,37.821 30.696,38.946C29.407,40.071 27.659,40.704 25.836,40.704L7.509,40.704C5.686,40.704 3.938,40.071 2.649,38.946C1.361,37.821 0.636,36.295 0.636,34.704L0.636,31.224C0.637,28.984 1.409,26.796 2.853,24.945C4.297,23.094 6.346,21.665 8.732,20.844ZM16.673,0.704C19.103,0.704 21.434,1.546 23.152,3.047C24.871,4.547 25.836,6.582 25.836,8.704L25.836,12.704C25.836,14.825 24.871,16.86 23.152,18.36C21.434,19.861 19.103,20.704 16.673,20.704C14.242,20.704 11.912,19.861 10.193,18.36C8.475,16.86 7.509,14.825 7.509,12.704L7.509,8.704C7.509,6.582 8.475,4.547 10.193,3.047C11.912,1.546 14.242,0.704 16.673,0.704ZM16.673,4.704C15.458,4.704 14.292,5.125 13.433,5.875C12.574,6.625 12.091,7.643 12.091,8.704L12.091,12.704C12.091,13.764 12.574,14.782 13.433,15.532C14.292,16.282 15.458,16.704 16.673,16.704C17.888,16.704 19.053,16.282 19.913,15.532C20.772,14.782 21.254,13.764 21.254,12.704L21.254,8.704C21.254,7.643 20.772,6.625 19.913,5.875C19.053,5.125 17.888,4.704 16.673,4.704Z" fill="#181725"/>
</svg>
