<svg width="12" height="20" viewBox="0 0 12 20" fill="none" xmlns="http://www.w3.org/2000/svg" xmlns:xlink="http://www.w3.org/1999/xlink">
<path d="M11.515,16.806C11.797,17.092 11.953,17.468 11.937,17.859C11.937,18.25 11.781,18.611 11.484,18.896C11.202,19.167 10.811,19.333 10.404,19.333C9.997,19.333 9.606,19.197 9.309,18.927L0.454,10.415C0.313,10.28 0.203,10.114 0.125,9.934C0.047,9.754 0,9.558 0,9.363C0,9.167 0.047,8.972 0.125,8.776C0.203,8.596 0.313,8.43 0.454,8.295L9.309,-0.216C9.45,-0.352 9.622,-0.472 9.81,-0.547C10.013,-0.622 10.216,-0.667 10.42,-0.667C10.623,-0.667 10.842,-0.637 11.03,-0.562C11.218,-0.487 11.39,-0.367 11.546,-0.231C11.687,-0.096 11.797,0.084 11.875,0.265C11.969,0.445 12,0.641 12,0.851C12,1.047 11.953,1.242 11.875,1.423C11.797,1.603 11.671,1.769 11.515,1.919L3.771,9.363L5.241,10.761L11.515,16.806Z" transform="rotate(-360 6 9.333)" fill="#FFFFFF"/>
</svg>
