<svg width="38" height="38" viewBox="0 0 38 38" fill="none" xmlns="http://www.w3.org/2000/svg" xmlns:xlink="http://www.w3.org/1999/xlink">
<path d="M21.374,8.746L21.374,23.624C21.374,24.323 21.096,24.994 20.602,25.489C20.107,25.983 19.437,26.261 18.737,26.261C18.038,26.261 17.367,25.983 16.873,25.489C16.378,24.994 16.1,24.323 16.1,23.624L16.1,8.746L13.144,11.705C12.649,12.2 11.978,12.478 11.278,12.477C10.578,12.477 9.907,12.199 9.412,11.704C8.917,11.209 8.639,10.537 8.639,9.837C8.64,9.137 8.918,8.466 9.413,7.971L16.873,0.517C17.117,0.271 17.408,0.076 17.728,-0.057C18.048,-0.19 18.391,-0.259 18.737,-0.259C19.084,-0.259 19.427,-0.19 19.747,-0.057C20.067,0.076 20.357,0.271 20.601,0.517L28.061,7.974C28.306,8.219 28.501,8.51 28.633,8.83C28.766,9.151 28.834,9.494 28.834,9.84C28.834,10.187 28.765,10.53 28.632,10.85C28.5,11.171 28.305,11.461 28.06,11.706C27.815,11.951 27.524,12.146 27.203,12.278C26.883,12.411 26.54,12.479 26.193,12.479C25.847,12.479 25.504,12.41 25.183,12.278C24.863,12.145 24.572,11.95 24.327,11.705L21.374,8.746ZM8.19,15.566C8.889,15.566 9.56,15.843 10.054,16.338C10.549,16.832 10.826,17.503 10.826,18.202C10.826,18.902 10.549,19.572 10.054,20.067C9.56,20.562 8.889,20.839 8.19,20.839L5.553,20.839L5.553,31.387L31.922,31.387L31.922,20.839L29.285,20.839C28.585,20.839 27.915,20.562 27.42,20.067C26.926,19.572 26.648,18.902 26.648,18.202C26.648,17.503 26.926,16.832 27.42,16.338C27.915,15.843 28.585,15.566 29.285,15.566L31.922,15.566C33.32,15.566 34.662,16.121 35.651,17.11C36.64,18.099 37.196,19.441 37.196,20.839L37.196,31.387C37.196,32.786 36.64,34.127 35.651,35.116C34.662,36.105 33.32,36.661 31.922,36.661L5.553,36.661C4.154,36.661 2.813,36.105 1.823,35.116C0.834,34.127 0.279,32.786 0.279,31.387L0.279,20.839C0.279,19.441 0.834,18.099 1.823,17.11C2.813,16.121 4.154,15.566 5.553,15.566L8.19,15.566Z" fill="#181725" stroke="#FFFFFF" stroke-width="0.3" stroke-miterlimit="3.999327"/>
</svg>
