<svg width="20" height="36" viewBox="0 0 20 36" fill="none" xmlns="http://www.w3.org/2000/svg" xmlns:xlink="http://www.w3.org/1999/xlink">
<path d="M18.638,31.453C19.108,31.967 19.368,32.644 19.342,33.347C19.342,34.051 19.081,34.701 18.586,35.215C18.117,35.702 17.465,36 16.787,36C16.109,36 15.457,35.756 14.962,35.269L0.203,19.949C-0.032,19.705 -0.214,19.408 -0.345,19.083C-0.475,18.758 -0.553,18.406 -0.553,18.054C-0.553,17.702 -0.475,17.35 -0.345,16.998C-0.214,16.674 -0.032,16.376 0.203,16.132L14.962,0.812C15.196,0.568 15.483,0.352 15.796,0.217C16.135,0.081 16.474,0 16.813,0C17.152,0 17.517,0.054 17.83,0.189C18.143,0.325 18.43,0.541 18.69,0.785C18.925,1.029 19.108,1.353 19.238,1.678C19.394,2.003 19.447,2.355 19.447,2.734C19.447,3.086 19.368,3.438 19.238,3.762C19.108,4.087 18.899,4.385 18.638,4.656L5.731,18.054L8.182,20.571L18.638,31.453Z" fill="#181725"/>
</svg>
