<svg width="16" height="26" viewBox="0 0 16 26" fill="none" xmlns="http://www.w3.org/2000/svg" xmlns:xlink="http://www.w3.org/1999/xlink">
<path d="M14.256,22.148C14.585,22.519 14.768,23.008 14.749,23.516C14.749,24.024 14.567,24.493 14.22,24.865C13.891,25.217 13.435,25.432 12.96,25.432C12.486,25.432 12.03,25.256 11.683,24.904L1.352,13.839C1.187,13.663 1.06,13.448 0.968,13.214C0.877,12.979 0.822,12.725 0.822,12.471C0.822,12.217 0.877,11.963 0.968,11.709C1.06,11.474 1.187,11.259 1.352,11.083L11.683,0.018C11.847,-0.158 12.048,-0.314 12.267,-0.412C12.504,-0.509 12.741,-0.568 12.979,-0.568C13.216,-0.568 13.472,-0.529 13.691,-0.431C13.91,-0.334 14.11,-0.177 14.293,-0.001C14.457,0.175 14.585,0.409 14.676,0.644C14.786,0.879 14.822,1.133 14.822,1.406C14.822,1.66 14.768,1.915 14.676,2.149C14.585,2.384 14.439,2.599 14.256,2.794L5.221,12.471L6.937,14.289L14.256,22.148Z" transform="rotate(-180 7.822 12.432)" fill="#7C7C7C"/>
</svg>
