<svg width="36" height="38" viewBox="0 0 36 38" fill="none" xmlns="http://www.w3.org/2000/svg" xmlns:xlink="http://www.w3.org/1999/xlink">
<path d="M15.106,28.143C16.682,28.143 18.242,27.832 19.698,27.229C21.154,26.626 22.477,25.742 23.591,24.628C24.705,23.514 25.589,22.191 26.192,20.735C26.795,19.279 27.106,17.718 27.106,16.143C27.106,14.567 26.795,13.006 26.192,11.55C25.589,10.095 24.705,8.772 23.591,7.657C22.477,6.543 21.154,5.659 19.698,5.056C18.242,4.453 16.682,4.143 15.106,4.143C11.923,4.143 8.871,5.407 6.62,7.657C4.37,9.908 3.106,12.96 3.106,16.143C3.106,19.325 4.37,22.377 6.62,24.628C8.871,26.878 11.923,28.143 15.106,28.143ZM27.746,25.955L34.906,33.115C35.097,33.299 35.249,33.52 35.354,33.764C35.458,34.008 35.513,34.271 35.515,34.536C35.517,34.802 35.467,35.065 35.366,35.311C35.265,35.557 35.116,35.78 34.929,35.967C34.741,36.155 34.517,36.303 34.271,36.404C34.026,36.504 33.762,36.555 33.497,36.552C33.231,36.55 32.969,36.494 32.725,36.389C32.481,36.284 32.26,36.132 32.076,35.941L24.916,28.781C21.701,31.276 17.655,32.453 13.603,32.071C9.551,31.689 5.797,29.777 3.105,26.725C0.413,23.672 -1.015,19.709 -0.887,15.64C-0.76,11.572 0.913,7.706 3.791,4.828C6.669,1.95 10.536,0.277 14.604,0.149C18.672,0.022 22.635,1.45 25.688,4.142C28.74,6.834 30.652,10.588 31.034,14.64C31.416,18.692 30.24,22.738 27.744,25.953L27.746,25.955Z" fill="#181725"/>
</svg>
