<svg width="18" height="30" viewBox="0 0 18 30" fill="none" xmlns="http://www.w3.org/2000/svg" xmlns:xlink="http://www.w3.org/1999/xlink">
<path d="M16.007,24.662C16.401,25.062 16.62,25.589 16.598,26.136C16.598,26.683 16.379,27.189 15.963,27.589C15.569,27.968 15.021,28.199 14.452,28.199C13.882,28.199 13.335,28.01 12.919,27.631L0.521,15.715C0.324,15.526 0.171,15.294 0.061,15.041C-0.048,14.789 -0.114,14.515 -0.114,14.241C-0.114,13.968 -0.048,13.694 0.061,13.42C0.171,13.168 0.324,12.936 0.521,12.747L12.919,0.831C13.116,0.641 13.357,0.473 13.62,0.368C13.904,0.262 14.189,0.199 14.474,0.199C14.759,0.199 15.065,0.241 15.328,0.347C15.591,0.452 15.832,0.62 16.051,0.81C16.248,0.999 16.401,1.252 16.511,1.504C16.642,1.757 16.686,2.031 16.686,2.326C16.686,2.599 16.62,2.873 16.511,3.126C16.401,3.378 16.226,3.61 16.007,3.82L5.165,14.241L7.224,16.199L16.007,24.662Z" transform="rotate(-360 8.286 14.199)" fill="#181725"/>
</svg>
