<svg width="32" height="42" viewBox="0 0 32 42" fill="none" xmlns="http://www.w3.org/2000/svg" xmlns:xlink="http://www.w3.org/1999/xlink">
<path d="M7.172,20.844C7.454,20.739 7.757,20.684 8.063,20.683C8.369,20.682 8.672,20.735 8.955,20.838C9.238,20.941 9.493,21.093 9.708,21.284C9.922,21.475 10.09,21.701 10.203,21.95C10.315,22.199 10.369,22.464 10.361,22.732C10.354,22.999 10.285,23.262 10.159,23.506C10.033,23.75 9.853,23.969 9.628,24.15C9.403,24.332 9.139,24.473 8.851,24.564C7.32,25.09 6.006,26.007 5.079,27.195C4.153,28.383 3.658,29.787 3.658,31.224L3.658,34.704C3.658,35.234 3.899,35.743 4.329,36.118C4.759,36.493 5.341,36.704 5.949,36.704L24.276,36.704C24.884,36.704 25.466,36.493 25.896,36.118C26.326,35.743 26.567,35.234 26.567,34.704L26.567,31.41C26.567,29.927 26.051,28.478 25.087,27.257C24.123,26.036 22.757,25.099 21.17,24.572C20.88,24.484 20.613,24.346 20.386,24.167C20.158,23.987 19.974,23.77 19.844,23.527C19.715,23.285 19.642,23.022 19.631,22.754C19.62,22.487 19.671,22.22 19.78,21.97C19.889,21.72 20.055,21.491 20.267,21.298C20.479,21.105 20.734,20.951 21.015,20.845C21.297,20.739 21.6,20.684 21.907,20.682C22.214,20.681 22.518,20.733 22.801,20.836C25.256,21.652 27.368,23.1 28.859,24.989C30.35,26.877 31.148,29.116 31.149,31.41L31.149,34.704C31.149,36.295 30.425,37.821 29.136,38.946C27.847,40.071 26.099,40.704 24.276,40.704L5.949,40.704C4.126,40.704 2.378,40.071 1.089,38.946C-0.2,37.821 -0.924,36.295 -0.924,34.704L-0.924,31.224C-0.924,28.984 -0.151,26.796 1.293,24.945C2.737,23.094 4.785,21.665 7.172,20.844ZM15.112,0.704C17.543,0.704 19.874,1.546 21.592,3.047C23.311,4.547 24.276,6.582 24.276,8.704L24.276,12.704C24.276,14.825 23.311,16.86 21.592,18.36C19.874,19.861 17.543,20.704 15.112,20.704C12.682,20.704 10.351,19.861 8.633,18.36C6.914,16.86 5.949,14.825 5.949,12.704L5.949,8.704C5.949,6.582 6.914,4.547 8.633,3.047C10.351,1.546 12.682,0.704 15.112,0.704ZM15.112,4.704C13.897,4.704 12.732,5.125 11.873,5.875C11.013,6.625 10.531,7.643 10.531,8.704L10.531,12.704C10.531,13.764 11.013,14.782 11.873,15.532C12.732,16.282 13.897,16.704 15.112,16.704C16.328,16.704 17.493,16.282 18.352,15.532C19.211,14.782 19.694,13.764 19.694,12.704L19.694,8.704C19.694,7.643 19.211,6.625 18.352,5.875C17.493,5.125 16.328,4.704 15.112,4.704Z" fill="#181725"/>
</svg>
