<svg width="66" height="76" viewBox="0 0 66 76" fill="none" xmlns="http://www.w3.org/2000/svg" xmlns:xlink="http://www.w3.org/1999/xlink">
<path d="M38.209,-0.585C26.667,-0.585 19.167,4.039 14.616,12.814L14.361,12.814L14.361,7.352C14.361,3.42 11.157,0.252 7.224,0.252C3.292,0.252 0.125,3.42 0.125,7.352L0.125,67.756C0.125,71.688 3.292,74.892 7.224,74.892L7.916,74.892C11.848,74.892 15.052,71.688 15.052,67.756L15.052,31.783C15.052,20.023 21.788,12.195 33.039,12.195C43.962,12.195 49.205,18.53 49.205,29.853L49.205,67.756C49.205,71.688 52.372,74.892 56.305,74.892L56.996,74.892C60.929,74.892 64.096,71.688 64.096,67.756L64.096,27.05C64.096,9.864 54.703,-0.585 38.209,-0.585Z" fill="#FFFFFF"/>
</svg>
