<svg width="18" height="30" viewBox="0 0 18 30" fill="none" xmlns="http://www.w3.org/2000/svg" xmlns:xlink="http://www.w3.org/1999/xlink">
<path d="M16.579,25.222C16.973,25.622 17.192,26.148 17.17,26.695C17.17,27.243 16.951,27.748 16.535,28.148C16.141,28.527 15.593,28.758 15.024,28.758C14.454,28.758 13.907,28.569 13.491,28.19L1.093,16.274C0.896,16.085 0.743,15.853 0.633,15.601C0.524,15.348 0.458,15.074 0.458,14.801C0.458,14.527 0.524,14.253 0.633,13.979C0.743,13.727 0.896,13.495 1.093,13.306L13.491,1.39C13.688,1.201 13.929,1.032 14.192,0.927C14.476,0.822 14.761,0.758 15.046,0.758C15.331,0.758 15.637,0.801 15.9,0.906C16.163,1.011 16.404,1.179 16.623,1.369C16.82,1.558 16.973,1.811 17.083,2.064C17.214,2.316 17.258,2.59 17.258,2.885C17.258,3.158 17.192,3.432 17.083,3.685C16.973,3.937 16.798,4.169 16.579,4.379L5.737,14.801L7.796,16.758L16.579,25.222Z" transform="rotate(-360 8.858 14.758)" fill="#181725"/>
</svg>
