<svg width="36" height="34" viewBox="0 0 36 34" fill="none" xmlns="http://www.w3.org/2000/svg" xmlns:xlink="http://www.w3.org/1999/xlink">
<path d="M34.914,16.355C34.914,17.107 34.626,17.833 34.087,18.359C33.56,18.898 32.833,19.199 32.082,19.199L20.752,19.199L20.752,30.524C20.752,31.275 20.452,32.002 19.913,32.528C19.386,33.054 18.672,33.355 17.92,33.355C17.168,33.355 16.441,33.054 15.915,32.528C15.376,32.002 15.075,31.275 15.075,30.524L15.075,19.199L3.746,19.199C2.994,19.199 2.267,18.898 1.741,18.359C1.215,17.833 0.914,17.107 0.914,16.355C0.914,15.603 1.215,14.889 1.741,14.35C2.267,13.824 2.994,13.524 3.746,13.524L15.075,13.524L15.075,2.199C15.075,1.447 15.376,0.72 15.915,0.194C16.441,-0.344 17.168,-0.645 17.92,-0.645C18.672,-0.645 19.386,-0.344 19.913,0.194C20.452,0.72 20.752,1.447 20.752,2.199L20.752,13.524L32.082,13.524C32.833,13.524 33.56,13.824 34.087,14.35C34.626,14.889 34.914,15.603 34.914,16.355Z" fill="#FFFFFF"/>
</svg>
