<svg width="34" height="36" viewBox="0 0 34 36" fill="none" xmlns="http://www.w3.org/2000/svg" xmlns:xlink="http://www.w3.org/1999/xlink">
<path d="M33.936,17.225C33.936,17.976 33.648,18.703 33.109,19.229C32.583,19.768 31.856,20.068 31.104,20.068L19.775,20.068L19.775,31.393C19.775,32.145 19.474,32.872 18.935,33.398C18.409,33.924 17.694,34.225 16.943,34.225C16.191,34.225 15.464,33.924 14.937,33.398C14.398,32.872 14.098,32.145 14.098,31.393L14.098,20.068L2.769,20.068C2.017,20.068 1.29,19.768 0.763,19.229C0.237,18.703 -0.064,17.976 -0.064,17.225C-0.064,16.473 0.237,15.759 0.763,15.22C1.29,14.694 2.017,14.393 2.769,14.393L14.098,14.393L14.098,3.068C14.098,2.317 14.398,1.59 14.937,1.064C15.464,0.525 16.191,0.225 16.943,0.225C17.694,0.225 18.409,0.525 18.935,1.064C19.474,1.59 19.775,2.317 19.775,3.068L19.775,14.393L31.104,14.393C31.856,14.393 32.583,14.694 33.109,15.22C33.648,15.759 33.936,16.473 33.936,17.225Z" fill="#FFFFFF"/>
</svg>
