<svg width="40" height="40" viewBox="0 0 40 40" fill="none" xmlns="http://www.w3.org/2000/svg" xmlns:xlink="http://www.w3.org/1999/xlink">
<path d="M11.518,3.036L5.518,3.036C4.988,3.036 4.479,3.247 4.104,3.622C3.729,3.997 3.518,4.506 3.518,5.036L3.518,9.036C3.518,9.567 3.729,10.075 4.104,10.45C4.479,10.825 4.988,11.036 5.518,11.036L9.518,11.036C10.049,11.036 10.557,10.825 10.932,10.45C11.307,10.075 11.518,9.567 11.518,9.036L11.518,3.036ZM5.538,15.036L5.538,34.966L9.518,34.966L9.518,25.036C9.518,23.975 9.94,22.958 10.69,22.208C11.44,21.458 12.457,21.036 13.518,21.036L17.518,21.036C18.579,21.036 19.596,21.458 20.346,22.208C21.097,22.958 21.518,23.975 21.518,25.036L21.518,34.966L33.544,34.966L33.544,15.036L29.518,15.036C27.982,15.036 26.578,14.458 25.518,13.508C24.419,14.494 22.994,15.038 21.518,15.036L17.518,15.036C15.982,15.036 14.578,14.458 13.518,13.508C12.419,14.494 10.994,15.038 9.518,15.036L5.538,15.036ZM1.538,13.528C0.902,12.966 0.393,12.274 0.045,11.5C-0.304,10.725 -0.483,9.885 -0.482,9.036L-0.482,5.036C-0.482,3.445 0.15,1.919 1.275,0.793C2.401,-0.332 3.927,-0.964 5.518,-0.964L33.518,-0.964C35.109,-0.964 36.635,-0.332 37.761,0.793C38.886,1.919 39.518,3.445 39.518,5.036L39.518,9.036C39.518,10.8 38.758,12.388 37.544,13.486L37.544,34.966C37.544,36.027 37.123,37.044 36.372,37.795C35.622,38.545 34.605,38.966 33.544,38.966L18.264,38.966C18.018,39.013 17.768,39.036 17.518,39.036L13.518,39.036C13.268,39.036 13.018,39.013 12.772,38.966L5.54,38.966C4.479,38.966 3.462,38.545 2.712,37.795C1.962,37.044 1.54,36.027 1.54,34.966L1.54,13.526L1.538,13.528ZM17.518,34.968L17.518,25.036L13.518,25.036L13.518,34.966L17.518,34.966L17.518,34.968ZM23.518,3.036L15.518,3.036L15.518,9.036C15.518,9.567 15.729,10.075 16.104,10.45C16.479,10.825 16.988,11.036 17.518,11.036L21.518,11.036C22.048,11.036 22.557,10.825 22.932,10.45C23.307,10.075 23.518,9.567 23.518,9.036L23.518,3.036ZM27.518,3.036L27.518,9.036C27.518,9.567 27.729,10.075 28.104,10.45C28.479,10.825 28.988,11.036 29.518,11.036L33.518,11.036C34.048,11.036 34.557,10.825 34.932,10.45C35.307,10.075 35.518,9.567 35.518,9.036L35.518,5.036C35.518,4.506 35.307,3.997 34.932,3.622C34.557,3.247 34.048,3.036 33.518,3.036L27.518,3.036ZM27.518,21.036L29.518,21.036C30.048,21.036 30.557,21.247 30.932,21.622C31.307,21.997 31.518,22.506 31.518,23.036L31.518,29.036C31.518,29.567 31.307,30.075 30.932,30.45C30.557,30.825 30.048,31.036 29.518,31.036L27.518,31.036C26.988,31.036 26.479,30.825 26.104,30.45C25.729,30.075 25.518,29.567 25.518,29.036L25.518,23.036C25.518,22.506 25.729,21.997 26.104,21.622C26.479,21.247 26.988,21.036 27.518,21.036L27.518,21.036Z" fill="#53B175" stroke="#FFFFFF" stroke-width="0.1" stroke-miterlimit="3.999327"/>
</svg>
