<svg width="40" height="42" viewBox="0 0 40 42" fill="none" xmlns="http://www.w3.org/2000/svg" xmlns:xlink="http://www.w3.org/1999/xlink">
<path d="M11.353,4.704L5.353,4.704C4.822,4.704 4.313,4.914 3.938,5.289C3.563,5.664 3.353,6.173 3.353,6.704L3.353,10.704C3.353,11.234 3.563,11.743 3.938,12.118C4.313,12.493 4.822,12.704 5.353,12.704L9.353,12.704C9.883,12.704 10.392,12.493 10.767,12.118C11.142,11.743 11.353,11.234 11.353,10.704L11.353,4.704ZM5.373,16.704L5.373,36.634L9.353,36.634L9.353,26.704C9.353,25.643 9.774,24.625 10.524,23.875C11.274,23.125 12.292,22.704 13.353,22.704L17.353,22.704C18.413,22.704 19.431,23.125 20.181,23.875C20.931,24.625 21.353,25.643 21.353,26.704L21.353,36.634L33.379,36.634L33.379,16.704L29.353,16.704C27.817,16.704 26.413,16.126 25.353,15.176C24.254,16.161 22.829,16.706 21.353,16.704L17.353,16.704C15.817,16.704 14.413,16.126 13.353,15.176C12.254,16.161 10.829,16.706 9.353,16.704L5.373,16.704ZM1.373,15.196C0.736,14.633 0.227,13.941 -0.121,13.167C-0.469,12.393 -0.649,11.553 -0.647,10.704L-0.647,6.704C-0.647,5.112 -0.015,3.586 1.11,2.461C2.235,1.336 3.761,0.704 5.353,0.704L33.353,0.704C34.944,0.704 36.47,1.336 37.595,2.461C38.72,3.586 39.353,5.112 39.353,6.704L39.353,10.704C39.353,12.468 38.593,14.056 37.379,15.154L37.379,36.634C37.379,37.694 36.957,38.712 36.207,39.462C35.457,40.212 34.439,40.634 33.379,40.634L18.099,40.634C17.853,40.68 17.603,40.704 17.353,40.704L13.353,40.704C13.102,40.704 12.852,40.68 12.607,40.634L5.375,40.634C4.314,40.634 3.296,40.212 2.546,39.462C1.796,38.712 1.375,37.694 1.375,36.634L1.375,15.194L1.373,15.196ZM17.353,36.636L17.353,26.704L13.353,26.704L13.353,36.634L17.353,36.634L17.353,36.636ZM23.353,4.704L15.353,4.704L15.353,10.704C15.353,11.234 15.563,11.743 15.938,12.118C16.313,12.493 16.822,12.704 17.353,12.704L21.353,12.704C21.883,12.704 22.392,12.493 22.767,12.118C23.142,11.743 23.353,11.234 23.353,10.704L23.353,4.704ZM27.353,4.704L27.353,10.704C27.353,11.234 27.563,11.743 27.938,12.118C28.313,12.493 28.822,12.704 29.353,12.704L33.353,12.704C33.883,12.704 34.392,12.493 34.767,12.118C35.142,11.743 35.353,11.234 35.353,10.704L35.353,6.704C35.353,6.173 35.142,5.664 34.767,5.289C34.392,4.914 33.883,4.704 33.353,4.704L27.353,4.704ZM27.353,22.704L29.353,22.704C29.883,22.704 30.392,22.914 30.767,23.289C31.142,23.664 31.353,24.173 31.353,24.704L31.353,30.704C31.353,31.234 31.142,31.743 30.767,32.118C30.392,32.493 29.883,32.704 29.353,32.704L27.353,32.704C26.822,32.704 26.313,32.493 25.938,32.118C25.563,31.743 25.353,31.234 25.353,30.704L25.353,24.704C25.353,24.173 25.563,23.664 25.938,23.289C26.313,22.914 26.822,22.704 27.353,22.704L27.353,22.704Z" fill="#181725" stroke="#FFFFFF" stroke-width="0.1" stroke-miterlimit="3.999327"/>
</svg>
