<svg width="34" height="36" viewBox="0 0 34 36" fill="none" xmlns="http://www.w3.org/2000/svg" xmlns:xlink="http://www.w3.org/1999/xlink">
<path d="M33.164,17.408C33.164,18.16 32.876,18.886 32.337,19.412C31.811,19.951 31.084,20.252 30.332,20.252L19.003,20.252L19.003,31.577C19.003,32.328 18.702,33.055 18.163,33.581C17.637,34.107 16.922,34.408 16.17,34.408C15.418,34.408 14.692,34.107 14.165,33.581C13.626,33.055 13.326,32.328 13.326,31.577L13.326,20.252L1.996,20.252C1.244,20.252 0.518,19.951 -0.009,19.412C-0.535,18.886 -0.836,18.16 -0.836,17.408C-0.836,16.656 -0.535,15.942 -0.009,15.403C0.518,14.877 1.244,14.577 1.996,14.577L13.326,14.577L13.326,3.252C13.326,2.5 13.626,1.773 14.165,1.247C14.692,0.709 15.418,0.408 16.17,0.408C16.922,0.408 17.637,0.709 18.163,1.247C18.702,1.773 19.003,2.5 19.003,3.252L19.003,14.577L30.332,14.577C31.084,14.577 31.811,14.877 32.337,15.403C32.876,15.942 33.164,16.656 33.164,17.408Z" fill="#53B175"/>
</svg>
