<svg width="34" height="34" viewBox="0 0 34 34" fill="none" xmlns="http://www.w3.org/2000/svg" xmlns:xlink="http://www.w3.org/1999/xlink">
<path d="M33.17,16.161C33.17,16.912 32.881,17.639 32.342,18.165C31.816,18.704 31.089,19.005 30.337,19.005L19.008,19.005L19.008,30.33C19.008,31.081 18.707,31.808 18.169,32.334C17.642,32.86 16.928,33.161 16.176,33.161C15.424,33.161 14.697,32.86 14.171,32.334C13.632,31.808 13.331,31.081 13.331,30.33L13.331,19.005L2.002,19.005C1.25,19.005 0.523,18.704 -0.003,18.165C-0.53,17.639 -0.83,16.912 -0.83,16.161C-0.83,15.409 -0.53,14.695 -0.003,14.156C0.523,13.63 1.25,13.33 2.002,13.33L13.331,13.33L13.331,2.005C13.331,1.253 13.632,0.526 14.171,0C14.697,-0.539 15.424,-0.839 16.176,-0.839C16.928,-0.839 17.642,-0.539 18.169,0C18.707,0.526 19.008,1.253 19.008,2.005L19.008,13.33L30.337,13.33C31.089,13.33 31.816,13.63 32.342,14.156C32.881,14.695 33.17,15.409 33.17,16.161Z" fill="#FFFFFF"/>
</svg>
