<svg width="34" height="36" viewBox="0 0 34 36" fill="none" xmlns="http://www.w3.org/2000/svg" xmlns:xlink="http://www.w3.org/1999/xlink">
<path d="M33.17,17.258C33.17,18.009 32.881,18.736 32.342,19.262C31.816,19.801 31.089,20.102 30.337,20.102L19.008,20.102L19.008,31.427C19.008,32.178 18.707,32.905 18.169,33.431C17.642,33.957 16.928,34.258 16.176,34.258C15.424,34.258 14.697,33.957 14.171,33.431C13.632,32.905 13.331,32.178 13.331,31.427L13.331,20.102L2.002,20.102C1.25,20.102 0.523,19.801 -0.003,19.262C-0.53,18.736 -0.83,18.009 -0.83,17.258C-0.83,16.506 -0.53,15.792 -0.003,15.253C0.523,14.727 1.25,14.427 2.002,14.427L13.331,14.427L13.331,3.102C13.331,2.35 13.632,1.623 14.171,1.097C14.697,0.558 15.424,0.258 16.176,0.258C16.928,0.258 17.642,0.558 18.169,1.097C18.707,1.623 19.008,2.35 19.008,3.102L19.008,14.427L30.337,14.427C31.089,14.427 31.816,14.727 32.342,15.253C32.881,15.792 33.17,16.506 33.17,17.258Z" fill="#FFFFFF"/>
</svg>
