<svg width="34" height="34" viewBox="0 0 34 34" fill="none" xmlns="http://www.w3.org/2000/svg" xmlns:xlink="http://www.w3.org/1999/xlink">
<path d="M33.947,16.846C33.947,17.598 33.659,18.324 33.12,18.851C32.593,19.389 31.866,19.69 31.115,19.69L19.785,19.69L19.785,31.015C19.785,31.767 19.485,32.493 18.946,33.019C18.419,33.546 17.705,33.846 16.953,33.846C16.201,33.846 15.474,33.546 14.948,33.019C14.409,32.493 14.108,31.767 14.108,31.015L14.108,19.69L2.779,19.69C2.027,19.69 1.3,19.389 0.774,18.851C0.248,18.324 -0.053,17.598 -0.053,16.846C-0.053,16.095 0.248,15.38 0.774,14.842C1.3,14.316 2.027,14.015 2.779,14.015L14.108,14.015L14.108,2.69C14.108,1.938 14.409,1.212 14.948,0.686C15.474,0.147 16.201,-0.154 16.953,-0.154C17.705,-0.154 18.419,0.147 18.946,0.686C19.485,1.212 19.785,1.938 19.785,2.69L19.785,14.015L31.115,14.015C31.866,14.015 32.593,14.316 33.12,14.842C33.659,15.38 33.947,16.095 33.947,16.846Z" fill="#FFFFFF"/>
</svg>
