<svg width="36" height="36" viewBox="0 0 36 36" fill="none" xmlns="http://www.w3.org/2000/svg" xmlns:xlink="http://www.w3.org/1999/xlink">
<path d="M34.725,17.408C34.725,18.16 34.436,18.886 33.897,19.412C33.371,19.951 32.644,20.252 31.892,20.252L20.563,20.252L20.563,31.577C20.563,32.328 20.262,33.055 19.724,33.581C19.197,34.107 18.483,34.408 17.731,34.408C16.979,34.408 16.252,34.107 15.726,33.581C15.187,33.055 14.886,32.328 14.886,31.577L14.886,20.252L3.557,20.252C2.805,20.252 2.078,19.951 1.552,19.412C1.025,18.886 0.725,18.16 0.725,17.408C0.725,16.656 1.025,15.942 1.552,15.404C2.078,14.877 2.805,14.577 3.557,14.577L14.886,14.577L14.886,3.252C14.886,2.5 15.187,1.773 15.726,1.247C16.252,0.709 16.979,0.408 17.731,0.408C18.483,0.408 19.197,0.709 19.724,1.247C20.262,1.773 20.563,2.5 20.563,3.252L20.563,14.577L31.892,14.577C32.644,14.577 33.371,14.877 33.897,15.404C34.436,15.942 34.725,16.656 34.725,17.408Z" fill="#53B175"/>
</svg>
