<svg width="18" height="28" viewBox="0 0 18 28" fill="none" xmlns="http://www.w3.org/2000/svg" xmlns:xlink="http://www.w3.org/1999/xlink">
<path d="M16.474,24.463C16.869,24.863 17.088,25.389 17.066,25.937C17.066,26.484 16.847,26.989 16.43,27.389C16.036,27.768 15.489,28 14.919,28C14.35,28 13.802,27.811 13.386,27.432L0.989,15.516C0.791,15.326 0.638,15.095 0.529,14.842C0.419,14.589 0.353,14.316 0.353,14.042C0.353,13.768 0.419,13.495 0.529,13.221C0.638,12.968 0.791,12.737 0.989,12.547L13.386,0.632C13.583,0.442 13.824,0.274 14.087,0.168C14.372,0.063 14.656,0 14.941,0C15.226,0 15.532,0.042 15.795,0.147C16.058,0.253 16.299,0.421 16.518,0.611C16.715,0.8 16.869,1.053 16.978,1.305C17.11,1.558 17.153,1.832 17.153,2.126C17.153,2.4 17.088,2.674 16.978,2.926C16.869,3.179 16.693,3.411 16.474,3.621L5.632,14.042L7.691,16L16.474,24.463Z" transform="rotate(-360 8.753 14)" fill="#181725"/>
</svg>
