<svg width="38" height="38" viewBox="0 0 38 38" fill="none" xmlns="http://www.w3.org/2000/svg" xmlns:xlink="http://www.w3.org/1999/xlink">
<path d="M15.905,28.232C17.48,28.232 19.041,27.922 20.497,27.319C21.953,26.716 23.276,25.832 24.39,24.718C25.504,23.603 26.388,22.281 26.991,20.825C27.594,19.369 27.905,17.808 27.905,16.232C27.905,14.657 27.594,13.096 26.991,11.64C26.388,10.184 25.504,8.861 24.39,7.747C23.276,6.633 21.953,5.749 20.497,5.146C19.041,4.543 17.48,4.232 15.905,4.232C12.722,4.232 9.67,5.497 7.419,7.747C5.169,9.998 3.905,13.05 3.905,16.232C3.905,19.415 5.169,22.467 7.419,24.718C9.67,26.968 12.722,28.232 15.905,28.232ZM28.545,26.044L35.705,33.204C35.895,33.389 36.048,33.61 36.152,33.854C36.257,34.098 36.312,34.36 36.314,34.626C36.316,34.892 36.265,35.155 36.165,35.401C36.064,35.646 35.915,35.87 35.727,36.057C35.539,36.245 35.316,36.393 35.07,36.494C34.824,36.594 34.561,36.644 34.295,36.642C34.03,36.639 33.767,36.584 33.523,36.479C33.28,36.374 33.059,36.222 32.875,36.03L25.715,28.87C22.5,31.366 18.454,32.543 14.402,32.161C10.35,31.779 6.596,29.867 3.904,26.815C1.212,23.762 -0.216,19.798 -0.089,15.73C0.039,11.662 1.712,7.796 4.59,4.918C7.468,2.04 11.334,0.367 15.402,0.239C19.47,0.112 23.434,1.539 26.487,4.232C29.539,6.924 31.451,10.678 31.833,14.73C32.215,18.782 31.038,22.827 28.543,26.042L28.545,26.044Z" fill="#181B19"/>
</svg>
