<svg width="46" height="40" viewBox="0 0 46 40" fill="none" xmlns="http://www.w3.org/2000/svg" xmlns:xlink="http://www.w3.org/1999/xlink">
<path d="M7.366,18.019L23.014,33.668L38.662,18.019C40.046,16.636 40.823,14.759 40.823,12.803C40.823,10.846 40.046,8.97 38.662,7.586C37.977,6.901 37.164,6.358 36.269,5.987C35.374,5.617 34.415,5.426 33.446,5.426C31.489,5.426 29.613,6.203 28.229,7.586L23.014,12.802L17.799,7.589C16.412,6.224 14.542,5.462 12.596,5.47C10.65,5.478 8.786,6.254 7.41,7.63C6.033,9.006 5.257,10.87 5.248,12.816C5.24,14.762 6.001,16.632 7.366,18.019ZM21.276,4.107L23.014,5.846L24.753,4.107C25.892,2.957 27.248,2.044 28.742,1.419C30.236,0.795 31.838,0.472 33.457,0.468C35.076,0.465 36.68,0.781 38.176,1.399C39.673,2.017 41.033,2.924 42.177,4.069C43.322,5.214 44.23,6.573 44.848,8.07C45.466,9.566 45.782,11.17 45.778,12.789C45.775,14.408 45.451,16.011 44.827,17.504C44.202,18.998 43.289,20.354 42.139,21.494L24.755,38.88C24.527,39.109 24.256,39.29 23.957,39.414C23.659,39.538 23.339,39.601 23.015,39.601C22.692,39.601 22.372,39.538 22.074,39.414C21.775,39.29 21.504,39.109 21.276,38.88L3.889,21.496C2.724,20.36 1.795,19.004 1.158,17.506C0.521,16.008 0.187,14.399 0.177,12.772C0.167,11.144 0.479,9.53 1.097,8.025C1.715,6.519 2.626,5.151 3.777,4C4.928,2.849 6.296,1.938 7.801,1.32C9.307,0.702 10.921,0.388 12.548,0.399C14.176,0.409 15.785,0.742 17.283,1.379C18.781,2.016 20.137,2.944 21.273,4.11L21.276,4.107Z" fill="#7C7C7C"/>
</svg>
