<svg width="38" height="38" viewBox="0 0 38 38" fill="none" xmlns="http://www.w3.org/2000/svg" xmlns:xlink="http://www.w3.org/1999/xlink">
<path d="M16.482,28.143C18.058,28.143 19.619,27.832 21.074,27.229C22.53,26.626 23.853,25.742 24.967,24.628C26.082,23.514 26.966,22.191 27.569,20.735C28.172,19.279 28.482,17.718 28.482,16.143C28.482,14.567 28.172,13.006 27.569,11.55C26.966,10.094 26.082,8.772 24.967,7.657C23.853,6.543 22.53,5.659 21.074,5.056C19.619,4.453 18.058,4.143 16.482,4.143C13.3,4.143 10.247,5.407 7.997,7.657C5.746,9.908 4.482,12.96 4.482,16.143C4.482,19.325 5.746,22.377 7.997,24.628C10.247,26.878 13.3,28.143 16.482,28.143ZM29.122,25.955L36.282,33.115C36.473,33.299 36.625,33.52 36.73,33.764C36.835,34.008 36.89,34.271 36.892,34.536C36.894,34.802 36.843,35.065 36.742,35.311C36.642,35.557 36.493,35.78 36.305,35.967C36.117,36.155 35.894,36.303 35.648,36.404C35.402,36.504 35.139,36.555 34.873,36.552C34.607,36.55 34.345,36.494 34.101,36.389C33.857,36.284 33.637,36.132 33.452,35.941L26.292,28.781C23.077,31.276 19.032,32.453 14.98,32.071C10.928,31.689 7.173,29.777 4.481,26.725C1.789,23.672 0.362,19.708 0.489,15.64C0.617,11.572 2.29,7.706 5.168,4.828C8.045,1.95 11.912,0.277 15.98,0.149C20.048,0.022 24.012,1.45 27.064,4.142C30.117,6.834 32.029,10.588 32.411,14.64C32.793,18.692 31.616,22.738 29.12,25.953L29.122,25.955Z" fill="#181725"/>
</svg>
