<svg width="20" height="38" viewBox="0 0 20 38" fill="none" xmlns="http://www.w3.org/2000/svg" xmlns:xlink="http://www.w3.org/1999/xlink">
<path d="M8.573,28.001C9.417,28.001 10.253,27.691 11.034,27.088C11.814,26.485 12.522,25.601 13.119,24.486C13.716,23.372 14.19,22.049 14.513,20.593C14.836,19.137 15.003,17.577 15.003,16.001C15.003,14.425 14.836,12.865 14.513,11.409C14.19,9.953 13.716,8.63 13.119,7.516C12.522,6.401 11.814,5.517 11.034,4.914C10.253,4.311 9.417,4.001 8.573,4.001C6.868,4.001 5.233,5.265 4.027,7.516C2.821,9.766 2.144,12.818 2.144,16.001C2.144,19.184 2.821,22.236 4.027,24.486C5.233,26.737 6.868,28.001 8.573,28.001ZM15.345,25.813L19.182,32.973C19.284,33.158 19.365,33.378 19.422,33.623C19.478,33.867 19.507,34.129 19.508,34.395C19.509,34.66 19.482,34.924 19.428,35.169C19.374,35.415 19.294,35.638 19.194,35.826C19.093,36.013 18.973,36.162 18.842,36.262C18.71,36.363 18.569,36.413 18.427,36.41C18.284,36.408 18.144,36.353 18.013,36.248C17.882,36.143 17.764,35.99 17.665,35.799L13.829,28.639C12.107,31.135 9.939,32.311 7.768,31.929C5.597,31.547 3.586,29.636 2.143,26.583C0.701,23.531 -0.064,19.567 0.004,15.499C0.073,11.431 0.969,7.564 2.511,4.686C4.053,1.808 6.124,0.135 8.304,0.008C10.484,-0.12 12.607,1.308 14.243,4C15.878,6.692 16.903,10.446 17.107,14.499C17.312,18.551 16.681,22.596 15.344,25.811L15.345,25.813Z" fill="#181B19"/>
</svg>
