<svg width="36" height="34" viewBox="0 0 36 34" fill="none" xmlns="http://www.w3.org/2000/svg" xmlns:xlink="http://www.w3.org/1999/xlink">
<path d="M34.914,16.161C34.914,16.912 34.626,17.639 34.087,18.165C33.56,18.704 32.833,19.005 32.082,19.005L20.752,19.005L20.752,30.33C20.752,31.081 20.452,31.808 19.913,32.334C19.386,32.86 18.672,33.161 17.92,33.161C17.168,33.161 16.441,32.86 15.915,32.334C15.376,31.808 15.075,31.081 15.075,30.33L15.075,19.005L3.746,19.005C2.994,19.005 2.267,18.704 1.741,18.165C1.215,17.639 0.914,16.912 0.914,16.161C0.914,15.409 1.215,14.695 1.741,14.156C2.267,13.63 2.994,13.33 3.746,13.33L15.075,13.33L15.075,2.005C15.075,1.253 15.376,0.526 15.915,0C16.441,-0.539 17.168,-0.839 17.92,-0.839C18.672,-0.839 19.386,-0.539 19.913,0C20.452,0.526 20.752,1.253 20.752,2.005L20.752,13.33L32.082,13.33C32.833,13.33 33.56,13.63 34.087,14.156C34.626,14.695 34.914,15.409 34.914,16.161Z" fill="#FFFFFF"/>
</svg>
