<svg width="36" height="6" viewBox="0 0 36 6" fill="none" xmlns="http://www.w3.org/2000/svg" xmlns:xlink="http://www.w3.org/1999/xlink">
<path d="M34.033,2.285C34.033,3.037 33.745,3.764 33.206,4.29C32.68,4.828 31.953,5.129 31.201,5.129L19.872,5.129L14.195,5.129L2.865,5.129C2.114,5.129 1.387,4.828 0.86,4.29C0.334,3.764 0.033,3.037 0.033,2.285C0.033,1.534 0.334,0.82 0.86,0.281C1.387,-0.245 2.114,-0.546 2.865,-0.546L14.195,-0.546L19.872,-0.546L31.201,-0.546C31.953,-0.546 32.68,-0.245 33.206,0.281C33.745,0.82 34.033,1.534 34.033,2.285Z" fill="#B3B3B3"/>
</svg>
