<svg width="78" height="94" viewBox="0 0 78 94" fill="none" xmlns="http://www.w3.org/2000/svg" xmlns:xlink="http://www.w3.org/1999/xlink">
<path d="M41.148,-0.045C27.026,-0.045 15.375,5.689 9.417,14.555C8.446,16.055 7.961,17.687 7.961,19.275C7.961,23.686 11.491,27.788 16.478,27.788C19.391,27.788 22.171,26.244 23.539,23.686C26.452,18.216 32.674,14.864 40.662,14.864C52.754,14.864 59.639,20.554 59.639,30.875L59.639,31.978C59.639,35.286 57.079,38.021 53.769,38.198L35.234,39.256C12.904,40.668 0.679,49.842 0.679,65.678C0.679,81.822 13.168,92.452 31.262,92.452C43.575,92.452 54.828,86.321 59.815,76.484L60.212,76.484L60.212,82.924C60.212,85.306 61.183,87.468 62.728,89.055C64.316,90.599 66.479,91.57 68.862,91.57C73.628,91.57 77.468,87.688 77.468,82.924L77.468,29.552C77.468,11.644 63.213,-0.045 41.148,-0.045ZM59.639,57.606C59.639,69.471 49.488,78.072 36.072,78.072C25.657,78.072 18.905,73.088 18.905,65.325C18.905,57.341 25.349,52.754 37.661,52.004L59.639,50.504L59.639,57.606Z" fill="#FFFFFF"/>
</svg>
