<svg width="20" height="36" viewBox="0 0 20 36" fill="none" xmlns="http://www.w3.org/2000/svg" xmlns:xlink="http://www.w3.org/1999/xlink">
<path d="M19.192,31.453C19.661,31.967 19.922,32.644 19.896,33.347C19.896,34.051 19.635,34.701 19.14,35.215C18.67,35.702 18.018,36 17.34,36C16.662,36 16.01,35.756 15.515,35.269L0.756,19.949C0.522,19.705 0.339,19.408 0.209,19.083C0.078,18.758 0,18.406 0,18.054C0,17.702 0.078,17.35 0.209,16.998C0.339,16.674 0.522,16.376 0.756,16.132L15.515,0.812C15.75,0.568 16.037,0.352 16.349,0.217C16.688,0.081 17.027,0 17.366,0C17.705,0 18.07,0.054 18.383,0.189C18.696,0.325 18.983,0.541 19.244,0.785C19.478,1.029 19.661,1.353 19.791,1.678C19.948,2.003 20,2.355 20,2.734C20,3.086 19.922,3.438 19.791,3.762C19.661,4.087 19.452,4.385 19.192,4.656L6.284,18.054L8.735,20.571L19.192,31.453Z" fill="#181725"/>
</svg>
