<svg width="24" height="32" viewBox="0 0 24 32" fill="none" xmlns="http://www.w3.org/2000/svg" xmlns:xlink="http://www.w3.org/1999/xlink">
<path d="M12.572,-0.111C8.228,-0.111 4.645,1.826 2.812,4.822C2.514,5.329 2.364,5.881 2.364,6.417C2.364,7.908 3.45,9.294 4.984,9.294C5.88,9.294 6.735,8.772 7.156,7.908C8.052,6.06 9.966,4.927 12.423,4.927C16.142,4.927 18.26,6.85 18.26,10.338L18.26,10.71C18.26,11.828 17.473,12.752 16.455,12.812L10.753,13.17C3.885,13.647 0.125,16.747 0.125,22.098C0.125,27.553 3.966,31.146 9.532,31.146C13.319,31.146 16.78,29.074 18.314,25.75L18.436,25.75L18.436,27.926C18.436,28.731 18.735,29.461 19.21,29.998C19.699,30.52 20.364,30.848 21.097,30.848C22.563,30.848 23.744,29.536 23.744,27.926L23.744,9.89C23.744,3.839 19.359,-0.111 12.572,-0.111ZM18.26,19.37C18.26,23.38 15.138,26.286 11.011,26.286C7.808,26.286 5.731,24.602 5.731,21.979C5.731,19.281 7.713,17.731 11.5,17.477L18.26,16.971L18.26,19.37Z" fill="#D9D9D9"/>
</svg>
