<svg width="36" height="24" viewBox="0 0 36 24" fill="none" xmlns="http://www.w3.org/2000/svg" xmlns:xlink="http://www.w3.org/1999/xlink">
<path d="M17.224,5.216C22.117,5.216 26.823,6.919 30.368,9.973C30.636,10.208 31.062,10.205 31.325,9.966L33.878,7.633C34.011,7.511 34.085,7.347 34.084,7.176C34.083,7.004 34.007,6.841 33.872,6.721C24.565,-1.358 9.882,-1.358 0.575,6.721C0.44,6.841 0.364,7.004 0.362,7.175C0.361,7.347 0.435,7.511 0.568,7.633L3.121,9.966C3.384,10.206 3.811,10.209 4.078,9.973C7.625,6.919 12.331,5.216 17.224,5.216ZM17.224,12.807C19.912,12.807 22.505,13.712 24.497,15.347C24.767,15.579 25.191,15.574 25.454,15.335L28.004,13.002C28.138,12.88 28.213,12.714 28.211,12.541C28.209,12.369 28.13,12.204 27.993,12.084C21.925,6.971 12.528,6.971 6.46,12.084C6.323,12.204 6.245,12.369 6.243,12.541C6.241,12.714 6.316,12.88 6.45,13.002L8.999,15.335C9.262,15.574 9.686,15.579 9.956,15.347C11.947,13.713 14.538,12.808 17.224,12.807ZM22.33,17.915C22.334,18.088 22.258,18.255 22.122,18.376L17.713,22.407C17.583,22.526 17.407,22.593 17.223,22.593C17.039,22.593 16.863,22.526 16.734,22.407L12.324,18.376C12.187,18.255 12.113,18.088 12.117,17.915C12.121,17.742 12.203,17.578 12.345,17.462C15.161,15.304 19.285,15.304 22.101,17.462C22.243,17.578 22.326,17.742 22.33,17.915Z" clip-rule="evenodd" fill-rule="evenodd" fill="#181725"/>
</svg>
