<svg width="34" height="24" viewBox="0 0 34 24" fill="none" xmlns="http://www.w3.org/2000/svg" xmlns:xlink="http://www.w3.org/1999/xlink">
<path d="M16.389,5.216C21.281,5.216 25.987,6.919 29.533,9.972C29.8,10.208 30.227,10.205 30.49,9.966L33.042,7.632C33.175,7.511 33.25,7.347 33.248,7.175C33.247,7.004 33.171,6.84 33.036,6.72C23.729,-1.359 9.046,-1.359 -0.261,6.72C-0.395,6.84 -0.472,7.004 -0.473,7.175C-0.474,7.346 -0.4,7.511 -0.267,7.632L2.286,9.966C2.549,10.206 2.976,10.209 3.243,9.972C6.789,6.919 11.495,5.216 16.389,5.216ZM16.389,12.807C19.077,12.807 21.669,13.712 23.662,15.346C23.931,15.578 24.356,15.573 24.619,15.335L27.168,13.002C27.302,12.879 27.377,12.713 27.375,12.541C27.373,12.368 27.295,12.204 27.158,12.084C21.09,6.971 11.693,6.971 5.625,12.084C5.487,12.204 5.409,12.368 5.407,12.541C5.406,12.714 5.48,12.88 5.615,13.002L8.164,15.335C8.426,15.573 8.851,15.578 9.121,15.346C11.112,13.713 13.702,12.808 16.389,12.807ZM21.494,17.915C21.498,18.088 21.423,18.255 21.286,18.376L16.877,22.407C16.748,22.526 16.572,22.592 16.388,22.592C16.204,22.592 16.028,22.526 15.898,22.407L11.488,18.376C11.352,18.254 11.277,18.088 11.281,17.915C11.285,17.742 11.368,17.578 11.51,17.462C14.326,15.304 18.45,15.304 21.266,17.462C21.408,17.578 21.49,17.742 21.494,17.915Z" clip-rule="evenodd" fill-rule="evenodd" fill="#000000"/>
</svg>
