<svg width="34" height="24" viewBox="0 0 34 24" fill="none" xmlns="http://www.w3.org/2000/svg" xmlns:xlink="http://www.w3.org/1999/xlink">
<path d="M17.091,5.216C21.984,5.216 26.689,6.919 30.235,9.972C30.502,10.208 30.929,10.205 31.192,9.966L33.745,7.632C33.878,7.511 33.952,7.347 33.951,7.175C33.95,7.004 33.873,6.84 33.739,6.72C24.432,-1.359 9.749,-1.359 0.442,6.72C0.307,6.84 0.231,7.004 0.229,7.175C0.228,7.346 0.302,7.511 0.435,7.632L2.988,9.966C3.251,10.206 3.678,10.209 3.945,9.972C7.492,6.919 12.198,5.216 17.091,5.216ZM17.091,12.807C19.779,12.807 22.372,13.712 24.364,15.346C24.634,15.578 25.058,15.573 25.321,15.335L27.871,13.002C28.005,12.879 28.079,12.713 28.077,12.541C28.075,12.368 27.997,12.204 27.86,12.084C21.792,6.971 12.395,6.971 6.327,12.084C6.19,12.204 6.112,12.368 6.11,12.541C6.108,12.714 6.183,12.88 6.317,13.002L8.866,15.335C9.129,15.573 9.553,15.578 9.823,15.346C11.814,13.713 14.405,12.808 17.091,12.807ZM22.196,17.915C22.2,18.088 22.125,18.255 21.989,18.376L17.58,22.407C17.45,22.526 17.274,22.592 17.09,22.592C16.906,22.592 16.73,22.526 16.601,22.407L12.191,18.376C12.054,18.254 11.979,18.088 11.983,17.915C11.988,17.742 12.07,17.578 12.212,17.462C15.028,15.304 19.152,15.304 21.968,17.462C22.11,17.578 22.193,17.742 22.196,17.915Z" clip-rule="evenodd" fill-rule="evenodd" fill="#000000"/>
</svg>
