<svg width="36" height="24" viewBox="0 0 36 24" fill="none" xmlns="http://www.w3.org/2000/svg" xmlns:xlink="http://www.w3.org/1999/xlink">
<path d="M17.664,4.884C22.556,4.884 27.262,6.587 30.808,9.64C31.075,9.876 31.502,9.873 31.765,9.634L34.317,7.3C34.45,7.179 34.525,7.014 34.523,6.843C34.522,6.672 34.446,6.508 34.311,6.388C25.004,-1.691 10.321,-1.691 1.014,6.388C0.88,6.508 0.803,6.672 0.802,6.843C0.801,7.014 0.875,7.179 1.008,7.3L3.561,9.634C3.824,9.873 4.251,9.876 4.518,9.64C8.064,6.586 12.77,4.883 17.664,4.884ZM17.664,12.475C20.352,12.475 22.944,13.38 24.937,15.014C25.206,15.246 25.631,15.241 25.894,15.003L28.443,12.67C28.577,12.547 28.652,12.381 28.65,12.209C28.648,12.036 28.57,11.871 28.433,11.752C22.365,6.639 12.967,6.639 6.899,11.752C6.762,11.871 6.684,12.036 6.682,12.209C6.681,12.381 6.755,12.547 6.89,12.67L9.439,15.003C9.701,15.241 10.126,15.246 10.395,15.014C12.387,13.381 14.977,12.476 17.664,12.475ZM22.769,17.582C22.773,17.755 22.698,17.922 22.561,18.044L18.152,22.075C18.023,22.193 17.847,22.26 17.663,22.26C17.479,22.26 17.303,22.193 17.173,22.075L12.763,18.044C12.627,17.922 12.552,17.755 12.556,17.582C12.56,17.409 12.643,17.245 12.784,17.13C15.601,14.972 19.725,14.972 22.541,17.13C22.683,17.246 22.765,17.409 22.769,17.582Z" clip-rule="evenodd" fill-rule="evenodd" fill="#000000"/>
</svg>
