<svg width="34" height="24" viewBox="0 0 34 24" fill="none" xmlns="http://www.w3.org/2000/svg" xmlns:xlink="http://www.w3.org/1999/xlink">
<path d="M16.025,5.216C20.917,5.216 25.623,6.919 29.169,9.972C29.436,10.208 29.863,10.205 30.126,9.966L32.678,7.632C32.812,7.511 32.886,7.347 32.885,7.175C32.884,7.004 32.807,6.84 32.672,6.72C23.365,-1.359 8.683,-1.359 -0.624,6.72C-0.759,6.84 -0.836,7.004 -0.837,7.175C-0.838,7.346 -0.764,7.511 -0.631,7.632L1.922,9.966C2.185,10.206 2.612,10.209 2.879,9.972C6.425,6.919 11.132,5.216 16.025,5.216ZM16.025,12.807C18.713,12.807 21.305,13.712 23.298,15.346C23.568,15.578 23.992,15.573 24.255,15.335L26.804,13.002C26.939,12.879 27.013,12.713 27.011,12.541C27.009,12.368 26.931,12.204 26.794,12.084C20.726,6.971 11.329,6.971 5.261,12.084C5.124,12.204 5.045,12.368 5.044,12.541C5.042,12.714 5.117,12.88 5.251,13.002L7.8,15.335C8.063,15.573 8.487,15.578 8.757,15.346C10.748,13.713 13.338,12.808 16.025,12.807ZM21.13,17.915C21.134,18.088 21.059,18.255 20.923,18.376L16.513,22.407C16.384,22.526 16.208,22.592 16.024,22.592C15.84,22.592 15.664,22.526 15.535,22.407L11.124,18.376C10.988,18.254 10.913,18.088 10.917,17.915C10.921,17.742 11.004,17.578 11.146,17.462C13.962,15.304 18.086,15.304 20.902,17.462C21.044,17.578 21.126,17.742 21.13,17.915Z" clip-rule="evenodd" fill-rule="evenodd" fill="#FFFFFF"/>
</svg>
