<svg width="36" height="24" viewBox="0 0 36 24" fill="none" xmlns="http://www.w3.org/2000/svg" xmlns:xlink="http://www.w3.org/1999/xlink">
<path d="M17.781,5.216C22.673,5.216 27.379,6.919 30.925,9.972C31.192,10.208 31.619,10.205 31.882,9.966L34.434,7.632C34.568,7.511 34.642,7.347 34.641,7.175C34.64,7.004 34.563,6.84 34.428,6.72C25.121,-1.359 10.439,-1.359 1.132,6.72C0.997,6.84 0.92,7.004 0.919,7.175C0.918,7.346 0.992,7.511 1.125,7.632L3.678,9.966C3.941,10.206 4.368,10.209 4.635,9.972C8.181,6.919 12.888,5.216 17.781,5.216ZM17.781,12.807C20.469,12.807 23.061,13.712 25.054,15.346C25.324,15.578 25.748,15.573 26.011,15.335L28.56,13.002C28.695,12.879 28.769,12.713 28.767,12.541C28.765,12.368 28.687,12.204 28.55,12.084C22.482,6.971 13.085,6.971 7.017,12.084C6.88,12.204 6.801,12.368 6.8,12.541C6.798,12.714 6.872,12.88 7.007,13.002L9.556,15.335C9.819,15.573 10.243,15.578 10.513,15.346C12.504,13.713 15.094,12.808 17.781,12.807ZM22.886,17.915C22.89,18.088 22.815,18.255 22.679,18.376L18.269,22.407C18.14,22.526 17.964,22.592 17.78,22.592C17.596,22.592 17.42,22.526 17.29,22.407L12.88,18.376C12.744,18.254 12.669,18.088 12.673,17.915C12.677,17.742 12.76,17.578 12.902,17.462C15.718,15.304 19.842,15.304 22.658,17.462C22.8,17.578 22.882,17.742 22.886,17.915Z" clip-rule="evenodd" fill-rule="evenodd" fill="#000000"/>
</svg>
