<svg width="36" height="24" viewBox="0 0 36 24" fill="none" xmlns="http://www.w3.org/2000/svg" xmlns:xlink="http://www.w3.org/1999/xlink">
<path d="M17.706,5.216C22.599,5.216 27.305,6.919 30.85,9.973C31.118,10.208 31.544,10.205 31.807,9.966L34.36,7.633C34.493,7.511 34.567,7.347 34.566,7.176C34.565,7.004 34.489,6.841 34.354,6.721C25.047,-1.358 10.364,-1.358 1.057,6.721C0.922,6.841 0.846,7.004 0.844,7.175C0.843,7.347 0.917,7.511 1.05,7.633L3.604,9.966C3.866,10.206 4.294,10.209 4.56,9.973C8.107,6.919 12.813,5.216 17.706,5.216ZM17.706,12.807C20.395,12.807 22.987,13.712 24.979,15.347C25.249,15.579 25.673,15.574 25.936,15.335L28.486,13.002C28.62,12.88 28.695,12.714 28.693,12.541C28.691,12.369 28.612,12.204 28.475,12.084C22.407,6.971 13.01,6.971 6.942,12.084C6.805,12.204 6.727,12.369 6.725,12.541C6.723,12.714 6.798,12.88 6.933,13.002L9.481,15.335C9.744,15.574 10.169,15.579 10.438,15.347C12.43,13.713 15.02,12.808 17.706,12.807ZM22.812,17.915C22.816,18.088 22.74,18.255 22.604,18.376L18.195,22.407C18.066,22.526 17.889,22.593 17.705,22.593C17.522,22.593 17.345,22.526 17.216,22.407L12.806,18.376C12.67,18.255 12.595,18.088 12.599,17.915C12.603,17.742 12.685,17.578 12.827,17.462C15.643,15.304 19.768,15.304 22.583,17.462C22.725,17.578 22.808,17.742 22.812,17.915Z" clip-rule="evenodd" fill-rule="evenodd" fill="#181725"/>
</svg>
