<svg width="34" height="24" viewBox="0 0 34 24" fill="none" xmlns="http://www.w3.org/2000/svg" xmlns:xlink="http://www.w3.org/1999/xlink">
<path d="M16.998,5.216C21.89,5.216 26.596,6.919 30.142,9.972C30.409,10.208 30.836,10.205 31.099,9.966L33.651,7.632C33.784,7.511 33.859,7.347 33.857,7.175C33.856,7.004 33.78,6.84 33.645,6.72C24.338,-1.359 9.655,-1.359 0.348,6.72C0.213,6.84 0.137,7.004 0.136,7.175C0.135,7.346 0.209,7.511 0.342,7.632L2.895,9.966C3.158,10.206 3.585,10.209 3.852,9.972C7.398,6.919 12.104,5.216 16.998,5.216ZM16.998,12.807C19.686,12.807 22.278,13.712 24.271,15.346C24.54,15.578 24.965,15.573 25.228,15.335L27.777,13.002C27.911,12.879 27.986,12.713 27.984,12.541C27.982,12.368 27.904,12.204 27.767,12.084C21.699,6.971 12.301,6.971 6.233,12.084C6.096,12.204 6.018,12.368 6.016,12.541C6.015,12.714 6.089,12.88 6.224,13.002L8.773,15.335C9.035,15.573 9.46,15.578 9.729,15.346C11.721,13.713 14.311,12.808 16.998,12.807ZM22.103,17.915C22.107,18.088 22.032,18.255 21.895,18.376L17.486,22.407C17.357,22.526 17.181,22.592 16.997,22.592C16.813,22.592 16.637,22.526 16.507,22.407L12.097,18.376C11.961,18.254 11.886,18.088 11.89,17.915C11.894,17.742 11.977,17.578 12.118,17.462C14.935,15.304 19.059,15.304 21.875,17.462C22.017,17.578 22.099,17.742 22.103,17.915Z" clip-rule="evenodd" fill-rule="evenodd" fill="#000000"/>
</svg>
