<svg width="34" height="24" viewBox="0 0 34 24" fill="none" xmlns="http://www.w3.org/2000/svg" xmlns:xlink="http://www.w3.org/1999/xlink">
<path d="M16.797,4.884C21.689,4.884 26.395,6.587 29.941,9.64C30.208,9.876 30.635,9.873 30.898,9.634L33.45,7.3C33.583,7.179 33.658,7.014 33.656,6.843C33.655,6.672 33.579,6.508 33.444,6.388C24.137,-1.691 9.454,-1.691 0.147,6.388C0.013,6.508 -0.064,6.672 -0.065,6.843C-0.066,7.014 0.008,7.179 0.141,7.3L2.694,9.634C2.957,9.873 3.384,9.876 3.651,9.64C7.197,6.586 11.903,4.883 16.797,4.884ZM16.797,12.475C19.485,12.475 22.077,13.38 24.07,15.014C24.339,15.246 24.764,15.241 25.027,15.003L27.576,12.67C27.71,12.547 27.785,12.381 27.783,12.209C27.781,12.036 27.703,11.871 27.566,11.752C21.498,6.639 12.101,6.639 6.032,11.752C5.895,11.871 5.817,12.036 5.815,12.209C5.814,12.381 5.888,12.547 6.023,12.67L8.572,15.003C8.834,15.241 9.259,15.246 9.529,15.014C11.52,13.381 14.11,12.476 16.797,12.475ZM21.902,17.582C21.906,17.755 21.831,17.922 21.694,18.044L17.285,22.075C17.156,22.193 16.98,22.26 16.796,22.26C16.612,22.26 16.436,22.193 16.306,22.075L11.896,18.044C11.76,17.922 11.685,17.755 11.689,17.582C11.693,17.409 11.776,17.245 11.918,17.13C14.734,14.972 18.858,14.972 21.674,17.13C21.816,17.246 21.898,17.409 21.902,17.582Z" clip-rule="evenodd" fill-rule="evenodd" fill="#000000"/>
</svg>
