<svg width="34" height="24" viewBox="0 0 34 24" fill="none" xmlns="http://www.w3.org/2000/svg" xmlns:xlink="http://www.w3.org/1999/xlink">
<path d="M16.778,5.216C21.67,5.216 26.376,6.919 29.922,9.972C30.189,10.208 30.616,10.205 30.879,9.966L33.431,7.632C33.564,7.511 33.639,7.347 33.637,7.175C33.636,7.004 33.56,6.84 33.425,6.72C24.118,-1.359 9.435,-1.359 0.128,6.72C-0.006,6.84 -0.083,7.004 -0.084,7.175C-0.085,7.346 -0.011,7.511 0.122,7.632L2.675,9.966C2.938,10.206 3.365,10.209 3.632,9.972C7.178,6.919 11.884,5.216 16.778,5.216ZM16.778,12.807C19.466,12.807 22.058,13.712 24.051,15.346C24.32,15.578 24.745,15.573 25.008,15.335L27.557,13.002C27.691,12.879 27.766,12.713 27.764,12.541C27.762,12.368 27.684,12.204 27.547,12.084C21.479,6.971 12.082,6.971 6.013,12.084C5.876,12.204 5.798,12.368 5.796,12.541C5.795,12.714 5.869,12.88 6.004,13.002L8.553,15.335C8.815,15.573 9.24,15.578 9.509,15.346C11.501,13.713 14.091,12.808 16.778,12.807ZM21.883,17.915C21.887,18.088 21.812,18.255 21.675,18.376L17.266,22.407C17.137,22.526 16.961,22.592 16.777,22.592C16.593,22.592 16.417,22.526 16.287,22.407L11.877,18.376C11.741,18.254 11.666,18.088 11.67,17.915C11.674,17.742 11.757,17.578 11.898,17.462C14.715,15.304 18.839,15.304 21.655,17.462C21.797,17.578 21.879,17.742 21.883,17.915Z" clip-rule="evenodd" fill-rule="evenodd" fill="#181725"/>
</svg>
