<svg width="36" height="24" viewBox="0 0 36 24" fill="none" xmlns="http://www.w3.org/2000/svg" xmlns:xlink="http://www.w3.org/1999/xlink">
<path d="M17.224,4.884C22.117,4.884 26.823,6.587 30.368,9.64C30.636,9.876 31.062,9.873 31.325,9.634L33.878,7.3C34.011,7.179 34.085,7.014 34.084,6.843C34.083,6.672 34.007,6.508 33.872,6.388C24.565,-1.691 9.882,-1.691 0.575,6.388C0.44,6.508 0.364,6.672 0.362,6.843C0.361,7.014 0.435,7.179 0.568,7.3L3.121,9.634C3.384,9.873 3.811,9.876 4.078,9.64C7.625,6.586 12.331,4.883 17.224,4.884ZM17.224,12.475C19.912,12.475 22.505,13.38 24.497,15.014C24.767,15.246 25.191,15.241 25.454,15.003L28.004,12.67C28.138,12.547 28.213,12.381 28.211,12.209C28.209,12.036 28.13,11.871 27.993,11.752C21.925,6.639 12.528,6.639 6.46,11.752C6.323,11.871 6.245,12.036 6.243,12.209C6.241,12.381 6.316,12.547 6.45,12.67L8.999,15.003C9.262,15.241 9.686,15.246 9.956,15.014C11.947,13.381 14.538,12.476 17.224,12.475ZM22.33,17.582C22.334,17.755 22.258,17.922 22.122,18.044L17.713,22.075C17.583,22.193 17.407,22.26 17.223,22.26C17.039,22.26 16.863,22.193 16.734,22.075L12.324,18.044C12.187,17.922 12.113,17.755 12.117,17.582C12.121,17.409 12.203,17.245 12.345,17.13C15.161,14.972 19.285,14.972 22.101,17.13C22.243,17.246 22.326,17.409 22.33,17.582Z" clip-rule="evenodd" fill-rule="evenodd" fill="#000000"/>
</svg>
