<svg width="34" height="24" viewBox="0 0 34 24" fill="none" xmlns="http://www.w3.org/2000/svg" xmlns:xlink="http://www.w3.org/1999/xlink">
<path d="M16.287,4.884C21.18,4.884 25.885,6.587 29.431,9.64C29.698,9.876 30.125,9.873 30.388,9.634L32.941,7.3C33.074,7.179 33.148,7.014 33.147,6.843C33.146,6.672 33.069,6.508 32.935,6.388C23.628,-1.691 8.945,-1.691 -0.362,6.388C-0.497,6.508 -0.573,6.672 -0.575,6.843C-0.576,7.014 -0.502,7.179 -0.369,7.3L2.184,9.634C2.447,9.873 2.874,9.876 3.141,9.64C6.688,6.586 11.394,4.883 16.287,4.884ZM16.287,12.475C18.975,12.475 21.568,13.38 23.56,15.014C23.83,15.246 24.254,15.241 24.517,15.003L27.067,12.67C27.201,12.547 27.275,12.381 27.273,12.209C27.271,12.036 27.193,11.871 27.056,11.752C20.988,6.639 11.591,6.639 5.523,11.752C5.386,11.871 5.308,12.036 5.306,12.209C5.304,12.381 5.379,12.547 5.513,12.67L8.062,15.003C8.325,15.241 8.749,15.246 9.019,15.014C11.01,13.381 13.601,12.476 16.287,12.475ZM21.392,17.582C21.396,17.755 21.321,17.922 21.185,18.044L16.776,22.075C16.646,22.193 16.47,22.26 16.286,22.26C16.102,22.26 15.926,22.193 15.797,22.075L11.387,18.044C11.25,17.922 11.175,17.755 11.18,17.582C11.184,17.409 11.266,17.245 11.408,17.13C14.224,14.972 18.348,14.972 21.164,17.13C21.306,17.246 21.389,17.409 21.392,17.582Z" clip-rule="evenodd" fill-rule="evenodd" fill="#000000"/>
</svg>
